<svg xmlns="http://www.w3.org/2000/svg" viewBox="0 0 240 235"><defs><style>.a{fill:#e4edf4;}</style></defs><path class="a" d="M42.5,0h155A42.59,42.59,0,0,1,240,42.68h0V192.32A42.59,42.59,0,0,1,197.5,235H42.5A42.59,42.59,0,0,1,0,192.32H0V42.68A42.59,42.59,0,0,1,42.5,0Z"/><path d="M195.06,135.39c28.18,9,33.15,29.22,33.15,43.35,0,27-17,44.75-38.27,44.8H50.06a38.43,38.43,0,0,1-33.48-19.69c-3.12-5.57-8.75-32.64,19.28-43.39,0-26.21,25.16-44.05,49.74-44.05C97.59,67.86,195.06,66.71,195.06,135.39Z"/></svg>