<svg xmlns="http://www.w3.org/2000/svg" viewBox="0 0 36 36"><defs><style>.a{fill:#013301;}.b{fill:#3f6;}</style></defs><path class="a" d="M7.06,1.37h22A6,6,0,0,1,35,7.43V28.57a6.06,6.06,0,0,1-6.06,6.06H7.06A6.06,6.06,0,0,1,1,28.57V7.43A6,6,0,0,1,7.06,1.37Z"/><path class="b" d="M6,24.5V10.12a.25.25,0,0,1,.25-.25h4.43a13.64,13.64,0,0,1,1.81.12,7.68,7.68,0,0,1,1.43.27,7.22,7.22,0,0,1,4.57,4.6,7.58,7.58,0,0,1-1.39,7.05,8,8,0,0,1-5.24,2.78,23.17,23.17,0,0,1-2.36.06H6.24A.26.26,0,0,1,6,24.5ZM9.07,12.42v9.67h1.39a6.7,6.7,0,0,0,2-.32A3.77,3.77,0,0,0,15,19.22a6.63,6.63,0,0,0,.32-2.12,6.46,6.46,0,0,0-.32-2,4.55,4.55,0,0,0-.95-1.49,3.9,3.9,0,0,0-1.6-.85,6.18,6.18,0,0,0-2-.32Z"/><path class="b" d="M23.1,13.87v.68a4,4,0,0,1,1.66-.91,5,5,0,0,1,2-.24,3.62,3.62,0,0,1,2.62,1.4A5.48,5.48,0,0,1,30.11,18v6.8a.21.21,0,0,1-.21.21H27.14a.24.24,0,0,1-.22-.21V18.16a2.57,2.57,0,0,0-.59-1.77A1.64,1.64,0,0,0,25,16a4,4,0,0,0-1,.27,3,3,0,0,0-.41.19c-.06,0-.36.21-.36.29v7.86a.21.21,0,0,1-.21.21H20.34a.23.23,0,0,1-.22-.21V13.84a.26.26,0,0,1,.26-.25h2.45A.25.25,0,0,1,23.1,13.87Z"/></svg>