<?xml version="1.0" encoding="utf-8"?>
<!-- Generator: Adobe Illustrator 24.2.0, SVG Export Plug-In . SVG Version: 6.00 Build 0)  -->
<svg version="1.1" id="ps_x5F_cc_x5F_app_x5F_RGB.svg"
	 xmlns="http://www.w3.org/2000/svg" xmlns:xlink="http://www.w3.org/1999/xlink" x="0px" y="0px" width="256px" height="249.6px"
	 viewBox="0 0 256 249.6" style="enable-background:new 0 0 256 249.6;" xml:space="preserve">
<style type="text/css">
	.st0{fill-rule:evenodd;clip-rule:evenodd;fill:#061E26;}
	.st1{fill-rule:evenodd;clip-rule:evenodd;fill:#26C9FF;}
	.st2{fill-rule:evenodd;clip-rule:evenodd;fill:#D9F5FF;}
</style>
<g>
	<rect class="st0" width="256" height="249.6"/>
	<path class="st1" d="M116.5,145.9l12.6,23.3c9.8-3.3,17.9-10.9,21.7-20.5l1.1-2.8H116.5z M118.2,122.2l-11.7-21.3
		c-9.7,3.3-17.6,11.6-21.4,21.1l0.3,0.2L118.2,122.2z M106.5,140.3l-11.9,20.8c6.2,5.4,14.1,9.1,22.9,9.1c1.8,0,4.2-0.3,5.9-0.5
		l0.2-0.3L106.5,140.3z M129,128.9l11.9-20.6c-6.2-5.4-14.3-8.7-23.1-8.7c-1.8,0-3.4,0.2-5.1,0.4l-0.2,0.4L129,128.9z M107.2,127.9
		h-24c-0.4,2.2-0.7,4.3-0.7,6.7c0,8.2,2.9,15.8,7.6,21.8l0.5,0.3L107.2,127.9z M128,140.4h24.3c0.4-2.2,0.5-3.8,0.5-6.2
		c0-8.3-2.9-15.5-7.7-21.4l-0.5-0.4L128,140.4z"/>
	<path class="st2" d="M97.4,50.8c-2.9,0-5.7,1.5-7,3.9l-58.1,97.9c-1.1,1.8-1.3,3.8-0.7,5.8c0.5,2,1.8,3.6,3.6,4.7l99.6,55.6
		c1.2,0.6,2.6,1,3.8,1c2.9,0,5.5-1.5,7-3.9l58.1-97.9c1.1-1.8,1.4-3.8,0.9-5.9c-0.5-2-1.8-3.6-3.6-4.7l-99.7-55.5
		C100.1,51.1,98.8,50.8,97.4,50.8z M138.6,223.9c-2.1,0-4.2-0.5-6-1.5L33,166.8c-2.9-1.6-4.8-4.2-5.7-7.3c-0.9-3.1-0.4-6.3,1.3-9.1
		l58.1-97.9c2.2-3.7,6.3-6,10.7-6c2.1,0,4.2,0.5,6,1.5l99.6,55.6c2.9,1.6,4.8,4.2,5.7,7.3c0.9,3.1,0.4,6.3-1.3,9.1l-58,97.9
		C147.1,221.5,142.9,223.9,138.6,223.9z"/>
</g>
</svg>
