<?xml version="1.0" encoding="UTF-8"?><svg id="Layer_1" xmlns="http://www.w3.org/2000/svg" viewBox="0 0 20 20"><g id="Surfaces"><g id="Developers"><g id="Outline_no_shadow_copy_3"><path d="M3.54,0h12.92c1.96,0,3.54,1.63,3.54,3.63v12.74c0,2.01-1.59,3.63-3.54,3.63H3.54C1.59,20,0,18.37,0,16.37V3.63C0,1.63,1.59,0,3.54,0Z" style="fill:#002258;"/></g></g></g><g id="Outlined_Mnemonics_Logos"><g id="Cf"><path d="M10.98,12.42v1.42c.01,.08-.03,.16-.11,.19-.26,.09-.54,.16-.81,.19-.35,.04-.7,.06-1.05,.06-.5,0-1-.06-1.48-.19-.45-.12-.89-.31-1.28-.56-.38-.25-.72-.56-.99-.93-.29-.38-.5-.82-.64-1.28-.16-.53-.24-1.09-.23-1.65,0-.93,.2-1.74,.59-2.44,.39-.7,.98-1.27,1.68-1.64,.72-.39,1.59-.58,2.59-.58,.35,0,.69,.01,1.04,.06,.24,.03,.48,.08,.7,.17,.05,.04,.08,.1,.07,.17v1.51c0,.08-.03,.11-.09,.08-.25-.12-.52-.2-.79-.24-.32-.05-.65-.08-.98-.08-.6,0-1.11,.12-1.54,.37-.42,.24-.76,.59-.99,1.03-.24,.48-.36,1.01-.35,1.55,0,.38,.05,.76,.17,1.13,.1,.31,.26,.59,.46,.84,.19,.23,.41,.42,.67,.56,.25,.14,.52,.24,.8,.31,.27,.07,.55,.1,.83,.1,.3,0,.6-.01,.91-.04,.25-.03,.5-.08,.74-.17,.04-.03,.06-.03,.08-.02,.02,.02,.03,.06,.03,.09Z" style="fill:#79aafc;"/><path d="M12.47,8.89h-.81c-.06,0-.09-.04-.09-.1v-1.4s.03-.09,.07-.1c0,0,.02,0,.02,0h.81v-.22c0-.29,.02-.58,.07-.86,.04-.24,.11-.47,.21-.69,.17-.37,.44-.69,.76-.92,.33-.24,.77-.36,1.31-.36,.13,0,.26,0,.39,.02,.11,.01,.21,.04,.31,.08,.06,.02,.1,.08,.09,.14v1.36c0,.06-.04,.09-.11,.07-.07,0-.13-.01-.2-.01h-.2c-.15,0-.29,.03-.42,.1-.13,.07-.22,.19-.27,.32-.07,.2-.09,.4-.09,.61v.37h1.13c.05,0,.09,0,.1,.03,.02,.02,.02,.05,.02,.08v1.39c0,.06-.04,.1-.12,.1h-1.13v5.12s0,.06-.02,.08c-.01,.03-.05,.04-.1,.04h-1.64c-.07,0-.11-.04-.11-.12v-5.12Z" style="fill:#79aafc;"/></g></g></svg>