<svg xmlns="http://www.w3.org/2000/svg" viewBox="0 0 36 36"><defs><style>.a{fill:#1e3101;}.b{fill:#99e83f;}</style></defs><rect class="a" x="0.01" y="0.46" width="35.98" height="35.08" rx="6.37"/><path class="b" d="M6.62,25V9.66a.17.17,0,0,1,.16-.19h0c.24,0,.59,0,1.06,0l1.64,0h2a10.35,10.35,0,0,1,4.8,1,6.68,6.68,0,0,1,2.86,2.71,8.12,8.12,0,0,1,.95,4,9,9,0,0,1-.49,3.08,7.12,7.12,0,0,1-1.35,2.3,7.94,7.94,0,0,1-1.95,1.61A8.77,8.77,0,0,1,14,25a10.06,10.06,0,0,1-2.44.3H8c-.55,0-1,0-1.24,0C6.67,25.25,6.62,25.17,6.62,25ZM10,12.36v10h.48l.45,0,.52,0a6.81,6.81,0,0,0,2.15-.34,4.36,4.36,0,0,0,1.65-1,4.62,4.62,0,0,0,1.06-1.66,6.37,6.37,0,0,0,.38-2.25A5.66,5.66,0,0,0,16.27,15a3.89,3.89,0,0,0-1-1.52,4.13,4.13,0,0,0-1.64-.9,7,7,0,0,0-2.08-.29h-.81l-.74,0Z"/><path class="b" d="M29.6,16.4a5.38,5.38,0,0,0-1.44-.51,7.27,7.27,0,0,0-1.68-.19,3,3,0,0,0-.9.1.8.8,0,0,0-.47.31.73.73,0,0,0-.12.41.59.59,0,0,0,.14.38,1.65,1.65,0,0,0,.51.4,10.25,10.25,0,0,0,1.06.5A10.85,10.85,0,0,1,29,18.89a3.54,3.54,0,0,1,1.18,1.25,3.31,3.31,0,0,1,.35,1.54,3.51,3.51,0,0,1-.58,2A3.74,3.74,0,0,1,28.28,25a6.78,6.78,0,0,1-2.71.48,9.28,9.28,0,0,1-2-.19,5.69,5.69,0,0,1-1.46-.48.31.31,0,0,1-.17-.29V21.92a.14.14,0,0,1,.06-.13.12.12,0,0,1,.13,0,6.1,6.1,0,0,0,1.79.74,8,8,0,0,0,1.76.23,2.61,2.61,0,0,0,1.24-.22.68.68,0,0,0,.4-.63.79.79,0,0,0-.36-.6,5.91,5.91,0,0,0-1.47-.7,8.64,8.64,0,0,1-2.14-1.09,3.69,3.69,0,0,1-1.13-1.26,3.31,3.31,0,0,1-.35-1.54,3.41,3.41,0,0,1,.5-1.81,3.65,3.65,0,0,1,1.57-1.37A5.84,5.84,0,0,1,26.56,13a11.64,11.64,0,0,1,1.86.13,4.24,4.24,0,0,1,1.25.35.24.24,0,0,1,.15.13,1.1,1.1,0,0,1,0,.18v2.44a.18.18,0,0,1-.07.15A.17.17,0,0,1,29.6,16.4Z"/></svg>