<svg xmlns="http://www.w3.org/2000/svg" viewBox="0 0 240 234"><defs><style>.a{fill:#061e26;}.b{fill:#26c9ff;}.b,.c{fill-rule:evenodd;}.c{fill:#d9f5ff;}</style></defs><rect class="a" width="240" height="234" rx="42.58"/><path class="b" d="M118.92,127.31l11.81,21.85a33.56,33.56,0,0,0,20.35-19.22l1-2.63Zm1.6-22.22-11-20c-9.1,3.1-16.5,10.88-20.07,19.79l.29.18Zm-11,17-11.16,19.5a32.8,32.8,0,0,0,21.47,8.53,54.72,54.72,0,0,0,5.53-.46l.19-.29Zm21.09-10.69L141.8,92.06a33,33,0,0,0-21.66-8.15,38.89,38.89,0,0,0-4.78.37l-.19.38Zm-20.44-.93H87.7a34.34,34.34,0,0,0-.65,6.28,33.21,33.21,0,0,0,7.12,20.44l.47.28Zm19.5,11.72h22.78a29,29,0,0,0,.47-5.82,31.25,31.25,0,0,0-7.22-20.06l-.46-.37Z"/><path class="c" d="M100.69,37.88a7.46,7.46,0,0,0-6.56,3.65L39.66,133.31a6.56,6.56,0,0,0-.66,5.44,7.21,7.21,0,0,0,3.38,4.41l93.37,52.12a8.48,8.48,0,0,0,3.56.94,7.73,7.73,0,0,0,6.57-3.66l54.46-91.78a7.09,7.09,0,0,0,.85-5.53,7.26,7.26,0,0,0-3.38-4.41l-93.47-52A7.11,7.11,0,0,0,100.69,37.88Zm38.62,162.28a11.6,11.6,0,0,1-5.62-1.41L40.31,146.63A11.14,11.14,0,0,1,35,139.78a10.55,10.55,0,0,1,1.22-8.53L90.66,39.47a11.8,11.8,0,0,1,15.65-4.22l93.38,52.12A11.14,11.14,0,0,1,205,94.22a10.54,10.54,0,0,1-1.22,8.53l-54.37,91.78A12.31,12.31,0,0,1,139.31,200.16Z"/></svg>