<svg xmlns="http://www.w3.org/2000/svg" viewBox="0 0 240 234"><defs><style>.cls-1{fill:#001e36;}.cls-2{fill:#31a8ff;}</style></defs><title>Asset 120</title><g id="Layer_2" data-name="Layer 2"><g id="Surfaces"><g id="Photo_Surface" data-name="Photo Surface"><g id="Outline_no_shadow" data-name="Outline no shadow"><rect class="cls-1" width="240" height="234" rx="42.5"/></g></g></g><g id="Outlined_Mnemonics_Logos" data-name="Outlined Mnemonics &amp; Logos"><g id="PsC"><path class="cls-2" d="M83.76307,71.34289A31.83047,31.83047,0,0,0,71.67091,63.1362q-7.53095-3.055-18.53769-3.05709-4.056,0-8.1824.08064-4.12738.08218-7.82055.16024-3.69317.0822-6.87975.16128c-2.12456.0548-3.81274-.17994-5.3555-.17994-.57869,0-.86921.37839-.86921,1.1269V163.8374c0,.85913.337,1.54068,1.01421,1.54068l17.52055.005q1.30342,0,1.3042-1.44739V132.65221q2.60762,0,3.91.08064,1.30342.0822,4.48949.07961a52.47425,52.47425,0,0,0,20.27585-3.78079,30.84636,30.84636,0,0,0,14.48164-12.14876q5.35638-8.36487,5.35948-21.24146a41.409,41.409,0,0,0-2.02841-12.95413A32.04937,32.04937,0,0,0,83.76307,71.34289ZM69.86039,106.42243a15.57362,15.57362,0,0,1-7.38634,5.31088,31.01189,31.01189,0,0,1-10.354,1.6097h-4.78q-1.595,0-3.47528-.16128V79.87111a35.26634,35.26634,0,0,1,3.69239-.24088q2.67973-.07909,6.15579-.08064a24.45909,24.45909,0,0,1,10.57189,2.01187,13.92663,13.92663,0,0,1,6.29924,5.712,17.66752,17.66752,0,0,1,2.101,8.85079Q72.68512,102.72435,69.86039,106.42243Z"/><path class="cls-2" d="M139.08485,123.4003a60.58967,60.58967,0,0,0-13.83135-7.32172,58.06241,58.06241,0,0,1-6.37264-3.3,10.10392,10.10392,0,0,1-3.04081-2.65492,4.57225,4.57225,0,0,1-.86921-2.57429,5.48814,5.48814,0,0,1,.72421-2.73556,4.88085,4.88085,0,0,1,2.82474-2.01187,16.98778,16.98778,0,0,1,5.43-.7237,41.41962,41.41962,0,0,1,10.06607,1.28715,29.72059,29.72059,0,0,1,8.34624,3.37965.87006.87006,0,0,0,1.01343,0,1.12223,1.12223,0,0,0,.43525-.96562V89.52727a4.92328,4.92328,0,0,0-.14525-1.20754,1.39069,1.39069,0,0,0-.869-.885,23.12022,23.12022,0,0,0-7.26043-2.33339,63.60354,63.60354,0,0,0-11.15058-.885q-9.55936,0-15.93162,3.5399a23.05021,23.05021,0,0,0-9.41345,9.17231,25.02384,25.02384,0,0,0-3.04184,12.06916,24.24571,24.24571,0,0,0,2.10026,10.21753,23.91722,23.91722,0,0,0,6.80635,8.44861,51.52811,51.52811,0,0,0,12.81817,7.24108q6.65863,2.73867,8.83373,4.6668a5.46479,5.46479,0,0,1,2.17263,4.0227,4.61732,4.61732,0,0,1-2.39026,4.184q-2.38974,1.44843-7.4587,1.44842a41.64158,41.64158,0,0,1-10.57214-1.52906,34.49612,34.49612,0,0,1-10.81461-4.81.92952.92952,0,0,0-.98058.10336.98623.98623,0,0,0-.36081.885v17.379a2.01254,2.01254,0,0,0,1.19717,1.74723,33.6538,33.6538,0,0,0,8.85985,3.12065,53.24889,53.24889,0,0,0,12.23742,1.28714q9.70008,0,16.29243-3.21837a23.49625,23.49625,0,0,0,10.06581-8.93039,25.02829,25.02829,0,0,0,3.47606-13.27669,24.12864,24.12864,0,0,0-2.10078-10.29817A22.54973,22.54973,0,0,0,139.08485,123.4003Z"/><path class="cls-2" d="M214.75022,70.60112a25.83389,25.83389,0,0,0-6.67765-1.70558,75.39944,75.39944,0,0,0-10.19685-.58619c-9.80813,0-18.388,2.10233-25.50092,6.24858a42.56967,42.56967,0,0,0-16.555,17.51031c-3.85522,7.44733-5.81023,16.20145-5.81023,26.01991a63.59565,63.59565,0,0,0,2.24138,17.56717,46.14945,46.14945,0,0,0,6.353,13.67058,40.59588,40.59588,0,0,0,9.81019,9.9415,41.323,41.323,0,0,0,12.65638,6.03819,53.131,53.131,0,0,0,14.58865,1.98137,76.41,76.41,0,0,0,10.325-.65856,32.87532,32.87532,0,0,0,8.05575-2.0005,2.55936,2.55936,0,0,0,1.4629-2.65854V147.05247a1.80327,1.80327,0,0,0-.50762-1.467c-.2502-.20729-.78056-.4549-1.56008.14267A28.74187,28.74187,0,0,1,206.468,147.388a78.82911,78.82911,0,0,1-8.72259.43008,30.76185,30.76185,0,0,1-7.84071-1.06279,29.61771,29.61771,0,0,1-7.58121-3.18529,22.357,22.357,0,0,1-6.323-5.76526,28.55747,28.55747,0,0,1-4.38972-8.62954,38.36437,38.36437,0,0,1-1.5973-11.667,35.99277,35.99277,0,0,1,3.31763-15.99054,25.412,25.412,0,0,1,9.39562-10.5127,27.1741,27.1741,0,0,1,14.62793-3.8056,53.422,53.422,0,0,1,9.39355.78573,23.36188,23.36188,0,0,1,7.18113,2.3998,1.26056,1.26056,0,0,0,1.2799.00931,1.72373,1.72373,0,0,0,.60894-1.49443V72.96811A2.56436,2.56436,0,0,0,214.75022,70.60112Z"/></g></g></g></svg>