<svg xmlns="http://www.w3.org/2000/svg" xmlns:xlink="http://www.w3.org/1999/xlink" viewBox="0 0 240 235"><defs><style>.a{fill:#fff;}.b{fill:url(#a);}.c{fill:url(#b);}</style><linearGradient id="a" x1="157.18" y1="206.01" x2="157.18" y2="99.14" gradientUnits="userSpaceOnUse"><stop offset="0" stop-color="#ff0205"/><stop offset="0.5" stop-color="#ffbb13"/><stop offset="0.8" stop-color="#6bd94a"/><stop offset="1" stop-color="#2b90ff"/></linearGradient><linearGradient id="b" x1="33.61" y1="91.32" x2="169.64" y2="91.32" gradientUnits="userSpaceOnUse"><stop offset="0" stop-color="#ff0205"/><stop offset="0.5" stop-color="#d863fd"/><stop offset="1" stop-color="#2b90ff"/></linearGradient></defs><path class="a" d="M42.5,0h155A42.59,42.59,0,0,1,240,42.68h0V192.32A42.59,42.59,0,0,1,197.5,235H42.5A42.59,42.59,0,0,1,0,192.32H0V42.68A42.59,42.59,0,0,1,42.5,0Z"/><path class="b" d="M203,205.65c-7.91-2.93-18.26-6.77-27.11-10-5.54,2-12.87,4.14-19.2,4.14h-.08c-30.37-.1-55.12-21.39-56.36-48.47-.62-13.63,4.76-26.51,15.17-36.28,10.13-9.5,24.06-15.11,39.22-15.81,31.51-1.44,58.22,20.07,59.49,48h0c.51,11.19-4,22.05-13.37,32.31,2.22,4.54,5.89,12.19,9,18.73A5.44,5.44,0,0,1,203,205.65Zm-25.08-21,16,5.88c-.92-1.92-3.15-6.47-4.73-9.71a5.49,5.49,0,0,1,1.09-6.33h0c9.08-8.95,13.29-17.73,12.87-26.85h0c-1-21.82-22.51-38.61-48-37.46-12.54.57-24,5.14-32.19,12.85-8,7.52-12.19,17.38-11.71,27.75,1,21.21,20.91,37.89,45.4,38h.06c4.53,0,13.3-2.81,17.22-4.15A6,6,0,0,1,177.91,184.67Z"/><path class="c" d="M161,87.56a2,2,0,0,1-2-1.88c-.45-11.45-5.27-21.83-14-30.12-10.72-10.15-26.32-16-42.33-16-1.24,0-2.5,0-3.75.11C66.81,41.51,43.49,62,44.65,87.39c.43,9.4,5.15,19.55,12.59,27.49.58.62,2.32,2.21,3.94,3.67a5.51,5.51,0,0,1,1.11,6.77c-2.24,4-5.62,10.05-7,12.58,5.89-2.32,17.63-7,22.22-8.87a5.1,5.1,0,0,1,3.81-.22,53.18,53.18,0,0,0,9.62,2.29,2,2,0,0,1,1.66,2.18l-.68,6.62a2,2,0,0,1-2.2,1.78,66.34,66.34,0,0,1-9.89-1.7c-7.55,3.06-23.22,9.21-34.72,13.7A5.44,5.44,0,0,1,38.34,146c4.11-7.56,9.07-16.66,12.19-22.26-10.06-10-16.29-23.18-16.87-35.88-1.44-31.55,26.33-57,64.6-59.2,20.26-1.18,40,6.46,54.28,18.89,15.41,13.46,17,31.83,17.1,37.78a2,2,0,0,1-1.92,2C166,87.44,163.32,87.53,161,87.56Z"/></svg>