<svg xmlns="http://www.w3.org/2000/svg" viewBox="0 0 36 36"><defs><style>.a{fill:#00005b;}.b{fill:#99f;}</style></defs><path class="a" d="M7.05,1.44H29a6,6,0,0,1,6,6V28.53a6,6,0,0,1-6,6H7.05a6,6,0,0,1-6-6V7.47A6,6,0,0,1,7.05,1.44Z"/><path class="b" d="M9.69,24.61V10.11c0-.1,0-.21.11-.21h4.44a7.33,7.33,0,0,1,2.86.43,4.18,4.18,0,0,1,2,1.16,4.15,4.15,0,0,1,1.06,1.59,5.38,5.38,0,0,1,.32,1.8,5.15,5.15,0,0,1-.85,3,5,5,0,0,1-2.22,1.69,11,11,0,0,1-3.18.53H12.87v4.45a.38.38,0,0,1-.11.21H9.9C9.8,24.83,9.69,24.72,9.69,24.61Zm3.18-11.95v4.65h1.27a7.69,7.69,0,0,0,1.58-.21,2.75,2.75,0,0,0,1.17-.74,2.06,2.06,0,0,0,.42-1.48A2.69,2.69,0,0,0,17,13.61a3.52,3.52,0,0,0-.95-.85,4.42,4.42,0,0,0-1.69-.32H13.4C13.08,12.44,13,12.66,12.87,12.66Z"/><path class="b" d="M21.76,21.86v-13A.23.23,0,0,1,22,8.63h2.75a.23.23,0,0,1,.21.21V21.55a.93.93,0,0,0,.21.63.8.8,0,0,0,.53.21h.53v2.22l-.1.11a1.12,1.12,0,0,1-.53.11c-.32,0-.53.1-.85.1a6.86,6.86,0,0,1-1.48-.21,2.33,2.33,0,0,1-1.06-.95A3.19,3.19,0,0,1,21.76,21.86Z"/></svg>