<?xml version="1.0" encoding="utf-8"?>
<!-- Generator: Adobe Illustrator 24.2.0, SVG Export Plug-In . SVG Version: 6.00 Build 0)  -->
<svg version="1.1" id="ps_x5F_cc_x5F_app_x5F_RGB.svg"
	 xmlns="http://www.w3.org/2000/svg" xmlns:xlink="http://www.w3.org/1999/xlink" x="0px" y="0px" width="256px" height="249.6px"
	 viewBox="0 0 256 249.6" style="enable-background:new 0 0 256 249.6;" xml:space="preserve">
<style type="text/css">
	.st0{fill-rule:evenodd;clip-rule:evenodd;fill:#28092E;}
	.st1{fill-rule:evenodd;clip-rule:evenodd;fill:#F9D9FF;}
	.st2{fill-rule:evenodd;clip-rule:evenodd;fill:#E873FF;}
</style>
<g>
	<rect class="st0" width="256" height="249.6"/>
	<path class="st1" d="M97.4,50.8c-2.9,0-5.7,1.5-7,3.9l-58.1,97.9c-1.1,1.8-1.3,3.8-0.7,5.8c0.5,2,1.8,3.6,3.6,4.7l99.6,55.6
		c1.2,0.6,2.6,1,3.8,1c2.9,0,5.5-1.5,7-3.9l58.1-97.9c1.1-1.8,1.4-3.8,0.9-5.9c-0.5-2-1.8-3.6-3.6-4.7l-99.7-55.5
		C100.1,51.1,98.8,50.8,97.4,50.8z M138.6,223.9c-2.1,0-4.2-0.5-6-1.5L33,166.8c-2.9-1.6-4.8-4.2-5.7-7.3c-0.9-3.1-0.4-6.3,1.3-9.1
		l58.1-97.9c2.2-3.7,6.3-6,10.7-6c2.1,0,4.2,0.5,6,1.5l99.6,55.6c2.9,1.6,4.8,4.2,5.7,7.3c0.9,3.1,0.4,6.3-1.3,9.1l-58,97.9
		C147.1,221.5,142.9,223.9,138.6,223.9z"/>
	<path class="st2" d="M117.8,97.6c-20.4,0-36.9,16.5-36.9,36.9s16.5,36.9,36.9,36.9s36.9-16.5,36.9-36.9S138.1,97.6,117.8,97.6z
		 M137.8,137l-32.5,17.5c-2.1,1.3-3.8,0.2-3.9-2.2v-35.1c0-2.5,1.7-3.5,3.9-2.2l32.5,17.6C140.1,133.8,140.1,135.8,137.8,137z"/>
</g>
</svg>
