<svg id="Layer_1" data-name="Layer 1" xmlns="http://www.w3.org/2000/svg" viewBox="0 0 36 36"><defs><style>.cls-1{fill:#00005b;}.cls-2{fill:#99f;}</style></defs><title>Artboard 1</title><g id="Layer_2" data-name="Layer 2"><g id="Surfaces"><g id="Video_Audio_Surface" data-name="Video Audio Surface"><g id="Outline_no_shadow" data-name="Outline no shadow"><path class="cls-1" d="M6.375.5h23.25A6.36593,6.36593,0,0,1,36,6.85684V29.14316A6.36593,6.36593,0,0,1,29.625,35.5H6.375A6.36593,6.36593,0,0,1,0,29.14316V6.85684A6.36593,6.36593,0,0,1,6.375.5Z"/></g></g></g><g id="Outlined_Mnemonics_Logos" data-name="Outlined Mnemonics Logos"><g id="An"><path class="cls-2" d="M14.55647,21.44017H8.97783L7.83218,24.95029a.284.284,0,0,1-.28982.21674H4.71682q-.24169,0-.16905-.2649l4.85008-13.801c.04834-.14446.0966-.27323.14495-.458a5.14311,5.14311,0,0,0,.0966-.97525.14939.14939,0,0,1,.16905-.1686h3.83979q.16877,0,.19322.12043l5.462,15.30647q.07241.241-.14494.24083H16.019a.22319.22319,0,0,1-.24148-.16857ZM9.85672,18.47h3.8157q-.14491-.48142-.33809-1.08367-.19357-.60165-.41052-1.28835-.21742-.68628-.43477-1.37263t-.39843-1.32447q-.18117-.63774-.326-1.16791h-.02417a19.4165,19.4165,0,0,1-.50713,1.92647q-.33849,1.08367-.68833,2.21547Q10.19461,17.50713,9.85672,18.47Z"/><path class="cls-2" d="M20.994,24.93783v-8.876q0-.40917-.012-.91507-.01253-.50568-.03625-.96324c-.01626-.30481-.03245-.58791-.04827-.76476a.1427.1427,0,0,1,.0241-.1445.19737.19737,0,0,1,.14494-.04816H23.4772a.54113.54113,0,0,1,.24156.04816.22685.22685,0,0,1,.1207.16857q.04812.14449.10869.3251a2.46482,2.46482,0,0,1,.08452.48782,4.8552,4.8552,0,0,1,1.5939-.92713,5.50035,5.50035,0,0,1,1.81128-.301,4.60593,4.60593,0,0,1,1.41277.22878,3.56418,3.56418,0,0,1,2.28215,2.21547,6.73288,6.73288,0,0,1,.33621,2.396v7.06988q0,.21675-.19321.21673l-2.82191.02493a.21284.21284,0,0,1-.24148-.24083V18.23094a3.31219,3.31219,0,0,0-.29158-1.30212,1.72174,1.72174,0,0,0-.61582-.74651,1.82137,1.82137,0,0,0-1.02634-.2649,3.01236,3.01236,0,0,0-1.135.20468,2.86407,2.86407,0,0,0-.89355.5659v8.24984q0,.21675-.19322.21673H21.21135a.19165.19165,0,0,1-.21738-.21673Z"/></g></g></g></svg>