<svg xmlns="http://www.w3.org/2000/svg" viewBox="0 0 36 36"><defs><style>.a,.b{fill-rule:evenodd;}.b{fill:#fff;}</style></defs><path class="a" d="M29.75,1.12H6.25A6.25,6.25,0,0,0,0,7.38H0V28.62a6.25,6.25,0,0,0,6.25,6.26h23.5A6.25,6.25,0,0,0,36,28.62h0V7.38a6.25,6.25,0,0,0-6.25-6.26Z"/><path class="b" d="M28.11,11.36c0,.11-.06.15-.19.12l-.36,0H27.2a1.76,1.76,0,0,0-.76.17,1.06,1.06,0,0,0-.49.57,2.82,2.82,0,0,0-.23,1.07v.62h2c.1,0,.16,0,.18,0a.23.23,0,0,1,0,.14v2.46c0,.11-.07.17-.22.17h-2v8.92a.33.33,0,0,1,0,.14s-.08.08-.18.08H22.63c-.13,0-.19-.08-.19-.22V16.7H21c-.12,0-.17-.07-.17-.17V14.05a.14.14,0,0,1,.12-.17h1.53v-.35A7.63,7.63,0,0,1,22.56,12,4.45,4.45,0,0,1,23,10.8a4.14,4.14,0,0,1,1.37-1.62,4,4,0,0,1,2.37-.62,5.47,5.47,0,0,1,.7,0,2.68,2.68,0,0,1,.56.13.25.25,0,0,1,.16.25Z"/><path class="b" d="M18.41,18.58A5,5,0,0,1,16,20.4a9.72,9.72,0,0,1-3.38.57h-.75c-.14,0-.42,0-.71,0v4.68a.21.21,0,0,1-.16.22h-.06l-2.89,0c-.11,0-.16-.07-.16-.2V10.29c0-.11,0-.17.14-.17H9l1.15,0,1.3,0h1.36a9.23,9.23,0,0,1,3.09.46,5.45,5.45,0,0,1,2,1.23A4.7,4.7,0,0,1,19,13.45a5.58,5.58,0,0,1,.34,1.94A5.39,5.39,0,0,1,18.41,18.58Z"/><path class="a" d="M14.62,13.28A4.6,4.6,0,0,0,12.86,13l-1,0a5.08,5.08,0,0,0-.67.07v5c.21,0,.46,0,.64,0h.79a5.94,5.94,0,0,0,1.73-.25A2.52,2.52,0,0,0,15.55,17,2.27,2.27,0,0,0,16,15.46a2.31,2.31,0,0,0-.35-1.33A2.25,2.25,0,0,0,14.62,13.28Z"/></svg>