<svg xmlns="http://www.w3.org/2000/svg" viewBox="0 0 240 234"><defs><style>.a{fill:#28092e;}.b{fill:#f9d9ff;}.b,.c{fill-rule:evenodd;}.c{fill:#e873ff;}</style></defs><rect class="a" width="240" height="234" rx="42.58"/><path class="b" d="M100.69,37.88a7.46,7.46,0,0,0-6.56,3.65L39.66,133.31a6.56,6.56,0,0,0-.66,5.44,7.21,7.21,0,0,0,3.38,4.41l93.37,52.12a8.48,8.48,0,0,0,3.56.94,7.73,7.73,0,0,0,6.57-3.66l54.46-91.78a7.09,7.09,0,0,0,.85-5.53,7.26,7.26,0,0,0-3.38-4.41l-93.47-52A7.11,7.11,0,0,0,100.69,37.88Zm38.62,162.28a11.6,11.6,0,0,1-5.62-1.41L40.31,146.63A11.14,11.14,0,0,1,35,139.78a10.55,10.55,0,0,1,1.22-8.53L90.66,39.47a11.8,11.8,0,0,1,15.65-4.22l93.38,52.12A11.14,11.14,0,0,1,205,94.22a10.54,10.54,0,0,1-1.22,8.53l-54.37,91.78A12.31,12.31,0,0,1,139.31,200.16Z"/><path class="c" d="M119.81,81.75a34.6,34.6,0,1,0,34.6,34.59A34.57,34.57,0,0,0,119.81,81.75Zm18.75,36.94-30.47,16.4c-2,1.22-3.56.19-3.65-2.06v-32.9c0-2.35,1.59-3.29,3.65-2.07l30.47,16.5C140.72,115.69,140.72,117.56,138.56,118.69Z"/></svg>