<svg xmlns="http://www.w3.org/2000/svg" viewBox="0 0 240 235"><defs><style>.a{fill:#dbdcdd;}.b{fill:#510f17;}</style></defs><path class="a" d="M42.5,0h155A42.59,42.59,0,0,1,240,42.68V192.32A42.59,42.59,0,0,1,197.5,235H42.5A42.59,42.59,0,0,1,0,192.32V42.68A42.59,42.59,0,0,1,42.5,0Z"/><path class="b" d="M115.61,144.22l28,48.57a78,78,0,0,0,50-48.57ZM120,40.43a77,77,0,0,0-14.29,1.32l39.16,67.86,28-48.51A77.72,77.72,0,0,0,120,40.43Zm59.23,27.35-39,67.57H196.1A77.83,77.83,0,0,0,179.23,67.78Zm-83.6,59.57L67.45,176.1A78,78,0,0,0,134.73,195ZM43.85,101.56A77.7,77.7,0,0,0,61.06,169.4l39.15-67.85ZM96.7,44a78.09,78.09,0,0,0-50.28,48.7h78.45Z"/></svg>