<svg xmlns="http://www.w3.org/2000/svg" viewBox="0 0 36 36"><defs><style>.a{fill:#000b1d;}.b{fill:#0acf83;}.c{fill:#a259ff;}.d{fill:#f24e1e;}.e{fill:#ff7262;}.f{fill:#1abcfe;}</style></defs><path class="a" d="M6.38.45H29.63A6.38,6.38,0,0,1,36,6.82V29.17a6.37,6.37,0,0,1-6.37,6.37H6.38A6.38,6.38,0,0,1,0,29.17V6.82A6.38,6.38,0,0,1,6.38.45Z"/><path class="b" d="M14.41,28.76A3.59,3.59,0,0,0,18,25.17V21.59H14.41a3.59,3.59,0,0,0,0,7.17Z"/><path class="c" d="M10.83,18a3.58,3.58,0,0,1,3.58-3.59H18v7.18H14.41A3.58,3.58,0,0,1,10.83,18Z"/><path class="d" d="M10.83,10.83a3.58,3.58,0,0,1,3.58-3.59H18v7.17H14.41A3.58,3.58,0,0,1,10.83,10.83Z"/><path class="e" d="M18,7.24h3.59a3.59,3.59,0,0,1,0,7.17H18Z"/><path class="f" d="M25.17,18a3.59,3.59,0,1,1-3.58-3.59A3.58,3.58,0,0,1,25.17,18Z"/></svg>