<svg xmlns="http://www.w3.org/2000/svg" viewBox="0 0 41.58 48"><defs><style>.cls-1{fill:#343536;}.cls-2{fill:#f9a031;}.cls-3{fill:#f9a032;}</style></defs><g id="Box"><polygon id="Box_Mid_Fill" data-name="Box Mid Fill" class="cls-1" points="20.8 46.99 0.88 35.51 0.87 12.51 20.78 1 40.7 12.49 40.71 35.49 20.8 46.99"/><path class="cls-2" d="M24,48,3.22,36V12L24,0,44.78,12V36ZM4.64,35.19,24,46.36,43.37,35.17V12.81L24,1.64,4.63,12.83Z" transform="translate(-3.21)"/><polygon id="Box_Fill" data-name="Box Fill" class="cls-3" points="20.8 44.73 2.84 34.37 2.83 13.64 20.78 3.27 38.73 13.63 38.74 34.36 20.8 44.73"/></g><g id="Guy"><path class="cls-1" d="M39.85,34.86A9.38,9.38,0,0,1,38,35.3c-.72,0-.92,0-1.76-.1A33.56,33.56,0,0,1,33.9,29a3.81,3.81,0,0,0-.74-.9A48.56,48.56,0,0,0,27.65,26a4.21,4.21,0,0,1-.72-2.77,7.12,7.12,0,0,1,1.23-2.74,25.53,25.53,0,0,0,4.24,2.25,50.29,50.29,0,0,0,5-3.66c.08-.21,1.35-1.4,1.54-1.71a3.44,3.44,0,0,0-.35-1.17,4.39,4.39,0,0,0-.95-.38c-.24.16-.61.76-.53.3s-.45-.43-.35-.28-.53,1.28-.53,1.28a3.34,3.34,0,0,1,.28,1.43c-.44.7-4.11,2-4.11,2l-3.25-2.2A11.32,11.32,0,0,1,28,17.32a1.34,1.34,0,0,1,1.07-1A16.68,16.68,0,0,1,30.7,17l.75-.24.28-.82.32-.07,0-.58.54,0,.23-.21s-.56-.76-.46-1.16a.66.66,0,0,1,.56-.46A4.66,4.66,0,0,0,33,13a4.13,4.13,0,0,0-.32-2.23,2.93,2.93,0,0,0-2-1.46,3.28,3.28,0,0,0-3.17,1,2.49,2.49,0,0,0-.65,2s.09.88.08,2.11c0,.66-.71,1.05-1.44,1.47a24.3,24.3,0,0,1-2.59-.51S19.12,14,18.36,14.13c-.24.12-4.48,4.24-4.48,4.24l-1.12,1.22L13.18,21s.83.4,1,.33.54-.6.54-.6a.71.71,0,0,0,.22.48c.07-.16.51-1.32.51-1.32l-.25-1.42L18.85,16l3.25,2a27.29,27.29,0,0,0-.66,4.17c.17.82.5,3.25.92,4.7-.87,1.15-2.9,4.07-3.17,4.66,0,0-.88-1.28-1.05-1.56S14.61,28.71,14.29,28s-.55-1.37-1-1.22-2.46,1.31-2.83,1.47a3,3,0,0,0-.71,1.25c.05.19,1.33-.48,1.53-.56a12.35,12.35,0,0,1,2.07-.06A40.23,40.23,0,0,1,18.63,34a2.56,2.56,0,0,0,1.32.11c.55-.56,5-4.35,6.11-4.79,1.67-.64,4.3.68,5.52.71a12.16,12.16,0,0,1,.63,2A40,40,0,0,1,35,35.64a5.49,5.49,0,0,1,.53,1.65,1,1,0,0,0,.57.4c.26.06,3.63-1.71,3.67-2.06C39.88,35.46,40.18,34.7,39.85,34.86Z" transform="translate(-3.21)"/></g></svg>