<svg xmlns="http://www.w3.org/2000/svg" xmlns:xlink="http://www.w3.org/1999/xlink" viewBox="0 0 36 36"><defs><style>.a{fill:url(#a);}.b{fill:url(#b);}.c{fill:url(#c);}</style><linearGradient id="a" x1="297.41" y1="-1325.32" x2="308.88" y2="-1336.8" gradientTransform="matrix(1, 0, 0, -1, -288, -1316)" gradientUnits="userSpaceOnUse"><stop offset="0" stop-color="#b2ffc9"/><stop offset="0.3" stop-color="#45e676"/><stop offset="1" stop-color="#2f994f"/></linearGradient><linearGradient id="b" x1="320.66" y1="-1324.34" x2="309.5" y2="-1343.66" gradientTransform="matrix(1, 0, 0, -1, -288, -1316)" gradientUnits="userSpaceOnUse"><stop offset="0" stop-color="#b3e5ff"/><stop offset="0.3" stop-color="#4abaf2"/><stop offset="1" stop-color="#2f7699"/></linearGradient><radialGradient id="c" cx="306.76" cy="-586.14" fy="-600.6778271196096" r="14.53" gradientTransform="translate(-288 612)" gradientUnits="userSpaceOnUse"><stop offset="0" stop-color="#ffc7c7"/><stop offset="0.67" stop-color="#ff4d4d"/></radialGradient></defs><path class="a" d="M20.88,20.79V2.38a1.88,1.88,0,0,0-3.21-1.33L1.14,17.58A1.89,1.89,0,0,0,2.47,20.8H20.88Z"/><path class="b" d="M19.37,9.67H34.79a.59.59,0,0,1,.62.57V25.76a.59.59,0,0,1-.62.57H19.37a.59.59,0,0,1-.62-.57V10.24A.59.59,0,0,1,19.37,9.67Z"/><circle class="c" cx="18.76" cy="25.86" r="9.64"/></svg>