<?xml version="1.0" ?><svg data-name="Adobe Folder 2020" id="Adobe_Folder_2020" viewBox="0 0 240 210" xmlns="http://www.w3.org/2000/svg"><defs><style>.cls-1{fill:#00261a;}.cls-2{fill:#3cf2a6;}.cls-3{fill:#d4fcef;}</style></defs><title/><g id="Dimension"><path class="cls-1" d="M232.5,52.5a15,15,0,0,0-15-15H7.5v150a15,15,0,0,0,15,15h195a15,15,0,0,0,15-15Z"/><path class="cls-2" d="M217.5,30H137.63A3.41,3.41,0,0,1,135,28.88L111.75,5.63A18.2,18.2,0,0,0,98.63,0H22.5A22.57,22.57,0,0,0,0,22.5v165A22.57,22.57,0,0,0,22.5,210h195A22.57,22.57,0,0,0,240,187.5V52.5A22.57,22.57,0,0,0,217.5,30Zm15,157.5a15,15,0,0,1-15,15H22.5a15,15,0,0,1-15-15V37.5h210a15,15,0,0,1,15,15Z" data-name="Path 4" id="Path_4"/><path class="cls-3" d="M65.54,82.24c0-.56.14-.84.84-.91C69,81.19,76.74,81,84.65,81,108.24,81,120,96.24,120,118.57,120,149.65,99.63,159,84,159c-6,0-14.56-.14-17.71-.21-.49,0-.7-.35-.7-.91Zm12.81,65.38c2,.14,3.57.21,5.81.21,13,0,22.68-9.17,22.82-29,.14-19.32-9.87-26.74-22.33-26.74-2.45,0-4.27.14-6.3.21Z"/><path class="cls-3" d="M131.34,113.18c0-.7,0-3.15-.35-7.21,0-.49.14-.56.56-.84,5.95-2.24,13.93-4.62,22-4.62,9.87,0,20.93,3.85,20.93,20.86v36.54c0,.7-.21.91-.84.91H162.56c-.7,0-.91-.35-.91-.91V122.28c0-6.72-2.8-10.5-9.73-10.5a24.71,24.71,0,0,0-7.77,1.26V158c0,.49-.21.84-.7.84H132.18c-.56,0-.84-.21-.84-.84v-44.8Z"/></g></svg>