<?xml version="1.0" ?><svg data-name="Adobe Folder 2020" id="Adobe_Folder_2020" viewBox="0 0 240 210" xmlns="http://www.w3.org/2000/svg"><defs><style>.cls-1{fill:#261c00;}.cls-2{fill:#fff1cc;fill-rule:evenodd;}.cls-3{fill:#fbb500;}</style></defs><title/><g id="Bridge"><path class="cls-1" d="M232.5,52.5a15,15,0,0,0-15-15H7.5v150a15,15,0,0,0,15,15h195a15,15,0,0,0,15-15Z"/><path class="cls-2" d="M78,83.37c0-.56.11-.79.56-.9,3.16-.12,11.89-.34,18.77-.34,20.84,0,24.56,12.17,24.56,19.5,0,8.34-4,13.07-7,15.44,4.18,2,10.37,7.21,10.37,17.92,0,14.19-11.38,22.87-28.73,22.76-7.44,0-14.14-.11-17.75-.22a.87.87,0,0,1-.79-.91Zm11.9,29.7h6.87c3.27,0,7.32-.17,8.89.16a12.28,12.28,0,0,0,4.29-9.91c0-7-5-10.49-13-10.49-2.7,0-5.29.12-7.1.23Zm0,34.06c2,.11,3.94,0,6.43,0,8.9,0,16.32-3.38,16.32-11.94,0-5.3-2.7-9.05-8.22-10.74a23.93,23.93,0,0,0-6.65-.9H89.9Zm46.2-33.78c0-.79,0-2.82-.34-6.65,0-.57.22-.68.67-.9a69.69,69.69,0,0,1,24.78-4.73c.57,0,.79.11.79.67v9.92c0,.56,0,.68-.58.68-4.28-.24-10.35.33-12.72,1.35v43.39c0,.57-.22.79-.79.79h-11c-.57,0-.79-.22-.79-.79V113.35Z"/><path class="cls-3" d="M217.5,30H137.63A3.41,3.41,0,0,1,135,28.88L111.75,5.63A18.2,18.2,0,0,0,98.63,0H22.5A22.57,22.57,0,0,0,0,22.5v165A22.57,22.57,0,0,0,22.5,210h195A22.57,22.57,0,0,0,240,187.5V52.5A22.57,22.57,0,0,0,217.5,30Zm15,157.5a15,15,0,0,1-15,15H22.5a15,15,0,0,1-15-15V37.5h210a15,15,0,0,1,15,15Z" data-name="Path 4" id="Path_4"/></g></svg>