<?xml version="1.0" ?><svg data-name="Adobe Folder 2020" id="Adobe_Folder_2020" viewBox="0 0 240 210" xmlns="http://www.w3.org/2000/svg"><defs><style>.cls-1{fill:#26003b;}.cls-2{fill:#da91ff;}.cls-3{fill:#ecd9ff;}</style></defs><title/><g data-name="Character Animator" id="Character_Animator"><path class="cls-1" d="M232.5,52.5a15,15,0,0,0-15-15H7.5v150a15,15,0,0,0,15,15h195a15,15,0,0,0,15-15Z"/><path class="cls-2" d="M217.5,30H137.63A3.41,3.41,0,0,1,135,28.88L111.75,5.63A18.2,18.2,0,0,0,98.63,0H22.5A22.57,22.57,0,0,0,0,22.5v165A22.57,22.57,0,0,0,22.5,210h195A22.57,22.57,0,0,0,240,187.5V52.5A22.57,22.57,0,0,0,217.5,30Zm15,157.5a15,15,0,0,1-15,15H22.5a15,15,0,0,1-15-15V37.5h210a15,15,0,0,1,15,15Z" data-name="Path 4" id="Path_4"/><path class="cls-3" d="M117.06,156.62a1.17,1.17,0,0,1-.81,1.27c-3,1.27-7.86,1.73-12.83,1.73-18,0-34-11.78-34-39.5,0-23.8,14.1-39.74,35.58-39.74,5.66,0,9.82.58,12,1.62.58.23.7.57.7,1.27V93.2c0,.93-.46.93-.81.81-2.77-1.39-6.93-2.2-11.78-2.2-13.52,0-22.53,10.29-22.53,28,0,21.83,12.36,28.3,22.53,28.3a31.94,31.94,0,0,0,11.09-1.5c.46-.23.8-.23.8.58v9.47Z"/><path class="cls-3" d="M140.27,157.77c0,.58-.23.81-.69.81H128.49a.73.73,0,0,1-.81-.81V82.23c0-.46.12-.7.81-.7h11.09a.62.62,0,0,1,.69.7v23a21.38,21.38,0,0,1,13.52-4.5c7.51,0,16.75,3.81,16.75,20.68v36.27c0,.69-.23.92-.81.92h-11c-.58,0-.81-.34-.81-.92v-35c0-6.93-2.89-10.75-8.44-10.75a13.32,13.32,0,0,0-9.24,3.47v42.39Z"/></g></svg>