<?xml version="1.0" ?><svg data-name="Adobe Folder 2020" id="Adobe_Folder_2020" viewBox="0 0 240 210" xmlns="http://www.w3.org/2000/svg"><defs><style>.cls-1{fill:#2e0013;}.cls-2{fill:#ffd9ec;fill-rule:evenodd;}.cls-3{fill:#ff3f94;}</style></defs><title/><g id="InDesign"><path class="cls-1" d="M232.5,52.5a15,15,0,0,0-15-15H7.5v150a15,15,0,0,0,15,15h195a15,15,0,0,0,15-15Z"/><path class="cls-2" d="M97.34,157c0,.69-.12.92-.92.92H85.66c-.69,0-.92-.34-.92-.92V81.89c0-.69.35-.93.92-.93H96.53c.58,0,.81.24.81.81Zm12.38-27.11c0-16.75,11-29.8,28.72-29.8a36.89,36.89,0,0,1,3.7.12V81.66a.67.67,0,0,1,.69-.7h11.39c.58,0,.69.24.69.58V147a52.43,52.43,0,0,0,.35,7c0,.46-.15.58-.61.81A42.41,42.41,0,0,1,136.29,159C120.81,159,109.72,149.45,109.72,129.93Zm32.42-18.36a10.26,10.26,0,0,0-4.16-.7c-9,0-15.32,6.93-15.32,18.48,0,13.17,6.43,18.48,14.51,18.48a13.58,13.58,0,0,0,5-.81Z"/><path class="cls-3" d="M217.5,30H137.63A3.41,3.41,0,0,1,135,28.88L111.75,5.63A18.2,18.2,0,0,0,98.63,0H22.5A22.57,22.57,0,0,0,0,22.5v165A22.57,22.57,0,0,0,22.5,210h195A22.57,22.57,0,0,0,240,187.5V52.5A22.57,22.57,0,0,0,217.5,30Zm15,157.5a15,15,0,0,1-15,15H22.5a15,15,0,0,1-15-15V37.5h210a15,15,0,0,1,15,15Z" data-name="Path 4" id="Path_4"/></g></svg>