<?xml version="1.0" ?><svg data-name="Adobe Folder 2020" id="Adobe_Folder_2020" viewBox="0 0 240 210" xmlns="http://www.w3.org/2000/svg"><defs><style>.cls-1{fill:#002026;}.cls-2{fill:#00dbff;}.cls-3{fill:#d9f5ff;fill-rule:evenodd;}</style></defs><title/><g id="Prelude"><path class="cls-1" d="M232.5,52.5a15,15,0,0,0-15-15H7.5v150a15,15,0,0,0,15,15h195a15,15,0,0,0,15-15Z"/><path class="cls-2" d="M217.5,30H137.63A3.41,3.41,0,0,1,135,28.88L111.75,5.63A18.2,18.2,0,0,0,98.63,0H22.5A22.57,22.57,0,0,0,0,22.5v165A22.57,22.57,0,0,0,22.5,210h195A22.57,22.57,0,0,0,240,187.5V52.5A22.57,22.57,0,0,0,217.5,30Zm15,157.5a15,15,0,0,1-15,15H22.5a15,15,0,0,1-15-15V37.5h210a15,15,0,0,1,15,15Z" data-name="Path 4" id="Path_4"/><path class="cls-3" d="M81.5,82c0-.46.12-.81.69-.81,4.51-.23,11-.34,17.94-.34,19.4,0,27.83,10.62,27.83,24.25,0,17.79-12.78,25.41-28.61,25.41-2.65,0-3.58-.11-5.43-.11v27c0,.58-.23.81-.8.81H82.31c-.58,0-.81-.23-.81-.81Zm12.43,37.19c1.61.12,2.88.12,5.65.12,8.21,0,15.8-2.89,15.8-14,0-8.89-5.4-13.4-14.76-13.4-2.77,0-5.42.12-6.69.24ZM140.3,81.87c0-.46.12-.69.81-.69H152c.69,0,.92.23.92.69v62.85c0,2.77,1,3.81,3.12,3.81a8,8,0,0,0,1.9-.23c.46,0,.58.11.58.69v8.2c0,.69-.12.93-.58,1.16a18.13,18.13,0,0,1-6.07.8c-6.12,0-11.55-2.31-11.55-13.39V81.87Z"/></g></svg>