<?xml version="1.0" ?><svg data-name="Adobe Folder 2020" id="Adobe_Folder_2020" viewBox="0 0 240 210" xmlns="http://www.w3.org/2000/svg"><defs><style>.cls-1{fill:#072600;}.cls-2{fill:#35fa00;}.cls-3{fill:#e1fac8;fill-rule:evenodd;}</style></defs><title/><g id="Dreamweaver"><path class="cls-1" d="M232.5,52.5a15,15,0,0,0-15-15H7.5v150a15,15,0,0,0,15,15h195a15,15,0,0,0,15-15Z"/><path class="cls-2" d="M217.5,30H137.63A3.41,3.41,0,0,1,135,28.88L111.75,5.63A18.2,18.2,0,0,0,98.63,0H22.5A22.57,22.57,0,0,0,0,22.5v165A22.57,22.57,0,0,0,22.5,210h195A22.57,22.57,0,0,0,240,187.5V52.5A22.57,22.57,0,0,0,217.5,30Zm15,157.5a15,15,0,0,1-15,15H22.5a15,15,0,0,1-15-15V37.5h210a15,15,0,0,1,15,15Z" data-name="Path 4" id="Path_4"/><path class="cls-3" d="M56.2,82.52c0-.58.12-.81.81-.92,2.66-.12,10.29-.35,18.14-.35,23.45,0,35.12,15.13,35.12,37.31,0,30.84-20.22,40.19-35.81,40.19-5.89,0-14.44-.11-17.56-.23-.46,0-.7-.35-.7-.92Zm12.6,64.91c2,.12,3.7.23,5.9.23,12.93,0,22.51-9.12,22.63-28.76.12-19.17-9.81-26.56-22.17-26.56-2.43,0-4.39.11-6.36.23Zm88.82,11c-.81,0-1-.31-1.16-1-3.46-19.29-6.35-32.93-7.62-42.4h-.11c-1.51,8.55-4.28,22.76-8.9,42.51-.23.69-.46.89-1,.89H127.47c-.8,0-1-.11-1.27-.81l-12.36-55.14c-.11-.46.12-.92.81-.92H126a.84.84,0,0,1,.93.62c4.39,24.83,6.23,37.69,6.93,42.78h.46c.81-6,3.23-18.53,8.43-42.55.23-.69.23-.85.92-.85h11.9c.58,0,.69.28.81.85,4,22.76,6.7,37.12,7.39,42.9h.35c1.15-7.4,2.65-17.37,7.62-43,.12-.46.23-.74.81-.74h10.62c.47,0,.81.23.58.8L170,157.6c-.12.58-.23.81-1,.81Z"/></g></svg>