<?xml version="1.0" ?><svg data-name="Adobe Folder 2020" id="Adobe_Folder_2020" viewBox="0 0 240 210" xmlns="http://www.w3.org/2000/svg"><defs><style>.cls-1{fill:#260d40;}.cls-2{fill:#bf80ff;}.cls-3{fill:#ecd9ff;}</style></defs><title/><g data-name="Premiere Rush" id="Premiere_Rush"><path class="cls-1" d="M232.5,52.5a15,15,0,0,0-15-15H7.5v150a15,15,0,0,0,15,15h195a15,15,0,0,0,15-15Z"/><path class="cls-2" d="M217.5,30H137.63A3.41,3.41,0,0,1,135,28.88L111.75,5.63A18.2,18.2,0,0,0,98.63,0H22.5A22.57,22.57,0,0,0,0,22.5v165A22.57,22.57,0,0,0,22.5,210h195A22.57,22.57,0,0,0,240,187.5V52.5A22.57,22.57,0,0,0,217.5,30Zm15,157.5a15,15,0,0,1-15,15H22.5a15,15,0,0,1-15-15V37.5h210a15,15,0,0,1,15,15Z" data-name="Path 4" id="Path_4"/><path class="cls-3" d="M82.86,155.81c0,.56-.21.77-.76.77H71.81c-.7,0-.91-.21-.91-.91V83.78c0-.56.21-1,.7-1,5.46-.21,10.56-.35,18.83-.35,16,0,25.55,7.07,25.55,20.93a20.94,20.94,0,0,1-13.93,20.09c3.21,5.6,14.14,25.41,17.7,32.13.35.56.35,1-.42,1H107.71c-.76,0-1.11-.21-1.33-.56-2.58-4.48-10.57-19.88-15.75-29.19H82.86Zm6.8-39.76c8.12,0,14.07-3.22,14.07-11.62,0-8.12-5.32-11.83-13.58-11.83-2.87,0-5.67.14-7.29.21v23.24Z"/><path class="cls-3" d="M168.75,145.31c0,.77.14,3.15.35,6.93,0,.42-.14.7-.56.77-5.88,2.24-12.39,4.55-20.65,4.55-10.15,0-19.88-3.92-19.88-19.53V103c0-.56.22-.91.78-.91h10.64c.56,0,.77.35.77.91v33.67c0,6.58,2.59,10.15,9.45,10.15a18.57,18.57,0,0,0,6.93-1.26V103c0-.56.21-.91.77-.91h10.57c.7,0,.77.35.77.91v42.35Z"/></g></svg>