<?xml version="1.0" ?><svg data-name="Adobe Folder 2020" id="Adobe_Folder_2020" viewBox="0 0 240 210" xmlns="http://www.w3.org/2000/svg"><defs><style>.cls-1{fill:#261600;}.cls-2{fill:#ff9100;}.cls-3{fill:#ffe9d1;}</style></defs><title/><g id="Fuse"><path class="cls-1" d="M232.5,52.5a15,15,0,0,0-15-15H7.5v150a15,15,0,0,0,15,15h195a15,15,0,0,0,15-15Z"/><path class="cls-2" d="M217.5,30H137.63A3.41,3.41,0,0,1,135,28.88L111.75,5.63A18.2,18.2,0,0,0,98.63,0H22.5A22.57,22.57,0,0,0,0,22.5v165A22.57,22.57,0,0,0,22.5,210h195A22.57,22.57,0,0,0,240,187.5V52.5A22.57,22.57,0,0,0,217.5,30Zm15,157.5a15,15,0,0,1-15,15H22.5a15,15,0,0,1-15-15V37.5h210a15,15,0,0,1,15,15Z" data-name="Path 4" id="Path_4"/><path class="cls-3" d="M90.64,157.06c0,.69-.23.93-.81.93h-11c-.58,0-.81-.24-.81-.93V81.78c0-.57.23-.8.81-.8h38.44c.7,0,.81.23.93.8l1.15,9.7c.12.7-.23.93-.92.93H90.64v21.93h24.94c.58,0,.81.12.81.81v9.7c0,.69-.23.81-.81.81H90.64Z"/><path class="cls-3" d="M146.24,110.76c-5.54,0-7.39,2.77-7.39,5.08,0,2.54,1.27,4.28,8.66,8.09,11,5.31,14.43,10.39,14.43,17.89,0,11.2-8.54,17.2-20.09,17.2-6.12,0-11.31-1.27-14.31-3-.47-.23-.58-.57-.58-1.15V144.59c0-.69.35-.92.81-.57a25.88,25.88,0,0,0,14.08,4.15c5.54,0,7.85-2.31,7.85-5.42,0-2.54-1.61-4.74-8.66-8.43-9.92-4.74-14.08-9.59-14.08-17.67,0-9,7-16.51,19.28-16.51,6,0,10.16.93,12.47,2a1.51,1.51,0,0,1,.69,1.39v9.58c0,.58-.34.93-1,.7A24.73,24.73,0,0,0,146.24,110.76Z"/></g></svg>