<?xml version="1.0" ?><svg data-name="Adobe Folder 2020" id="Adobe_Folder_2020" viewBox="0 0 240 210" xmlns="http://www.w3.org/2000/svg"><defs><style>.cls-1{fill:#260600;}.cls-2{fill:#ff4a19;}.cls-3{fill:#ffd8cc;fill-rule:evenodd;}</style></defs><title/><g id="Animate"><path class="cls-1" d="M232.5,52.5a15,15,0,0,0-15-15H7.5v150a15,15,0,0,0,15,15h195a15,15,0,0,0,15-15Z"/><path class="cls-2" d="M217.5,30H137.63A3.41,3.41,0,0,1,135,28.88L111.75,5.63A18.2,18.2,0,0,0,98.63,0H22.5A22.57,22.57,0,0,0,0,22.5v165A22.57,22.57,0,0,0,22.5,210h195A22.57,22.57,0,0,0,240,187.5V52.5A22.57,22.57,0,0,0,217.5,30Zm15,157.5a15,15,0,0,1-15,15H22.5a15,15,0,0,1-15-15V37.5h210a15,15,0,0,1,15,15Z" data-name="Path 4" id="Path_4"/><path class="cls-3" d="M83.57,136.91l-5.56,21c-.11.59-.35.62-1,.62H66.66c-.7,0-.81-.23-.7-1L85.88,87.72a18.1,18.1,0,0,0,.7-5.51c0-.47.23-.7.59-.7h14.7c.47,0,.7.11.81.7L125,157.56c.11.59,0,.93-.58.93H112.88c-.58,0-.93,0-1-.5L106,136.91Zm19.57-11.51c-2-7.77-6.59-24.67-8.33-32.9h-.12c-1.5,8.23-5.21,22-8.11,32.9Zm28.49-12.31c0-.7,0-3.13-.35-7.18,0-.47.15-.59.61-.82,5.91-2.2,13.57-4.63,21.57-4.63,9.85,0,20.62,3.82,20.62,20.73v36.37c0,.7-.23.93-.82.93H162.77c-.7,0-.92-.34-.92-.93V122.12c0-6.72-2.38-10.42-9.33-10.42a25.73,25.73,0,0,0-7.94,1.27v44.71c0,.47-.23.81-.7.81H132.44c-.58,0-.81-.23-.81-.81Z"/></g></svg>