<?xml version="1.0" ?><svg data-name="Adobe Folder 2020" id="Adobe_Folder_2020" viewBox="0 0 240 210" xmlns="http://www.w3.org/2000/svg"><defs><style>.cls-1{fill:#fff;}.cls-2,.cls-3{fill:#ec1c24;}.cls-3{fill-rule:evenodd;}</style></defs><title/><g id="Adobe"><path class="cls-1" d="M232.5,52.5a15,15,0,0,0-15-15H7.5v150a15,15,0,0,0,15,15h195a15,15,0,0,0,15-15Z"/><path class="cls-2" d="M217.5,30H137.63A3.41,3.41,0,0,1,135,28.88L111.75,5.63A18.2,18.2,0,0,0,98.63,0H22.5A22.57,22.57,0,0,0,0,22.5v165A22.57,22.57,0,0,0,22.5,210h195A22.57,22.57,0,0,0,240,187.5V52.5A22.57,22.57,0,0,0,217.5,30Zm15,157.5a15,15,0,0,1-15,15H22.5a15,15,0,0,1-15-15V37.5h210a15,15,0,0,1,15,15Z" data-name="Path 4" id="Path_4"/><path class="cls-3" d="M119.53,107.22c.12.12,28.17,64.11,28.15,64.05H129.29c0-.19-8.7-20.86-8.61-21H100.86c.18.05,18.94-43.31,18.67-43.09Z"/><path class="cls-3" d="M59.78,67.92h43.09c.12,0-42.8,103.35-42.95,103.21s-.1-103.28-.14-103.21Z"/><path class="cls-3" d="M135.67,67.92h44.55c0,.26,0,103.41,0,103.26,0,.34-44.52-103.26-44.52-103.26Z"/></g></svg>