<?xml version="1.0" ?><svg data-name="Adobe Folder 2020" id="Adobe_Folder_2020" viewBox="0 0 240 210" xmlns="http://www.w3.org/2000/svg"><defs><style>.cls-1{fill:#2b0028;}.cls-2{fill:#ffd9ff;fill-rule:evenodd;}.cls-3{fill:#ff5ff8;}</style></defs><title/><g id="InCopy"><path class="cls-1" d="M232.5,52.5a15,15,0,0,0-15-15H7.5v150a15,15,0,0,0,15,15h195a15,15,0,0,0,15-15Z"/><path class="cls-2" d="M100.48,157.09c0,.69-.12.92-.92.92H88.8c-.69,0-.92-.34-.92-.92V81.94c0-.7.35-.93.92-.93H99.67c.58,0,.81.23.81.81Zm51.62-.53a.88.88,0,0,1-.57.93A30.14,30.14,0,0,1,141,159c-16.4,0-26-12.13-26-29.34,0-16.86,10.85-29.57,27.48-29.57,4.51,0,7.28.35,9,1a1.19,1.19,0,0,1,.58,1.16l-.12,9.58c0,.58-.34.69-.8.58a20.86,20.86,0,0,0-8-1.27c-9.13,0-15.36,6.35-15.36,17.9,0,13.63,7.85,18.37,15.59,18.37a23,23,0,0,0,7.84-1c.57-.12.8.11.8.57v9.59Z"/><path class="cls-3" d="M217.5,30H137.63A3.41,3.41,0,0,1,135,28.88L111.75,5.63A18.2,18.2,0,0,0,98.63,0H22.5A22.57,22.57,0,0,0,0,22.5v165A22.57,22.57,0,0,0,22.5,210h195A22.57,22.57,0,0,0,240,187.5V52.5A22.57,22.57,0,0,0,217.5,30Zm15,157.5a15,15,0,0,1-15,15H22.5a15,15,0,0,1-15-15V37.5h210a15,15,0,0,1,15,15Z" data-name="Path 4" id="Path_4"/></g></svg>