<?xml version="1.0" ?><svg data-name="Adobe Folder 2020" id="Adobe_Folder_2020" viewBox="0 0 240 210" xmlns="http://www.w3.org/2000/svg"><defs><style>.cls-1{fill:#2e000a;}.cls-2{fill:#ff4475;}.cls-3{fill:#ffd9e2;fill-rule:evenodd;}</style></defs><title/><g id="Stocks"><path class="cls-1" d="M232.5,52.5a15,15,0,0,0-15-15H7.5v150a15,15,0,0,0,15,15h195a15,15,0,0,0,15-15Z"/><path class="cls-2" d="M217.5,30H137.63A3.41,3.41,0,0,1,135,28.88L111.75,5.63A18.2,18.2,0,0,0,98.63,0H22.5A22.57,22.57,0,0,0,0,22.5v165A22.57,22.57,0,0,0,22.5,210h195A22.57,22.57,0,0,0,240,187.5V52.5A22.57,22.57,0,0,0,217.5,30Zm15,157.5a15,15,0,0,1-15,15H22.5a15,15,0,0,1-15-15V37.5h210a15,15,0,0,1,15,15Z" data-name="Path 4" id="Path_4"/><path class="cls-3" d="M80,155.86a1.68,1.68,0,0,1-.7-1.5V143.27a.55.55,0,0,1,.93-.34,30.09,30.09,0,0,0,17,5.19c8.44,0,11.9-4.38,11.9-9.35,0-4.39-2.19-8-10.28-12.71l-4.16-2.19c-11.89-6.7-15.36-13.51-15.36-22.18,0-11.78,8.2-21.25,23.68-21.25,6.81,0,11.87,1,14.76,2.66.58.23.69.58.69,1.27V94.76a.56.56,0,0,1-.92.47c-3.58-2.31-8.87-3.47-14.3-3.47-8.89,0-11.78,5.08-11.78,9.13,0,4.38,2.19,7.62,10.16,12l3.7,2c13.17,7.28,16.52,14.32,16.52,23,0,12.82-9.36,21.72-24.61,21.72C90.47,159.56,84.28,158.29,80,155.86Zm80.15,1a1.24,1.24,0,0,1-.81,1.27,23.07,23.07,0,0,1-8.54,1.39c-8.78,0-13.75-4.62-13.75-15.48V112.6h-6.64c-.58,0-.71-.23-.71-.81V102.5c0-.58.12-.92.81-.92h6.64a121.38,121.38,0,0,1,1-13.29c0-.8.35-1,.81-1.15l10.4-1.38c.46-.12.8,0,.8.57-.23,3.35-.34,9-.46,15.25h10.13c.58,0,.81.23.81.81v9.52c0,.58-.35.69-.81.69H149.66v29.34c0,4.73,1.62,6.88,5.89,6.88a15.44,15.44,0,0,0,3.92-.46c.35-.12.69.11.69.69Z"/></g></svg>