<?xml version="1.0" ?><svg data-name="Adobe Folder 2020" id="Adobe_Folder_2020" viewBox="0 0 240 210" xmlns="http://www.w3.org/2000/svg"><defs><style>.cls-1{fill:#001434;}.cls-2{fill:#5da5ff;}.cls-3{fill:#d9ecff;fill-rule:evenodd;}</style></defs><title/><g id="Behance"><path class="cls-1" d="M232.5,52.5a15,15,0,0,0-15-15H7.5v150a15,15,0,0,0,15,15h195a15,15,0,0,0,15-15Z"/><path class="cls-2" d="M217.5,30H137.63A3.41,3.41,0,0,1,135,28.88L111.75,5.63A18.2,18.2,0,0,0,98.63,0H22.5A22.57,22.57,0,0,0,0,22.5v165A22.57,22.57,0,0,0,22.5,210h195A22.57,22.57,0,0,0,240,187.5V52.5A22.57,22.57,0,0,0,217.5,30Zm15,157.5a15,15,0,0,1-15,15H22.5a15,15,0,0,1-15-15V37.5h210a15,15,0,0,1,15,15Z" data-name="Path 4" id="Path_4"/><path class="cls-3" d="M82.55,147.27v-24.1h7.66a24.14,24.14,0,0,1,6.8.93c5.65,1.72,8.41,5.7,8.41,11.12,0,8.76-7.19,12.22-16.3,12.22C86.58,147.44,84.62,147.38,82.55,147.27Zm0-35.1V92.11c1.84-.11,4.43-.24,7.19-.24,8.19,0,12.92,3.58,12.92,10.72a12.6,12.6,0,0,1-4.39,10.16,54.25,54.25,0,0,0-8.76-.58Zm-12.4-30v74.93a.87.87,0,0,0,.8.92c3.69.12,10.38.23,18,.23,17.75.12,29.39-8.76,29.39-23.28,0-11-6.34-16.26-10.6-18.33,3-2.42,7.15-7.26,7.15-15.8,0-7.49-3.81-19.94-25.14-19.94-7,0-15.79.23-19,.35C70.26,81.38,70.15,81.61,70.15,82.19Zm82.53,40.46H138.61c.7-6.23,3.58-12.1,10.26-12.1,7.27,0,9.11,6.91,9.11,10.72,0,.34-.11.8-.11,1.26A36.29,36.29,0,0,1,152.68,122.65Zm-14.18,9.61h18.21a95.36,95.36,0,0,0,11.65-.5,1,1,0,0,0,.92-.92,35.18,35.18,0,0,0,.57-7.38c0-10.38-5.3-23.17-20.52-23.17-15,0-23.51,13.49-23.51,30,0,15.22,6.91,28.82,25.36,28.82,5.76,0,10.3-.81,14-2.65a1.51,1.51,0,0,0,.69-1.38v-8.77c0-.57-.34-.69-.81-.46a26.81,26.81,0,0,1-11.34,2.23C143.11,148.05,138.61,141.71,138.5,132.26Z"/></g></svg>