<?xml version="1.0" ?><svg data-name="Adobe Folder 2020" id="Adobe_Folder_2020" viewBox="0 0 240 210" xmlns="http://www.w3.org/2000/svg"><defs><style>.cls-1{fill:#262002;}.cls-2{fill:#ffd70d;}.cls-3{fill:#fff7cc;}</style></defs><title/><g id="Spark"><path class="cls-1" d="M232.5,52.5a15,15,0,0,0-15-15H7.5v150a15,15,0,0,0,15,15h195a15,15,0,0,0,15-15Z"/><path class="cls-2" d="M217.5,30H137.63A3.41,3.41,0,0,1,135,28.88L111.75,5.63A18.2,18.2,0,0,0,98.63,0H22.5A22.57,22.57,0,0,0,0,22.5v165A22.57,22.57,0,0,0,22.5,210h195A22.57,22.57,0,0,0,240,187.5V52.5A22.57,22.57,0,0,0,217.5,30Zm15,157.5a15,15,0,0,1-15,15H22.5a15,15,0,0,1-15-15V37.5h210a15,15,0,0,1,15,15Z" data-name="Path 4" id="Path_4"/><g id="Mnem"><path class="cls-3" d="M71.42,147.28a1.71,1.71,0,0,1-.52-.62,2,2,0,0,1-.17-.89V134.63a.5.5,0,0,1,.29-.44.56.56,0,0,1,.63.09,29.46,29.46,0,0,0,8.38,4,31.15,31.15,0,0,0,8.8,1.26c4.24,0,7.23-1.1,9.16-2.83a8.57,8.57,0,0,0,2.8-6.57,9.74,9.74,0,0,0-2.12-6.26c-1.56-2-4.15-4.13-8.21-6.51l-2.09-1.1-2.09-1.11c-6-3.36-9.84-6.76-12.2-10.4a20.9,20.9,0,0,1-3.24-11.88,20.55,20.55,0,0,1,6.07-15.12c4-3.86,10-6.24,17.73-6.24a47.92,47.92,0,0,1,8.85.73,19.68,19.68,0,0,1,5.89,1.94,1,1,0,0,1,.57.46,1.9,1.9,0,0,1,.13.82V85.87a.62.62,0,0,1-.29.54.57.57,0,0,1-.64-.07,20.86,20.86,0,0,0-6.45-2.61,34,34,0,0,0-7.83-.87c-4.47,0-7.43,1.27-9.27,3.06A8.44,8.44,0,0,0,83,92a9,9,0,0,0,2.1,6c1.55,1.92,4.11,3.83,8.11,6l1.86,1,1.86,1c6.62,3.66,10.77,7.26,13.26,11a20.94,20.94,0,0,1,3.34,12.07,20.59,20.59,0,0,1-6.62,15.75c-4.27,3.84-10.45,6.08-18.11,6.08a46.82,46.82,0,0,1-9.66-.95A27,27,0,0,1,71.42,147.28Z"/><path class="cls-3" d="M169.27,119.65c0,10.51-3.68,18.34-9.24,23.55A29.81,29.81,0,0,1,139.56,151c-.46,0-1,0-1.46-.07s-1-.1-1.56-.16v15.9a.73.73,0,0,1-.19.54,1.2,1.2,0,0,1-.62.28l-5.51.52-5.52.52a1.09,1.09,0,0,1-.67-.13c-.11-.1-.14-.28-.14-.57V102.59c0-.64,0-1.8-.09-3s-.14-2.46-.26-3.27a.76.76,0,0,1,.09-.29.61.61,0,0,1,.26-.29c2.32-.75,5.25-1.74,8.63-2.54a49.17,49.17,0,0,1,11.33-1.41c8.24,0,14.6,3,18.9,8S169.27,111.7,169.27,119.65Zm-32.73-15.9v35.87a9.27,9.27,0,0,0,1.83.36,19.69,19.69,0,0,0,2,.1,15,15,0,0,0,10.93-4.54c3-3.15,5.09-8,5.09-15.08,0-5.74-1.28-10.15-3.64-13.13s-5.82-4.51-10.17-4.51a19.67,19.67,0,0,0-3.24.25A20.41,20.41,0,0,0,136.54,103.75Z"/></g></g></svg>