<?xml version="1.0" ?><svg data-name="Adobe Folder 2020" id="Adobe_Folder_2020" viewBox="0 0 240 210" xmlns="http://www.w3.org/2000/svg"><defs><style>.cls-1{fill:#260000;}.cls-2{fill:#ff2116;}.cls-3{fill:#fcc;}</style></defs><title/><g id="Acrobat"><path class="cls-1" d="M232.5,52.5a15,15,0,0,0-15-15H7.5v150a15,15,0,0,0,15,15h195a15,15,0,0,0,15-15Z"/><path class="cls-2" d="M217.5,30H137.63A3.41,3.41,0,0,1,135,28.88L111.75,5.63A18.2,18.2,0,0,0,98.63,0H22.5A22.57,22.57,0,0,0,0,22.5v165A22.57,22.57,0,0,0,22.5,210h195A22.57,22.57,0,0,0,240,187.5V52.5A22.57,22.57,0,0,0,217.5,30Zm15,157.5a15,15,0,0,1-15,15H22.5a15,15,0,0,1-15-15V37.5h210a15,15,0,0,1,15,15Z" data-name="Path 4" id="Path_4"/><path class="cls-3" d="M177.18,136.9c-3.39-3.64-10.5-5.56-20.55-5.56a118.63,118.63,0,0,0-19,1.75,91.64,91.64,0,0,1-11.74-13.48,115.5,115.5,0,0,1-7.27-11.43c3.56-11,6-21.58,6-29.62,0-6-1.93-15.94-10.9-15.94a7.34,7.34,0,0,0-6.07,3.62c-3.78,6.49-2.07,21.19,4.79,36.21-2.39,7.18-5.09,14.43-8.49,22.63a199.61,199.61,0,0,1-9.76,20.12c-19.46,7.71-31.84,16.46-33.14,23.42A6.71,6.71,0,0,0,63.23,175a10.36,10.36,0,0,0,7,2.43c11.19,0,23.64-16.36,33-33.12q7.8-2.7,16.24-4.95c6.06-1.6,11.92-2.89,17.42-3.84,13.53,12.23,25.48,14.07,31.43,14.07,7.43,0,9.55-3.08,10.29-5A7.69,7.69,0,0,0,177.18,136.9ZM109.6,67.37a4.75,4.75,0,0,1,4-2.52c3.32,0,5.15,2.94,5.17,8.3,0,5.78-1.85,15.27-5.3,26.09C107,84.07,106.92,72,109.6,67.37ZM63.26,169c1.1-5.82,12.17-13.64,29.15-20.69-9.47,16.17-18.78,26.09-24.61,26.09a4.35,4.35,0,0,1-3-1.12A4.47,4.47,0,0,1,63.26,169Zm71.55-35.46c-5.06.92-10.4,2.12-15.91,3.58-4.85,1.28-9.54,2.7-14.08,4.21,2.64-5,4.94-9.83,6.74-14.19,2.17-5.24,4.25-10.71,6.09-16.15,1.95,3.35,4.07,6.67,6.4,9.89a95.71,95.71,0,0,0,10.79,12.64h0Zm4.94,1.44c11.39-2.07,21.39-1.7,25.68-.8s6.74,3.55,6,7.46-5.52,5.89-10.78,4.63C152.19,144.29,145.3,139.77,139.75,135Z"/></g></svg>