<svg xmlns="http://www.w3.org/2000/svg" viewBox="0 0 36 36"><defs><style>.a{fill:#538dd6;}</style></defs><path class="a" d="M31.6,3.43A14.15,14.15,0,0,1,26,4.64a14.5,14.5,0,0,1-5.58-1.21h0a15.24,15.24,0,0,0-5.68-1.22A14.33,14.33,0,0,0,9.16,3.43a19.25,19.25,0,0,1-3.3,1V9.28a21,21,0,0,0,3.28-1,14.32,14.32,0,0,1,5.58-1.22,15,15,0,0,1,5.71,1.22h0A14.81,14.81,0,0,0,26,9.45a12.54,12.54,0,0,0,4.17-.65V23.37a12.57,12.57,0,0,1-4.13.7,14.5,14.5,0,0,1-5.58-1.21h0a15,15,0,0,0-5.68-1.22,12.62,12.62,0,0,0-4,.66v4.86a12.49,12.49,0,0,1,4-.66,15,15,0,0,1,5.71,1.21h0A14.63,14.63,0,0,0,26,28.88a14.31,14.31,0,0,0,5.58-1.21,19.27,19.27,0,0,1,3.4-1V2.36A19.79,19.79,0,0,0,31.6,3.43Z"/><path d="M3.43,1A2.43,2.43,0,0,0,1,3.43V32.57a2.43,2.43,0,0,0,4.86,0V3.43A2.43,2.43,0,0,0,3.43,1Z"/></svg>