<svg xmlns="http://www.w3.org/2000/svg" viewBox="0 0 36 36"><defs><style>.a{fill:#0056ff;}.b{fill:#fff;}</style></defs><path class="a" d="M35,31.75A4.26,4.26,0,0,1,30.75,36H5.25A4.26,4.26,0,0,1,1,31.75V10.5A4.26,4.26,0,0,1,5.25,6.25h7.8a4.24,4.24,0,0,1,3,1.24l1.76,1.76a4.24,4.24,0,0,0,3,1.24h9.92A4.26,4.26,0,0,1,35,14.74Z"/><path class="b" d="M19.59,17.41a1.59,1.59,0,1,0-3.18,0v6.78l-2.06-2.06a1.59,1.59,0,0,0-2.25,2.25l4.78,4.78a1.59,1.59,0,0,0,2.25,0l4.78-4.78a1.59,1.59,0,0,0-2.25-2.25L19.6,24.19V17.41Z"/></svg>