<svg xmlns="http://www.w3.org/2000/svg" viewBox="0 0 36 36"><defs><style>.a,.b{fill:#fff;}.b{isolation:isolate;opacity:0.4;}</style></defs><path class="a" d="M34.18,1.48A2.1,2.1,0,0,1,35,3.06v9.55c0,1.82-1.9,3.18-4.3,3.18s-4.25-1.36-4.25-3.18,2-3.18,4.25-3.18V5.71L24.28,7v7.75c0,1.82-1.84,3.19-4.24,3.19s-4.25-1.37-4.25-3.19,2-3.18,4.25-3.18V5.18a2.16,2.16,0,0,1,1.76-2L32.41,1a2.17,2.17,0,0,1,1.77.44ZM6,21.1,6.74,20A2.16,2.16,0,0,1,8.5,19h4.1a2.16,2.16,0,0,1,1.76,1l.78,1.12h2.78A2.12,2.12,0,0,1,20,23.22v9.55a2,2,0,0,1-2.12,2.12H3.06A2.07,2.07,0,0,1,1,32.77V23.22A2.15,2.15,0,0,1,3.06,21.1Zm4.54,3.71A3.26,3.26,0,0,0,7.31,28a3.18,3.18,0,0,0,3.18,3.18A3.11,3.11,0,0,0,13.67,28,3.18,3.18,0,0,0,10.49,24.81Z"/><path class="b" d="M8.74,15.53,2.32,8.9A4.74,4.74,0,0,1,2.65,2a4.56,4.56,0,0,1,6.19.43l.66.69.63-.69A4.6,4.6,0,0,1,16.36,2a4.78,4.78,0,0,1,.3,6.88l-6.4,6.63a1.06,1.06,0,0,1-1.52,0Zm23.65,2.65a1,1,0,0,1,.35,1.27L30.2,25.34h3.63a1,1,0,0,1,1,.75,1,1,0,0,1-.24,1.17L26.1,34.69a1.14,1.14,0,0,1-1.32.06,1.06,1.06,0,0,1-.35-1.28l2.54-6H23.22a1,1,0,0,1-.93-.63,1.16,1.16,0,0,1,.29-1.22l8.49-7.43a1.14,1.14,0,0,1,1.32,0Z"/></svg>