<svg xmlns="http://www.w3.org/2000/svg" viewBox="0 0 36 36"><defs><style>.a{fill:#fbff00;}.b{fill:red;}.c{fill:#00ff48;}.c,.d{isolation:isolate;}.d{fill:#0091ff;}</style></defs><path class="a" d="M34.18,1.48A2.1,2.1,0,0,1,35,3.06v9.55c0,1.82-1.9,3.18-4.3,3.18s-4.25-1.36-4.25-3.18,2-3.18,4.25-3.18V5.71L24.28,7v7.75c0,1.82-1.84,3.19-4.24,3.19s-4.25-1.37-4.25-3.19,2-3.18,4.25-3.18V5.18a2.16,2.16,0,0,1,1.76-2L32.41,1a2.17,2.17,0,0,1,1.77.44Z"/><path class="b" d="M17.92,21.1H15.14L14.36,20a2.16,2.16,0,0,0-1.76-1H8.5a2.16,2.16,0,0,0-1.76,1L6,21.1H3.06A2.15,2.15,0,0,0,1,23.22v9.55a2.07,2.07,0,0,0,2.06,2.12H17.92A2,2,0,0,0,20,32.77V23.22A2.12,2.12,0,0,0,17.92,21.1ZM10.49,31.18A3.18,3.18,0,0,1,7.31,28a3.26,3.26,0,0,1,3.18-3.19A3.18,3.18,0,0,1,13.67,28,3.11,3.11,0,0,1,10.49,31.18Z"/><path class="c" d="M32.39,18.18a1,1,0,0,1,.35,1.27L30.2,25.34h3.63a1,1,0,0,1,1,.75,1,1,0,0,1-.24,1.17L26.1,34.69a1.14,1.14,0,0,1-1.32.06,1.06,1.06,0,0,1-.35-1.28l2.54-6H23.22a1,1,0,0,1-.93-.63,1.16,1.16,0,0,1,.29-1.22l8.49-7.43a1.14,1.14,0,0,1,1.32,0Z"/><path class="d" d="M8.74,15.53,2.32,8.9A4.74,4.74,0,0,1,2.65,2a4.56,4.56,0,0,1,6.19.43l.66.69.63-.69A4.6,4.6,0,0,1,16.36,2a4.78,4.78,0,0,1,.3,6.88l-6.4,6.63a1.06,1.06,0,0,1-1.52,0Z"/></svg>