<svg xmlns="http://www.w3.org/2000/svg" viewBox="0 0 36 36"><defs><style>.a{fill:#1b78d7;fill-rule:evenodd;}</style></defs><path class="a" d="M10.44,7.8a5.24,5.24,0,0,0,1.81,3.06,2.53,2.53,0,0,0,2,.64c2-.33,2.89-1.81,3.35-3.63C18.29,5,17,2,15,1.18A3,3,0,0,0,13.81,1l-.4.06a3.69,3.69,0,0,0-.86.35,5.4,5.4,0,0,0-2.21,3.86,4.09,4.09,0,0,0-.05,1.31C10.37,7,10.34,7.41,10.44,7.8Zm12.32,4a3.32,3.32,0,0,0,2.78-.89A6.49,6.49,0,0,0,27.6,7.09,5.11,5.11,0,0,0,25.4,2.3a2.65,2.65,0,0,0-1.57-.53l-.37,0-.7.27a6.48,6.48,0,0,0-2.84,3.6,7.3,7.3,0,0,0-.22,1.13,5.81,5.81,0,0,0,.06,1.73C20.13,10.44,20.89,11.43,22.76,11.81ZM6.61,19a3.85,3.85,0,0,0,3.47-2.83,8.43,8.43,0,0,0,.17-3.73c-.46-1.71-2-3.64-4.21-3.61l-.46.06a2.81,2.81,0,0,0-.8.29A5.49,5.49,0,0,0,2.53,13a5.32,5.32,0,0,0,2,5.47A3,3,0,0,0,6.61,19Zm26.91-4.29a4.09,4.09,0,0,0-4.36-3.33l-.49.06-.65.18a3.47,3.47,0,0,0-1.93,2.28,13.08,13.08,0,0,0-.29,1.77v1.55A10.67,10.67,0,0,0,26,18.78c.48,1.55,1.35,2.1,3.07,2.41a4.72,4.72,0,0,0,1.8,0,3.53,3.53,0,0,0,2.65-3.07c.11-.46,0-.92.12-1.43A5.16,5.16,0,0,0,33.52,14.66Zm-5.16,9.23c-.79-.64-1.48-1.4-2.22-2.07a14,14,0,0,1-1.48-1.5c-.57-.72-1.22-1.38-1.74-2.14A8.29,8.29,0,0,0,21,15.94a5.25,5.25,0,0,0-3.49-1.14c-.32.13-.72.09-1,.19a6.67,6.67,0,0,0-2.27,1.26,9,9,0,0,0-1.59,2.1c-.42.61-1,1.11-1.43,1.68-.21.22-.42.45-.64.67-.66.53-1.24,1.2-1.91,1.73a11.84,11.84,0,0,0-3.54,3.74c-1.37,2.42-.13,6,1.46,7.31a5.16,5.16,0,0,0,2,1c.38.09.82,0,1.25.12h.68a3.68,3.68,0,0,0,1.1,0l.68,0c.67-.11,1.34-.1,2-.23l2.2-.41.92,0,.89,0c.68.11,1.34.1,2,.23l1.88.51,1.39.25a8.28,8.28,0,0,0,5.27-.69,4.68,4.68,0,0,0,1.45-1.35,7.14,7.14,0,0,0,.69-6.06A7.35,7.35,0,0,0,28.36,23.89Zm-11.56,8H14a11.93,11.93,0,0,1-2.33,0,3.88,3.88,0,0,1-3-3.32A4.69,4.69,0,0,1,8.62,27a4.51,4.51,0,0,1,.21-.91,4.11,4.11,0,0,1,3.24-2.62l2.56,0h0l0-3.08.07,0,2,0Zm8.8,0H22.75c-1.63,0-3.12.17-3.95-.65s-.73-1.73-.73-3.27,0-4.34,0-4.34h2.2v4.55a3.66,3.66,0,0,0,.16,1.43c.3.44,1.05.36,1.8.36l1.2,0V23.63H25.6v8.26ZM10.93,26.72a2.43,2.43,0,0,0,1.31,3.19,4.3,4.3,0,0,0,1.1.06h1.25V25.39l-2.09,0A2.17,2.17,0,0,0,10.93,26.72Z"/></svg>