<svg xmlns="http://www.w3.org/2000/svg" viewBox="0 0 96 93.6"><defs><style>.a{fill:#3df2b5;}.b{fill:#00261d;}.c{fill:#c9fff3;}.d{fill:#fff;}.e{opacity:0.15;}</style></defs><rect class="a" width="96" height="93.6" rx="17.6"/><rect class="b" x="4" y="4" width="88" height="85.6" rx="14.4"/><path class="c" d="M31.35,54,28.27,65.68a.48.48,0,0,1-.56.44H22c-.4,0-.44-.12-.4-.56L32.63,26.8a12,12,0,0,0,.4-3.2c0-.24.12-.4.32-.4h8.16c.24,0,.4.08.44.4l12.44,42c.08.32,0,.52-.32.52H47.63c-.32,0-.52-.12-.56-.4L43.87,54Zm10.88-6.36C41.15,43.36,38.55,34,37.59,29.4h-.08C36.67,34,34.63,41.64,33,47.68Z"/><path class="c" d="M59.63,40.92c0-.44,0-1.6-.2-3.8a.46.46,0,0,1,.32-.52A41.06,41.06,0,0,1,74,33.88c.32,0,.44.08.44.4V40c0,.32-.12.4-.44.4a23.35,23.35,0,0,0-7.4.76v24.6c0,.32-.12.44-.44.44H60.07c-.32,0-.44-.12-.44-.44V40.92Z"/><path class="d" d="M31.35,54,28.27,65.68a.48.48,0,0,1-.56.44H22c-.4,0-.44-.12-.4-.56L32.63,26.8a12,12,0,0,0,.4-3.2c0-.24.12-.4.32-.4h8.16c.24,0,.4.08.44.4l12.44,42c.08.32,0,.52-.32.52H47.63c-.32,0-.52-.12-.56-.4L43.87,54Zm10.88-6.36C41.15,43.36,38.55,34,37.59,29.4h-.08C36.67,34,34.63,41.64,33,47.68Z"/><path class="d" d="M59.63,40.92c0-.44,0-1.6-.2-3.8a.46.46,0,0,1,.32-.52A41.06,41.06,0,0,1,74,33.88c.32,0,.44.08.44.4V40c0,.32-.12.4-.44.4a23.35,23.35,0,0,0-7.4.76v24.6c0,.32-.12.44-.44.44H60.07c-.32,0-.44-.12-.44-.44V40.92Z"/><g class="e"><path class="a" d="M31.35,54,28.27,65.68a.48.48,0,0,1-.56.44H22c-.4,0-.44-.12-.4-.56L32.63,26.8a12,12,0,0,0,.4-3.2c0-.24.12-.4.32-.4h8.16c.24,0,.4.08.44.4l12.44,42c.08.32,0,.52-.32.52H47.63c-.32,0-.52-.12-.56-.4L43.87,54Zm10.88-6.36C41.15,43.36,38.55,34,37.59,29.4h-.08C36.67,34,34.63,41.64,33,47.68Z"/><path class="a" d="M59.63,40.92c0-.44,0-1.6-.2-3.8a.46.46,0,0,1,.32-.52A41.06,41.06,0,0,1,74,33.88c.32,0,.44.08.44.4V40c0,.32-.12.4-.44.4a23.35,23.35,0,0,0-7.4.76v24.6c0,.32-.12.44-.44.44H60.07c-.32,0-.44-.12-.44-.44V40.92Z"/></g></svg>