<svg xmlns="http://www.w3.org/2000/svg" viewBox="0 0 96 93.6"><defs><style>.a{fill:#da91ff;}.b{fill:#26003b;}.c{fill:#fff;}.d{opacity:0.15;}</style></defs><rect class="a" width="96" height="93.6" rx="17.6"/><rect class="b" x="4" y="4" width="88" height="85.6" rx="14.4"/><path class="c" d="M45.46,65a.61.61,0,0,1-.43.66,19.06,19.06,0,0,1-6.72.91c-9.45,0-17.8-6.18-17.8-20.71C20.51,33.39,27.89,25,39.16,25a16.53,16.53,0,0,1,6.3.85c.3.12.36.3.36.66v5.21c0,.48-.24.48-.42.42A14.54,14.54,0,0,0,39.22,31c-7.09,0-11.81,5.39-11.81,14.66,0,11.44,6.48,14.84,11.81,14.84A16.77,16.77,0,0,0,45,59.73c.24-.12.43-.12.43.3v5Z"/><path class="c" d="M57.63,65.6c0,.31-.12.43-.37.43H51.45A.39.39,0,0,1,51,65.6V26c0-.25.06-.37.42-.37h5.81a.32.32,0,0,1,.37.37v12a11.17,11.17,0,0,1,7.08-2.36c3.94,0,8.78,2,8.78,10.84v19c0,.37-.12.49-.42.49H67.32c-.3,0-.43-.19-.43-.49V47.19c0-3.63-1.51-5.63-4.42-5.63a7,7,0,0,0-4.84,1.82V65.6Z"/><path class="c" d="M45.46,65a.61.61,0,0,1-.43.66,19.06,19.06,0,0,1-6.72.91c-9.45,0-17.8-6.18-17.8-20.71C20.51,33.39,27.89,25,39.16,25a16.53,16.53,0,0,1,6.3.85c.3.12.36.3.36.66v5.21c0,.48-.24.48-.42.42A14.54,14.54,0,0,0,39.22,31c-7.09,0-11.81,5.39-11.81,14.66,0,11.44,6.48,14.84,11.81,14.84A16.77,16.77,0,0,0,45,59.73c.24-.12.43-.12.43.3v5Z"/><path class="c" d="M57.63,65.6c0,.31-.12.43-.37.43H51.45A.39.39,0,0,1,51,65.6V26c0-.25.06-.37.42-.37h5.81a.32.32,0,0,1,.37.37v12a11.17,11.17,0,0,1,7.08-2.36c3.94,0,8.78,2,8.78,10.84v19c0,.37-.12.49-.42.49H67.32c-.3,0-.43-.19-.43-.49V47.19c0-3.63-1.51-5.63-4.42-5.63a7,7,0,0,0-4.84,1.82V65.6Z"/><g class="d"><path class="a" d="M45.46,65a.61.61,0,0,1-.43.66,19.06,19.06,0,0,1-6.72.91c-9.45,0-17.8-6.18-17.8-20.71C20.51,33.39,27.89,25,39.16,25a16.53,16.53,0,0,1,6.3.85c.3.12.36.3.36.66v5.21c0,.48-.24.48-.42.42A14.54,14.54,0,0,0,39.22,31c-7.09,0-11.81,5.39-11.81,14.66,0,11.44,6.48,14.84,11.81,14.84A16.77,16.77,0,0,0,45,59.73c.24-.12.43-.12.43.3v5Z"/><path class="a" d="M57.63,65.6c0,.31-.12.43-.37.43H51.45A.39.39,0,0,1,51,65.6V26c0-.25.06-.37.42-.37h5.81a.32.32,0,0,1,.37.37v12a11.17,11.17,0,0,1,7.08-2.36c3.94,0,8.78,2,8.78,10.84v19c0,.37-.12.49-.42.49H67.32c-.3,0-.43-.19-.43-.49V47.19c0-3.63-1.51-5.63-4.42-5.63a7,7,0,0,0-4.84,1.82V65.6Z"/></g></svg>