<svg xmlns="http://www.w3.org/2000/svg" viewBox="0 0 96 93.6"><defs><style>.a{fill:#ff4a19;}.b{fill:#260600;}.c{fill:#fff;}.d{opacity:0.15;}</style></defs><rect class="a" width="96" height="93.6" rx="17.6"/><rect class="b" x="4" y="4" width="88" height="85.6" rx="14.4"/><path class="c" d="M33.85,66.5c0,.4-.1.5-.5.5h-6.3a.46.46,0,0,1-.4-.5V23.9c0-.4.1-.5.4-.5h22.7c.4,0,.5.1.5.5l.5,5.4c.1.4-.1.6-.4.6H33.85V42.6h14.9c.4,0,.5.1.5.5v5.5a.47.47,0,0,1-.5.5H33.85Z"/><path class="c" d="M69,61.9c-.4,0-1,.1-1.4.1-1,0-1.9-.5-1.9-2.5V23.1H59V59.8c0,6.5,2.7,8.2,6.4,8.2a7.54,7.54,0,0,0,3.6-.7c.3-.1.4-.3.4-.7V62.1C69.25,61.9,69.15,61.8,69,61.9Z"/><path class="c" d="M33.85,66.5c0,.4-.1.5-.5.5h-6.3a.46.46,0,0,1-.4-.5V23.9c0-.4.1-.5.4-.5h22.7c.4,0,.5.1.5.5l.5,5.4c.1.4-.1.6-.4.6H33.85V42.6h14.9c.4,0,.5.1.5.5v5.5a.47.47,0,0,1-.5.5H33.85Z"/><path class="c" d="M69,61.9c-.4,0-1,.1-1.4.1-1,0-1.9-.5-1.9-2.5V23.1H59V59.8c0,6.5,2.7,8.2,6.4,8.2a7.54,7.54,0,0,0,3.6-.7c.3-.1.4-.3.4-.7V62.1C69.25,61.9,69.15,61.8,69,61.9Z"/><g class="d"><path class="a" d="M33.85,66.5c0,.4-.1.5-.5.5h-6.3a.46.46,0,0,1-.4-.5V23.9c0-.4.1-.5.4-.5h22.7c.4,0,.5.1.5.5l.5,5.4c.1.4-.1.6-.4.6H33.85V42.6h14.9c.4,0,.5.1.5.5v5.5a.47.47,0,0,1-.5.5H33.85Z"/><path class="a" d="M69,61.9c-.4,0-1,.1-1.4.1-1,0-1.9-.5-1.9-2.5V23.1H59V59.8c0,6.5,2.7,8.2,6.4,8.2a7.54,7.54,0,0,0,3.6-.7c.3-.1.4-.3.4-.7V62.1C69.25,61.9,69.15,61.8,69,61.9Z"/></g></svg>