<svg xmlns="http://www.w3.org/2000/svg" viewBox="0 0 96 93.6"><defs><style>.a{fill:#d41818;}.b{fill:#560000;}.c{fill:#fff;fill-rule:evenodd;}</style></defs><rect class="a" width="96" height="93.6" rx="17.6"/><rect class="b" x="4" y="4" width="88" height="85.6" rx="14.4"/><path class="c" d="M63,31.18a14.22,14.22,0,0,1,4.73-.75V19.65A22.75,22.75,0,0,0,49,28.47a34.65,34.65,0,0,0-4.68,7.86l-3.5,8.56a72.78,72.78,0,0,1-3.14,7.7,30.3,30.3,0,0,1-3.24,5.74,12.35,12.35,0,0,1-4.25,3.51,13.94,13.94,0,0,1-5.95,1.22V74A22.88,22.88,0,0,0,43,65.13,40.64,40.64,0,0,0,46.8,59l3-6.8H62.26V41.33H54a34.79,34.79,0,0,1,2.45-4.68,14.11,14.11,0,0,1,2.87-3.35A11.1,11.1,0,0,1,63,31.18Z"/></svg>