<svg xmlns="http://www.w3.org/2000/svg" viewBox="0 0 96 93.6"><defs><style>.a{fill:#ffd600;}.b{fill:#141100;}.c{fill:#fff;}.d{opacity:0.15;}</style></defs><rect class="a" width="96" height="93.6" rx="17.6"/><rect class="b" x="4" y="4" width="88" height="85.6" rx="14.4"/><path class="c" d="M23,48.37v16.7c0,.33-.14.5-.42.5H16.05c-.24,0-.36-.17-.36-.5V24.44c0-.3.14-.44.42-.44H38.25a.47.47,0,0,1,.54.44l.61,4.91c0,.38-.12.57-.49.57H23V42.45h14.3c.32,0,.48.17.48.5v4.92c0,.33-.16.5-.48.5Z"/><path class="c" d="M73.67,65.57H67.55c-.27,0-.46-.17-.57-.5q-4.07-18.72-4.64-22h-.05c-.16,1-.45,2.36-.89,4.19s-1.13,4.55-2.06,8.19-1.74,6.85-2.43,9.67a.56.56,0,0,1-.57.5H50.28a.67.67,0,0,1-.69-.5L42.27,35.46c-.08-.38.06-.57.4-.57H48.9c.23,0,.4.15.52.45Q52.74,50.13,54.05,58h.12q.33-2,5.08-22.55c.12-.34.29-.51.52-.51h5.89c.23,0,.36.15.4.45q4.17,18.82,4.8,22.8H71q1.55-8.7,4.86-22.8a.46.46,0,0,1,.51-.45H82c.26,0,.38.15.34.45l-8,29.73C74.14,65.4,73.93,65.57,73.67,65.57Z"/><path class="c" d="M23,48.37v16.7c0,.33-.14.5-.42.5H16.05c-.24,0-.36-.17-.36-.5V24.44c0-.3.14-.44.42-.44H38.25a.47.47,0,0,1,.54.44l.61,4.91c0,.38-.12.57-.49.57H23V42.45h14.3c.32,0,.48.17.48.5v4.92c0,.33-.16.5-.48.5Z"/><path class="c" d="M73.67,65.57H67.55c-.27,0-.46-.17-.57-.5q-4.07-18.72-4.64-22h-.05c-.16,1-.45,2.36-.89,4.19s-1.13,4.55-2.06,8.19-1.74,6.85-2.43,9.67a.56.56,0,0,1-.57.5H50.28a.67.67,0,0,1-.69-.5L42.27,35.46c-.08-.38.06-.57.4-.57H48.9c.23,0,.4.15.52.45Q52.74,50.13,54.05,58h.12q.33-2,5.08-22.55c.12-.34.29-.51.52-.51h5.89c.23,0,.36.15.4.45q4.17,18.82,4.8,22.8H71q1.55-8.7,4.86-22.8a.46.46,0,0,1,.51-.45H82c.26,0,.38.15.34.45l-8,29.73C74.14,65.4,73.93,65.57,73.67,65.57Z"/><g class="d"><path class="a" d="M23,48.37v16.7c0,.33-.14.5-.42.5H16.05c-.24,0-.36-.17-.36-.5V24.44c0-.3.14-.44.42-.44H38.25a.47.47,0,0,1,.54.44l.61,4.91c0,.38-.12.57-.49.57H23V42.45h14.3c.32,0,.48.17.48.5v4.92c0,.33-.16.5-.48.5Z"/><path class="a" d="M73.67,65.57H67.55c-.27,0-.46-.17-.57-.5q-4.07-18.72-4.64-22h-.05c-.16,1-.45,2.36-.89,4.19s-1.13,4.55-2.06,8.19-1.74,6.85-2.43,9.67a.56.56,0,0,1-.57.5H50.28a.67.67,0,0,1-.69-.5L42.27,35.46c-.08-.38.06-.57.4-.57H48.9c.23,0,.4.15.52.45Q52.74,50.13,54.05,58h.12q.33-2,5.08-22.55c.12-.34.29-.51.52-.51h5.89c.23,0,.36.15.4.45q4.17,18.82,4.8,22.8H71q1.55-8.7,4.86-22.8a.46.46,0,0,1,.51-.45H82c.26,0,.38.15.34.45l-8,29.73C74.14,65.4,73.93,65.57,73.67,65.57Z"/></g></svg>