<svg xmlns="http://www.w3.org/2000/svg" enable-background="new 0 0 512 512" version="1" viewBox="0 0 512 512"><path fill="#C40907" d="M93.867,12.8h326.016C470.547,12.8,512,54.253,512,104.918v314.965C512,470.547,470.547,512,419.883,512
			H92.118C41.453,512,0,470.547,0,419.882V106.667C0,54.933,42.134,12.8,93.867,12.8"/><path fill="#F4F4F4" d="M98.133,34.133h317.482c41.45,0,75.051,33.601,75.051,75.051v306.431c0,41.45-33.602,75.051-75.051,75.051
			H96.384c-41.45,0-75.051-33.601-75.051-75.051V110.933C21.333,68.267,55.466,34.133,98.133,34.133"/><g><polygon fill="#C40907" points="279.929 135.271 251.733 106.898 95.967 261.685 247.814 417.665 276.476 389.763 152.246 262.151"/><polygon fill="#C40907" points="341.284 259.446 262.491 179.167 233.943 207.185 285.405 259.618 233.858 312.786 262.576 340.63"/><polygon fill="#C40907" points="298.377 142.551 270.148 170.891 359.692 260.08 270.01 351.181 298.516 379.242 416.095 259.803"/><polygon fill="#C40907" points="180.632 262.399 220.501 301.858 259.823 261.918 220.501 222.668"/></g></svg>