<svg xmlns="http://www.w3.org/2000/svg" viewBox="0 0 96 93.6"><defs><style>.a{fill:#9e8cff;}.b{fill:#0b004d;}.c{fill:#fff;}.d{opacity:0.15;}</style></defs><rect class="a" width="96" height="93.6" rx="17.6"/><rect class="b" x="4" y="4" width="88" height="85.6" rx="14.4"/><polygon class="a" points="37.73 31.47 37.73 31.48 37.74 31.48 37.73 31.47"/><polygon class="a" points="32.59 26.3 32.59 26.3 32.59 26.3 32.59 26.3"/><polygon class="a" points="68.59 62.52 68.59 62.51 63.45 62.51 63.45 57.34 63.44 57.33 58.31 57.33 58.31 52.17 58.29 52.15 53.16 52.15 53.16 47.02 48.02 47.02 48.02 41.84 42.88 41.84 42.88 36.66 37.73 36.66 37.73 31.48 32.59 31.48 32.59 26.3 27.45 26.3 27.45 21.12 22.26 21.12 22.26 72.48 73.74 72.48 73.74 67.69 68.59 67.69 68.59 62.52"/><polygon class="a" points="42.88 36.64 42.88 36.66 42.89 36.66 42.88 36.64"/><polygon class="a" points="48.02 41.82 48.02 41.84 48.04 41.84 48.02 41.82"/><rect class="a" x="32.59" y="21.12" width="5.14" height="5.18"/><rect class="a" x="37.73" y="26.3" width="5.14" height="5.18"/><rect class="a" x="42.88" y="31.48" width="5.14" height="5.18"/><rect class="a" x="48.02" y="36.66" width="5.14" height="5.18"/><rect class="a" x="53.16" y="41.84" width="5.14" height="5.18"/><rect class="a" x="58.31" y="46.97" width="5.14" height="5.18"/><rect class="a" x="63.45" y="52.15" width="5.14" height="5.18"/><rect class="a" x="68.59" y="57.33" width="5.14" height="5.18"/><rect class="a" x="48.02" y="26.3" width="5.14" height="5.18"/><rect class="a" x="58.31" y="36.66" width="5.14" height="5.18"/><rect class="a" x="68.59" y="46.97" width="5.14" height="5.18"/><rect class="a" x="58.31" y="26.3" width="5.14" height="5.18"/><rect class="a" x="68.59" y="36.66" width="5.14" height="5.18"/><polygon class="c" points="37.73 31.47 37.73 31.48 37.74 31.48 37.73 31.47"/><polygon class="c" points="37.73 31.47 37.73 31.48 37.74 31.48 37.73 31.47"/><polygon class="c" points="32.59 26.3 32.59 26.3 32.59 26.3 32.59 26.3"/><polygon class="c" points="32.59 26.3 32.59 26.3 32.59 26.3 32.59 26.3"/><polygon class="c" points="68.59 62.52 68.59 62.51 63.45 62.51 63.45 57.34 63.44 57.33 58.31 57.33 58.31 52.17 58.29 52.15 53.16 52.15 53.16 47.02 48.02 47.02 48.02 41.84 42.88 41.84 42.88 36.66 37.73 36.66 37.73 31.48 32.59 31.48 32.59 26.3 27.45 26.3 27.45 21.12 22.26 21.12 22.26 72.48 73.74 72.48 73.74 67.69 68.59 67.69 68.59 62.52"/><polygon class="c" points="68.59 62.52 68.59 62.51 63.45 62.51 63.45 57.34 63.44 57.33 58.31 57.33 58.31 52.17 58.29 52.15 53.16 52.15 53.16 47.02 48.02 47.02 48.02 41.84 42.88 41.84 42.88 36.66 37.73 36.66 37.73 31.48 32.59 31.48 32.59 26.3 27.45 26.3 27.45 21.12 22.26 21.12 22.26 72.48 73.74 72.48 73.74 67.69 68.59 67.69 68.59 62.52"/><polygon class="c" points="42.88 36.64 42.88 36.66 42.89 36.66 42.88 36.64"/><polygon class="c" points="42.88 36.64 42.88 36.66 42.89 36.66 42.88 36.64"/><polygon class="c" points="48.02 41.82 48.02 41.84 48.04 41.84 48.02 41.82"/><polygon class="c" points="48.02 41.82 48.02 41.84 48.04 41.84 48.02 41.82"/><rect class="c" x="32.59" y="21.12" width="5.14" height="5.18"/><rect class="c" x="32.59" y="21.12" width="5.14" height="5.18"/><rect class="c" x="37.73" y="26.3" width="5.14" height="5.18"/><rect class="c" x="37.73" y="26.3" width="5.14" height="5.18"/><rect class="c" x="42.88" y="31.48" width="5.14" height="5.18"/><rect class="c" x="42.88" y="31.48" width="5.14" height="5.18"/><rect class="c" x="48.02" y="36.66" width="5.14" height="5.18"/><rect class="c" x="48.02" y="36.66" width="5.14" height="5.18"/><rect class="c" x="53.16" y="41.84" width="5.14" height="5.18"/><rect class="c" x="53.16" y="41.84" width="5.14" height="5.18"/><rect class="c" x="58.31" y="46.97" width="5.14" height="5.18"/><rect class="c" x="58.31" y="46.97" width="5.14" height="5.18"/><rect class="c" x="63.45" y="52.15" width="5.14" height="5.18"/><rect class="c" x="63.45" y="52.15" width="5.14" height="5.18"/><rect class="c" x="68.59" y="57.33" width="5.14" height="5.18"/><rect class="c" x="68.59" y="57.33" width="5.14" height="5.18"/><rect class="c" x="48.02" y="26.3" width="5.14" height="5.18"/><rect class="c" x="48.02" y="26.3" width="5.14" height="5.18"/><rect class="c" x="58.31" y="36.66" width="5.14" height="5.18"/><rect class="c" x="58.31" y="36.66" width="5.14" height="5.18"/><rect class="c" x="68.59" y="46.97" width="5.14" height="5.18"/><rect class="c" x="68.59" y="46.97" width="5.14" height="5.18"/><rect class="c" x="58.31" y="26.3" width="5.14" height="5.18"/><rect class="c" x="58.31" y="26.3" width="5.14" height="5.18"/><rect class="c" x="68.59" y="36.66" width="5.14" height="5.18"/><rect class="c" x="68.59" y="36.66" width="5.14" height="5.18"/><g class="d"><polygon class="a" points="37.73 31.47 37.73 31.48 37.74 31.48 37.73 31.47"/><polygon class="a" points="37.73 31.47 37.73 31.48 37.74 31.48 37.73 31.47"/><polygon class="a" points="32.59 26.3 32.59 26.3 32.59 26.3 32.59 26.3"/><polygon class="a" points="32.59 26.3 32.59 26.3 32.59 26.3 32.59 26.3"/><polygon class="a" points="68.59 62.52 68.59 62.51 63.45 62.51 63.45 57.34 63.44 57.33 58.31 57.33 58.31 52.17 58.29 52.15 53.16 52.15 53.16 47.02 48.02 47.02 48.02 41.84 42.88 41.84 42.88 36.66 37.73 36.66 37.73 31.48 32.59 31.48 32.59 26.3 27.45 26.3 27.45 21.12 22.26 21.12 22.26 72.48 73.74 72.48 73.74 67.69 68.59 67.69 68.59 62.52"/><polygon class="a" points="68.59 62.52 68.59 62.51 63.45 62.51 63.45 57.34 63.44 57.33 58.31 57.33 58.31 52.17 58.29 52.15 53.16 52.15 53.16 47.02 48.02 47.02 48.02 41.84 42.88 41.84 42.88 36.66 37.73 36.66 37.73 31.48 32.59 31.48 32.59 26.3 27.45 26.3 27.45 21.12 22.26 21.12 22.26 72.48 73.74 72.48 73.74 67.69 68.59 67.69 68.59 62.52"/><polygon class="a" points="42.88 36.64 42.88 36.66 42.89 36.66 42.88 36.64"/><polygon class="a" points="42.88 36.64 42.88 36.66 42.89 36.66 42.88 36.64"/><polygon class="a" points="48.02 41.82 48.02 41.84 48.04 41.84 48.02 41.82"/><polygon class="a" points="48.02 41.82 48.02 41.84 48.04 41.84 48.02 41.82"/><rect class="a" x="32.59" y="21.12" width="5.14" height="5.18"/><rect class="a" x="32.59" y="21.12" width="5.14" height="5.18"/><rect class="a" x="37.73" y="26.3" width="5.14" height="5.18"/><rect class="a" x="37.73" y="26.3" width="5.14" height="5.18"/><rect class="a" x="42.88" y="31.48" width="5.14" height="5.18"/><rect class="a" x="42.88" y="31.48" width="5.14" height="5.18"/><rect class="a" x="48.02" y="36.66" width="5.14" height="5.18"/><rect class="a" x="48.02" y="36.66" width="5.14" height="5.18"/><rect class="a" x="53.16" y="41.84" width="5.14" height="5.18"/><rect class="a" x="53.16" y="41.84" width="5.14" height="5.18"/><rect class="a" x="58.31" y="46.97" width="5.14" height="5.18"/><rect class="a" x="58.31" y="46.97" width="5.14" height="5.18"/><rect class="a" x="63.45" y="52.15" width="5.14" height="5.18"/><rect class="a" x="63.45" y="52.15" width="5.14" height="5.18"/><rect class="a" x="68.59" y="57.33" width="5.14" height="5.18"/><rect class="a" x="68.59" y="57.33" width="5.14" height="5.18"/><rect class="a" x="48.02" y="26.3" width="5.14" height="5.18"/><rect class="a" x="48.02" y="26.3" width="5.14" height="5.18"/><rect class="a" x="58.31" y="36.66" width="5.14" height="5.18"/><rect class="a" x="58.31" y="36.66" width="5.14" height="5.18"/><rect class="a" x="68.59" y="46.97" width="5.14" height="5.18"/><rect class="a" x="68.59" y="46.97" width="5.14" height="5.18"/><rect class="a" x="58.31" y="26.3" width="5.14" height="5.18"/><rect class="a" x="58.31" y="26.3" width="5.14" height="5.18"/><rect class="a" x="68.59" y="36.66" width="5.14" height="5.18"/><rect class="a" x="68.59" y="36.66" width="5.14" height="5.18"/></g></svg>