<svg xmlns="http://www.w3.org/2000/svg" viewBox="0 0 96 93.6"><defs><style>.a{fill:#87ec00;}.b{fill:#152600;}.c{fill:#fff;}.d{opacity:0.15;}</style></defs><rect class="a" width="96" height="93.6" rx="17.6"/><rect class="b" x="4" y="4" width="88" height="85.6" rx="14.4"/><path class="c" d="M30,31.62H19.49a.6.6,0,0,1-.56-.56l.56-5.1a.61.61,0,0,1,.56-.57H45.57c.29,0,.29,0,.57.29V26l.56,5.1c0,.28,0,.28-.28.56H36.53V67.07a.6.6,0,0,1-.56.56H30.3a.6.6,0,0,1-.56-.56L30,31.62Zm27.53,19,9.36-12.78c0-.28.29-.28.57-.28h6.23c.56,0,.56.28.28.56-1.41,2-8.24,10.21-10.49,12.78v.57L75.35,67.07c.29.28,0,.56-.28.56H68a.6.6,0,0,1-.56-.56c-2-2.57-7.08-9.93-9.65-13.34V67.07c0,.28,0,.28-.28.56H51.56c-.28,0-.28,0-.56-.28V26c0-.28,0-.28.28-.57h5.95a.61.61,0,0,1,.56.57l-.28,24.67Z"/><g class="d"><path class="a" d="M30,31.62H19.49a.6.6,0,0,1-.56-.56l.56-5.1a.61.61,0,0,1,.56-.57H45.57c.29,0,.29,0,.57.29V26l.56,5.1c0,.28,0,.28-.28.56H36.53V67.07a.6.6,0,0,1-.56.56H30.3a.6.6,0,0,1-.56-.56L30,31.62Zm27.53,19,9.36-12.78c0-.28.29-.28.57-.28h6.23c.56,0,.56.28.28.56-1.41,2-8.24,10.21-10.49,12.78v.57L75.35,67.07c.29.28,0,.56-.28.56H68a.6.6,0,0,1-.56-.56c-2-2.57-7.08-9.93-9.65-13.34V67.07c0,.28,0,.28-.28.56H51.56c-.28,0-.28,0-.56-.28V26c0-.28,0-.28.28-.57h5.95a.61.61,0,0,1,.56.57l-.28,24.67Z"/></g></svg>