<svg xmlns="http://www.w3.org/2000/svg" enable-background="new 0 0 512 512" version="1" viewBox="0 0 512 512"><path fill="#FC2A31" d="M94.867,13.8h326.016C471.547,13.8,513,55.253,513,105.918v314.965C513,471.547,471.547,513,420.883,513
			H93.118C42.453,513,1,471.547,1,420.882V107.667C1,55.933,43.134,13.8,94.867,13.8"/><path fill="#E1202A" d="M99.133,35.133h317.482c41.45,0,75.051,33.601,75.051,75.051v306.431c0,41.45-33.602,75.051-75.051,75.051
			H97.384c-41.45,0-75.051-33.601-75.051-75.051V111.933C22.333,69.267,56.466,35.133,99.133,35.133"/><g><circle cx="257.177" cy="262.989" r="142.197" fill="#FFF"/><polygon fill="#FC2A31" points="257.34 152.692 162.054 208.493 162.054 257.768 295.194 300.19 257.014 323.685 194.686 289.095 195.339 279.305 162.054 268.863 162.054 318.138 254.73 373.286 352.3 318.464 352.3 269.189 218.182 226.115 257.177 203.925 318.362 238.841 318.036 247.326 352.3 256.789 352.3 208.493"/><circle cx="384.008" cy="424.25" r="31.179" fill="#FFF"/><circle cx="169.909" cy="90.524" r="19.469" fill="#FFF"/><circle cx="112.922" cy="434.25" r="13.754" fill="#FFF"/></g></svg>