<svg xmlns="http://www.w3.org/2000/svg" viewBox="0 0 96 93.6"><defs><style>.a{fill:#00eae4;}.b{fill:#002625;}.c{fill:#fff;}.d{opacity:0.15;}</style></defs><rect class="a" width="96" height="93.6" rx="17.6"/><rect class="b" x="4" y="4" width="88" height="85.6" rx="14.4"/><path class="c" d="M20.88,63.52a1,1,0,0,1-.4-.84V56.36a.31.31,0,0,1,.52-.2,17.21,17.21,0,0,0,9.72,3c4.8,0,6.8-2.52,6.8-5.36,0-2.52-1.24-4.56-5.88-7.28l-2.36-1.24c-6.8-3.84-8.76-7.72-8.76-12.68C20.52,25.8,25.2,20.4,34,20.4c3.88,0,6.8.6,8.44,1.52.32.12.4.32.4.72v5.92a.32.32,0,0,1-.52.28,15.61,15.61,0,0,0-8.16-2c-5.08,0-6.72,2.92-6.72,5.2,0,2.52,1.24,4.36,5.8,6.88l2.12,1.12c7.52,4.16,9.44,8.2,9.44,13.12,0,7.32-5.36,12.4-14,12.4A21,21,0,0,1,20.88,63.52Zm54.4-4.64a36.45,36.45,0,0,1-.68,7.32c-2,8.24-8.36,10.28-14.64,10.28a19.06,19.06,0,0,1-8.08-1.6.71.71,0,0,1-.32-.68V68c0-.32.12-.48.32-.28a17.51,17.51,0,0,0,8.2,2c4.6,0,7.64-2.32,7.84-7.28a10.89,10.89,0,0,1-4.28.8c-7.8,0-13.72-5.16-13.72-15.2,0-8.76,5.4-16.16,15.84-16.16a28.54,28.54,0,0,1,9.52,1.64.38.38,0,0,1,.24.4,34.25,34.25,0,0,0-.28,3.76V58.88Zm-7.2-20.24a7.5,7.5,0,0,0-2.84-.52c-5.36,0-8,4.24-8,9.56,0,6.52,3.32,9.24,7.64,9.24a6.57,6.57,0,0,0,3.16-.6Z"/><g class="d"><path class="a" d="M20.88,63.52a1,1,0,0,1-.4-.84V56.36a.31.31,0,0,1,.52-.2,17.21,17.21,0,0,0,9.72,3c4.8,0,6.8-2.52,6.8-5.36,0-2.52-1.24-4.56-5.88-7.28l-2.36-1.24c-6.8-3.84-8.76-7.72-8.76-12.68C20.52,25.8,25.2,20.4,34,20.4c3.88,0,6.8.6,8.44,1.52.32.12.4.32.4.72v5.92a.32.32,0,0,1-.52.28,15.61,15.61,0,0,0-8.16-2c-5.08,0-6.72,2.92-6.72,5.2,0,2.52,1.24,4.36,5.8,6.88l2.12,1.12c7.52,4.16,9.44,8.2,9.44,13.12,0,7.32-5.36,12.4-14,12.4A21,21,0,0,1,20.88,63.52Zm54.4-4.64a36.45,36.45,0,0,1-.68,7.32c-2,8.24-8.36,10.28-14.64,10.28a19.06,19.06,0,0,1-8.08-1.6.71.71,0,0,1-.32-.68V68c0-.32.12-.48.32-.28a17.51,17.51,0,0,0,8.2,2c4.6,0,7.64-2.32,7.84-7.28a10.89,10.89,0,0,1-4.28.8c-7.8,0-13.72-5.16-13.72-15.2,0-8.76,5.4-16.16,15.84-16.16a28.54,28.54,0,0,1,9.52,1.64.38.38,0,0,1,.24.4,34.25,34.25,0,0,0-.28,3.76V58.88Zm-7.2-20.24a7.5,7.5,0,0,0-2.84-.52c-5.36,0-8,4.24-8,9.56,0,6.52,3.32,9.24,7.64,9.24a6.57,6.57,0,0,0,3.16-.6Z"/></g></svg>