<svg xmlns="http://www.w3.org/2000/svg" viewBox="0 0 96 93.6"><defs><style>.a{fill:#b6f200;}.b{fill:#1d2600;}.c{fill:#fff;}.d{opacity:0.15;}</style></defs><rect class="a" width="96" height="93.6" rx="17.6"/><rect class="b" x="4" y="4" width="88" height="85.6" rx="14.4"/><path class="c" d="M33.7,65.52c0,.4-.13.53-.46.53H26.89c-.33,0-.46-.13-.46-.57v-43c0-.29.13-.42.46-.42H49.1c.39,0,.46.13.53.46l.66,5.53c.06.39-.13.53-.57.56h-16V41.49l14.35,0c.33,0,.47.06.47.46v5.15c0,.39-.14.46-.47.46H33.7Z"/><path class="c" d="M56.41,40.3c0-.46,0-1.65-.2-3.91,0-.33.07-.39.33-.53a41.25,41.25,0,0,1,14.57-2.78c.33,0,.46.07.46.4v5.83c0,.33-.13.4-.46.4a20.78,20.78,0,0,0-7.35.95V65.78c0,.33-.13.46-.46.46l-6.43-.15c-.33,0-.46-.14-.46-.47Z"/><path class="c" d="M33.7,65.52c0,.4-.13.53-.46.53H26.89c-.33,0-.46-.13-.46-.57v-43c0-.29.13-.42.46-.42H49.1c.39,0,.46.13.53.46l.66,5.53c.06.39-.13.53-.57.56h-16V41.49l14.35,0c.33,0,.47.06.47.46v5.15c0,.39-.14.46-.47.46H33.7Z"/><path class="c" d="M56.41,40.3c0-.46,0-1.65-.2-3.91,0-.33.07-.39.33-.53a41.25,41.25,0,0,1,14.57-2.78c.33,0,.46.07.46.4v5.83c0,.33-.13.4-.46.4a20.78,20.78,0,0,0-7.35.95V65.78c0,.33-.13.46-.46.46l-6.43-.15c-.33,0-.46-.14-.46-.47Z"/><g class="d"><path class="a" d="M33.7,65.52c0,.4-.13.53-.46.53H26.89c-.33,0-.46-.13-.46-.57v-43c0-.29.13-.42.46-.42H49.1c.39,0,.46.13.53.46l.66,5.53c.06.39-.13.53-.57.56h-16V41.49l14.35,0c.33,0,.47.06.47.46v5.15c0,.39-.14.46-.47.46H33.7Z"/><path class="a" d="M56.41,40.3c0-.46,0-1.65-.2-3.91,0-.33.07-.39.33-.53a41.25,41.25,0,0,1,14.57-2.78c.33,0,.46.07.46.4v5.83c0,.33-.13.4-.46.4a20.78,20.78,0,0,0-7.35.95V65.78c0,.33-.13.46-.46.46l-6.43-.15c-.33,0-.46-.14-.46-.47Z"/></g></svg>