<svg xmlns="http://www.w3.org/2000/svg" enable-background="new 0 0 512 512" version="1" viewBox="0 0 512 512"><path fill="#FC2A31" d="M93.867,12.8h324.267C469.867,12.8,512,54.933,512,106.667v311.467C512,469.867,469.867,512,418.134,512
			H93.867C42.134,512,0,469.867,0,418.133V106.667C0,54.933,42.134,12.8,93.867,12.8"/><path fill="#E30B0C" d="M98.133,34.133h315.733c42.667,0,76.8,34.133,76.8,76.8v302.933c0,42.667-34.133,76.8-76.8,76.8H98.133
			c-42.667,0-76.8-34.133-76.8-76.8V110.933C21.333,68.267,55.466,34.133,98.133,34.133"/><g><rect width="308.734" height="5.274" x="101.785" y="260.921" fill="#FFF" opacity=".99"/><path fill="#FFF" d="M410.528,265.585l-4.869-0.014c-5.384-172.181-224.311-171.792-230.173-2.106l-4.865,0.186
				c-1.604-36.361,15.295-75.535,41.909-100.658C296.324,83.097,412.72,161.076,410.528,265.585z"/><path fill="#FFF" d="M220.133,396c-71.179,0.521-121.598-86.676-118.348-135.079l4.802,0.283
				c-2.801,29.08,18.432,70.994,39.37,93.511c77.358,89.911,198.979-2.668,193.278-91.157h4.772
				C344.476,330.016,290.298,397.888,220.133,396z"/><path fill="#FFF" d="M189.07,351.854c-50.64,0.983-82.61-42.928-85.28-87.755l17.819-1.082l-8.909,0.541l8.908-0.557
				c2.636,57.061,61.017,95.308,109.566,53.944c18.194-16.018,28.082-36.226,32.721-45.264
				c9.958-20.306,17.173-44.532,35.067-61.886c41.161-38.714,109.045-2.202,107.417,51.754l-17.852-0.021
				c0.791-14.621-11.783-42.138-31.4-46.33c-19.329-6.318-33.889-3.938-45.815,7.488c-15.316,14.748-22.433,39.292-32.014,58.093
				C268.6,306.941,230.254,354.944,189.07,351.854z"/></g></svg>