<svg xmlns="http://www.w3.org/2000/svg" enable-background="new 0 0 512 512" version="1" viewBox="0 0 512 512"><path fill="#00D3C3" d="M94.867,13.8h326.016C471.547,13.8,513,55.253,513,105.918v314.965
																							C513,471.547,471.547,513,420.883,513H93.118C42.453,513,1,471.547,1,420.882V107.667
																							C1,55.933,43.134,13.8,94.867,13.8"/><path fill="#01A69D" d="M99.133,35.133h317.482c41.45,0,75.051,33.601,75.051,75.051v306.431
																							c0,41.45-33.602,75.051-75.051,75.051H97.384c-41.45,0-75.051-33.601-75.051-75.051V111.933
																							C22.333,69.267,56.466,35.133,99.133,35.133"/><rect width="512" height="499.2" x="1" y="13.799" fill="none"/><g><path fill="#FFF" d="M257,109.994c-82.714,0-149.767,67.053-149.767,149.767S174.286,409.528,257,409.528
				c82.714,0,149.767-67.053,149.767-149.767S339.714,109.994,257,109.994z M353.417,367.155
				c-5.053,10.597-15.375,17.693-27.079,18.615l-112.219,8.845c-11.704,0.923-23.01-4.469-29.661-14.143l-63.769-92.762
				c-6.651-9.674-7.635-22.162-2.582-32.758l48.45-101.607c5.053-10.597,15.375-17.693,27.079-18.615l112.219-8.845
				c11.703-0.923,23.01,4.469,29.661,14.143l63.769,92.762c6.651,9.674,7.635,22.162,2.582,32.758L353.417,367.155z"/><path fill="#FFF" d="M390.682,297.467l-95.381,97.778c-0.698,0.715-1.724,1.004-2.692,0.757L160.24,362.289
				c-0.968-0.247-1.731-0.991-2.002-1.953L121.25,228.845c-0.271-0.962-0.007-1.995,0.69-2.71l95.381-97.778
				c0.698-0.715,1.724-1.004,2.692-0.757l132.369,33.713c0.968,0.247,1.731,0.991,2.002,1.953l36.988,131.492
				C391.643,295.719,391.38,296.752,390.682,297.467z"/><polygon fill="#01A69D" points="257.305 141.08 153.062 202.126 153.062 256.032 298.717 302.442 256.948 328.146 188.762 290.304 189.476 279.594 153.062 268.17 153.062 322.077 254.449 382.409 361.191 322.434 361.191 268.528 214.466 221.404 257.127 197.128 324.063 235.327 323.706 244.609 361.191 254.962 361.191 202.126"/></g></svg>