<svg xmlns="http://www.w3.org/2000/svg" viewBox="0 0 96 93.6"><defs><style>.a{fill:#54b0ff;}.b{fill:#001934;}.c{fill:#fff;}.d{opacity:0.15;}</style></defs><rect class="a" width="96" height="93.6" rx="17.6"/><rect class="b" x="4" y="4" width="88" height="85.6" rx="14.4"/><path class="a" d="M25.24,24.68c0-.24.08-.44.4-.44,2.52-.12,6.2-.2,10-.2C46.48,24,51.2,30,51.2,37.56c0,9.92-7.16,14.16-16,14.16-1.48,0-2-.08-3-.08v15c0,.32-.12.44-.44.44h-6c-.32,0-.44-.12-.44-.44v-42Zm7,20.72c.92.08,1.6.08,3.16.08,4.56,0,8.84-1.6,8.84-7.8,0-5-3-7.48-8.24-7.48-1.56,0-3,.08-3.72.12V45.4Z"/><path class="a" d="M55.4,42.64c-.24,0-.32-.12-.32-.44V36.88c0-.32.08-.4.32-.4H59v-2a13.63,13.63,0,0,1,1.28-6.2c1.6-3.28,4.36-4.76,8.24-4.76a7.75,7.75,0,0,1,2.64.32c.32.12.4.24.4.56v5.16c0,.32-.12.44-.44.4a8.74,8.74,0,0,0-1.72-.2c-2.24,0-3.36,1.6-3.36,4.72v2h5.08c.32,0,.4.08.4.32v5.36c0,.32-.08.4-.4.44H66v24c0,.24-.08.44-.44.44H59.48a.4.4,0,0,1-.44-.44v-24H55.4Z"/><path class="c" d="M25.24,24.68c0-.24.08-.44.4-.44,2.52-.12,6.2-.2,10-.2C46.48,24,51.2,30,51.2,37.56c0,9.92-7.16,14.16-16,14.16-1.48,0-2-.08-3-.08v15c0,.32-.12.44-.44.44h-6c-.32,0-.44-.12-.44-.44v-42Zm7,20.72c.92.08,1.6.08,3.16.08,4.56,0,8.84-1.6,8.84-7.8,0-5-3-7.48-8.24-7.48-1.56,0-3,.08-3.72.12V45.4Z"/><path class="c" d="M55.4,42.64c-.24,0-.32-.12-.32-.44V36.88c0-.32.08-.4.32-.4H59v-2a13.63,13.63,0,0,1,1.28-6.2c1.6-3.28,4.36-4.76,8.24-4.76a7.75,7.75,0,0,1,2.64.32c.32.12.4.24.4.56v5.16c0,.32-.12.44-.44.4a8.74,8.74,0,0,0-1.72-.2c-2.24,0-3.36,1.6-3.36,4.72v2h5.08c.32,0,.4.08.4.32v5.36c0,.32-.08.4-.4.44H66v24c0,.24-.08.44-.44.44H59.48a.4.4,0,0,1-.44-.44v-24H55.4Z"/><g class="d"><path class="a" d="M25.24,24.68c0-.24.08-.44.4-.44,2.52-.12,6.2-.2,10-.2C46.48,24,51.2,30,51.2,37.56c0,9.92-7.16,14.16-16,14.16-1.48,0-2-.08-3-.08v15c0,.32-.12.44-.44.44h-6c-.32,0-.44-.12-.44-.44v-42Zm7,20.72c.92.08,1.6.08,3.16.08,4.56,0,8.84-1.6,8.84-7.8,0-5-3-7.48-8.24-7.48-1.56,0-3,.08-3.72.12V45.4Z"/><path class="a" d="M55.4,42.64c-.24,0-.32-.12-.32-.44V36.88c0-.32.08-.4.32-.4H59v-2a13.63,13.63,0,0,1,1.28-6.2c1.6-3.28,4.36-4.76,8.24-4.76a7.75,7.75,0,0,1,2.64.32c.32.12.4.24.4.56v5.16c0,.32-.12.44-.44.4a8.74,8.74,0,0,0-1.72-.2c-2.24,0-3.36,1.6-3.36,4.72v2h5.08c.32,0,.4.08.4.32v5.36c0,.32-.08.4-.4.44H66v24c0,.24-.08.44-.44.44H59.48a.4.4,0,0,1-.44-.44v-24H55.4Z"/></g></svg>