<svg xmlns="http://www.w3.org/2000/svg" enable-background="new 0 0 512 512" version="1" viewBox="0 0 512 512"><path fill="#FC2A31" d="M93.867,12.8h324.267C469.867,12.8,512,54.933,512,106.667v311.467C512,469.867,469.867,512,418.134,512
			H93.867C42.134,512,0,469.867,0,418.133V106.667C0,54.933,42.134,12.8,93.867,12.8"/><linearGradient id="a" x1="255.999" x2="255.999" y1="42.191" y2="513" gradientUnits="userSpaceOnUse"><stop offset="0" stop-color="#ef0c0d"/><stop offset="1" stop-color="#ec0c0d"/></linearGradient><path fill="url(#a)" d="M98.133,34.133h315.733c42.667,0,76.8,34.133,76.8,76.8v302.933c0,42.667-34.133,76.8-76.8,76.8
			H98.133c-42.667,0-76.8-34.133-76.8-76.8V110.933C21.333,68.267,55.466,34.133,98.133,34.133"/><path fill="#FFF" d="M253.697,149.372l-106.162,74.937c-0.394,0.278-0.488,0.824-0.208,1.218L253.49,374.75
		c0.348,0.488,1.073,0.489,1.421,0l106.239-149.224c0.28-0.393,0.187-0.94-0.208-1.218l-106.239-74.937
		C254.401,149.159,253.999,149.159,253.697,149.372z M159.649,234.385l93.496-65.313c0.298-0.208,0.693-0.21,0.992-0.004
		l94.183,64.568c0.401,0.275,0.5,0.824,0.22,1.221L254.91,367.961c-0.346,0.492-1.075,0.494-1.424,0.003l-94.048-132.359
		C159.157,235.21,159.252,234.663,159.649,234.385z M253.681,220.46l-110.939,82.473c-0.489,0.364-0.464,1.105,0.05,1.434
		l110.939,71.08c0.286,0.183,0.653,0.184,0.939,0.001l111.466-71.08c0.516-0.329,0.541-1.072,0.05-1.436L254.72,220.459
		C254.411,220.231,253.989,220.231,253.681,220.46z M253.177,369.309l-92.827-58.603c-0.518-0.327-0.546-1.073-0.054-1.438
		l93.383-69.223c0.309-0.229,0.731-0.229,1.04,0.001l93.302,69.469c0.493,0.367,0.462,1.115-0.06,1.44l-93.858,58.357
		C253.819,369.488,253.46,369.487,253.177,369.309z"/></svg>