<svg xmlns="http://www.w3.org/2000/svg" viewBox="0 0 96 93.6"><defs><style>.a{fill:#fbb500;}.b{fill:#261c00;}.c{fill:#fff;}.d{opacity:0.15;}</style></defs><rect class="a" width="96" height="93.6" rx="17.6"/><rect class="b" x="4" y="4" width="88" height="85.6" rx="14.4"/><path class="c" d="M24.85,23.53c0-.32.08-.44.32-.52,1.81-.08,6.85-.2,10.8-.2,12,0,14.14,7,14.14,11.24a11,11,0,0,1-4,8.9c2.42,1.17,6,4.15,6,10.32,0,8.17-6.57,13.17-16.56,13.09-4.27,0-8.14-.08-10.19-.12a.49.49,0,0,1-.44-.53ZM31.7,40.62h3.94a38.09,38.09,0,0,1,5.12.08A7,7,0,0,0,43.22,35c0-4-2.86-6-7.46-6-1.57,0-3.06.08-4.06.12Zm0,19.57c1.16.09,2.25,0,3.7,0,5.12,0,9.39-1.93,9.39-6.88,0-3.07-1.57-5.2-4.76-6.17a13.73,13.73,0,0,0-3.82-.52H31.7ZM58.28,40.78c0-.45,0-1.62-.2-3.83,0-.32.12-.4.37-.52a40.18,40.18,0,0,1,14.26-2.74c.32,0,.44.08.44.4v5.72c0,.32,0,.4-.32.4A22.54,22.54,0,0,0,65.5,41V66c0,.32-.12.44-.45.44H58.73c-.32,0-.45-.12-.45-.44V40.78Z"/><g class="d"><path class="a" d="M24.85,23.53c0-.32.08-.44.32-.52,1.81-.08,6.85-.2,10.8-.2,12,0,14.14,7,14.14,11.24a11,11,0,0,1-4,8.9c2.42,1.17,6,4.15,6,10.32,0,8.17-6.57,13.17-16.56,13.09-4.27,0-8.14-.08-10.19-.12a.49.49,0,0,1-.44-.53ZM31.7,40.62h3.94a38.09,38.09,0,0,1,5.12.08A7,7,0,0,0,43.22,35c0-4-2.86-6-7.46-6-1.57,0-3.06.08-4.06.12Zm0,19.57c1.16.09,2.25,0,3.7,0,5.12,0,9.39-1.93,9.39-6.88,0-3.07-1.57-5.2-4.76-6.17a13.73,13.73,0,0,0-3.82-.52H31.7ZM58.28,40.78c0-.45,0-1.62-.2-3.83,0-.32.12-.4.37-.52a40.18,40.18,0,0,1,14.26-2.74c.32,0,.44.08.44.4v5.72c0,.32,0,.4-.32.4A22.54,22.54,0,0,0,65.5,41V66c0,.32-.12.44-.45.44H58.73c-.32,0-.45-.12-.45-.44V40.78Z"/></g></svg>