<svg xmlns="http://www.w3.org/2000/svg" viewBox="0 0 96 93.6"><defs><style>.a{fill:#ffd70d;}.b{fill:#262002;}.c{fill:#fff;}.d{opacity:0.15;}</style></defs><rect class="a" width="96" height="93.6" rx="17.6"/><rect class="b" x="4" y="4" width="88" height="85.6" rx="14.4"/><path class="c" d="M21.56,62.13a1.21,1.21,0,0,1-.47-.94V55.11c0-.24.23-.47.47-.24a16.89,16.89,0,0,0,9.36,2.81c4.68,0,6.55-2.34,6.55-5.15,0-2.34-1.17-4.44-5.62-7l-2.34-1.17C23,40.6,21.09,36.85,21.09,32.17c0-6.55,4.45-11.7,13.1-11.7a23,23,0,0,1,8.43,1.41c.23.23.47.23.47.7v5.85c0,.23-.24.47-.47.23a17,17,0,0,0-8.19-1.87c-4.92,0-6.55,2.81-6.55,4.92,0,2.34,1.17,4.21,5.61,6.55l2.11,1.17c7.25,4,9.12,8,9.12,12.63,0,7-5.14,11.94-13.57,11.94A16.83,16.83,0,0,1,21.56,62.13ZM74.91,46.92C74.91,58.38,67,64,58.76,64a3.85,3.85,0,0,1-1.63-.24v8.66a.51.51,0,0,1-.47.47l-5.85.47c-.47,0-.47,0-.47-.47V37.56a19.16,19.16,0,0,0-.23-3.51s-.24-.24,0-.24a31.61,31.61,0,0,1,11-2.1C70,31.71,74.91,38.26,74.91,46.92ZM57.13,38.26V57.91a5.62,5.62,0,0,0,2.1.24c4.21,0,8.66-3,8.66-10.77,0-6.31-2.81-9.59-7.49-9.59A11.89,11.89,0,0,0,57.13,38.26Z"/><g class="d"><path class="a" d="M21.56,62.13a1.21,1.21,0,0,1-.47-.94V55.11c0-.24.23-.47.47-.24a16.89,16.89,0,0,0,9.36,2.81c4.68,0,6.55-2.34,6.55-5.15,0-2.34-1.17-4.44-5.62-7l-2.34-1.17C23,40.6,21.09,36.85,21.09,32.17c0-6.55,4.45-11.7,13.1-11.7a23,23,0,0,1,8.43,1.41c.23.23.47.23.47.7v5.85c0,.23-.24.47-.47.23a17,17,0,0,0-8.19-1.87c-4.92,0-6.55,2.81-6.55,4.92,0,2.34,1.17,4.21,5.61,6.55l2.11,1.17c7.25,4,9.12,8,9.12,12.63,0,7-5.14,11.94-13.57,11.94A16.83,16.83,0,0,1,21.56,62.13ZM74.91,46.92C74.91,58.38,67,64,58.76,64a3.85,3.85,0,0,1-1.63-.24v8.66a.51.51,0,0,1-.47.47l-5.85.47c-.47,0-.47,0-.47-.47V37.56a19.16,19.16,0,0,0-.23-3.51s-.24-.24,0-.24a31.61,31.61,0,0,1,11-2.1C70,31.71,74.91,38.26,74.91,46.92ZM57.13,38.26V57.91a5.62,5.62,0,0,0,2.1.24c4.21,0,8.66-3,8.66-10.77,0-6.31-2.81-9.59-7.49-9.59A11.89,11.89,0,0,0,57.13,38.26Z"/></g></svg>