<svg xmlns="http://www.w3.org/2000/svg" enable-background="new 0 0 512 512" version="1" viewBox="0 0 512 512"><path fill="#8DD933" d="M93.867,12.8h326.016C470.547,12.8,512,54.253,512,104.918v314.965C512,470.547,470.547,512,419.883,512
			H92.118C41.453,512,0,470.547,0,419.882V106.667C0,54.933,42.134,12.8,93.867,12.8"/><path fill="#0B1104" d="M98.133,34.133h317.482c41.45,0,75.051,33.601,75.051,75.051v306.431c0,41.45-33.602,75.051-75.051,75.051
			H96.384c-41.45,0-75.051-33.601-75.051-75.051V110.933C21.333,68.267,55.466,34.133,98.133,34.133"/><g><path fill="#E6FFC8" d="M338.999,195.179h-82.794c-2.209,0-4,1.791-4,4s1.791,4,4,4h82.794c13.007,0,23.588,10.582,23.588,23.588
			v83.684c0,13.007-10.581,23.588-23.588,23.588H228.712c-13.007,0-23.588-10.581-23.588-23.588v-83.684c0-2.209-1.791-4-4-4
			s-4,1.791-4,4v83.684c0,17.418,14.17,31.588,31.588,31.588h52.815v26.733h-41.008c-2.209,0-4,1.791-4,4s1.791,4,4,4h89.149
			c2.209,0,4-1.791,4-4s-1.791-4-4-4h-40.141v-26.733h49.472c17.418,0,31.588-14.17,31.588-31.588v-83.684
			C370.587,209.349,356.417,195.179,338.999,195.179z"/><path fill="#8CD933" d="M281.514,152.028h-106.34c-16.437,0-29.762,13.325-29.762,29.762v83.601
			c0,16.437,13.325,29.762,29.762,29.762h106.34c16.437,0,29.762-13.325,29.762-29.762V181.79
			C311.276,165.353,297.951,152.028,281.514,152.028z M269.331,223.877l-56.567,30.06c-2.639,1.402-5.82-0.51-5.82-3.498v-57.934
			c0-2.935,3.08-4.851,5.713-3.553l56.567,27.874C272.12,218.253,272.183,222.362,269.331,223.877z"/></g></svg>