<svg xmlns="http://www.w3.org/2000/svg" viewBox="0 0 96 93.6"><defs><style>.a{fill:#00dbff;}.b{fill:#002026;}.c{fill:#fff;}.d{opacity:0.15;}</style></defs><rect class="a" width="96" height="93.6" rx="17.6"/><rect class="b" x="4" y="4" width="88" height="85.6" rx="14.4"/><path class="c" d="M27.17,23.88c0-.28.08-.48.4-.48,2.56-.12,6.28-.2,10.24-.2,11.08,0,15.92,6.08,15.92,13.88,0,10.16-7.32,14.52-16.36,14.52-1.52,0-2-.08-3.12-.08v15.4c0,.32-.12.48-.48.48H27.65c-.32,0-.48-.12-.48-.48Zm7.12,21.24c.92.08,1.64.08,3.24.08,4.68,0,9-1.64,9-8,0-5.08-3.08-7.64-8.44-7.64-1.6,0-3.12.08-3.84.12ZM60.77,23.8c0-.28.08-.4.48-.4h6.2c.4,0,.52.12.52.4V59.72c0,1.6.6,2.16,1.8,2.16a6.26,6.26,0,0,0,1.08-.12c.28,0,.32.08.32.4v4.68c0,.4-.08.52-.32.64a10.4,10.4,0,0,1-3.48.48c-3.48,0-6.6-1.32-6.6-7.64V23.8Z"/><g class="d"><path class="a" d="M27.17,23.88c0-.28.08-.48.4-.48,2.56-.12,6.28-.2,10.24-.2,11.08,0,15.92,6.08,15.92,13.88,0,10.16-7.32,14.52-16.36,14.52-1.52,0-2-.08-3.12-.08v15.4c0,.32-.12.48-.48.48H27.65c-.32,0-.48-.12-.48-.48Zm7.12,21.24c.92.08,1.64.08,3.24.08,4.68,0,9-1.64,9-8,0-5.08-3.08-7.64-8.44-7.64-1.6,0-3.12.08-3.84.12ZM60.77,23.8c0-.28.08-.4.48-.4h6.2c.4,0,.52.12.52.4V59.72c0,1.6.6,2.16,1.8,2.16a6.26,6.26,0,0,0,1.08-.12c.28,0,.32.08.32.4v4.68c0,.4-.08.52-.32.64a10.4,10.4,0,0,1-3.48.48c-3.48,0-6.6-1.32-6.6-7.64V23.8Z"/></g></svg>