<svg xmlns="http://www.w3.org/2000/svg" viewBox="0 0 96 93.6"><defs><style>.a{fill:#3cf2a6;}.b{fill:#00261a;}.c{fill:#fff;}.d{opacity:0.15;}</style></defs><rect class="a" width="96" height="93.6" rx="17.6"/><rect class="b" x="4" y="4" width="88" height="85.6" rx="14.4"/><path class="c" d="M16.88,22.5c0-.32.08-.48.48-.52,1.52-.08,5.92-.2,10.44-.2C41.28,21.78,48,30.5,48,43.26,48,61,36.36,66.38,27.4,66.38c-3.4,0-8.32-.08-10.12-.12-.28,0-.4-.2-.4-.52ZM24.2,59.86c1.12.08,2,.12,3.32.12,7.44,0,13-5.24,13-16.56.08-11-5.64-15.28-12.76-15.28-1.4,0-2.44.08-3.6.12Z"/><path class="c" d="M54.48,40.18c0-.4,0-1.8-.2-4.12,0-.28.08-.32.32-.48a36.8,36.8,0,0,1,12.56-2.64c5.64,0,12,2.2,12,11.92V65.74c0,.4-.12.52-.48.52H72.32c-.4,0-.52-.2-.52-.52V45.38c0-3.84-1.6-6-5.56-6a14.12,14.12,0,0,0-4.44.72V65.78c0,.28-.12.48-.4.48H55c-.32,0-.48-.12-.48-.48V40.18Z"/><path class="c" d="M16.88,22.5c0-.32.08-.48.48-.52,1.52-.08,5.92-.2,10.44-.2C41.28,21.78,48,30.5,48,43.26,48,61,36.36,66.38,27.4,66.38c-3.4,0-8.32-.08-10.12-.12-.28,0-.4-.2-.4-.52ZM24.2,59.86c1.12.08,2,.12,3.32.12,7.44,0,13-5.24,13-16.56.08-11-5.64-15.28-12.76-15.28-1.4,0-2.44.08-3.6.12Z"/><path class="c" d="M54.48,40.18c0-.4,0-1.8-.2-4.12,0-.28.08-.32.32-.48a36.8,36.8,0,0,1,12.56-2.64c5.64,0,12,2.2,12,11.92V65.74c0,.4-.12.52-.48.52H72.32c-.4,0-.52-.2-.52-.52V45.38c0-3.84-1.6-6-5.56-6a14.12,14.12,0,0,0-4.44.72V65.78c0,.28-.12.48-.4.48H55c-.32,0-.48-.12-.48-.48V40.18Z"/><g class="d"><path class="a" d="M16.88,22.5c0-.32.08-.48.48-.52,1.52-.08,5.92-.2,10.44-.2C41.28,21.78,48,30.5,48,43.26,48,61,36.36,66.38,27.4,66.38c-3.4,0-8.32-.08-10.12-.12-.28,0-.4-.2-.4-.52ZM24.2,59.86c1.12.08,2,.12,3.32.12,7.44,0,13-5.24,13-16.56.08-11-5.64-15.28-12.76-15.28-1.4,0-2.44.08-3.6.12Z"/><path class="a" d="M54.48,40.18c0-.4,0-1.8-.2-4.12,0-.28.08-.32.32-.48a36.8,36.8,0,0,1,12.56-2.64c5.64,0,12,2.2,12,11.92V65.74c0,.4-.12.52-.48.52H72.32c-.4,0-.52-.2-.52-.52V45.38c0-3.84-1.6-6-5.56-6a14.12,14.12,0,0,0-4.44.72V65.78c0,.28-.12.48-.4.48H55c-.32,0-.48-.12-.48-.48V40.18Z"/></g></svg>