<svg xmlns="http://www.w3.org/2000/svg" viewBox="0 0 96 93.6"><defs><style>.a{fill:#fc2a31;}.b{fill:#bc1f24;}.c{fill:#fff;}</style></defs><rect class="a" width="96" height="93.6" rx="17.6"/><rect class="b" x="4" y="4" width="88" height="85.6" rx="14.4"/><path class="b" d="M70.6,62.05a21.4,21.4,0,0,1-14.91,6.3H36.56a18.28,18.28,0,0,1-12.92-31.2,18,18,0,0,1,12.92-5.43,18.21,18.21,0,0,1,3,.26l.43-.43A21.6,21.6,0,0,1,70.6,62.05Z"/><path class="c" d="M55.52,68.82h-19a18.75,18.75,0,0,1-13.26-32,18.4,18.4,0,0,1,13.26-5.56,18.84,18.84,0,0,1,2.86.22l.25-.25A22.07,22.07,0,0,1,70.94,62.38h0A21.88,21.88,0,0,1,55.7,68.82Zm-19-36.62A17.41,17.41,0,0,0,24,37.48,17.8,17.8,0,0,0,36.56,67.87H55.69a21.07,21.07,0,1,0-15.35-36l-.6.6-.24,0A17.69,17.69,0,0,0,36.56,32.2Z"/><path class="c" d="M67.76,59.21a17,17,0,0,1-6.38,4c-.78.27-1.46.44-2.24.7a16.39,16.39,0,0,1-3.53.42h-.35a17.15,17.15,0,0,1-11.11-4c-.44-.34-.86-.78-1.29-1.12L42,58.43l-2-2L34.58,51a2,2,0,0,1,0-2.84,1.85,1.85,0,0,1,1.38-.6,1.72,1.72,0,0,1,1.38.6l8.19,8.19a17.32,17.32,0,0,0,2.5,2,13.23,13.23,0,0,0,7.06,2,13.75,13.75,0,0,0,9.65-4A13.53,13.53,0,0,0,47.59,35.51a17.11,17.11,0,0,0-3.71-2.24,18,18,0,0,1,11.3-4.05,17.63,17.63,0,0,1,12.58,30Z"/><path class="c" d="M52.68,48.6a1.82,1.82,0,0,1-1.38.61,1.7,1.7,0,0,1-1.38-.61l-4.83-4.81-1-1c-.18-.17-.35-.26-.43-.43A10.11,10.11,0,0,0,38.8,40a7.12,7.12,0,0,0-1.89-.17h-.26a10.11,10.11,0,0,0-7,3,10.24,10.24,0,0,0,0,14.56,10.1,10.1,0,0,0,7.33,3h1.8l1.73,1.64a13.5,13.5,0,0,0,2.76,2.32H36.65A14,14,0,0,1,26.57,60,14.31,14.31,0,0,1,36.65,35.6h.09a14.67,14.67,0,0,1,2.06.17,21.94,21.94,0,0,1,2.24.51,14.33,14.33,0,0,1,3.79,1.9,10.87,10.87,0,0,1,1.56,1.3l.43.42,1,1,4.83,4.82A2,2,0,0,1,52.68,48.6Z"/></svg>