<svg xmlns="http://www.w3.org/2000/svg" enable-background="new 0 0 512 512" version="1" viewBox="0 0 512 512"><path fill="#FC2A31" d="M93.867,12.8h326.016C470.547,12.8,512,54.253,512,104.918v314.965C512,470.547,470.547,512,419.883,512
			H92.118C41.453,512,0,470.547,0,419.882V106.667C0,54.933,42.134,12.8,93.867,12.8"/><linearGradient id="a" x1="252.453" x2="260.623" y1="49.649" y2="539.862" gradientUnits="userSpaceOnUse"><stop offset="0" stop-color="#ef0c0d"/><stop offset="1" stop-color="#e90c0d"/></linearGradient><path fill="url(#a)" d="M98.133,34.133h317.482c41.45,0,75.051,33.601,75.051,75.051v306.431
			c0,41.45-33.602,75.051-75.051,75.051H96.384c-41.45,0-75.051-33.601-75.051-75.051V110.933
			C21.333,68.267,55.466,34.133,98.133,34.133"/><path fill="#FFF" d="M389.904,262.399c0-73.835-60.069-133.904-133.904-133.904s-133.904,60.069-133.904,133.904
		c0,24.197,6.452,46.915,17.725,66.526l-6.114,3.508c25.085,43.714,71.945,70.87,122.293,70.87c50.4,0,97.284-27.198,122.356-70.979
		l-6.119-3.504C383.474,309.234,389.904,286.554,389.904,262.399z M362.735,323.379c-21.873,38.196-62.771,61.925-106.735,61.925
		c-43.918,0-84.796-23.691-106.681-61.829l-6.03,3.46c-10.935-19.024-17.194-41.062-17.194-64.535
		c0-71.629,58.275-129.904,129.904-129.904c71.63,0,129.904,58.275,129.904,129.904c0,23.432-6.238,45.433-17.137,64.434
		L362.735,323.379z M256,161.756v7c-51.635,0-93.644,42.008-93.644,93.644c0,51.635,42.008,93.644,93.644,93.644
		c34.611,0,64.894-18.876,81.102-46.872l6.092,3.521c8.799-15.224,13.449-32.614,13.449-50.292
		C356.644,206.904,311.495,161.756,256,161.756z M327.61,303.686l6.03,3.485c-15.515,26.802-44.506,44.873-77.64,44.873
		c-49.43,0-89.644-40.214-89.644-89.644S206.57,172.756,256,172.756v7c45.569,0,82.644,37.074,82.644,82.644
		C338.644,276.919,334.828,291.195,327.61,303.686z M256,212.149c-0.619,0-1.233,0.024-1.847,0.047l-0.253-7.01
		c-12.952,0.468-25.031,5.155-34.935,13.555c-20.648,17.516-26.197,47.438-13.194,71.149l6.157-3.377
		c8.549,15.562,25.097,26.136,44.072,26.136c27.708,0,50.25-22.542,50.25-50.25S283.708,212.149,256,212.149z M256,308.649
		c-17.466,0-32.697-9.734-40.565-24.059l6.119-3.356c-8.91-16.247-5.102-36.756,9.056-48.767c6.79-5.759,15.068-8.973,23.94-9.293
		l-0.252-6.982c0.566-0.021,1.132-0.043,1.702-0.043c25.502,0,46.25,20.748,46.25,46.25C302.25,287.901,281.502,308.649,256,308.649
		z"/></svg>