<svg xmlns="http://www.w3.org/2000/svg" viewBox="0 0 96 93.6"><defs><style>.a{fill:#d41818;}.b{fill:#560000;}.c{fill:#fff;}</style></defs><rect class="a" width="96" height="93.6" rx="17.6"/><rect class="b" x="4" y="4" width="88" height="85.6" rx="14.4"/><path class="c" d="M72.61,57.6a8.42,8.42,0,0,0-.71-.83,26.47,26.47,0,0,1-6.51-10.85c-.06-.19-.11-.37-.16-.56s-.1-.39-.15-.58a26.43,26.43,0,0,1,.22-12.65s.16-.7.2-1A10.55,10.55,0,0,0,45.1,26c-.07.19-.22.69-.22.7a26.65,26.65,0,0,1-6,10.93,25.59,25.59,0,0,1-12,7.06,10.57,10.57,0,0,0,5.47,20.42A26.31,26.31,0,0,1,45,64.89l.57.15.58.16A26.43,26.43,0,0,1,57,71.71a7.81,7.81,0,0,0,1,.87,10.54,10.54,0,0,0,14.64-15M47,59.51a10.34,10.34,0,1,1,12.66-7.32A10.36,10.36,0,0,1,47,59.51"/></svg>