<svg xmlns="http://www.w3.org/2000/svg" viewBox="0 0 96 93.6"><defs><style>.a{fill:#5ca6ff;}.b{fill:#001534;}.c{fill:#fff;}.d{opacity:0.15;}</style></defs><rect class="a" width="96" height="93.6" rx="17.6"/><rect class="b" x="4" y="4" width="88" height="85.6" rx="14.4"/><rect class="c" x="57.97" y="26.29" width="15.76" height="4.37"/><path class="c" d="M16.29,67.06V24.81c0-.39.13-.6.39-.65Q22,24,29.69,24a26.45,26.45,0,0,1,7.92,1,10.59,10.59,0,0,1,4.82,2.78,11,11,0,0,1,2.2,3.53,11.19,11.19,0,0,1,.65,3.85,8.85,8.85,0,0,1-1.91,5.85,10.48,10.48,0,0,1-4.76,3.27v.13A14.1,14.1,0,0,1,45,47.85a9,9,0,0,1,2.65,6.92,11,11,0,0,1-4.92,9.67q-4.92,3.33-13.78,3.33-7.38,0-12.17-.13C16.44,67.6,16.29,67.41,16.29,67.06Zm8-36.94V42h5.3q4,0,5.82-1.62a5.45,5.45,0,0,0,1.82-4.27q0-6.09-7.9-6.08C27,30,25.26,30,24.32,30.12Zm0,17.85V61.69c.94.09,2.6.13,5,.13q9.82,0,9.83-7a6,6,0,0,0-2.26-5Q34.61,48,30,48Z"/><path class="c" d="M72.27,53.41h-13a8.62,8.62,0,0,0,2.49,6.31q2.43,2.36,7.09,2.36a18.58,18.58,0,0,0,8-1.62q.39-.12.39.33v4.85a.76.76,0,0,1-.39.77,23.08,23.08,0,0,1-9.77,1.88,19.38,19.38,0,0,1-7.57-1.36,12.11,12.11,0,0,1-5.05-3.69,16.07,16.07,0,0,1-2.68-5.07,19.59,19.59,0,0,1-.87-5.93A17.72,17.72,0,0,1,55,40.37q4.11-4.82,11.23-4.82,6.73,0,10.09,4A14.15,14.15,0,0,1,79.71,49a24.6,24.6,0,0,1-.26,3.68.56.56,0,0,1-.52.52A56.55,56.55,0,0,1,72.27,53.41Zm-13-5h9.19a21.34,21.34,0,0,0,3.43-.13,4.54,4.54,0,0,0,.06-.9,7.34,7.34,0,0,0-1.39-4.4C69.63,41.63,68.1,41,66,41a5.82,5.82,0,0,0-4.76,2.1A9.32,9.32,0,0,0,59.26,48.36Z"/><rect class="c" x="57.97" y="26.29" width="15.76" height="4.37"/><path class="c" d="M16.29,67.06V24.81c0-.39.13-.6.39-.65Q22,24,29.69,24a26.45,26.45,0,0,1,7.92,1,10.59,10.59,0,0,1,4.82,2.78,11,11,0,0,1,2.2,3.53,11.19,11.19,0,0,1,.65,3.85,8.85,8.85,0,0,1-1.91,5.85,10.48,10.48,0,0,1-4.76,3.27v.13A14.1,14.1,0,0,1,45,47.85a9,9,0,0,1,2.65,6.92,11,11,0,0,1-4.92,9.67q-4.92,3.33-13.78,3.33-7.38,0-12.17-.13C16.44,67.6,16.29,67.41,16.29,67.06Zm8-36.94V42h5.3q4,0,5.82-1.62a5.45,5.45,0,0,0,1.82-4.27q0-6.09-7.9-6.08C27,30,25.26,30,24.32,30.12Zm0,17.85V61.69c.94.09,2.6.13,5,.13q9.82,0,9.83-7a6,6,0,0,0-2.26-5Q34.61,48,30,48Z"/><path class="c" d="M72.27,53.41h-13a8.62,8.62,0,0,0,2.49,6.31q2.43,2.36,7.09,2.36a18.58,18.58,0,0,0,8-1.62q.39-.12.39.33v4.85a.76.76,0,0,1-.39.77,23.08,23.08,0,0,1-9.77,1.88,19.38,19.38,0,0,1-7.57-1.36,12.11,12.11,0,0,1-5.05-3.69,16.07,16.07,0,0,1-2.68-5.07,19.59,19.59,0,0,1-.87-5.93A17.72,17.72,0,0,1,55,40.37q4.11-4.82,11.23-4.82,6.73,0,10.09,4A14.15,14.15,0,0,1,79.71,49a24.6,24.6,0,0,1-.26,3.68.56.56,0,0,1-.52.52A56.55,56.55,0,0,1,72.27,53.41Zm-13-5h9.19a21.34,21.34,0,0,0,3.43-.13,4.54,4.54,0,0,0,.06-.9,7.34,7.34,0,0,0-1.39-4.4C69.63,41.63,68.1,41,66,41a5.82,5.82,0,0,0-4.76,2.1A9.32,9.32,0,0,0,59.26,48.36Z"/><g class="d"><rect class="a" x="57.97" y="26.29" width="15.76" height="4.37"/><path class="a" d="M16.29,67.06V24.81c0-.39.13-.6.39-.65Q22,24,29.69,24a26.45,26.45,0,0,1,7.92,1,10.59,10.59,0,0,1,4.82,2.78,11,11,0,0,1,2.2,3.53,11.19,11.19,0,0,1,.65,3.85,8.85,8.85,0,0,1-1.91,5.85,10.48,10.48,0,0,1-4.76,3.27v.13A14.1,14.1,0,0,1,45,47.85a9,9,0,0,1,2.65,6.92,11,11,0,0,1-4.92,9.67q-4.92,3.33-13.78,3.33-7.38,0-12.17-.13C16.44,67.6,16.29,67.41,16.29,67.06Zm8-36.94V42h5.3q4,0,5.82-1.62a5.45,5.45,0,0,0,1.82-4.27q0-6.09-7.9-6.08C27,30,25.26,30,24.32,30.12Zm0,17.85V61.69c.94.09,2.6.13,5,.13q9.82,0,9.83-7a6,6,0,0,0-2.26-5Q34.61,48,30,48Z"/><path class="a" d="M72.27,53.41h-13a8.62,8.62,0,0,0,2.49,6.31q2.43,2.36,7.09,2.36a18.58,18.58,0,0,0,8-1.62q.39-.12.39.33v4.85a.76.76,0,0,1-.39.77,23.08,23.08,0,0,1-9.77,1.88,19.38,19.38,0,0,1-7.57-1.36,12.11,12.11,0,0,1-5.05-3.69,16.07,16.07,0,0,1-2.68-5.07,19.59,19.59,0,0,1-.87-5.93A17.72,17.72,0,0,1,55,40.37q4.11-4.82,11.23-4.82,6.73,0,10.09,4A14.15,14.15,0,0,1,79.71,49a24.6,24.6,0,0,1-.26,3.68.56.56,0,0,1-.52.52A56.55,56.55,0,0,1,72.27,53.41Zm-13-5h9.19a21.34,21.34,0,0,0,3.43-.13,4.54,4.54,0,0,0,.06-.9,7.34,7.34,0,0,0-1.39-4.4C69.63,41.63,68.1,41,66,41a5.82,5.82,0,0,0-4.76,2.1A9.32,9.32,0,0,0,59.26,48.36Z"/></g></svg>