<svg xmlns="http://www.w3.org/2000/svg" viewBox="0 0 96 93.6"><defs><style>.a{fill:#c1e800;}.b{fill:#1f2600;}.c{fill:#fff;}.d{opacity:0.15;}</style></defs><rect class="a" width="96" height="93.6" rx="17.6"/><rect class="b" x="4" y="4" width="88" height="85.6" rx="14.4"/><path class="c" d="M16.55,22.08H25.8c.32,0,.48.08.52.4,1.62,6,6.32,25.77,7.43,32.41h.08c1.22-6,6.72-26,8.42-32.41.08-.32.2-.4.51-.4H51.7c.31,0,.39.08.47.32l1.58,42.73c.08.4-.12.52-.47.52H47c-.39,0-.47-.2-.47-.52C46.2,51.18,46.2,31.45,46.2,28h-.08C45,33.51,39.28,55.8,36.79,65.13c-.08.4-.27.52-.51.52H30.55a.54.54,0,0,1-.6-.44c-2.41-9.72-6.84-29.85-8.34-37.2h-.12c0,5.14-.51,23-1,37.16,0,.4-.19.52-.47.52H14.26c-.4,0-.52-.12-.52-.48l2.34-42.73C16.15,22.12,16.19,22.08,16.55,22.08ZM82.06,59c0,.48.08,1.82.2,4,0,.27,0,.39-.28.47a32.57,32.57,0,0,1-12.1,2.69C64,66.24,58.26,64,58.26,54.81V33.94c0-.32.12-.51.47-.51h6.21c.32,0,.47.19.47.51v20c0,3.84,1.47,5.93,5.5,5.93A11.14,11.14,0,0,0,75,59.16V33.94c0-.32.12-.51.48-.51h6.2c.4,0,.48.19.48.51V59Z"/><g class="d"><path class="a" d="M16.55,22.08H25.8c.32,0,.48.08.52.4,1.62,6,6.32,25.77,7.43,32.41h.08c1.22-6,6.72-26,8.42-32.41.08-.32.2-.4.51-.4H51.7c.31,0,.39.08.47.32l1.58,42.73c.08.4-.12.52-.47.52H47c-.39,0-.47-.2-.47-.52C46.2,51.18,46.2,31.45,46.2,28h-.08C45,33.51,39.28,55.8,36.79,65.13c-.08.4-.27.52-.51.52H30.55a.54.54,0,0,1-.6-.44c-2.41-9.72-6.84-29.85-8.34-37.2h-.12c0,5.14-.51,23-1,37.16,0,.4-.19.52-.47.52H14.26c-.4,0-.52-.12-.52-.48l2.34-42.73C16.15,22.12,16.19,22.08,16.55,22.08ZM82.06,59c0,.48.08,1.82.2,4,0,.27,0,.39-.28.47a32.57,32.57,0,0,1-12.1,2.69C64,66.24,58.26,64,58.26,54.81V33.94c0-.32.12-.51.47-.51h6.21c.32,0,.47.19.47.51v20c0,3.84,1.47,5.93,5.5,5.93A11.14,11.14,0,0,0,75,59.16V33.94c0-.32.12-.51.48-.51h6.2c.4,0,.48.19.48.51V59Z"/></g></svg>