<svg xmlns="http://www.w3.org/2000/svg" viewBox="0 0 96 93.6"><defs><style>.a{fill:#ff5ff8;}.b{fill:#2b0028;}.c{fill:#fff;}.d{opacity:0.15;}</style></defs><rect class="a" width="96" height="93.6" rx="17.6"/><rect class="b" x="4" y="4" width="88" height="85.6" rx="14.4"/><path class="c" d="M36.44,66.18c0,.41-.08.53-.54.53H29.53c-.41,0-.54-.2-.54-.53V21.75c0-.41.21-.53.54-.53h6.41c.33,0,.5.12.5.49ZM67,65.85a.49.49,0,0,1-.33.53,17.92,17.92,0,0,1-6.2.87c-9.68,0-15.35-7.15-15.35-17.33,0-10,6.42-17.45,16.26-17.45a15.35,15.35,0,0,1,5.34.62.67.67,0,0,1,.33.7l-.09,5.67c0,.33-.2.41-.49.33A11.88,11.88,0,0,0,61.71,39c-5.38,0-9.06,3.77-9.06,10.59,0,8.07,4.64,10.84,9.23,10.84a13.49,13.49,0,0,0,4.63-.62c.33-.08.5.08.5.33L67,65.85Z"/><g class="d"><path class="a" d="M36.44,66.18c0,.41-.08.53-.54.53H29.53c-.41,0-.54-.2-.54-.53V21.75c0-.41.21-.53.54-.53h6.41c.33,0,.5.12.5.49ZM67,65.85a.49.49,0,0,1-.33.53,17.92,17.92,0,0,1-6.2.87c-9.68,0-15.35-7.15-15.35-17.33,0-10,6.42-17.45,16.26-17.45a15.35,15.35,0,0,1,5.34.62.67.67,0,0,1,.33.7l-.09,5.67c0,.33-.2.41-.49.33A11.88,11.88,0,0,0,61.71,39c-5.38,0-9.06,3.77-9.06,10.59,0,8.07,4.64,10.84,9.23,10.84a13.49,13.49,0,0,0,4.63-.62c.33-.08.5.08.5.33L67,65.85Z"/></g></svg>