<svg xmlns="http://www.w3.org/2000/svg" viewBox="0 0 96 93.6"><defs><style>.a{fill:#ff9100;}.b{fill:#140c00;}.c{fill:#fff;}.d{opacity:0.15;}</style></defs><rect class="a" width="96" height="93.6" rx="17.6"/><rect class="b" x="4" y="4" width="88" height="85.6" rx="14.4"/><path class="a" d="M31.27,67.1c0,.4-.11.53-.45.53h-6c-.22,0-.33-.2-.33-.53V24.62c0-.39.05-.45.39-.45H46.54c.34,0,.45.06.51.45l.5,5.31c.06.39,0,.59-.39.59H31.27V43H45.53c.33,0,.45.13.45.46v5.44a.4.4,0,0,1-.45.45H31.27V67.1Z"/><path class="a" d="M62,41.06c-2.72,0-3.43,1.7-3.43,2.94,0,1.57.71,2.43,4.87,4.39,5.7,2.75,8.13,5.17,8.13,9.89,0,6.55-4.26,10.28-10.35,10.28-2.93,0-6.63-.28-9-2a.67.67,0,0,1-.33-.65v-6c0-.32.22-.46.39-.32a14.58,14.58,0,0,0,9,2.77,3.08,3.08,0,0,0,3.44-3.14c0-1.7-.62-2.68-4.6-4.58C54.38,51.87,52,49.5,52,44.72,52,39.42,56,35,62.52,35c3.38,0,5.76.09,7.31,1.13a1,1,0,0,1,.33.86V42.4c0,.39-.22.59-.5.39C67.67,41.48,64.85,41.06,62,41.06Z"/><path class="c" d="M31.27,67.1c0,.4-.11.53-.45.53h-6c-.22,0-.33-.2-.33-.53V24.62c0-.39.05-.45.39-.45H46.54c.34,0,.45.06.51.45l.5,5.31c.06.39,0,.59-.39.59H31.27V43H45.53c.33,0,.45.13.45.46v5.44a.4.4,0,0,1-.45.45H31.27V67.1Z"/><path class="c" d="M62,41.06c-2.72,0-3.43,1.7-3.43,2.94,0,1.57.71,2.43,4.87,4.39,5.7,2.75,8.13,5.17,8.13,9.89,0,6.55-4.26,10.28-10.35,10.28-2.93,0-6.63-.28-9-2a.67.67,0,0,1-.33-.65v-6c0-.32.22-.46.39-.32a14.58,14.58,0,0,0,9,2.77,3.08,3.08,0,0,0,3.44-3.14c0-1.7-.62-2.68-4.6-4.58C54.38,51.87,52,49.5,52,44.72,52,39.42,56,35,62.52,35c3.38,0,5.76.09,7.31,1.13a1,1,0,0,1,.33.86V42.4c0,.39-.22.59-.5.39C67.67,41.48,64.85,41.06,62,41.06Z"/><g class="d"><path class="a" d="M31.27,67.1c0,.4-.11.53-.45.53h-6c-.22,0-.33-.2-.33-.53V24.62c0-.39.05-.45.39-.45H46.54c.34,0,.45.06.51.45l.5,5.31c.06.39,0,.59-.39.59H31.27V43H45.53c.33,0,.45.13.45.46v5.44a.4.4,0,0,1-.45.45H31.27V67.1Z"/><path class="a" d="M62,41.06c-2.72,0-3.43,1.7-3.43,2.94,0,1.57.71,2.43,4.87,4.39,5.7,2.75,8.13,5.17,8.13,9.89,0,6.55-4.26,10.28-10.35,10.28-2.93,0-6.63-.28-9-2a.67.67,0,0,1-.33-.65v-6c0-.32.22-.46.39-.32a14.58,14.58,0,0,0,9,2.77,3.08,3.08,0,0,0,3.44-3.14c0-1.7-.62-2.68-4.6-4.58C54.38,51.87,52,49.5,52,44.72,52,39.42,56,35,62.52,35c3.38,0,5.76.09,7.31,1.13a1,1,0,0,1,.33.86V42.4c0,.39-.22.59-.5.39C67.67,41.48,64.85,41.06,62,41.06Z"/></g></svg>