<svg xmlns="http://www.w3.org/2000/svg" enable-background="new 0 0 512 512" version="1" viewBox="0 0 512 512"><path fill="#3FC08C" d="M93.867,12.8h326.016C470.547,12.8,512,54.253,512,104.918v314.965C512,470.547,470.547,512,419.883,512
			H92.118C41.453,512,0,470.547,0,419.882V106.667C0,54.933,42.134,12.8,93.867,12.8"/><path fill="#091B14" d="M98.133,34.133h317.482c41.45,0,75.051,33.601,75.051,75.051v306.431c0,41.45-33.602,75.051-75.051,75.051
			H96.384c-41.45,0-75.051-33.601-75.051-75.051V110.933C21.333,68.267,55.466,34.133,98.133,34.133"/><g><rect width="70.163" height="65.573" x="140.428" y="146.24" fill="#3DBF8A"/><rect width="70.163" height="65.573" x="305.344" y="146.24" fill="#3DBF8A"/><path fill="#3DBF8A" d="M208.802,381.182H145.02c-4.709,0-8.527-3.818-8.527-8.527v-63.12c0-4.709,3.817-8.527,8.527-8.527
				h63.782c4.709,0,8.527,3.817,8.527,8.527v63.12C217.329,377.364,213.511,381.182,208.802,381.182z"/><rect width="70.163" height="65.573" x="305.344" y="308.533" fill="#3DBF8A"/><path fill="#D3EEE5" d="M379.906,209.74v-57.596c0-8.01-6.517-14.526-14.526-14.526h-58.301c-5.549,0-10.532,3.086-13.004,8.053
			l-75.841,152.367l-1.502-83.133v-62.761c0-8.01-6.517-14.526-14.526-14.526h-55.054c-8.01,0-14.527,6.517-14.527,14.526v59.38
			c0,3.774,1.441,7.35,4.057,10.07l75.553,78.55l-0.078,0.001l2.296,2.304l3.935,4.091l-0.003-0.143l73.735,74.022
			c2.706,2.717,6.457,4.275,10.293,4.275h62.967c8.01,0,14.526-6.517,14.526-14.526v-57.063c0-8.01-6.517-14.526-14.526-14.526
			h-66.509l-78.239,1.413l151.356-77.316C376.872,220.182,379.906,215.225,379.906,209.74z M145.33,213.275
			c-0.455-0.473-0.706-1.095-0.706-1.751v-59.38c0-1.393,1.134-2.526,2.527-2.526h55.054c1.393,0,2.526,1.133,2.526,2.526v62.815
			l1.105,61.223L145.33,213.275z M298.926,310.579h66.454c1.393,0,2.526,1.134,2.526,2.526v57.063c0,1.393-1.134,2.526-2.526,2.526
			h-62.967c-0.677,0-1.313-0.264-1.79-0.743l-60.084-60.318L298.926,310.579z M367.906,209.74c0,0.954-0.527,1.816-1.377,2.25
			L243.08,275.05l61.737-124.032c0.431-0.864,1.297-1.4,2.262-1.4h58.301c1.393,0,2.526,1.133,2.526,2.526V209.74z"/></g></svg>