<svg xmlns="http://www.w3.org/2000/svg" viewBox="0 0 96 93.6"><defs><style>.a{fill:#c1c3c2;}.b{fill:#2b0c0a;}.c{fill:#fff;}</style></defs><rect class="a" width="96" height="93.6" rx="17.6"/><rect class="b" x="4" y="4" width="88" height="85.6" rx="14.4"/><path class="c" d="M79.63,57.92c0-.47-.47-5.88-10.09-5.65s-11.94.84-11.94.84-7.19-7.28-9.81-12.93c0,0,3.18-9.28,3-15.12s-1.54-9.19-6-9.15-5.14,4-4.55,9.81A45.36,45.36,0,0,0,43.5,37.1S41.43,43.54,38.69,50s-4.6,9.77-4.6,9.77-9.26,3.1-13.27,6.83S15.17,73.16,17.29,76c1.82,2.47,8.19,3,13.89-4.44a109.88,109.88,0,0,0,8.26-12.13s8.69-2.38,11.39-3,6-1.17,6-1.17,7.94,8,15.59,7.7S79.67,58.39,79.63,57.92ZM19.28,74.77c-4.76-2.85,10-11.62,12.65-11.9C31.93,62.87,24.26,77.75,19.28,74.77Zm22.63-51.2c0-4.62,1.5-5.88,2.66-5.88s2.48.56,2.52,4.57-2.52,11.86-2.52,11.86C43.69,33.18,41.91,28.19,41.91,23.57Zm6.15,31.64a36.82,36.82,0,0,0-7.17,2.38l2-4.38c2-4.39,4-10.37,4-10.37a69.4,69.4,0,0,0,8.08,11A66.18,66.18,0,0,0,48.06,55.21Zm11.48-.4S75.07,52,75.07,57.3,65.45,60.44,59.54,54.81Z"/></svg>