<svg xmlns="http://www.w3.org/2000/svg" viewBox="0 0 96 93.6"><defs><style>.a{fill:#bf80ff;}.b{fill:#260d40;}.c{fill:#ecd9ff;}.d{fill:#fff;}.e{opacity:0.15;}</style></defs><rect class="a" width="96" height="93.6" rx="17.6"/><rect class="b" x="4" y="4" width="88" height="85.6" rx="14.4"/><path class="c" d="M26.78,65.12c0,.32-.12.44-.44.44H20.46c-.4,0-.52-.12-.52-.52V24c0-.32.12-.56.4-.56,3.12-.12,6-.2,10.76-.2,9.12,0,14.6,4,14.6,12a12,12,0,0,1-8,11.48c1.84,3.2,8.08,14.52,10.12,18.36.2.32.2.56-.24.56H41c-.44,0-.64-.12-.76-.32-1.48-2.56-6-11.36-9-16.68H26.78ZM30.66,42.4c4.64,0,8-1.84,8-6.64,0-4.64-3-6.76-7.76-6.76-1.64,0-3.24.08-4.16.12V42.4Z"/><path class="c" d="M75.86,59.12c0,.44.08,1.8.2,4,0,.24-.08.4-.32.44a31.7,31.7,0,0,1-11.8,2.6c-5.8,0-11.36-2.24-11.36-11.16v-20c0-.32.12-.52.44-.52H59.1c.32,0,.44.2.44.52V54.16c0,3.76,1.48,5.8,5.4,5.8a10.61,10.61,0,0,0,4-.72V34.92c0-.32.12-.52.44-.52h6c.4,0,.44.2.44.52v24.2Z"/><path class="d" d="M26.78,65.12c0,.32-.12.44-.44.44H20.46c-.4,0-.52-.12-.52-.52V24c0-.32.12-.56.4-.56,3.12-.12,6-.2,10.76-.2,9.12,0,14.6,4,14.6,12a12,12,0,0,1-8,11.48c1.84,3.2,8.08,14.52,10.12,18.36.2.32.2.56-.24.56H41c-.44,0-.64-.12-.76-.32-1.48-2.56-6-11.36-9-16.68H26.78ZM30.66,42.4c4.64,0,8-1.84,8-6.64,0-4.64-3-6.76-7.76-6.76-1.64,0-3.24.08-4.16.12V42.4Z"/><path class="d" d="M75.86,59.12c0,.44.08,1.8.2,4,0,.24-.08.4-.32.44a31.7,31.7,0,0,1-11.8,2.6c-5.8,0-11.36-2.24-11.36-11.16v-20c0-.32.12-.52.44-.52H59.1c.32,0,.44.2.44.52V54.16c0,3.76,1.48,5.8,5.4,5.8a10.61,10.61,0,0,0,4-.72V34.92c0-.32.12-.52.44-.52h6c.4,0,.44.2.44.52v24.2Z"/><g class="e"><path class="a" d="M26.78,65.12c0,.32-.12.44-.44.44H20.46c-.4,0-.52-.12-.52-.52V24c0-.32.12-.56.4-.56,3.12-.12,6-.2,10.76-.2,9.12,0,14.6,4,14.6,12a12,12,0,0,1-8,11.48c1.84,3.2,8.08,14.52,10.12,18.36.2.32.2.56-.24.56H41c-.44,0-.64-.12-.76-.32-1.48-2.56-6-11.36-9-16.68H26.78ZM30.66,42.4c4.64,0,8-1.84,8-6.64,0-4.64-3-6.76-7.76-6.76-1.64,0-3.24.08-4.16.12V42.4Z"/><path class="a" d="M75.86,59.12c0,.44.08,1.8.2,4,0,.24-.08.4-.32.44a31.7,31.7,0,0,1-11.8,2.6c-5.8,0-11.36-2.24-11.36-11.16v-20c0-.32.12-.52.44-.52H59.1c.32,0,.44.2.44.52V54.16c0,3.76,1.48,5.8,5.4,5.8a10.61,10.61,0,0,0,4-.72V34.92c0-.32.12-.52.44-.52h6c.4,0,.44.2.44.52v24.2Z"/></g></svg>