<svg xmlns="http://www.w3.org/2000/svg" viewBox="0 0 96 93.6"><defs><style>.a,.e{fill:#ff4475;}.b{fill:#2e000a;}.c{fill:#fff;}.c,.e{fill-rule:evenodd;}.d{opacity:0.15;}</style></defs><rect class="a" width="96" height="93.6" rx="17.6"/><rect class="b" x="4" y="4" width="88" height="85.6" rx="14.4"/><path class="c" d="M25.15,65.52a1,1,0,0,1-.4-.86V58.33a.31.31,0,0,1,.53-.2,17.26,17.26,0,0,0,9.74,3c4.82,0,6.8-2.51,6.8-5.35,0-2.51-1.26-4.55-5.88-7.26l-2.37-1.25c-6.8-3.83-8.78-7.72-8.78-12.67,0-6.73,4.69-12.15,13.53-12.15,3.89,0,6.78.6,8.43,1.52.33.13.4.33.4.73v5.94a.32.32,0,0,1-.53.26,15.6,15.6,0,0,0-8.17-2c-5.08,0-6.73,2.91-6.73,5.22,0,2.5,1.25,4.35,5.81,6.86l2.11,1.12c7.52,4.16,9.44,8.18,9.44,13.14,0,7.32-5.35,12.4-14.06,12.4A20.6,20.6,0,0,1,25.15,65.52Zm45.8.6a.7.7,0,0,1-.46.72,13.29,13.29,0,0,1-4.89.79c-5,0-7.85-2.64-7.85-8.84v-18H54c-.33,0-.41-.13-.41-.46V35c0-.33.07-.53.46-.53h3.8a68,68,0,0,1,.59-7.59c0-.46.2-.59.46-.66l5.94-.79c.27-.07.46,0,.46.33-.13,1.91-.19,5.15-.26,8.71h5.79c.33,0,.46.13.46.46V40.4c0,.33-.2.4-.46.4H65V57.56c0,2.71.92,3.94,3.37,3.94a8.51,8.51,0,0,0,2.23-.27c.2-.06.4.07.4.4Z"/><g class="d"><path class="e" d="M25.15,65.52a1,1,0,0,1-.4-.86V58.33a.31.31,0,0,1,.53-.2,17.26,17.26,0,0,0,9.74,3c4.82,0,6.8-2.51,6.8-5.35,0-2.51-1.26-4.55-5.88-7.26l-2.37-1.25c-6.8-3.83-8.78-7.72-8.78-12.67,0-6.73,4.69-12.15,13.53-12.15,3.89,0,6.78.6,8.43,1.52.33.13.4.33.4.73v5.94a.32.32,0,0,1-.53.26,15.6,15.6,0,0,0-8.17-2c-5.08,0-6.73,2.91-6.73,5.22,0,2.5,1.25,4.35,5.81,6.86l2.11,1.12c7.52,4.16,9.44,8.18,9.44,13.14,0,7.32-5.35,12.4-14.06,12.4A20.6,20.6,0,0,1,25.15,65.52Zm45.8.6a.7.7,0,0,1-.46.72,13.29,13.29,0,0,1-4.89.79c-5,0-7.85-2.64-7.85-8.84v-18H54c-.33,0-.41-.13-.41-.46V35c0-.33.07-.53.46-.53h3.8a68,68,0,0,1,.59-7.59c0-.46.2-.59.46-.66l5.94-.79c.27-.07.46,0,.46.33-.13,1.91-.19,5.15-.26,8.71h5.79c.33,0,.46.13.46.46V40.4c0,.33-.2.4-.46.4H65V57.56c0,2.71.92,3.94,3.37,3.94a8.51,8.51,0,0,0,2.23-.27c.2-.06.4.07.4.4Z"/></g></svg>