<svg xmlns="http://www.w3.org/2000/svg" enable-background="new 0 0 512 512" version="1" viewBox="0 0 512 512"><path fill="#FFB53E" d="M94.867,13.8h326.016C471.547,13.8,513,55.253,513,105.918v314.965C513,471.547,471.547,513,420.883,513
			H93.118C42.453,513,1,471.547,1,420.882V107.667C1,55.933,43.134,13.8,94.867,13.8"/><path fill="#F79200" d="M99.133,35.133h317.482c41.45,0,75.051,33.601,75.051,75.051v306.431c0,41.45-33.602,75.051-75.051,75.051
			H97.384c-41.45,0-75.051-33.601-75.051-75.051V111.933C22.333,69.267,56.466,35.133,99.133,35.133"/><g><path fill="#FFF" d="M199.351,331.776l0.696-10.437l-35.485-11.133l0,52.532l77.551,46.149H98.085
			c-6.924,0-11.263-7.482-7.824-13.492l74.302-129.84l0,32.823l141.94,45.227l-40.704,25.048L199.351,331.776z M343.047,231.546
			l-71.203-126.03c-3.439-6.088-12.2-6.112-15.673-0.043l-74.645,130.44l84.622-49.555L343.047,231.546z M435.641,395.439
			l-68.257-120.815l0,22.712l-36.529-10.089l0.348-9.045l-65.23-37.225L224.4,264.633l142.984,45.923l0,52.532l-81.514,45.8h141.922
			C434.694,408.888,439.036,401.448,435.641,395.439z"/><polygon fill="#FFB53E" points="367.384 310.556 224.4 264.633 265.973 240.976 331.203 278.201 330.855 287.247 367.384 297.336 367.384 274.623 343.047 231.546 266.147 186.357 181.526 235.913 164.562 265.555 164.562 298.378 306.502 343.605 265.799 368.653 199.351 331.776 200.047 321.34 164.562 310.207 164.562 362.739 242.114 408.888 285.869 408.888 367.384 363.088"/></g></svg>