<svg xmlns="http://www.w3.org/2000/svg" xmlns:xlink="http://www.w3.org/1999/xlink" viewBox="0 0 96 93.6"><defs><style>.a{fill:#d45618;}.b{fill:#561d00;}.c{fill-rule:evenodd;fill:url(#a);}</style><linearGradient id="a" x1="14" y1="48.3" x2="82" y2="48.3" gradientTransform="matrix(1, 0, 0, -1, 0, 95.1)" gradientUnits="userSpaceOnUse"><stop offset="0" stop-color="#fff"/><stop offset="1" stop-color="#e8e8e8"/></linearGradient></defs><rect class="a" width="96" height="93.6" rx="17.6"/><rect class="b" x="4" y="4" width="88" height="85.6" rx="14.4"/><path class="c" d="M14,22.22a2.62,2.62,0,0,1,2.62-2.62h0a2.62,2.62,0,0,1,2.62,2.62h0V44.94a2.62,2.62,0,0,1-2.62,2.62h0A2.62,2.62,0,0,1,14,44.94h0Zm8,10.55a2.61,2.61,0,0,1,2.61-2.61h0a2.61,2.61,0,0,1,2.62,2.61h0V55.5a2.61,2.61,0,0,1-2.62,2.61h0A2.61,2.61,0,0,1,22,55.5Zm8,7.14a2.61,2.61,0,0,1,2.62-2.61h0a2.61,2.61,0,0,1,2.62,2.61h0V62.64a2.61,2.61,0,0,1-2.62,2.61h0A2.61,2.61,0,0,1,30,62.64Zm7.6,1a2.61,2.61,0,0,1,2.61-2.62h0a2.61,2.61,0,0,1,2.62,2.61h0V63.64a2.61,2.61,0,0,1-2.61,2.62h0a2.61,2.61,0,0,1-2.62-2.61h0Zm8-2A2.44,2.44,0,0,1,48,36.3a2.78,2.78,0,0,1,2.8,2.62V61.64a2.62,2.62,0,0,1-2.62,2.62h0a2.62,2.62,0,0,1-2.62-2.62V38.91ZM53.2,35a2.61,2.61,0,0,1,2.61-2.61h.37A2.61,2.61,0,0,1,58.8,35v22.8a2.62,2.62,0,0,1-2.62,2.62h-.36a2.62,2.62,0,0,1-2.62-2.62V35Zm8-.1a2.61,2.61,0,0,1,2.62-2.61h0a2.61,2.61,0,0,1,2.62,2.6V57.6a2.62,2.62,0,0,1-2.62,2.62h0A2.62,2.62,0,0,1,61.2,57.6h0V34.88Zm8,5.23a2.61,2.61,0,0,1,2.61-2.61h0a2.61,2.61,0,0,1,2.62,2.61h0V62.84a2.61,2.61,0,0,1-2.61,2.61h0a2.61,2.61,0,0,1-2.62-2.61h0V40.11Zm7.6,8.55a2.62,2.62,0,0,1,2.62-2.62h0A2.62,2.62,0,0,1,82,48.67V71.39A2.62,2.62,0,0,1,79.38,74h0a2.62,2.62,0,0,1-2.62-2.62V48.66Z"/></svg>