<svg xmlns="http://www.w3.org/2000/svg" enable-background="new 0 0 512 512" version="1" viewBox="0 0 512 512"><path fill="#FC2A31" d="M93.867,12.8h324.267C469.867,12.8,512,54.933,512,106.667v311.467C512,469.867,469.867,512,418.134,512
			H93.867C42.134,512,0,469.867,0,418.133V106.667C0,54.933,42.134,12.8,93.867,12.8"/><linearGradient id="a" x1="21.332" x2="490.666" y1="262.4" y2="262.4" gradientUnits="userSpaceOnUse"><stop offset="0" stop-color="#ef0c0d"/><stop offset="1" stop-color="#e40b0c"/></linearGradient><path fill="url(#a)" d="M98.133,34.133h315.733c42.667,0,76.8,34.133,76.8,76.8v302.933c0,42.667-34.133,76.8-76.8,76.8
			H98.133c-42.667,0-76.8-34.133-76.8-76.8V110.933C21.333,68.267,55.466,34.133,98.133,34.133"/><path fill="#FFF" d="M399.142,283.326c2.915-1.114-40.442,11.175-64.301,21.026c-3.511-24.555-5.583-55.475-0.872-84.55
		c7.721,2.819,59.064,21.426,69.209,21.199l-4.909-22.005c0,0-44.046-12.63-46.368-14.242c0,0,7.184-40.552,10.575-45.813
		l-17.413-14.863c0,0-15.55,49.623-14.821,68.337c-23.432-9.805-48.112-26.042-69.448-42.135
		c19.884-14.873,53.091-48.226,50.423-46.118l-3.535-3.213c-0.364,0.4-20.87,22.727-50.859,46.303
		c-30.711-23.587-53.57-45.992-53.982-46.398l-3.356,3.404c-1.351-0.854,31.86,29.954,53.403,46.058
		c-20.578,15.801-45.186,31.768-70.648,41.723c-0.346-19.515-17.461-68.188-17.461-68.188l-17.078,15.245
		c3.505,5.183,11.585,45.568,11.585,45.568c-2.287,1.66-46.04,15.263-46.04,15.263l-4.425,22.106
		c9.656,0,56.807-17.544,68.063-21.79c3.678,27.505,1.726,56.777-1.511,80.603c-20.844-9.039-67.202-18.913-63.769-17.568
		l-0.681,4.729c-2.947-1.293,43.205,8.693,63.757,17.693c-3.064,24.869-14.905,68.391-14.445,65.268l4.55,1.451
		c0.47-0.546,10.517-36.571,14.457-64.904c21.921,8.886,47.67,22.202,69.526,41.334c-16.069,8.694-49.277,47.437-49.277,47.437
		l21.109,7.655c2.687-5.655,34.025-32.527,34.025-32.527c2.592,1.129,34.461,31.105,34.461,31.105l21.444-6.348
		c-5.142-8.73-44.583-42.009-50.638-47.097c20.405-15.353,46.763-28.155,71.126-38.008c3.693,25.996,14.448,62.824,14.308,61.172
		l4.532-1.523c0.113,1.651-10.817-36.119-14.29-61.464c34.688-13.669,64.193-21.163,64.731-21.294L399.142,283.326z M254.28,347.37
		c-23.181-21.014-50.99-35.357-74.333-44.726c3.463-24.967,5.571-56.078,1.379-85.147c28.036-10.492,54.86-28.203,75.533-44.147
		c21.014,15.902,47.431,33.566,72.679,43.944c-5.249,30.604-2.992,63.28,0.735,88.873
		C305.659,316.086,276.327,330.095,254.28,347.37z"/></svg>