<svg xmlns="http://www.w3.org/2000/svg" enable-background="new 0 0 512 512" version="1" viewBox="0 0 512 512"><path fill="#FF4B1E" d="M94.867,13.8h326.016C471.547,13.8,513,55.253,513,105.918v314.965C513,471.547,471.547,513,420.883,513
			H93.118C42.453,513,1,471.547,1,420.882V107.667C1,55.933,43.134,13.8,94.867,13.8"/><path fill="#E8320F" d="M99.133,35.133h317.482c41.45,0,75.051,33.601,75.051,75.051v306.431c0,41.45-33.602,75.051-75.051,75.051
			H97.384c-41.45,0-75.051-33.601-75.051-75.051V111.933C22.333,69.267,56.466,35.133,99.133,35.133"/><g><path fill="#FFF" d="M485.898,272.173h-60.323c-0.028,0-0.051-0.023-0.051-0.051V126.096c0-17.193-13.938-31.131-31.131-31.131
			H262.361c-0.028,0-0.051-0.023-0.051-0.051V40.405c0-2.643-1.93-5.023-4.563-5.252c-2.97-0.258-5.461,2.076-5.461,4.993v54.769
			c0,0.028-0.023,0.051-0.051,0.051h-123.26c-17.193,0-31.131,13.938-31.131,31.131v145.363c0,0.028-0.023,0.051-0.051,0.051H28.698
			c-2.643,0-5.023,1.929-5.253,4.562c-0.259,2.97,2.076,5.462,4.993,5.462h69.354c0.028,0,0.051,0.023,0.051,0.051v111.362
			c0,17.193,13.938,31.131,31.131,31.131h265.419c17.193,0,31.131-13.938,31.131-31.131V282.248c0-0.028,0.023-0.051,0.051-0.051
			h60.583c2.916,0,5.252-2.492,4.993-5.462C490.921,274.102,488.541,272.173,485.898,272.173z"/><polygon fill="#FF4B1E" points="262.314 136.086 143.271 205.8 143.271 267.36 309.605 320.358 261.906 349.712 184.039 306.497 184.855 294.267 143.271 281.221 143.271 342.781 259.053 411.679 380.95 343.189 380.95 281.629 213.392 227.815 262.11 200.092 338.551 243.714 338.143 254.314 380.95 266.137 380.95 205.8"/></g></svg>