<svg xmlns="http://www.w3.org/2000/svg" enable-background="new 0 0 512 512" version="1" viewBox="0 0 512 512"><path fill="#FC2A31" d="M93.867,12.8h324.267C469.867,12.8,512,54.933,512,106.667v311.467C512,469.867,469.867,512,418.134,512
			H93.867C42.134,512,0,469.867,0,418.133V106.667C0,54.933,42.134,12.8,93.867,12.8"/><linearGradient id="a" x1="255.999" x2="255.999" y1="42.191" y2="513" gradientUnits="userSpaceOnUse"><stop offset="0" stop-color="#ef0c0d"/><stop offset="1" stop-color="#e90c0d"/></linearGradient><path fill="url(#a)" d="M98.133,34.133h315.733c42.667,0,76.8,34.133,76.8,76.8v302.933c0,42.667-34.133,76.8-76.8,76.8
			H98.133c-42.667,0-76.8-34.133-76.8-76.8V110.933C21.333,68.267,55.466,34.133,98.133,34.133"/><path fill="#FFF" d="M336.627,157.633c-28.038-0.832-95.1,24.06-112.243,30.617c-6.243-71.754-118.245-38.919-85.903,26.457
		c12.999,22.786,62.99,62.99,81.292,77.274c-65.549,39.683,16.888,126.423,61.245,64.892
		c14.896-24.722,26.328-98.812,28.589-114.274C376.562,280.944,412.309,166.291,336.627,157.633z M194.824,219.223
		c-28.076,18.563-56.254-22.613-28.968-42.135C193.931,158.525,222.109,199.702,194.824,219.223z M269.062,339.737
		c-15.439,29.908-60.134,7.73-45.853-22.628C238.648,287.201,283.343,309.379,269.062,339.737z M227.088,282.02
		c0.591-20.361,1.125-57.042-1.489-83.726c-0.209-2.129,2.142-3.546,3.93-2.373c15.424,10.12,47.33,30.508,72.783,43.182
		c1.871,0.932,1.897,3.588,0.038,4.544c-14.579,7.502-47.023,24.622-71.324,40.576C229.305,285.353,227.028,284.078,227.088,282.02z
		 M330.331,227.513c-33.636,1.218-36.234-48.61-2.774-51.057C361.192,175.239,363.791,225.066,330.331,227.513z"/></svg>