<?xml version="1.0" encoding="UTF-8"?>
<svg id="Layer_1" data-name="Layer 1" xmlns="http://www.w3.org/2000/svg" viewBox="0 0 150 150">
  <defs>
    <style>
      .cls-1 {
        fill: #fbc02d;
      }

      .cls-2 {
        fill: #fff;
      }

      .cls-3 {
        fill: #e53935;
      }

      .cls-4 {
        fill: #1e88e5;
      }

      .cls-5 {
        fill: #4285f4;
      }

      .cls-6 {
        fill: #4caf50;
      }
    </style>
  </defs>
  <path class="cls-4" d="M120.56,40.28c5.87,0,10.69-4.82,10.69-10.69s-4.82-10.69-10.69-10.69-10.69,4.82-10.69,10.69,4.82,10.69,10.69,10.69Zm-75.91-3.31L77.49,4.13C80.05,1.57,83.51,.07,87.28,.07h48.8c7.68,0,13.86,6.18,13.86,13.86V62.72c0,3.77-1.51,7.38-4.07,9.79l-32.68,32.84L44.65,36.97Z"/>
  <path class="cls-6" d="M113.18,105.35l-40.52,40.52c-2.56,2.56-6.02,4.07-9.94,4.07s-7.38-1.66-9.79-4.07L4.13,97.22C1.57,94.66,.07,91.19,.07,87.43s1.66-7.38,4.07-9.94L44.65,36.97,113.18,105.35Z"/>
  <path class="cls-1" d="M27.78,120.86L4.13,97.22C1.57,94.66,.07,91.19,.07,87.43s1.66-7.38,4.07-9.94L44.65,36.97l33.44,33.44L27.78,120.86Z"/>
  <path class="cls-3" d="M145.26,3.38c-2.56-2.26-5.72-3.31-9.19-3.31h-48.65c-3.77,0-7.38,1.51-9.79,4.07L44.65,36.97l33.44,33.44,34.19-34.19c-1.66-1.96-2.41-4.37-2.41-6.78,0-5.87,4.82-10.69,10.69-10.69,2.56,0,4.97,.9,6.78,2.41L145.26,3.38Z"/>
  <circle class="cls-5" cx="78.24" cy="74.32" r="21.69"/>
  <path class="cls-2" d="M107.76,67.85h-28.92v12.35h16.72c-1.51,7.83-7.98,12.35-16.72,12.35-10.09,0-18.38-8.43-18.38-18.98s8.13-18.98,18.38-18.98c4.37,0,8.28,1.66,11.45,4.22l9.04-9.34c-5.42-4.82-12.5-7.83-20.48-7.83-17.17,0-31.03,14.31-31.03,32.08s13.86,32.08,31.03,32.08c15.51,0,29.67-11.75,29.67-32.08,0-1.96-.3-3.92-.75-5.87h0Z"/>
</svg>