<?xml version="1.0" encoding="UTF-8"?>
<svg id="Layer_1" data-name="Layer 1" xmlns="http://www.w3.org/2000/svg" viewBox="0 0 150 150">
  <defs>
    <style>
      .cls-1 {
        fill: #fbbc04;
      }

      .cls-2 {
        fill: #ea4335;
      }

      .cls-3 {
        fill: #4285f4;
      }

      .cls-4 {
        fill: #34a853;
      }

      .cls-5 {
        fill: #1a73e8;
      }
    </style>
  </defs>
  <path class="cls-5" d="M90.75,2.49c-4.99-1.56-10.29-2.49-15.75-2.49-16.06,0-30.41,7.33-40.07,18.71l24.79,20.74L90.75,2.49Z"/>
  <path class="cls-2" d="M34.93,18.71c-7.64,9.04-12.32,20.89-12.32,33.68,0,9.82,2.03,17.78,5.15,24.95l31.81-37.73-24.64-20.89Z"/>
  <path class="cls-3" d="M75,32.28c11.07,0,19.96,8.89,19.96,19.96,0,4.99-1.72,9.51-4.68,12.94,0,0,15.75-18.87,31.19-37.11-6.39-12.16-17.31-21.52-30.56-25.73l-31.19,37.11c3.59-4.37,9.04-7.17,15.28-7.17"/>
  <path class="cls-1" d="M75,72.35c-11.07,0-19.96-8.89-19.96-19.96,0-4.83,1.72-9.36,4.68-12.79l-31.81,37.73c5.3,12.01,14.35,21.67,23.7,33.84l38.67-46c-3.59,4.37-9.2,7.17-15.28,7.17"/>
  <path class="cls-4" d="M89.5,123.8c17.46-27.29,37.89-39.76,37.89-71.41,0-8.73-2.18-16.84-5.93-24.17L51.61,111.17c2.96,3.9,5.93,7.95,8.89,12.63,10.6,16.37,7.64,26.2,14.5,26.2,6.86,0,3.9-9.82,14.5-26.2"/>
</svg>