<?xml version="1.0" encoding="UTF-8"?>
<svg id="Capa_1" data-name="Capa 1" xmlns="http://www.w3.org/2000/svg" viewBox="0 0 150 150">
  <defs>
    <style>
      .cls-1 {
        fill: #fbc02d;
      }

      .cls-2 {
        fill: #e53935;
      }

      .cls-3 {
        fill: #1565c0;
      }

      .cls-4 {
        fill: #1e88e5;
      }

      .cls-5 {
        fill: #4caf50;
      }
    </style>
  </defs>
  <polygon class="cls-4" points="81.98 62.09 86.29 68.21 92.91 63.42 92.91 98.17 100.02 98.17 100.02 52.49 94.06 52.49 81.98 62.09"/>
  <path class="cls-4" d="M70.56,74.01c2.65-2.32,4.3-5.79,4.3-9.43,0-7.28-6.45-13.24-14.23-13.24-6.62,0-12.41,4.14-13.9,10.26l6.95,1.82c.66-2.81,3.64-4.8,6.95-4.8,3.97,0,7.12,2.65,7.12,5.96s-3.14,5.96-7.12,5.96h-4.14v7.28h4.14c4.47,0,8.27,3.14,8.27,6.79s-3.64,6.79-8.11,6.79c-3.97,0-7.45-2.48-7.94-5.96l-6.95,1.16c1.16,6.79,7.61,11.92,15.06,11.92,8.44,0,15.23-6.29,15.23-14.07-.17-4.14-2.32-7.94-5.63-10.43Z"/>
  <polygon class="cls-1" points="116.74 149.97 33.33 149.97 33.33 116.7 116.74 116.7 116.74 149.97"/>
  <polygon class="cls-5" points="150 116.7 150 33.3 116.74 33.3 116.74 116.7 150 116.7"/>
  <path class="cls-4" d="M116.74,33.3V.03H12.48C5.53,.03-.1,5.66-.1,12.61V116.87H33.16V33.3H116.74Z"/>
  <polygon class="cls-2" points="116.74 116.7 116.74 149.97 150 116.7 116.74 116.7"/>
  <path class="cls-3" d="M137.59,.03h-20.85V33.3h33.26V12.44c0-6.95-5.46-12.41-12.41-12.41Z"/>
  <path class="cls-3" d="M12.48,149.97h20.85v-33.26H.07v20.85c0,6.95,5.46,12.41,12.41,12.41Z"/>
</svg>