<?xml version="1.0" encoding="UTF-8"?>
<svg id="Layer_1" data-name="Layer 1" xmlns="http://www.w3.org/2000/svg" viewBox="0 0 150 150">
  <defs>
    <style>
      .cls-1 {
        fill: #fa7b17;
      }

      .cls-2 {
        fill: #fbc02d;
      }

      .cls-3 {
        fill: #e53935;
      }

      .cls-4 {
        fill: #1e88e5;
      }

      .cls-5 {
        fill: #2e7d32;
      }

      .cls-6 {
        fill: #4caf50;
      }
    </style>
  </defs>
  <path class="cls-6" d="M120.43,0H29.57C17.64,0,7.84,9.8,7.84,21.73s9.8,21.73,21.73,21.73H120.43V0Z"/>
  <circle id="Green" class="cls-5" cx="120.43" cy="21.73" r="21.73"/>
  <path class="cls-2" d="M65.2,55.23H29.57v43.47h35.45c11.94,0,21.73-9.8,21.73-21.73s-9.62-21.73-21.56-21.73Z"/>
  <path class="cls-3" d="M7.84,128.27c0,11.94,9.8,21.73,21.73,21.73s21.73-9.8,21.73-21.73h0v-51.31H7.84v51.31Z"/>
  <path id="Orange" class="cls-1" d="M29.57,55.23c-11.94,0-21.73,9.8-21.73,21.73s9.8,21.73,21.73,21.73h21.73v-21.73c0-11.94-9.8-21.73-21.73-21.73Z"/>
  <path id="Blue" class="cls-4" d="M142.16,76.96c0-11.94-9.8-21.73-21.73-21.73s-21.73,9.8-21.73,21.73h0v51.31c0,11.94,9.8,21.73,21.73,21.73s21.73-9.8,21.73-21.73h0v-51.31Z"/>
</svg>