<?xml version="1.0" encoding="UTF-8"?>
<svg id="Layer_1" data-name="Layer 1" xmlns="http://www.w3.org/2000/svg" viewBox="0 0 150 150">
  <defs>
    <style>
      .cls-1 {
        fill: #fbc02d;
      }

      .cls-2 {
        fill: #e53935;
      }

      .cls-3 {
        fill: #1e88e5;
      }

      .cls-4 {
        fill: #4caf50;
      }
    </style>
  </defs>
  <path class="cls-2" d="M72.1,.78c.75-.37,1.68-.75,2.61-.56,.75,0,1.49-.19,2.05,.19,1.68,.37,3.17,1.3,4.28,2.42,5.03,5.03,10.06,10.06,15.09,14.9,.56,.56,1.12,.93,1.49,1.68-5.59,5.77-11.36,11.36-16.95,16.95l-5.59,5.59c-2.42,2.42-4.84,4.84-7.26,7.26-10.99,10.99-21.98,21.98-32.97,33.16-5.03,5.22-10.25,10.43-15.46,15.46-5.59,5.59-10.99,11.18-16.58,16.58v-43.22c0-.37,.37-.75,.37-1.3,.37-.56,.56-1.12,.93-1.68,.75-1.12,1.86-1.86,2.61-2.79C27.39,44.56,48.25,23.69,68.93,2.83c.93-.75,1.86-1.49,3.17-2.05Z"/>
  <path class="cls-3" d="M80.67,36.55c5.59-5.59,11.36-11.36,16.95-16.95,15.27,15.27,30.55,30.55,45.82,46.01,1.3,1.49,2.98,2.79,3.54,4.66,.56,1.3,.37,2.79,.37,4.1v67.24c.37,4.47-3.91,8.57-8.2,8.2h-23.84V82.37c-9.87-9.87-19.74-19.93-29.8-29.8-3.54-3.54-6.89-6.89-10.43-10.43,1.86-1.86,3.73-3.73,5.59-5.59Z"/>
  <path class="cls-1" d="M19.38,97.83c5.22-5.22,10.25-10.25,15.46-15.46v67.24H9.7c-3.54-.37-6.52-3.35-7.08-6.89v-28.31c5.77-5.4,11.18-10.99,16.76-16.58Z"/>
  <path class="cls-4" d="M35.03,117.39c26.82,.19,53.65,.19,80.28,.37,0,10.62-.19,21.42-.19,32.04-26.82-.19-53.65-.19-80.47-.37,.19-10.62,.19-21.24,.37-32.04Z"/>
</svg>