<?xml version="1.0" encoding="UTF-8"?>
<svg id="Capa_1" data-name="Capa 1" xmlns="http://www.w3.org/2000/svg" viewBox="0 0 150 150">
  <defs>
    <style>
      .cls-1 {
        fill: #f6b704;
      }

      .cls-2 {
        fill: #e54335;
      }

      .cls-3 {
        fill: #4280ef;
      }

      .cls-4 {
        fill: #34a353;
      }
    </style>
  </defs>
  <circle class="cls-3" cx="45.76" cy="49.02" r="45.77"/>
  <path class="cls-4" d="M150.01,53.47c0,5.09-4.13,9.38-9.38,9.38s-9.38-4.13-9.38-9.38,4.13-9.38,9.38-9.38c5.24,.16,9.38,4.29,9.38,9.38Z"/>
  <path class="cls-2" d="M133.32,76.19c0,10.33-8.26,18.59-18.59,18.59s-18.59-8.26-18.59-18.59,8.26-18.59,18.59-18.59c10.17,0,18.59,8.26,18.59,18.59Z"/>
  <path class="cls-1" d="M136.98,124.34c0,12.4-10.01,22.41-22.41,22.41s-22.41-10.01-22.41-22.41,10.01-22.41,22.41-22.41,22.41,10.01,22.41,22.41Z"/>
</svg>