<?xml version="1.0" encoding="UTF-8"?>
<svg id="Capa_1" data-name="Capa 1" xmlns="http://www.w3.org/2000/svg" viewBox="0 0 150 150">
  <defs>
    <style>
      .cls-1 {
        fill: #fbc02d;
      }

      .cls-2 {
        fill: #e53935;
      }

      .cls-3 {
        fill: #1e88e5;
      }

      .cls-4 {
        fill: #4caf50;
      }
    </style>
  </defs>
  <path class="cls-2" d="M-.01,115.99c0-9.79,7.86-17.65,17.65-17.65H104.1c9.79,0,17.65,7.86,17.65,17.65s-7.86,17.65-17.65,17.65H17.79C8.01,133.79-.01,125.77-.01,115.99H-.01Zm17.81,8.5c4.65,0,8.5-3.85,8.5-8.5s-3.85-8.5-8.5-8.5-8.5,3.85-8.5,8.5,3.69,8.5,8.5,8.5Zm86.47,0c4.65,0,8.5-3.85,8.5-8.5s-3.85-8.5-8.5-8.5-8.5,3.85-8.5,8.5,3.69,8.5,8.5,8.5Z"/>
  <path class="cls-1" d="M19.88,54.87c5.78-7.86,16.84-9.63,24.71-3.85l70.1,50.69c7.86,5.78,9.63,16.84,3.85,24.71-5.78,7.86-16.84,9.63-24.71,3.85L23.89,79.57c-7.86-5.78-9.63-16.84-4.01-24.71h0Zm9.3,17.17c3.85,2.73,9.14,1.93,11.87-1.93,2.73-3.85,1.93-9.14-1.93-11.87s-9.14-1.93-11.87,1.93c-2.73,3.85-1.76,9.14,1.93,11.87h0Zm70.1,50.85c3.85,2.73,9.14,1.93,11.87-1.93,2.73-3.85,1.93-9.14-1.93-11.87-3.85-2.73-9.14-1.93-11.87,1.93s-1.93,9.14,1.93,11.87h0Z"/>
  <path class="cls-4" d="M72.02,17.01c9.3-3.05,19.25,2.09,22.3,11.39l26.79,82.3c3.05,9.3-2.09,19.25-11.39,22.3-9.3,3.05-19.25-2.09-22.3-11.39L60.63,39.31c-2.89-9.3,2.09-19.25,11.39-22.3h0Zm-2.57,19.41c1.44,4.49,6.26,6.9,10.75,5.45,4.49-1.44,6.9-6.26,5.45-10.75s-6.26-6.9-10.75-5.45c-4.49,1.44-6.9,6.26-5.45,10.75h0Zm26.63,82.3c1.44,4.49,6.26,6.9,10.75,5.45,4.49-1.44,6.9-6.26,5.45-10.75-1.44-4.49-6.26-6.9-10.75-5.45-4.49,1.44-6.9,6.26-5.45,10.75h0Z"/>
  <path class="cls-3" d="M138.11,17.49c9.3,3.21,14.12,13.32,10.91,22.46l-28.07,81.82c-3.21,9.3-13.32,14.12-22.46,10.91-9.3-3.21-14.12-13.32-10.91-22.46L115.81,28.4c3.05-9.14,13.15-13.96,22.3-10.91h0Zm-13.8,13.96c-1.6,4.49,.8,9.3,5.29,10.75,4.49,1.6,9.3-.8,10.75-5.29,1.6-4.49-.8-9.3-5.29-10.75s-9.14,.96-10.75,5.29Zm-28.07,81.82c-1.6,4.49,.8,9.3,5.29,10.75,4.49,1.6,9.3-.8,10.75-5.29,1.6-4.49-.8-9.3-5.29-10.75-4.49-1.44-9.3,.8-10.75,5.29Z"/>
</svg>