<?xml version="1.0" encoding="UTF-8"?>
<svg id="Layer_1" data-name="Layer 1" xmlns="http://www.w3.org/2000/svg" viewBox="0 0 150 150">
  <defs>
    <style>
      .cls-1 {
        fill: #f6b704;
      }

      .cls-2 {
        fill: #e54335;
      }

      .cls-3 {
        fill: #4280ef;
      }

      .cls-4 {
        fill: #34a353;
      }
    </style>
  </defs>
  <path class="cls-3" d="M148.34,76.8c-.03-5.04-.46-10.06-1.28-15.03H76.53v28.92h40.47c-1.64,9.32-7.06,17.54-14.99,22.7l24.16,18.78c14.88-14.44,22.99-34.47,22.35-55.19l-.18-.18Z"/>
  <path class="cls-4" d="M76.35,149.93c18.25,.49,36-5.99,49.64-18.12l-24.16-18.6c-21.15,13.56-49.29,7.4-62.85-13.76-1.99-3.1-3.59-6.43-4.77-9.92l-24.82,19.09c12.72,25.32,38.63,41.3,66.96,41.31Z"/>
  <path class="cls-1" d="M34.21,89.36c-3.09-9.33-3.09-19.41,0-28.74L9.39,41.35C-1.19,62.53-1.19,87.45,9.39,108.62l24.82-19.26Z"/>
  <path class="cls-2" d="M76.35,29.76c10.69-.15,21.01,3.9,28.74,11.29l21.38-21.56C112.89,6.79,94.94-.17,76.35,.05c-28.33,0-54.24,15.99-66.96,41.31l24.82,19.26c5.99-18.25,22.94-30.66,42.14-30.86Z"/>
</svg>