<?xml version="1.0" encoding="UTF-8"?>
<svg id="Layer_1" data-name="Layer 1" xmlns="http://www.w3.org/2000/svg" viewBox="0 0 150 150">
  <defs>
    <style>
      .cls-1 {
        fill: #fbbc04;
      }

      .cls-2, .cls-3 {
        fill: #fff;
      }

      .cls-4 {
        fill: #e53935;
      }

      .cls-5 {
        fill: #4285f4;
      }

      .cls-6 {
        fill: #34a853;
      }

      .cls-3 {
        isolation: isolate;
        opacity: .2;
      }
    </style>
  </defs>
  <path class="cls-6" d="M119.38,96.82c0,2.12-1.67,3.79-3.79,3.79H34.52c-2.12,0-3.79-1.67-3.79-3.79V17.41c0-2.12,1.67-3.79,3.79-3.79H115.59c2.12,0,3.79,1.67,3.79,3.79V96.82h0Z"/>
  <path class="cls-4" d="M50.28,94.4c-.61,1.97,.61,4.09,2.42,4.7l75.01,20.16c1.82,.45,3.94-.76,4.39-2.73l17.73-65.92c.61-1.97-.61-4.09-2.42-4.7L72.4,25.75c-1.82-.45-3.94,.76-4.39,2.73l-17.73,65.92Z"/>
  <path class="cls-1" d="M109.38,86.37c.76,1.97-.15,4.09-1.97,4.85L28.3,120.01c-1.82,.61-3.94-.45-4.7-2.42L.27,53.33c-.76-1.97,.15-4.09,1.97-4.85L81.34,19.69c1.82-.61,3.94,.45,4.7,2.42l23.34,64.25Z"/>
  <path class="cls-3" d="M.57,54.24c-.76-1.97,.15-4.09,1.97-4.85L81.65,20.6c1.82-.61,3.94,.45,4.55,2.27l-.3-.76c-.76-1.97-2.88-3.03-4.7-2.42L2.24,48.63c-1.82,.61-2.73,2.88-1.97,4.85L23.61,117.58h0L.57,54.24Z"/>
  <path class="cls-5" d="M133.02,132.59c0,2.12-1.67,3.79-3.79,3.79H20.88c-2.12,0-3.79-1.67-3.79-3.79V50.75c0-2.12,1.67-3.79,3.79-3.79h108.2c2.12,0,3.79,1.67,3.79,3.79v81.83h.15Z"/>
  <path class="cls-2" d="M112.26,79.24h-32.43v-8.49h32.43c.91,0,1.67,.76,1.67,1.67v5.15c0,.91-.76,1.67-1.67,1.67Z"/>
  <path class="cls-2" d="M112.26,111.67h-32.43v-8.49h32.43c.91,0,1.67,.76,1.67,1.67v5.15c0,.91-.76,1.67-1.67,1.67Z"/>
  <path class="cls-2" d="M117.41,95.46h-37.58v-8.49h37.58c.91,0,1.67,.76,1.67,1.67v5.15c0,.91-.76,1.67-1.67,1.67Z"/>
  <path class="cls-2" d="M50.88,87.73v7.73h11.06c-.91,4.7-5,8.03-11.06,8.03-6.67,0-12.12-5.61-12.12-12.43s5.46-12.43,12.12-12.43c3.03,0,5.76,1.06,7.88,3.03h0l5.91-5.91c-3.49-3.33-8.18-5.3-13.64-5.3-11.37,0-20.46,9.09-20.46,20.46s9.09,20.46,20.46,20.46c11.67,.3,19.4-8.03,19.4-19.7,0-1.36-.15-2.58-.3-3.94h-19.25Z"/>
</svg>