<?xml version="1.0" encoding="UTF-8"?>
<svg id="Layer_1" data-name="Layer 1" xmlns="http://www.w3.org/2000/svg" viewBox="0 0 150 150">
  <defs>
    <style>
      .cls-1 {
        fill: #fbc02d;
      }

      .cls-2 {
        fill: #e53935;
      }

      .cls-3 {
        fill: #c62828;
      }

      .cls-4 {
        fill: #1e88e5;
      }

      .cls-5 {
        fill: #4caf50;
      }
    </style>
  </defs>
  <path class="cls-5" d="M150,47.1l-35.79,26.68v58.24h25.05c5.86,0,10.74-4.72,10.74-10.74V47.1Z"/>
  <path class="cls-4" d="M0,47.1l35.63,26.84v58.24H10.74c-5.86,0-10.74-4.72-10.74-10.74V47.1Z"/>
  <polygon class="cls-2" points="114.21 29.2 75 58.65 35.79 29.2 35.79 73.78 75 103.23 114.21 73.78 114.21 29.2"/>
  <path class="cls-3" d="M0,33.11v13.99l35.63,26.84V29.2l-11.06-8.3c-2.6-1.95-5.86-3.09-9.27-3.09h0c-8.46,0-15.29,6.83-15.29,15.29Z"/>
  <path class="cls-1" d="M150,33.11v13.99l-35.79,26.68V29.2l11.23-8.3c2.6-1.95,5.86-3.09,9.27-3.09h0c8.46,0,15.29,6.83,15.29,15.29Z"/>
</svg>