<?xml version="1.0" encoding="UTF-8"?>
<svg id="Layer_1" data-name="Layer 1" xmlns="http://www.w3.org/2000/svg" viewBox="0 0 150 150">
  <defs>
    <style>
      .cls-1 {
        fill: #fbbc04;
      }

      .cls-2 {
        fill: #e53935;
      }

      .cls-3 {
        fill: #4285f4;
      }

      .cls-4 {
        fill: #34a853;
      }
    </style>
  </defs>
  <path class="cls-2" d="M14.42,78.72l7.5,7.5,16.33-16.18-7.5-7.5h0l-3.38-3.38c-2.8-2.8-4.12-6.33-4.12-10.15,0-3.38,1.18-6.47,3.09-8.83h0c2.65-3.38,6.77-5.59,11.33-5.59,3.83,0,7.5,1.47,10.3,4.27l3.38,3.24,7.5,7.65,16.18-16.33-7.65-7.5-3.38-3.24c-6.77-6.77-16.18-11.03-26.48-11.03C16.77,11.49,0,28.26,0,49c0,5.15,1.03,10,2.94,14.56s4.71,8.53,8.09,11.92l3.38,3.24"/>
  <polyline class="cls-1" points="51.79 89.16 75.03 65.92 58.7 49.59 38.25 70.04 38.25 70.04 21.92 86.22 30.75 95.05 38.25 102.55 46.05 94.75"/>
  <polygon class="cls-4" points="91.36 123 128.14 86.22 111.81 70.04 75.03 106.67 54.58 86.37 38.25 102.55 58.7 123 58.7 123.15 75.03 138.6 75.03 138.6 75.03 138.6 91.36 123 91.36 123"/>
  <path class="cls-3" d="M139.03,75.34c7.65-7.65,12.06-19.27,10.74-31.19-1.77-17.95-16.62-31.34-34.72-32.66-11.33-.74-21.77,3.53-29.13,10.89l-27.22,27.22,16.33,16.33,27.36-27.22c3.24-3.24,7.94-4.71,12.51-3.97,6.03,.88,11.03,6.03,11.92,12.06,.59,4.56-.88,8.97-4.12,12.21l-10.89,10.89,16.33,16.33,10.89-10.89Z"/>
</svg>