<?xml version="1.0" encoding="UTF-8"?>
<svg id="Layer_1" data-name="Layer 1" xmlns="http://www.w3.org/2000/svg" viewBox="0 0 150 150">
  <defs>
    <style>
      .cls-1 {
        fill: #f6b704;
      }

      .cls-2 {
        fill: #e54335;
      }

      .cls-3 {
        fill: #4280ef;
      }

      .cls-4 {
        fill: #34a353;
      }
    </style>
  </defs>
  <path class="cls-1" d="M37.5,34.15c20.73,0,37.5,16.77,37.5,37.5v3.51H3.51c-1.83,0-3.35-1.52-3.51-3.51,.15-20.73,16.92-37.5,37.5-37.5Z"/>
  <path class="cls-2" d="M115.85,37.5c0,20.73-16.77,37.5-37.5,37.5h-3.35V3.51c0-1.83,1.52-3.51,3.35-3.51,20.73,.15,37.5,16.92,37.5,37.5h0Z"/>
  <path class="cls-3" d="M112.5,115.85c-20.73,0-37.5-16.77-37.5-37.35v-3.51h71.49c1.83,0,3.51,1.52,3.51,3.35-.15,20.73-16.92,37.5-37.5,37.5Z"/>
  <path class="cls-4" d="M34.15,112.5c0-20.73,16.77-37.5,37.5-37.5h3.35v71.49c0,1.83-1.52,3.35-3.51,3.51-20.58-.15-37.35-16.92-37.35-37.5Z"/>
</svg>