<?xml version="1.0" encoding="UTF-8"?>
<svg id="Layer_1" data-name="Layer 1" xmlns="http://www.w3.org/2000/svg" viewBox="0 0 150 150">
  <defs>
    <style>
      .cls-1 {
        fill: #fbbc04;
      }

      .cls-2 {
        fill: #e53935;
      }

      .cls-3 {
        fill: #4285f4;
      }

      .cls-4 {
        fill: #34a853;
      }

      .cls-5 {
        fill: #1a73e8;
      }
    </style>
  </defs>
  <path class="cls-1" d="M65.62,75v-27.04c0-5.16,3.28-8.75,8.28-9.38,4.85-.63,9.85,3.28,10.16,8.13v55.33c0,5-3.13,8.75-7.81,9.53-5.47,.94-10.63-3.28-10.78-8.91-.16-7.5,0-15.16,0-22.66,.16-1.72,.16-3.28,.16-5Z"/>
  <path class="cls-4" d="M98.91,94.22v-16.72c0-4.69,3.59-8.6,7.97-9.07,5-.63,9.22,2.34,10.32,7.03,.16,.63,.31,1.41,.31,2.03v33.6c0,4.69-3.59,8.6-8.13,9.07-5,.47-9.22-2.34-10.32-7.03-.16-.94-.31-1.88-.31-2.81,.16-5.47,.16-10.78,.16-16.1h0Z"/>
  <path class="cls-2" d="M51.09,55.93v16.72c0,4.69-3.59,8.6-8.13,9.07-4.85,.47-9.22-2.34-10.32-7.03-.16-.78-.31-1.41-.31-2.19V39.36c0-6.72,6.72-11.25,12.82-8.6,3.59,1.56,5.78,4.38,5.78,8.44,.31,5.47,.16,11.1,.16,16.72Z"/>
  <path class="cls-5" d="M18.73,75c0,2.19,.31,4.38,0,6.56-.63,4.85-4.85,8.13-10,7.97-4.69-.31-8.44-4.06-8.6-9.07-.16-3.59-.16-7.19,0-10.78,.31-5.31,4.53-9.22,9.85-8.91,5,.16,8.91,4.38,8.91,9.53,0,1.41,0,2.97-.16,4.69h0Z"/>
  <path class="cls-3" d="M131.11,75v-5c0-5.31,4.06-9.38,9.07-9.53,5.31-.16,9.53,3.91,9.69,9.22,.16,3.44,.16,7.03,0,10.47-.16,5.31-4.38,9.22-9.69,9.07-5-.16-8.91-4.22-9.07-9.38v-4.85Z"/>
  <path class="cls-4" d="M117.51,44.52v5.31c-.16,5.16-4.22,9.07-9.38,9.07s-9.07-3.91-9.22-9.07c-.16-3.59-.16-7.19,0-10.78,.16-5.16,4.22-8.91,9.22-9.07,5.16,0,9.22,3.91,9.38,8.91v5.63h0Z"/>
  <path class="cls-2" d="M51.09,105.48v5.47c-.16,5.16-4.22,9.07-9.22,9.22-5.16,0-9.22-3.91-9.38-9.07v-10.63c.16-5.16,4.22-9.07,9.38-9.07s9.07,3.91,9.22,9.07c.16,1.56,0,3.28,0,5Z"/>
  <path class="cls-1" d="M84.38,14.51v5.31c-.16,5.16-4.22,9.22-9.22,9.22s-9.22-4.06-9.38-9.07V9.35c.16-5.16,4.38-9.22,9.38-9.22s9.07,4.06,9.22,9.07v5.31Z"/>
  <path class="cls-1" d="M65.62,135.33v-5.16c.16-5.31,4.22-9.38,9.38-9.22,5,0,9.22,4.06,9.22,9.22v10.47c-.16,5.16-4.22,9.22-9.22,9.22s-9.22-4.06-9.38-9.38v-5.16Z"/>
</svg>