<?xml version="1.0" encoding="UTF-8"?>
<svg id="Layer_1" data-name="Layer 1" xmlns="http://www.w3.org/2000/svg" viewBox="0 0 150 150">
  <defs>
    <style>
      .cls-1 {
        fill: #fbc02d;
      }

      .cls-2 {
        fill: #e53935;
      }

      .cls-3 {
        fill: #1e88e5;
      }

      .cls-4 {
        fill: #4caf50;
      }
    </style>
  </defs>
  <path class="cls-1" d="M101.47,128.01c-7.29-7.29-7.29-19.22,0-26.5-14.58,14.58-38.43,14.58-53.01,0,7.29,7.29,7.29,19.22,0,26.5s-19.22,7.29-26.5,0c29.32,29.32,76.86,29.32,106.02,0-7.29,7.29-19.22,7.29-26.5,0h0Z"/>
  <path class="cls-3" d="M127.98,21.99C98.66-7.33,51.11-7.33,21.96,21.99c-29.16,29.32-29.32,76.86,0,106.02-7.29-7.29-7.29-19.22,0-26.5s19.22-7.29,26.5,0c-14.58-14.58-14.58-38.43,0-53.01,14.58-14.58,38.43-14.58,53.01,0,7.29,7.29,19.22,7.29,26.5,0s7.29-19.22,0-26.5h0Z"/>
  <circle class="cls-4" cx="35.21" cy="114.76" r="18.72"/>
  <path class="cls-2" d="M127.98,21.99c7.29,7.29,7.29,19.22,0,26.5s-19.22,7.29-26.5,0c14.58,14.58,14.58,38.43,0,53.01-7.29,7.29-7.29,19.22,0,26.5s19.22,7.29,26.5,0c29.32-29.16,29.32-76.86,0-106.02h0Z"/>
</svg>