<?xml version="1.0" encoding="UTF-8"?>
<svg id="Capa_1" data-name="Capa 1" xmlns="http://www.w3.org/2000/svg" viewBox="0 0 150 150">
  <defs>
    <style>
      .cls-1 {
        fill: #fbc02d;
      }

      .cls-2 {
        fill: #e53935;
      }

      .cls-3 {
        fill: #1565c0;
      }

      .cls-4 {
        fill: #1e88e5;
      }

      .cls-5 {
        fill: #2e7d32;
      }

      .cls-6 {
        fill: #4caf50;
      }
    </style>
  </defs>
  <path class="cls-4" d="M125.45,139.93c-3.39,2.03-7.28,3.05-11.34,3.05H35.72c-4.06,0-7.96-1.02-11.34-3.05,12.36-21.33,24.38-42.33,24.38-42.33h52.14c.17,.17,15.07,25.9,24.55,42.33Z"/>
  <path class="cls-1" d="M99.38,10.24c3.39,2.03,6.26,4.74,8.3,8.3l39.28,67.89c2.03,3.56,3.05,7.45,3.05,11.34-17.78,.17-48.76,0-48.76,0l-26.24-45.37s13.54-23.36,24.38-42.16Z"/>
  <path class="cls-2" d="M150,97.77c0,3.89-1.02,7.79-3.05,11.34l-13.88,24.04c-2.03,2.88-4.57,5.25-7.45,6.94l-24.38-42.33s48.76,0,48.76,0Z"/>
  <path class="cls-6" d="M0,97.77c0-3.89,1.02-7.79,3.05-11.34L42.33,18.54c2.03-3.56,4.91-6.26,8.3-8.3s24.38,42.33,24.38,42.33l-26.07,45.2H0Z"/>
  <path class="cls-3" d="M48.93,97.77l-24.38,42.33c-2.88-1.69-5.59-4.06-7.45-6.94L3.22,109.11c-2.03-3.56-3.05-7.45-3.05-11.34,0,0,48.76,0,48.76,0Z"/>
  <path class="cls-5" d="M99.38,10.24l-24.38,42.16L50.62,10.07c2.88-1.69,6.26-2.71,9.82-3.05h27.6c4.06,.17,7.96,1.19,11.34,3.22Z"/>
</svg>