<?xml version="1.0" encoding="UTF-8"?>
<svg id="Layer_1" data-name="Layer 1" xmlns="http://www.w3.org/2000/svg" viewBox="0 0 150 150">
  <defs>
    <style>
      .cls-1 {
        fill: #fbc02d;
      }

      .cls-2 {
        fill: #e53935;
      }

      .cls-3 {
        fill: #1e88e5;
      }

      .cls-4 {
        fill: #4caf50;
      }
    </style>
  </defs>
  <path class="cls-4" d="M111.94,117.73v15.65c0,9.27-7.51,16.61-16.61,16.61s-16.61-7.51-16.61-16.61v-41.21l33.23,25.56Z"/>
  <path class="cls-3" d="M111.94,16.77V117.73l-33.23-25.4V52.08l27.16-22.52c4.15-3.19,6.07-7.99,6.07-12.78Z"/>
  <path class="cls-2" d="M111.94,16.13v.64c0,4.79-2.08,9.58-6.07,12.78l-27.16,22.52V16.77c0-5.43,2.56-10.38,6.71-13.42,.32-.16,.64-.48,.96-.64,.16-.16,.32-.16,.48-.32,.32-.16,.48-.32,.8-.48l.8-.32,.64-.32c.32-.16,.48-.16,.8-.32,.32-.16,.48-.16,.8-.32,.48-.16,.96-.32,1.44-.32,.16,0,.32,0,.48-.16h.32c.16,0,.32,0,.64-.16h2.08c.64,0,1.12,0,1.76,.16,.32,0,.64,0,.96,.16,.32,0,.64,.16,.96,.16s.64,.16,.8,.16,.48,.16,.8,.16c.48,.16,.96,.32,1.44,.48,.16,.16,.48,.16,.64,.32,.32,.16,.64,.32,.8,.48,.48,.16,.8,.48,1.12,.8,0,0,.16,0,.16,.16,.48,.32,.8,.64,1.28,.96,.16,.16,.32,.32,.64,.48h0c.16,.16,.32,.32,.64,.48s.32,.32,.48,.64c.32,.32,.64,.8,.96,1.28,.16,.32,.48,.64,.64,.96,.16,.16,.16,.32,.32,.48,.16,.32,.32,.48,.48,.8,.16,.16,.32,.48,.32,.8,.16,.16,.16,.48,.32,.64,.16,.32,.16,.48,.32,.8,.16,.32,.16,.48,.32,.8,.16,.32,.16,.8,.32,1.12,0,.16,.16,.32,.16,.48s.16,.48,.16,.64v1.92c-.48-.32-.48-.16-.48-.16h0Z"/>
  <path class="cls-1" d="M84.78,3.83c.16-.16,.48-.32,.64-.48-3.99,3.04-6.71,7.83-6.71,13.42V52.08l-14.06,11.66c-3.04,2.56-6.87,3.83-10.54,3.83-4.79,0-9.58-2.08-12.78-6.07-5.75-7.03-4.79-17.57,2.24-23.48L84.78,3.83Z"/>
</svg>