<?xml version="1.0" encoding="UTF-8"?>
<svg id="Layer_1" data-name="Layer 1" xmlns="http://www.w3.org/2000/svg" viewBox="0 0 150 150">
  <defs>
    <style>
      .cls-1 {
        fill: #fbc02d;
      }

      .cls-2 {
        fill: #e53935;
      }

      .cls-3 {
        fill: #1e88e5;
      }

      .cls-4 {
        fill: #1a73e8;
      }

      .cls-5 {
        fill: #4caf50;
      }
    </style>
  </defs>
  <path class="cls-1" d="M108.24,20.93c11.37,0,20.84,9.3,20.84,20.84v16.7h20.84v-16.7C149.91,18.86,131.31,.09,108.24,.09h-16.7V20.93s16.7,0,16.7,0Z"/>
  <path class="cls-2" d="M20.93,41.76c0-11.37,9.3-20.84,20.84-20.84h16.7V.09h-16.7C18.86,.09,.09,18.69,.09,41.76v16.7H20.93s0-16.7,0-16.7Z"/>
  <path class="cls-4" d="M41.76,129.07c-11.37,0-20.84-9.3-20.84-20.84v-16.7H.09v16.7c0,22.9,18.6,41.68,41.68,41.68h16.7v-20.84h-16.7Z"/>
  <circle class="cls-3" cx="75" cy="75" r="29.1"/>
  <circle class="cls-5" cx="124.94" cy="124.94" r="16.7"/>
</svg>