<?xml version="1.0" encoding="UTF-8"?>
<svg id="Layer_1" data-name="Layer 1" xmlns="http://www.w3.org/2000/svg" viewBox="0 0 150 150">
  <defs>
    <style>
      .cls-1 {
        fill: #fbc02d;
      }

      .cls-2 {
        fill: #e53935;
      }

      .cls-3 {
        fill: #1e88e5;
      }

      .cls-4 {
        fill: #4caf50;
      }
    </style>
  </defs>
  <path class="cls-3" d="M44.2,104.72c-5.18-5.33-9.6-11.27-14.32-16.91-8.83-10.51-17.67-21.02-26.5-31.53-4.57-5.33-4.42-7.77,.46-13.1,14.17-15.84,31.83-25.44,52.7-29.55,6.09-1.22,12.34-1.98,18.74-1.52v22.24q0,4.42,4.26,4.87c-15.38-.61-29.7,2.59-42.65,10.97-1.98,1.22-1.07,1.98-.15,3.05,4.57,5.48,9.29,10.81,13.86,16.45,3.81,4.72,8.07,8.99,11.42,14.01-.15,0-.61,0-.61,.15-5.03,6.55-10.51,12.79-15.99,19.04-.91,.61-1.22,1.22-1.22,1.83Z"/>
  <path class="cls-2" d="M79.24,39.22q-4.26-.46-4.26-4.87V12.11c7.31-.46,14.47,.46,21.48,2.13,20.11,4.57,37.17,14.32,50.72,30.01,3.66,4.26,3.66,7.16,.15,11.27-3.96,4.72-7.92,9.29-11.88,13.86-1.68-2.44-3.96-4.42-6.09-6.55-4.26-4.26-8.83-8.23-14.17-11.27-1.07-.76-1.98-1.52-3.05-2.28-10.21-6.09-21.17-9.29-32.9-10.05Z"/>
  <path class="cls-4" d="M115.03,51.71c5.33,3.05,9.9,7.01,14.17,11.27,2.13,2.13,4.42,4.11,6.09,6.55-6.25,7.46-12.49,15.08-18.74,22.54-7.92,9.44-15.84,18.89-23.76,28.18-2.44-1.83-4.11-4.42-5.94-6.85-3.96-4.72-7.92-9.6-11.88-14.32,3.81-4.57,7.62-9.14,11.58-13.56,9.6-11.27,19.04-22.54,28.48-33.81Z"/>
  <path class="cls-1" d="M75.13,99.08c3.96,4.72,7.92,9.6,11.88,14.32,1.98,2.28,3.5,4.87,5.94,6.85-4.11,4.87-8.23,9.9-12.34,14.77-3.35,3.81-7.77,4.11-10.97,.15-8.53-10.05-16.91-20.11-25.29-30.16-.15-.15-.15-.3-.15-.46,.15-.61,.3-1.22,.76-1.68,5.48-6.25,10.97-12.49,15.99-19.04,.15-.15,.46-.15,.61-.15,1.68,1.07,2.59,2.89,3.96,4.26,3.2,3.66,6.09,7.77,9.6,11.12Z"/>
</svg>