<?xml version="1.0" encoding="UTF-8"?>
<svg id="Layer_1" data-name="Layer 1" xmlns="http://www.w3.org/2000/svg" viewBox="0 0 150 150">
  <defs>
    <style>
      .cls-1 {
        fill: #fbbc04;
      }

      .cls-2 {
        fill: #e54335;
      }

      .cls-3 {
        fill: #4285f4;
      }

      .cls-4 {
        fill: #34a853;
      }
    </style>
  </defs>
  <path class="cls-3" d="M9.02,23.42c7.49-3.17,15.99,.29,19.16,7.64L61.32,107.71c3.17,7.35-.29,15.7-7.78,18.87-7.49,3.17-15.99-.29-19.16-7.64L1.24,42.29c-3.17-7.35,.29-15.7,7.78-18.87h0Z"/>
  <path class="cls-1" d="M56.14,23.42c7.49-3.17,15.99,.29,19.16,7.64l33.14,76.65c3.17,7.35-.29,15.7-7.78,18.87-7.49,3.17-15.99-.29-19.16-7.64L48.36,42.29c-3.17-7.35,.29-15.7,7.78-18.87h0Z"/>
  <ellipse class="cls-2" cx="134.52" cy="37.39" rx="15.42" ry="15.13"/>
  <ellipse class="cls-4" cx="119.82" cy="70.97" rx="15.42" ry="15.13"/>
</svg>