<?xml version="1.0" encoding="UTF-8"?>
<svg id="Layer_1" data-name="Layer 1" xmlns="http://www.w3.org/2000/svg" viewBox="0 0 150 150">
  <defs>
    <style>
      .cls-1 {
        fill: #fbc02d;
      }

      .cls-2 {
        fill: #e53935;
      }

      .cls-3 {
        fill: #1e88e5;
      }

      .cls-4 {
        fill: #4caf50;
      }
    </style>
  </defs>
  <g id="g17480">
    <path id="path17482" class="cls-3" d="M75.01,97.19c12.46,0,22.4-10.1,22.4-22.4V22.4c0-12.46-10.1-22.4-22.4-22.4s-22.4,10.1-22.4,22.4v52.38c0,12.31,10.1,22.4,22.4,22.4"/>
  </g>
  <g id="g17484">
    <path id="path17486" class="cls-4" d="M67.56,126.49h0v23.51h14.99v-23.35c-2.37,.32-4.89,.32-7.42,.32-2.68,.16-5.05,0-7.57-.47"/>
  </g>
  <g id="g17488">
    <path id="path17490" class="cls-1" d="M48.47,101.5c-6.63-6.78-10.89-14.99-10.89-26.19h-14.99c0,14.99,5.84,27.3,15.3,36.76l.16-.16-.16-.16,10.57-10.26Z"/>
  </g>
  <g id="g17492">
    <path id="path17494" class="cls-2" d="M112.41,75.28c0,18.78-16.57,37.24-37.39,37.24-10.41,0-19.72-4.26-26.51-11.04l-.16,.16-10.41,10.41,.16,.16c7.73,7.73,17.99,12.94,29.5,14.67,2.52,.32,5.05,.63,7.57,.63s5.05,0,7.42-.32c25.4-3.63,44.81-25.4,44.81-51.59h-14.99v-.32Z"/>
  </g>
</svg>