<?xml version="1.0" encoding="UTF-8"?>
<svg id="Capa_1" data-name="Capa 1" xmlns="http://www.w3.org/2000/svg" viewBox="0 0 150 150">
  <defs>
    <style>
      .cls-1 {
        fill: #fbbc05;
      }

      .cls-2 {
        fill: #ea4335;
      }

      .cls-3 {
        fill: #4285f4;
      }

      .cls-4 {
        fill: #34a853;
      }
    </style>
  </defs>
  <path class="cls-2" d="M95.21,47.98h4.51l13.03-13.03,.67-5.51c-24.22-21.38-61.3-19.04-82.68,5.18-6.01,6.68-10.19,14.7-12.7,23.39,1.5-.67,3.01-.67,4.51-.33l26.06-4.34s1.34-2.17,2-2c11.69-12.7,31.24-14.2,44.6-3.34h0Z"/>
  <path class="cls-3" d="M131.46,58.01c-3.01-11.02-9.19-20.88-17.71-28.56l-18.37,18.37c7.68,6.35,12.19,15.87,11.86,25.72v3.17c9.02,0,16.2,7.35,16.2,16.2s-7.35,16.2-16.2,16.2h-32.41l-3.17,3.34v19.54l3.17,3.17h32.57c23.39,.17,42.43-18.71,42.6-42.09,.17-13.86-6.85-27.06-18.54-35.08Z"/>
  <path class="cls-4" d="M42.09,135.18h32.57v-26.06H42.09c-2.34,0-4.68-.5-6.68-1.5l-4.51,1.5-13.2,13.03-1.17,4.51c7.35,5.68,16.37,8.69,25.56,8.52Z"/>
  <path class="cls-1" d="M42.09,50.66C18.71,50.82-.17,69.87,0,93.25,0,106.28,6.18,118.64,16.53,126.49l18.88-18.88c-8.18-3.67-11.86-13.36-8.18-21.55,3.67-8.18,13.36-11.86,21.55-8.18,3.67,1.67,6.51,4.51,8.18,8.18l18.88-18.88c-8.02-10.36-20.55-16.54-33.74-16.54Z"/>
</svg>