<svg xmlns="http://www.w3.org/2000/svg" viewBox="0 0 36 36"><defs><style>.a{fill:#4280ef;}.b{fill:#34a353;}.c{fill:#f6b704;}.d{fill:#e54335;}</style></defs><path class="a" d="M34.66,18.41A21.9,21.9,0,0,0,34.37,15h-16v6.56h9.18a7.75,7.75,0,0,1-3.4,5.15l5.48,4.26a16.72,16.72,0,0,0,5.07-12.52Z"/><path class="b" d="M18.33,35a16.29,16.29,0,0,0,11.26-4.11l-5.48-4.22A10.32,10.32,0,0,1,8.77,21.3L3.14,25.63A17,17,0,0,0,18.33,35Z"/><path class="c" d="M8.77,21.26a10.38,10.38,0,0,1,0-6.52L3.14,10.37a17.07,17.07,0,0,0,0,15.26Z"/><path class="d" d="M18.33,7.74a9.25,9.25,0,0,1,6.52,2.56L29.7,5.41A16.36,16.36,0,0,0,18.33,1,17,17,0,0,0,3.14,10.37l5.63,4.37A10.17,10.17,0,0,1,18.33,7.74Z"/></svg>