<?xml version="1.0" encoding="utf-8"?>
<!-- Generator: Adobe Illustrator 27.0.0, SVG Export Plug-In . SVG Version: 6.00 Build 0)  -->
<svg version="1.1" id="Слой_1" xmlns="http://www.w3.org/2000/svg" xmlns:xlink="http://www.w3.org/1999/xlink" x="0px" y="0px"
	 viewBox="0 0 24 24" style="enable-background:new 0 0 24 24;" xml:space="preserve">
<style type="text/css">
	.st0{fill:none;}
	.st1{fill:#4E91DF;}
</style>
<rect class="st0" width="24" height="24"/>
<path class="st1" d="M11.7,18C8.5,17.8,6,15.2,6,12c0-3.3,2.7-6,6-6c3.2,0,5.8,2.5,6,5.7l-2.1-0.6C15.5,9.3,13.9,8,12,8
	c-2.2,0-4,1.8-4,4c0,1.9,1.3,3.5,3.1,3.9L11.7,18z M22,12c0,0.3,0,0.6,0,0.9l-2-0.6c0-0.1,0-0.2,0-0.3c0-4.4-3.6-8-8-8s-8,3.6-8,8
	s3.6,8,8,8c0.1,0,0.2,0,0.3,0l0.6,2c-0.3,0-0.6,0-0.9,0C6.5,22,2,17.5,2,12S6.5,2,12,2S22,6.5,22,12z M18.2,16.3L22,15l-10-3l3,10
	l1.3-3.8l4.3,4.3l2-2L18.2,16.3z"/>
</svg>
