<?xml version="1.0" encoding="utf-8"?>
<!-- Generator: Adobe Illustrator 27.0.0, SVG Export Plug-In . SVG Version: 6.00 Build 0)  -->
<svg version="1.1" id="Слой_1" xmlns="http://www.w3.org/2000/svg" xmlns:xlink="http://www.w3.org/1999/xlink" x="0px" y="0px"
	 viewBox="0 0 24 24" style="enable-background:new 0 0 24 24;" xml:space="preserve">
<style type="text/css">
	.st0{fill:none;}
	.st1{fill:#4E91DF;}
</style>
<rect class="st0" width="24" height="24"/>
<path class="st1" d="M10,10v2H8v-2H10z M16,12v-2h-2v2H16z M21,14v8H3v-8h1v-4c0-4.4,3.6-8,8-8s8,3.6,8,8v4H21z M7,16H5v4h2V16z
	 M11,16H9v4h2V16z M11,4.1C8.2,4.6,6,7,6,10v4h5V4.1z M13,14h5v-4c0-3-2.2-5.4-5-5.9V14z M15,16h-2v4h2V16z M19,16h-2v4h2V16z"/>
</svg>
