<?xml version="1.0" encoding="utf-8"?>
<!-- Generator: Adobe Illustrator 27.0.0, SVG Export Plug-In . SVG Version: 6.00 Build 0)  -->
<svg version="1.1" id="Слой_1" xmlns="http://www.w3.org/2000/svg" xmlns:xlink="http://www.w3.org/1999/xlink" x="0px" y="0px"
	 viewBox="0 0 24 24" style="enable-background:new 0 0 24 24;" xml:space="preserve">
<style type="text/css">
	.st0{fill:none;}
	.st1{fill:#4E91DF;}
</style>
<g>
	<rect class="st0" width="24" height="24"/>
</g>
<g>
	<g>
		<path class="st1" d="M4,19v-9l6-4.5l4.1,3.1C14.9,8.2,15.8,8,16.7,8L10,3L2,9v12h8.8c-0.5-0.6-0.9-1.3-1.2-2H4z"/>
		<path class="st1" d="M17,14.8c-0.7,0-1.2,0.6-1.2,1.2c0,0.4,0.2,0.8,0.5,1v5h1.5v-5c0.3-0.2,0.5-0.6,0.5-1
			C18.2,15.3,17.7,14.8,17,14.8z"/>
		<path class="st1" d="M17,12c-2.2,0-4,1.8-4,4c0,1.1,0.4,2.1,1.2,2.8l1.1-1.1c-0.4-0.5-0.7-1.1-0.7-1.8c0-1.4,1.1-2.5,2.5-2.5
			s2.5,1.1,2.5,2.5c0,0.7-0.3,1.3-0.7,1.8l1.1,1.1c0.7-0.7,1.2-1.7,1.2-2.8C21,13.8,19.2,12,17,12z"/>
		<path class="st1" d="M17,9.5c-3.6,0-6.5,2.9-6.5,6.5c0,1.8,0.7,3.4,1.9,4.6l1.1-1.1C12.6,18.6,12,17.4,12,16c0-2.8,2.2-5,5-5
			s5,2.2,5,5c0,1.4-0.6,2.6-1.5,3.5l1.1,1.1c1.2-1.2,1.9-2.8,1.9-4.6C23.5,12.4,20.6,9.5,17,9.5z"/>
	</g>
</g>
</svg>
