<?xml version="1.0" encoding="utf-8"?>
<!-- Generator: Adobe Illustrator 27.0.0, SVG Export Plug-In . SVG Version: 6.00 Build 0)  -->
<svg version="1.1" id="Слой_1" xmlns="http://www.w3.org/2000/svg" xmlns:xlink="http://www.w3.org/1999/xlink" x="0px" y="0px"
	 viewBox="0 0 24 24" style="enable-background:new 0 0 24 24;" xml:space="preserve">
<style type="text/css">
	.st0{fill:none;}
	.st1{fill:#4E91DF;}
</style>
<path class="st0" d="M0,0h24v24H0V0z"/>
<path class="st1" d="M18,13h-0.7l-2,2h1.9l1.8,2H5l1.8-2h2.1l-2-2H6l-3,3v4c0,1.1,0.9,2,2,2h14c1.1,0,2-0.9,2-2v-4L18,13z M19,20H5
	v-1h14V20z M11.3,15c0.4,0.4,1,0.4,1.4,0l6.4-6.4c0.4-0.4,0.4-1,0-1.4l-5-4.9c-0.4-0.4-1-0.4-1.4,0L6.4,8.7c-0.4,0.4-0.4,1,0,1.4
	C6.4,10.1,11.3,15,11.3,15z M13.5,4.4L17,7.9l-4.9,4.9L8.5,9.4C8.5,9.4,13.5,4.4,13.5,4.4z"/>
</svg>
