<?xml version="1.0" encoding="utf-8"?>
<!-- Generator: Adobe Illustrator 27.0.0, SVG Export Plug-In . SVG Version: 6.00 Build 0)  -->
<svg version="1.1" id="Слой_1" xmlns="http://www.w3.org/2000/svg" xmlns:xlink="http://www.w3.org/1999/xlink" x="0px" y="0px"
	 viewBox="0 0 24 24" style="enable-background:new 0 0 24 24;" xml:space="preserve">
<style type="text/css">
	.st0{fill:none;}
	.st1{fill:#4E91DF;}
</style>
<rect class="st0" width="24" height="24"/>
<path class="st1" d="M7,13c-2.2,0-4,1.8-4,4s1.8,4,4,4s4-1.8,4-4S9.2,13,7,13z M7,19c-1.1,0-2-0.9-2-2s0.9-2,2-2s2,0.9,2,2
	S8.1,19,7,19z M13,13v8h8v-8H13z M19,19h-4v-4h4V19z M7,2l-5,9h10L7,2z M7,6.1L8.6,9H5.4L7,6.1z M19.2,2.5c-1.1,0-1.8,0.6-2.2,1.2
	c-0.4-0.6-1.2-1.2-2.2-1.2c-1.6,0-2.8,1.3-2.8,2.8c0,2,2.4,3.4,5,5.8c2.6-2.3,5-3.8,5-5.8C22,3.8,20.8,2.5,19.2,2.5z M17,8.4
	c-1.4-1.2-3-2.4-3-3.1c0-0.4,0.4-0.8,0.8-0.8c0.3,0,0.5,0.2,0.7,0.4L17,6.3l1.5-1.4c0.2-0.2,0.4-0.4,0.7-0.4c0.4,0,0.8,0.3,0.8,0.8
	C20,5.9,18.5,7.1,17,8.4z"/>
</svg>
