<?xml version="1.0" encoding="utf-8"?>
<!-- Generator: Adobe Illustrator 27.0.0, SVG Export Plug-In . SVG Version: 6.00 Build 0)  -->
<svg version="1.1" id="Слой_1" xmlns="http://www.w3.org/2000/svg" xmlns:xlink="http://www.w3.org/1999/xlink" x="0px" y="0px"
	 viewBox="0 0 24 24" style="enable-background:new 0 0 24 24;" xml:space="preserve">
<style type="text/css">
	.st0{fill:none;}
	.st1{fill:#4E91DF;}
</style>
<g>
	<path class="st0" d="M0,0h24v24H0V0z"/>
</g>
<g>
	<path class="st1" d="M7,9H2V7h5V9z M7,12H2v2h5V12z M20.6,19l-3.8-3.8C16,15.7,15,16,14,16c-2.8,0-5-2.2-5-5s2.2-5,5-5s5,2.2,5,5
		c0,1-0.3,2-0.8,2.8l3.8,3.8L20.6,19z M17,11c0-1.6-1.4-3-3-3s-3,1.4-3,3s1.4,3,3,3S17,12.6,17,11z M2,19h10v-2H2V19z"/>
</g>
</svg>
