<?xml version="1.0" encoding="utf-8"?>
<!-- Generator: Adobe Illustrator 27.0.0, SVG Export Plug-In . SVG Version: 6.00 Build 0)  -->
<svg version="1.1" id="Слой_1" xmlns="http://www.w3.org/2000/svg" xmlns:xlink="http://www.w3.org/1999/xlink" x="0px" y="0px"
	 viewBox="0 0 24 24" style="enable-background:new 0 0 24 24;" xml:space="preserve">
<style type="text/css">
	.st0{fill:none;}
	.st1{fill:#4E91DF;}
</style>
<g>
	<rect class="st0" width="24" height="24"/>
</g>
<g>
	<g>
		<path class="st1" d="M20,9V7c0-1.1-0.9-2-2-2h-3c0-1.7-1.3-3-3-3S9,3.3,9,5H6C4.9,5,4,5.9,4,7v2c-1.7,0-3,1.3-3,3s1.3,3,3,3v4
			c0,1.1,0.9,2,2,2h12c1.1,0,2-0.9,2-2v-4c1.7,0,3-1.3,3-3S21.7,9,20,9z M18,19H6V7h12V19z M9,13c-0.8,0-1.5-0.7-1.5-1.5
			S8.2,10,9,10s1.5,0.7,1.5,1.5S9.8,13,9,13z M16.5,11.5c0,0.8-0.7,1.5-1.5,1.5s-1.5-0.7-1.5-1.5S14.2,10,15,10S16.5,10.7,16.5,11.5
			z M8,15h8v2H8V15z"/>
	</g>
</g>
</svg>
