<svg id="prclip_app_RGB.svg" xmlns="http://www.w3.org/2000/svg" viewBox="0 0 240 234"><defs><style>.cls-1{fill:#2a0034;}.cls-1,.cls-2{fill-rule:evenodd;}.cls-2,.cls-4{fill:#ea77ff;}.cls-3{fill:#f6cafe;}</style></defs><title>PremiereClip</title><path class="cls-1" d="M41.89,7.45C13.76,7.45,7.27,24.2,7.27,52.35L7.38,189c0,28.16,8.78,37.56,36.9,37.56H195.05c28.12,0,37.57-9.4,37.57-37.55V47.18C232.62,19,222.12,7.45,194,7.45Z"/><path class="cls-2" d="M0,43.05V191.22C0,214.85,18.21,234,41.88,234H197.14A42.82,42.82,0,0,0,240,191.22V42.78A42.82,42.82,0,0,0,197.14,0H41.88C18.21,0,0,19.15,0,42.78ZM194,10.13c19.11,0,35.85,15.69,35.85,34.78v142.3c0,19-15.48,36.66-34.57,36.66H44.68c-19.09,0-34.57-16.24-34.57-35.29l0-141.66c0-19,15.46-36.76,34.53-36.79Z"/><path class="cls-3" d="M141.2,144.72c-2.45,0-4.12-2-4.13-4.9V95.08c0-2.94,1.66-4.91,4.13-4.91a6,6,0,0,1,2.91.85l40.35,22.4a4.36,4.36,0,0,1,0,8.11l-40.39,22.33A5.72,5.72,0,0,1,141.2,144.72Zm0-51.8c-1.2,0-1.38,1.35-1.38,2.16v44.73c0,.64.14,2.16,1.38,2.16a3.08,3.08,0,0,0,1.53-.5l40.4-22.33c.85-.49,1.35-1.1,1.35-1.66s-.5-1.16-1.37-1.67L142.76,93.42A3.28,3.28,0,0,0,141.2,92.92Z"/><path class="cls-4" d="M73.57,178.35a5.87,5.87,0,1,1-11.74,0V56.78a5.87,5.87,0,1,1,11.74,0Z"/><path class="cls-4" d="M99.17,164.11a5.87,5.87,0,0,1-11.74,0v-93a5.87,5.87,0,1,1,11.74,0Z"/><path class="cls-4" d="M124.64,149.87a5.87,5.87,0,0,1-11.74,0V85.18a5.87,5.87,0,0,1,11.74,0Z"/></svg>