<?xml version="1.0" encoding="utf-8"?>
<!-- Generator: Adobe Illustrator 22.0.1, SVG Export Plug-In . SVG Version: 6.00 Build 0)  -->
<svg version="1.1" id="Layer_1" xmlns="http://www.w3.org/2000/svg" xmlns:xlink="http://www.w3.org/1999/xlink" x="0px" y="0px"
	 viewBox="0 0 48.2 48.2" style="enable-background:new 0 0 48.2 48.2;" xml:space="preserve">
<style type="text/css">
	.st0{fill:#828282;}
	.st1{fill:#FFFFFF;}
	.st2{fill-rule:evenodd;clip-rule:evenodd;fill:#261300;}
	.st3{fill-rule:evenodd;clip-rule:evenodd;fill:#FF7C00;}
	.st4{fill-rule:evenodd;clip-rule:evenodd;fill:#FEE4CA;}
	.st5{clip-path:url(#SVGID_2_);fill-rule:evenodd;clip-rule:evenodd;fill:#262000;}
	.st6{fill-rule:evenodd;clip-rule:evenodd;fill:#FFDA00;}
	.st7{fill:#FEF7CA;}
</style>
<g id="Draw_1_">
	<path class="st2" d="M8.8,2.6C3.3,2.6,2,5.9,2,11.4l0,26.8c0,5.5,1.7,7.4,7.2,7.4h29.5c5.5,0,7.4-1.8,7.4-7.4V10.4
		c0-5.5-2.1-7.8-7.6-7.8H8.8z"/>
	<path class="st3" d="M0.3,9.4v29.4c0,4.7,3.6,8.5,8.3,8.5h30.8c4.7,0,8.5-3.8,8.5-8.5V9.4c0-4.7-3.8-8.5-8.5-8.5H8.6
		C3.9,0.9,0.3,4.7,0.3,9.4L0.3,9.4z M38.8,2.9c3.8,0,7.1,3.1,7.1,6.9V38c0,3.8-3.1,7.3-6.9,7.3H9.1c-3.8,0-6.9-3.2-6.9-7l0-28.1
		c0-3.8,3.1-7.3,6.9-7.3H38.8z"/>
	<path class="st3" d="M27.2,13.2H23c0,2-3,5.7-4,6.5L24.4,30h0.1v-7c-0.6-0.2-1-0.8-1-1.5c0-0.9,0.7-1.6,1.6-1.6s1.6,0.7,1.6,1.6
		c0,0.7-0.4,1.3-1,1.5v7h0.1l5.5-10.3C30.1,19.1,27.2,15.6,27.2,13.2z"/>
	<path class="st4" d="M38.1,13.1c-0.2-0.1-0.4,0-0.6,0.2L25.1,35.7L13.2,14.3c-0.4-0.8-0.9-1.2-1.6-1.2c-0.9,0-1.7,0.8-1.7,1.7
		c0,0.5,0.1,0.7,0.5,1.2c0.4,0.5,14.3,20.9,14.3,20.9l0,0l0,0c0,0.1,0.1,0.1,0.1,0.1c0.1,0,0.1,0.1,0.2,0.1c0.1,0,0.3-0.1,0.4-0.2
		l12.8-23.1C38.4,13.5,38.3,13.2,38.1,13.1z"/>
</g>
</svg>
