<svg xmlns="http://www.w3.org/2000/svg" xmlns:xlink="http://www.w3.org/1999/xlink" viewBox="0 0 240 235"><defs><style>.a{fill:url(#a);}.b{fill:#d4f10d;fill-rule:evenodd;}.c{fill:#f8ffcb;}</style><radialGradient id="a" cx="350.92" cy="-19.1" r="143.79" gradientTransform="matrix(1.09, 0, 0, -1.09, -286.91, 57.22)" gradientUnits="userSpaceOnUse"><stop offset="0" stop-color="#333622"/><stop offset="0.77" stop-color="#1a1d05"/></radialGradient></defs><rect class="a" width="240" height="235" rx="42.58"/><path class="b" d="M16.75,117A103.25,103.25,0,1,0,120,13.75,103.25,103.25,0,0,0,16.75,117Zm10.65,0A92.61,92.61,0,1,1,120,209.72,92.61,92.61,0,0,1,27.4,117h0Z"/><path class="c" d="M119.94,133.91a16.24,16.24,0,0,1-7.94-2.07V141a24.66,24.66,0,0,0,7.94,1.31c13.64,0,25.5-10.08,25.5-24.79V50.85a72.09,72.09,0,0,0-8.44-3v69.64C137,127.7,129,133.91,119.94,133.91Zm.2-32.67a14,14,0,0,1,7.36,2.1V94.18a24.54,24.54,0,0,0-31.17,15.23A24.25,24.25,0,0,0,95,117.6v66.19a72.1,72.1,0,0,0,8.5,2.53V117.55A16.62,16.62,0,0,1,120.14,101.24ZM155,117.41c.13,22.25-16.25,34.85-35,34.85a34.4,34.4,0,0,1-7.94-1.18v3.41a37.85,37.85,0,0,0,7.94.85c20.83,0,38.18-15,38.06-37.77V57c-1.2-.77-1.8-1.6-3-2.3ZM120,82.94a23.78,23.78,0,0,1,7.51.81V80.67a37.76,37.76,0,0,0-8-.86c-20.82,0-37,15.64-37,36.46v61.27c1.2.75,1.72,1.41,3,2.09V117.55C85.51,98.76,99.84,83,120,82.94Zm47.47,34.57c.39,27.85-20.09,47.16-47.51,47.16a46.08,46.08,0,0,1-7.94-.81v3.43a50.3,50.3,0,0,0,7.94.63c27.77,0,50.83-19.2,50.56-50.34V67.13c-1.19-1.2-1.77-2.25-3-3.36Zm-97.4,50c1.18,1.17,1.68,2.35,2.94,3.44v-53.8c.13-28.47,19.2-46.39,44.94-46.39a53.33,53.33,0,0,1,8.56.69V67.88a51.07,51.07,0,0,0-8-.64C90.75,67.24,70,86.9,70,117.19Z"/></svg>