<svg xmlns="http://www.w3.org/2000/svg" xmlns:xlink="http://www.w3.org/1999/xlink" viewBox="0 0 240 235"><defs><style>.a{fill:url(#a);}.b{fill:#fff;}</style><radialGradient id="a" cx="357.08" cy="-28.76" r="139.05" gradientTransform="matrix(1, 0, 0, -1, -276, 46.67)" gradientUnits="userSpaceOnUse"><stop offset="0" stop-color="#474648"/><stop offset="1" stop-color="#333132"/></radialGradient></defs><path class="a" d="M42.42,0H197.58A42.52,42.52,0,0,1,240,42.61V192.39A42.52,42.52,0,0,1,197.58,235H42.42A42.52,42.52,0,0,1,0,192.39V42.82A42.52,42.52,0,0,1,42.2,0Z"/><path class="b" d="M170.93,64.59H137.85V37.37L70.34,65.15h0a7.93,7.93,0,0,0-4.53,7.07v85.4a14.15,14.15,0,0,0,9.62,13.22l65,21.2a8,8,0,0,0,10.07-5.12,8.41,8.41,0,0,0,.39-2.44V174.16h20.15Zm-37,0H82.78l50.83-21.21Zm4.24,113.53L77.13,156.91V77.45L138.2,98.66Zm28.85-8.06H150.79V98.24a12.59,12.59,0,0,0-8.77-12L88.51,68.83h78.18Z"/><polygon class="b" points="130.71 168.01 83.91 151.54 83.91 87.63 130.71 104.17 130.71 168.01"/></svg>