<svg xmlns="http://www.w3.org/2000/svg" viewBox="0 0 20 20"><g id="premier-elements"><g id="Surfaces"><g id="Video_Audio_Surface" data-name="Video Audio Surface"><g id="Outline_no_shadow" data-name="Outline no shadow"><rect y="0.36" width="20" height="19.29" rx="3.54" style="fill:#1d1c57"/></g></g></g><g id="Outlined_Mnemonics_Logos" data-name="Outlined Mnemonics Logos"><g id="Pr_Elements" data-name="Pr Elements"><g id="Group_1427" data-name="Group 1427"><path id="Path_1956" data-name="Path 1956" d="M10,6.44A3.49,3.49,0,1,0,13.5,9.92h0A3.48,3.48,0,0,0,10,6.44Zm2,3.72L8.94,11.81c-.2.12-.36,0-.37-.21V8.28c0-.23.16-.33.37-.21L12,9.73C12.23,9.85,12.23,10,12,10.16Z" style="fill:#9696ca;fill-rule:evenodd"/></g><path d="M11.92,18.2a1.16,1.16,0,0,1-.57-.15L2.16,12.93a1.12,1.12,0,0,1-.44-1.52l0,0,5.36-9a1.2,1.2,0,0,1,1-.57,1.16,1.16,0,0,1,.57.15L17.87,7a1.12,1.12,0,0,1,.44,1.52l0,0-5.36,9A1.2,1.2,0,0,1,11.92,18.2ZM8.11,2.61a.36.36,0,0,0-.29.16l-5.36,9a.26.26,0,0,0,0,.21.24.24,0,0,0,.14.17l9.19,5.13a.29.29,0,0,0,.16,0,.33.33,0,0,0,.28-.16l5.37-9a.26.26,0,0,0,0-.21.28.28,0,0,0-.13-.17L8.27,2.65A.42.42,0,0,0,8.11,2.61Z" style="fill:#9696ca;isolation:isolate;opacity:0.6000000238418579"/></g></g></g></svg>