<svg xmlns="http://www.w3.org/2000/svg" enable-background="new 0 0 512 512" version="1" viewBox="0 0 512 512"><path fill="#00E186" d="M94.047,13.228h326.016c50.665,0,92.118,41.453,92.118,92.118v314.965
			c0,50.665-41.453,92.118-92.118,92.118H92.298c-50.665,0-92.118-41.453-92.118-92.118V107.095
			C0.18,55.362,42.314,13.228,94.047,13.228"/><path fill="#0B2B1C" d="M98.313,34.562h317.482c41.45,0,75.051,33.601,75.051,75.051v306.431c0,41.45-33.602,75.051-75.051,75.051
			H96.564c-41.45,0-75.051-33.602-75.051-75.051V111.362C21.513,68.695,55.646,34.562,98.313,34.562"/><g><path fill="#B4FFE2" d="M322.17,249.226v-39.253c0-0.643-0.234-1.264-0.658-1.748l-65.205-74.317
			c-0.503-0.573-1.229-0.902-1.992-0.902H133.343c-1.464,0-2.65,1.186-2.65,2.65v248.689c0,1.464,1.186,2.65,2.65,2.65h181.863
			c1.464,0,2.65-1.186,2.65-2.65v-3.328c0-1.464-1.186-2.65-2.65-2.65H141.971c-1.464,0-2.65-1.186-2.65-2.65V144.284
			c0-1.464,1.186-2.65,2.65-2.65h100.915c1.464,0,2.65,1.186,2.65,2.65v69.19c0,1.464,1.186,2.65,2.65,2.65h62.706
			c1.464,0,2.65,1.186,2.65,2.65v30.452c0,1.464,1.186,2.65,2.65,2.65h3.329C320.984,251.876,322.17,250.69,322.17,249.226z
			 M258.637,149.645l47.039,53.613c1.448,1.65,0.276,4.237-1.919,4.237h-46.942c-1.464,0-2.65-1.186-2.65-2.65v-53.516
			C254.164,148.973,257.083,147.874,258.637,149.645z"/><path fill="#00E186" d="M382.836,316.662l-66.359-46.609c-0.734-0.516-1.745,0.009-1.745,0.907v27.058H162.725v38.277h152.007
			v27.884c0,0.897,1.011,1.422,1.745,0.907l66.359-46.609C383.464,318.034,383.464,317.103,382.836,316.662z"/></g></svg>