<svg xmlns="http://www.w3.org/2000/svg" xmlns:xlink="http://www.w3.org/1999/xlink" viewBox="0 0 240 235"><defs><style>.a{fill:url(#a);}.b{fill-rule:evenodd;fill:url(#b);}</style><radialGradient id="a" cx="369.65" cy="64.46" r="383.7" gradientTransform="matrix(1, 0, 0, -1, -276, 46.7)" gradientUnits="userSpaceOnUse"><stop offset="0" stop-color="#ec202b"/><stop offset="0.15" stop-color="#e2202a"/><stop offset="0.4" stop-color="#c51e26"/><stop offset="0.73" stop-color="#981c20"/><stop offset="1" stop-color="#6d1a1b"/></radialGradient><linearGradient id="b" x1="316.53" y1="-69.8" x2="475.67" y2="-69.8" gradientTransform="matrix(1, 0, 0, -1, -276, 47)" gradientUnits="userSpaceOnUse"><stop offset="0.14" stop-color="#fff"/><stop offset="1" stop-color="#ebedeb"/></linearGradient></defs><rect class="a" width="240" height="235" rx="42.58"/><path class="b" d="M120,87.07a27.63,27.63,0,1,1-24,41.54l3.7-2.2a23.31,23.31,0,0,1-3.3-11.71A23.56,23.56,0,0,1,120.1,91.38V87.07Zm.1,58a30.43,30.43,0,1,0-.1-60.85v-4.3c-19.32,0-35.13,15.61-35.13,34.73a34,34,0,0,0,4.9,17.51l3.71-2.2A30.71,30.71,0,0,0,120.1,145Zm45.64-4.1a53.15,53.15,0,0,1-45.64,25.82c-29.12,0-52.94-23.42-52.94-52.14S90.88,62.45,120,62.45v4.31c26.82,0,48.54,21.52,48.54,47.84a47.46,47.46,0,0,1-6.5,24.12ZM120.1,169.64a56.09,56.09,0,0,0,48.14-27.22l3.7,2.2a58.08,58.08,0,0,0,8.11-29.92c0-32.73-26.92-59.25-60.05-59.25v4.3c-30.73,0-55.75,24.72-55.75,55.05C64.25,144.92,89.37,169.64,120.1,169.64ZM120.1,39c42.24,0,76.66,33.93,76.66,75.67a74,74,0,0,1-10.5,38.13l-3.71-2.2a72.93,72.93,0,0,1-125.1,0l-3.71,2.2a76.44,76.44,0,0,1-10.3-38.23C43.44,73,77.76,39,120.1,39Zm68.66,115.2a77.25,77.25,0,0,0,10.91-39.63c0-43.24-35.73-78.47-79.57-78.47S40.53,71.36,40.53,114.6a77.79,77.79,0,0,0,10.91,39.63l-3.7,2.2a84.31,84.31,0,0,0,144.72,0Z"/></svg>