<svg xmlns="http://www.w3.org/2000/svg" xmlns:xlink="http://www.w3.org/1999/xlink" viewBox="0 0 240 235"><defs><style>.a{fill:url(#a);}.b{fill:url(#b);}</style><radialGradient id="a" cx="369.66" cy="64.5" r="383.64" gradientTransform="matrix(1, 0, 0, -1, -276, 46.7)" gradientUnits="userSpaceOnUse"><stop offset="0" stop-color="#ec202b"/><stop offset="0.15" stop-color="#e2202a"/><stop offset="0.4" stop-color="#c51e26"/><stop offset="0.73" stop-color="#981c20"/><stop offset="1" stop-color="#6d1a1b"/></radialGradient><linearGradient id="b" x1="395.7" y1="5.3" x2="395.7" y2="-144.4" gradientTransform="matrix(1, 0, 0, -1, -276, 47)" gradientUnits="userSpaceOnUse"><stop offset="0.14" stop-color="#fff"/><stop offset="1" stop-color="#eaecea"/></linearGradient></defs><rect class="a" width="240" height="235" rx="42.58"/><path class="b" d="M206,118c0-42-30.2-76.3-67.4-76.3-36.3,0-66,32.6-67.4,73.3H33.4c0,42,30.2,76.4,67.4,76.4,36.3,0,66-32.7,67.4-73.4Zm-81.9,0c-5.2,12.3-18.8,37.7-42.4,37.7-20.8,0-34.9-15.1-35.7-37.7Zm-23.3,70.4c-27,0-50.2-19-59.8-45.9,7.7,15,22.4,24.2,40.7,24.2,22.5,0,42.8-18.2,54.2-48.6V118h29.3C163.9,157.1,135.5,188.4,100.8,188.4ZM137.1,115c7.7-19.3,16.1-26.9,29.4-26.9,14.3,0,25.6,11.7,26.3,26.9Zm29.4-37.9c-23.8,0-34,18.8-40.9,37.2-.1.2-.2.5-.3.7H74.2c1.3-39,29.7-70.3,64.4-70.3,31,0,56.9,24.9,63,58C196.4,87.6,182.8,77.1,166.5,77.1Z"/></svg>