<svg xmlns="http://www.w3.org/2000/svg" viewBox="0 0 240 234"><defs><style>.a{fill:#370000;}.b{fill:#fabfbc;}.c{fill:#fa0f00;}</style></defs><rect class="a" width="240" height="234" rx="42.5"/><polygon class="b" points="100.371 191.915 45.864 97.504 49.33 95.503 101.837 186.449 192.78 133.943 194.78 137.408 100.371 191.915"/><polygon class="b" points="49.33 139.408 45.864 137.408 100.371 42.997 194.78 97.505 192.78 100.97 101.837 48.462 49.33 139.408"/><path class="c" d="M172.829,64.948H67.817V169.96H172.829Zm-22.971,82.041H90.788V87.92h59.07Z"/><polygon class="b" points="140.274 191.915 45.864 137.408 47.865 133.943 138.809 186.449 191.314 95.504 194.78 97.505 140.274 191.915"/><polygon class="b" points="191.314 139.408 138.809 48.462 47.865 100.969 45.864 97.504 140.274 42.997 194.78 137.408 191.314 139.408"/></svg>