<svg xmlns="http://www.w3.org/2000/svg" xmlns:xlink="http://www.w3.org/1999/xlink" viewBox="0 0 36 36"><defs><style>.a{fill:url(#a);}.b{fill:#fff;}</style><radialGradient id="a" cx="12.52" cy="12.08" r="19.67" gradientUnits="userSpaceOnUse"><stop offset="0" stop-color="#474648"/><stop offset="1" stop-color="#333132"/></radialGradient></defs><path class="a" d="M7.05,1.44H29a6,6,0,0,1,6,6V28.53a6,6,0,0,1-6,6H7.05a6,6,0,0,1-6-6V7.47A6,6,0,0,1,7.05,1.44Z"/><path class="b" d="M25.23,10.5H20.55V6.65L11,10.58h0a1.12,1.12,0,0,0-.64,1V23.66a2,2,0,0,0,1.36,1.87l9.2,3a1.13,1.13,0,0,0,1.48-1.07V26h2.85ZM20,10.5H12.76l7.19-3Zm.6,16.06-8.64-3V12.32l8.64,3Zm4.08-1.14H22.38V15.26a1.78,1.78,0,0,0-1.24-1.7L13.57,11.1H24.63Z"/><polygon class="b" points="19.54 25.13 12.92 22.8 12.92 13.76 19.54 16.1 19.54 25.13"/></svg>