<?xml version="1.0" encoding="UTF-8"?><svg id="Layer_1" xmlns="http://www.w3.org/2000/svg" viewBox="0 0 20 20"><g id="Surfaces"><g id="Photo_Surface"><g id="Outline_no_shadow"><path d="M3.54,.36h12.93c1.96,0,3.54,1.57,3.54,3.5v12.29c0,1.93-1.57,3.5-3.54,3.5H3.54c-1.96,0-3.54-1.57-3.54-3.5V3.86C0,1.93,1.57,.36,3.54,.36Z" style="fill:#001e36;"/></g></g></g><g id="Outlined_Mnemonics_Logos"><g id="PsX"><g><g id="Outlined_Mnemonics_Logos-2"><g id="Ps"><g><path d="M6.11,12.89V6.89s.04-.07,.07-.07h1.82c.43,0,.82,.04,1.21,.18,.29,.11,.57,.25,.79,.46,.18,.18,.32,.43,.43,.68,.07,.25,.14,.5,.14,.75,0,.5-.11,.93-.36,1.25s-.57,.57-.96,.71c-.43,.14-.89,.21-1.32,.21h-.54v1.79s-.04,.07-.07,.07h-1.18s-.04,0-.04-.04Zm1.29-4.96v1.96h.54c.21,0,.46-.04,.68-.11,.18-.07,.36-.18,.5-.32,.11-.14,.18-.36,.18-.61,0-.18-.04-.36-.14-.5s-.25-.25-.43-.32c-.21-.07-.46-.11-.68-.11h-.39c-.14,0-.21,0-.25,0h0Z" style="fill:#31a8ff;"/><path d="M14.25,9.54c-.18-.11-.36-.14-.57-.21-.21-.04-.43-.07-.64-.07-.11,0-.25,0-.36,.04-.07,0-.14,.07-.18,.11-.04,.04-.04,.11-.04,.14,0,.07,.04,.11,.07,.14,.07,.07,.11,.11,.21,.14,.14,.07,.29,.14,.43,.18,.32,.11,.61,.25,.89,.43,.18,.11,.36,.29,.46,.5,.11,.18,.14,.39,.14,.61,0,.29-.07,.54-.21,.79-.18,.25-.39,.43-.64,.54-.36,.14-.71,.21-1.07,.18-.29,0-.54-.04-.79-.07-.21-.04-.43-.11-.61-.18-.04-.04-.07-.07-.07-.11v-1s0-.04,.04-.04h.04c.21,.14,.46,.21,.71,.29,.21,.07,.46,.07,.68,.07,.18,0,.32-.04,.5-.07,.11-.04,.14-.14,.14-.25s-.07-.18-.14-.25c-.18-.11-.36-.21-.57-.29-.29-.11-.57-.25-.86-.43-.18-.14-.32-.29-.46-.5-.11-.18-.14-.39-.14-.61,0-.25,.07-.5,.21-.71,.14-.25,.36-.43,.61-.54,.32-.14,.68-.21,1.04-.21,.25,0,.5,0,.71,.04,.18,.04,.36,.07,.5,.14,.04,0,.04,.04,.07,.04v1.04s0,.04-.04,.07q-.04,.07-.07,.07Z" style="fill:#31a8ff;"/></g></g></g><g style="opacity:.6;"><path d="M10,17.96c-.32,0-.64-.14-.86-.36L2.29,10.82c-.46-.46-.46-1.21,0-1.68h0L9.14,2.36c.46-.46,1.25-.46,1.71,0h0l6.86,6.79c.46,.46,.46,1.21,0,1.68h0l-6.86,6.79c-.21,.25-.54,.36-.86,.36Zm-.61-.57c.36,.36,.89,.36,1.25,0l6.86-6.79c.36-.36,.36-.89,0-1.21L10.64,2.61c-.36-.36-.89-.36-1.25,0L2.54,9.39c-.36,.36-.36,.89,0,1.21l6.86,6.79Z" style="fill:#31a8ff;"/></g></g></g></g></svg>