<svg xmlns="http://www.w3.org/2000/svg" viewBox="0 0 240 235"><defs><style>.a{fill:#222123;}.b{fill:#fff;}</style></defs><path class="a" d="M42.5,0h155A42.59,42.59,0,0,1,240,42.68V192.32A42.59,42.59,0,0,1,197.5,235H42.5A42.59,42.59,0,0,1,0,192.32V42.68A42.59,42.59,0,0,1,42.5,0Z"/><path class="b" d="M150.18,104.08a8.51,8.51,0,0,1,.16,2.08v34.47c0,4.44-2.22,6.62-6.69,6.62H96.5c-4.5,0-6.66-2.14-6.66-6.61V106.16c0-4,2.21-6.26,6.19-6.32h5.2v-5c0-4-.23-8,1.4-11.91a18.76,18.76,0,0,1,36.12,5.65,25,25,0,0,1,.12,2.74,2.47,2.47,0,1,1-4.93.31,1.61,1.61,0,0,1,0-.31,16.6,16.6,0,0,0-2-8.1,13.68,13.68,0,0,0-25.61,6c-.14,2.93-.1,10.67-.1,10.67h37.41a11.85,11.85,0,0,1,3.36.28c-.63.73-18.54,18.72-27.09,27.37-1.08,1.09-1.71,1.12-2.76,0-2.17-2.33-4.47-4.53-6.74-6.76-1.33-1.32-2.85-1.5-3.87-.51s-1,2.4.41,3.83c2.41,2.42,4.83,4.85,7.27,7.26,2.66,2.65,5.91,2.7,8.56,0C131.36,122.82,149.43,104.79,150.18,104.08Z"/><path class="b" d="M183.52,61.86A2.27,2.27,0,0,0,182,59.7c-20.34-6.8-40.63-13.7-61-20.53a3.83,3.83,0,0,0-2.07,0C98.63,46,78.34,52.9,58,59.7a2.27,2.27,0,0,0-1.53,2.16c.07,17.21-.3,34.43.11,51.62.69,30.23,13.72,54.24,37.84,72.24a85.51,85.51,0,0,0,24.36,12.56,4.56,4.56,0,0,0,2.43,0,85.51,85.51,0,0,0,24.36-12.56c24.08-18.06,37.12-42.05,37.84-72.24C183.82,96.29,183.45,79.07,183.52,61.86Zm-3.78,51.92c-.65,28.49-12.93,51.1-35.66,68.1a80.71,80.71,0,0,1-22.94,11.87,4.24,4.24,0,0,1-2.29,0,80.66,80.66,0,0,1-22.93-11.87c-22.74-17-35-39.61-35.67-68.1-.38-16.19,0-32.41-.11-48.63a2.13,2.13,0,0,1,1.45-2C80.75,56.71,99.87,50.21,119,43.78a3.59,3.59,0,0,1,2,0c19.15,6.43,38.27,12.93,57.43,19.35a2.13,2.13,0,0,1,1.45,2C179.77,81.38,180.12,97.59,179.74,113.78Z"/></svg>