<?xml version="1.0" encoding="UTF-8"?><svg id="Layer_1" xmlns="http://www.w3.org/2000/svg" viewBox="0 0 20 20"><g id="Surfaces"><g id="Photo_Surface"><g id="Outline_no_shadow"><path d="M3.54,.25h12.92c1.96,0,3.54,1.59,3.54,3.54v12.42c0,1.96-1.59,3.54-3.54,3.54H3.54c-1.96,0-3.54-1.59-3.54-3.54V3.79C0,1.84,1.59,.25,3.54,.25Z" style="fill:#001e36;"/></g></g></g><g id="Outlined_Mnemonics_Logos"><g id="PsC"><g><g id="Outlined_Mnemonics_Logos-2"><g id="Ps"><g><path d="M5.85,12.84V6.77s.02-.07,.06-.07c.1,0,.19,0,.33,0,.14,0,.29,0,.45,0,.16,0,.33,0,.51,0,.18,0,.36,0,.54,0,.41-.01,.82,.05,1.22,.18,.3,.1,.57,.27,.79,.48,.19,.19,.34,.42,.43,.67,.09,.25,.13,.5,.13,.76,0,.51-.12,.92-.35,1.25-.24,.33-.57,.58-.95,.72-.43,.15-.88,.21-1.33,.2-.14,0-.24,0-.29,0-.06,0-.14,0-.26,0v1.9s-.02,.08-.06,.09c0,0-.01,0-.02,0h-1.13s-.07-.03-.07-.08Zm1.28-5v1.98c.08,0,.16,0,.23,0h.31c.23,0,.46-.04,.68-.11,.19-.06,.36-.16,.48-.31,.12-.15,.19-.35,.19-.61,0-.18-.04-.37-.14-.52-.1-.15-.24-.27-.41-.34-.22-.09-.46-.13-.69-.12-.15,0-.29,0-.4,0-.12,0-.2,0-.24,.01h0Z" style="fill:#31a8ff;"/><path d="M13.99,9.47c-.18-.09-.37-.16-.57-.2-.22-.05-.44-.08-.66-.08-.12,0-.24,.01-.36,.04-.07,.02-.14,.06-.19,.12-.03,.05-.05,.1-.05,.16,0,.06,.02,.11,.06,.15,.06,.06,.12,.12,.2,.16,.14,.07,.28,.14,.42,.19,.32,.11,.62,.25,.91,.43,.19,.12,.35,.29,.47,.49,.09,.19,.14,.4,.14,.61,0,.28-.07,.55-.23,.78-.17,.24-.39,.42-.66,.53-.34,.14-.7,.2-1.07,.19-.27,0-.54-.02-.8-.08-.21-.04-.41-.1-.6-.19-.04-.02-.07-.07-.07-.11v-1.03s0-.04,.02-.05c.02,0,.04,0,.05,0,.23,.13,.47,.23,.73,.29,.23,.06,.46,.09,.69,.09,.17,.01,.34-.02,.49-.09,.1-.04,.16-.14,.16-.25,0-.1-.06-.18-.14-.24-.18-.12-.37-.21-.58-.28-.3-.1-.58-.25-.84-.43-.19-.13-.34-.3-.45-.5-.09-.19-.14-.39-.14-.6,0-.25,.07-.5,.2-.71,.15-.24,.36-.42,.62-.54,.33-.15,.69-.22,1.05-.21,.24,0,.49,.02,.73,.05,.18,.02,.35,.07,.51,.14,.03,0,.05,.03,.06,.05,0,.02,0,.05,0,.07v.96s0,.04-.03,.06c-.03,.01-.06,.01-.08,0Z" style="fill:#31a8ff;"/></g></g></g><g style="opacity:.6;"><path d="M10.02,17.27c-4.01,0-7.27-3.25-7.27-7.27,0-4.01,3.25-7.27,7.27-7.27h0c1.14,0,2.26,.26,3.28,.78,.08,.04,.12,.14,.07,.22-.04,.08-.14,.12-.22,.07,0,0,0,0,0,0-.97-.49-2.04-.75-3.13-.74-3.83,0-6.93,3.1-6.93,6.93s3.1,6.93,6.93,6.93,6.93-3.1,6.93-6.93h0c0-1.09-.26-2.17-.75-3.14-.04-.08,0-.18,.07-.22s.18,0,.22,.07c.52,1.02,.79,2.15,.79,3.29,0,4.01-3.26,7.26-7.27,7.27Z" style="fill:#31a8ff;"/></g></g></g></g></svg>