<svg xmlns="http://www.w3.org/2000/svg" xmlns:xlink="http://www.w3.org/1999/xlink" viewBox="0 0 240 235"><defs><style>.a{fill:url(#a);}.b{fill:#ff179c;}.c{fill:#ffcbe9;}</style><radialGradient id="a" cx="341.04" cy="-13.7" r="181.82" gradientTransform="matrix(1, 0, 0, -1, -276, 46.67)" gradientUnits="userSpaceOnUse"><stop offset="0" stop-color="#4d3141"/><stop offset="1" stop-color="#250319"/></radialGradient></defs><path class="a" d="M42.42,0H197.58A42.52,42.52,0,0,1,240,42.61V192.39A42.52,42.52,0,0,1,197.58,235H42.42A42.52,42.52,0,0,1,0,192.39V42.82A42.52,42.52,0,0,1,42.2,0Z"/><path class="b" d="M119.82,25a92.61,92.61,0,1,1-92.6,92.61h0A92.74,92.74,0,0,1,119.82,25m0-10.6A103.21,103.21,0,1,0,223,117.61h0A103.2,103.2,0,0,0,119.82,14.4Z"/><path class="c" d="M177,123.26h0L170.51,85a9.5,9.5,0,0,0,5.87-8.77,9.62,9.62,0,0,0-9.62-9.61h0a9.47,9.47,0,0,0-8.2,4.73L129.08,61.05a6.83,6.83,0,0,0,0-1.69,9.61,9.61,0,1,0-19.22,0v0a10.6,10.6,0,0,0,.35,2.68L73.73,79.43a9.55,9.55,0,0,0-7.63-4.24,9.62,9.62,0,0,0-1.2,19.09l1.62,43.12a9.65,9.65,0,1,0,10.89,13.71L134,168.65a9,9,0,0,0,0,1.27,9.62,9.62,0,0,0,19.23,0,9.35,9.35,0,0,0-2.05-5.8l21.21-23.19a9.61,9.61,0,1,0,5.23-17.67Zm-32.73,37.26-2.4-40.86a9.77,9.77,0,0,0,5.09-3.11l21.21,12.79a9.51,9.51,0,0,0-.71,3.54,9.92,9.92,0,0,0,1.84,5.93L148.1,162A9.27,9.27,0,0,0,144.28,160.52ZM69.7,137.33,68.08,94.21a9.69,9.69,0,0,0,6.43-4.81l55.78,19.3a10,10,0,0,0,0,1.55,9.49,9.49,0,0,0,.49,2.9l-54.5,27.93A9.48,9.48,0,0,0,69.7,137.33Zm104.2-13.5a9.79,9.79,0,0,0-4.1,2.75l-21.2-12.72a10.12,10.12,0,0,0,.7-3.61,9.71,9.71,0,0,0-2.54-6.43l15.48-19.23a9.33,9.33,0,0,0,4.59,1.2h.85ZM157.22,74.34a8.71,8.71,0,0,0,0,1.91,9.52,9.52,0,0,0,2.54,6.43L144.57,102a9.63,9.63,0,0,0-4.6-1.27,10,10,0,0,0-2.05,0L124.77,67.34a9.9,9.9,0,0,0,3.47-3.6ZM111.76,64.8a9.76,9.76,0,0,0,8.06,4,9.36,9.36,0,0,0,2,0L135,102.27a9,9,0,0,0-3.46,3.67L75.71,86.64a11,11,0,0,0,0-1.62,8.08,8.08,0,0,0-.42-2.76ZM78,148.07a6.74,6.74,0,0,0,0-1.27,9.91,9.91,0,0,0-.49-2.9L131.91,116a9.33,9.33,0,0,0,6.65,3.82L141,160.52a9.62,9.62,0,0,0-7.07,5.09Z"/></svg>