<svg xmlns="http://www.w3.org/2000/svg" viewBox="0 0 20 20"><g id="Rush"><g id="Rush-2" data-name="Rush"><g id="Surfaces"><g id="Video_Audio_Surface" data-name="Video Audio Surface"><g id="Outline_no_shadow" data-name="Outline no shadow"><path d="M3.54.25H16.46A3.55,3.55,0,0,1,20,3.79V16.21a3.55,3.55,0,0,1-3.54,3.54H3.54A3.55,3.55,0,0,1,0,16.21V3.79A3.55,3.55,0,0,1,3.54.25Z" style="fill:#00005b"/></g></g></g><g id="Outlined_Mnemonics_Logos" data-name="Outlined Mnemonics Logos"><g id="PRX_NEW" data-name="PRX NEW"><path d="M10,18.34a2.72,2.72,0,0,1-1.92-.8L2.47,11.92a2.73,2.73,0,0,1,0-3.85L8.09,2.45a2.73,2.73,0,0,1,3.85,0l5.62,5.62a2.73,2.73,0,0,1,0,3.85l-5.62,5.62A2.72,2.72,0,0,1,10,18.34ZM10,2.49A1.88,1.88,0,0,0,8.68,3L3.06,8.66a1.88,1.88,0,0,0,0,2.67L8.68,17a1.88,1.88,0,0,0,2.67,0h0L17,11.33a1.88,1.88,0,0,0,0-2.67L11.35,3A1.91,1.91,0,0,0,10,2.49Z" style="fill:#99f;isolation:isolate;opacity:0.6000000238418579"/><path d="M6.45,13V7c0-.05,0-.07,0-.07H8.34a3.55,3.55,0,0,1,1.21.18,2.14,2.14,0,0,1,.8.49,1.84,1.84,0,0,1,.43.66,2.27,2.27,0,0,1,.13.77,2.12,2.12,0,0,1-.35,1.25,2.05,2.05,0,0,1-1,.72,3.77,3.77,0,0,1-1.33.2H7.73V13s0,.07-.06.08H6.51S6.45,13.1,6.45,13Zm1.28-5v2h.54A2.25,2.25,0,0,0,9,9.93a1.05,1.05,0,0,0,.48-.31A.89.89,0,0,0,9.62,9a.92.92,0,0,0-.14-.52.85.85,0,0,0-.41-.34A1.65,1.65,0,0,0,8.38,8H8l-.24,0Z" style="fill:#99f"/><path d="M11.73,8.39h1a.14.14,0,0,1,.12.09.83.83,0,0,1,0,.15,1.1,1.1,0,0,1,0,.18A1.55,1.55,0,0,1,13,9a2.21,2.21,0,0,1,.63-.51,1.91,1.91,0,0,1,.9-.23.08.08,0,0,1,.09.06V9.52c0,.05,0,.07-.1.07a2.32,2.32,0,0,0-.64.06,2.16,2.16,0,0,0-.49.16A1,1,0,0,0,13,10v3c0,.06,0,.09-.07.09H11.8a.08.08,0,0,1-.09-.07V9.76c0-.14,0-.29,0-.44s0-.31,0-.46a2.83,2.83,0,0,0,0-.41.06.06,0,0,1,0-.06Z" style="fill:#99f"/></g></g></g></g></svg>