<?xml version="1.0" encoding="utf-8"?>
<!-- Generator: Adobe Illustrator 26.3.1, SVG Export Plug-In . SVG Version: 6.00 Build 0)  -->
<svg version="1.1" id="Layer_2_00000057141264098022432940000014033847279117894286_"
	 xmlns="http://www.w3.org/2000/svg" xmlns:xlink="http://www.w3.org/1999/xlink" x="0px" y="0px" viewBox="0 0 262.1 256"
	 style="enable-background:new 0 0 262.1 256;" xml:space="preserve">
<style type="text/css">
	.st0{clip-path:url(#SVGID_00000136391104764433893210000015416070381717089978_);}
	.st1{fill:#FFFFFF;}
	.st2{clip-path:url(#SVGID_00000151512634645682258590000007770312771841153928_);}
	.st3{fill:url(#Rectangle_221088_00000092445045203482366060000007581086213991011760_);}
</style>
<g id="Frame.io">
	<g>
		<defs>
			<rect id="SVGID_1_" width="262.1" height="256"/>
		</defs>
		<clipPath id="SVGID_00000097474767577209281040000014245625890496058548_">
			<use xlink:href="#SVGID_1_"  style="overflow:visible;"/>
		</clipPath>
		<g style="clip-path:url(#SVGID_00000097474767577209281040000014245625890496058548_);">
			<g id="Frame.io_redo2" transform="translate(-18 -18)">
				<g id="Frame.io-2" transform="translate(18.3 18)">
					<rect id="Rectangle_221090" x="39.6" y="36.6" class="st1" width="182.9" height="182.9"/>
					<g id="Rectangle_221089" transform="translate(-0.3 0)">
						<path id="Rectangle_221091" d="M36.6,0h189c20.2,0,36.6,16.4,36.6,36.6v182.9c0,20.2-16.4,36.6-36.6,36.6h-189
							C16.4,256,0,239.6,0,219.4V36.6C0,16.4,16.4,0,36.6,0z"/>
					</g>
					<g id="Group_302966" transform="translate(14.646 13.401)">
						<g>
							<defs>
								<path id="SVGID_00000141445892127368274660000016902095678115565968_" d="M44.6,32.2L44.6,32.2c2.8,0.2,5.4,1.7,7,4.1
									c13.5,25.6,20.7,54.1,20.9,83.1l0,0c0,29-7.2,57.5-20.9,83.1c-1.4,2.5-4.1,4.1-7,4.1l0,0c-1.3,0.2-2.6-0.3-3.5-1.2
									c-3.7-2.1-5.2-6.6-3.5-10.5l0,0c25.6-47.3,25.6-104.3,0-151.6c-1.8-3.7-0.5-8.2,2.9-10.5l0,0C42.3,32.7,43.4,32.1,44.6,32.2
									L44.6,32.2L44.6,32.2z M85.3,51.4c3.8-1.6,8.1,0.1,9.8,3.8c0,0.1,0.1,0.2,0.1,0.2c8.6,20.2,12.9,41.9,12.8,63.9l0,0
									c0.1,21.9-4.2,43.7-12.8,63.9c-1.5,3.8-5.8,5.7-9.6,4.2l0,0c-0.1,0-0.2-0.1-0.2-0.1c-3.8-1.4-5.7-5.5-4.3-9.3l0,0
									c0.1-0.2,0.2-0.4,0.2-0.6l0,0c7.6-18.4,11.5-38.2,11.6-58.1l0,0c-0.1-19.9-4-39.7-11.6-58.1c-1.8-3.5-0.4-7.7,3.1-9.5l0,0
									C84.7,51.5,85,51.4,85.3,51.4L85.3,51.4L85.3,51.4z M128.2,72.3c4.2-0.9,8.3,1.7,9.3,5.8c3.3,13.5,4.9,27.4,4.7,41.3l0,0
									c-0.1,13.9-1.6,27.7-4.7,41.2c-0.9,4.2-5.1,6.8-9.3,5.9c-4.2-0.9-6.8-5.1-5.9-9.3l0-0.1l0,0c3-12.4,4.6-25,4.7-37.8
									c-0.1-12.7-1.6-25.4-4.7-37.8c-1-4.1,1.6-8.3,5.7-9.3C128.2,72.3,128.2,72.3,128.2,72.3L128.2,72.3L128.2,72.3z M164.8,94.3
									c4-0.8,7.9,1.8,8.7,5.8l0,0l0,0c1,6.2,1.4,12.4,1.2,18.6l0,0c0,6.4-0.6,12.2-1.2,18.6c-0.7,4.1-4.6,7-8.7,6.4l0,0
									c-4.1-0.7-7-4.6-6.4-8.7c0.7-5.4,1.1-10.8,1.2-16.3l0,0c0-5.2-0.6-10.5-1.2-16.3C158.3,98.6,161,95.2,164.8,94.3L164.8,94.3
									L164.8,94.3L164.8,94.3z M190.4,119.3c0-4.8,3.9-8.7,8.7-8.7s8.7,3.9,8.7,8.7s-3.9,8.7-8.7,8.7
									C194.4,127.9,190.5,124.1,190.4,119.3L190.4,119.3L190.4,119.3z"/>
							</defs>
							<clipPath id="SVGID_00000078763208695399435490000004282875941475235254_">
								<use xlink:href="#SVGID_00000141445892127368274660000016902095678115565968_"  style="overflow:visible;"/>
							</clipPath>
							<g style="clip-path:url(#SVGID_00000078763208695399435490000004282875941475235254_);">
								<g id="Group_302968" transform="translate(0)">
									<g id="Mask_Group_189305" transform="translate(-7.25 -5.289)">
										
											<linearGradient id="Rectangle_221088_00000174597308104367627060000003686489553447106706_" gradientUnits="userSpaceOnUse" x1="-1327.8304" y1="-27.4999" x2="-1327.8304" y2="-27.5365" gradientTransform="matrix(69.696 0 0 69.696 92665.4141 3032.717)">
											<stop  offset="0" style="stop-color:#5B53FF"/>
											<stop  offset="1" style="stop-color:#8A83FF"/>
										</linearGradient>
										
											<rect id="Rectangle_221088" x="14.7" y="16" style="fill:url(#Rectangle_221088_00000174597308104367627060000003686489553447106706_);" width="212.4" height="212.4"/>
									</g>
								</g>
							</g>
						</g>
					</g>
				</g>
			</g>
		</g>
	</g>
</g>
</svg>
