<svg xmlns="http://www.w3.org/2000/svg" xmlns:xlink="http://www.w3.org/1999/xlink" viewBox="0 0 240 235"><defs><style>.a{fill:url(#a);}.b{fill:#07f792;}.b,.c{fill-rule:evenodd;}.c{fill:#cbffe9;}</style><radialGradient id="a" cx="350.92" cy="-19.1" r="143.79" gradientTransform="matrix(1.09, 0, 0, -1.09, -286.91, 57.22)" gradientUnits="userSpaceOnUse"><stop offset="0" stop-color="#1c322a"/><stop offset="0.77" stop-color="#051d14"/></radialGradient></defs><rect class="a" width="240" height="235" rx="42.58"/><path class="b" d="M16.75,117A103.25,103.25,0,1,0,120,13.75,103.25,103.25,0,0,0,16.75,117Zm10.65,0A92.61,92.61,0,1,1,120,209.72,92.61,92.61,0,0,1,27.4,117h0Z"/><path class="c" d="M169.72,67.74l-.91-1.27L124.5,110.82V67h-3.9A53.08,53.08,0,0,0,85.87,80.08L72.19,65.79,70.92,67a69.74,69.74,0,0,0-1.14,98.61l.44.44,1.42,1.26L117,123.06V167.5h3.89c13-.06,24.13-5.06,33.11-13.21L167.76,168l1.24-1.2C196.78,139.46,197.31,96.08,169.72,67.74ZM117,74.11V113H76.71C78.49,91.87,95.93,75.93,117,74.11ZM72.18,70.83l11.4,11.34a50.64,50.64,0,0,0-14.58,35v3.39h46.1L71.51,162.74A67.23,67.23,0,0,1,72.18,70.83Zm52.32,90.71v-41h39.57c-1.47,21.46-18.21,39.18-39.57,41ZM167.78,163l-11-11.41a51.46,51.46,0,0,0,14.74-35.72V113h-44l41-41.22A66.38,66.38,0,0,1,167.78,163Z"/></svg>