<?xml version="1.0" encoding="utf-8"?>
<!-- Generator: Adobe Illustrator 23.0.1, SVG Export Plug-In . SVG Version: 6.00 Build 0)  -->
<svg version="1.1" id="mnemonic" xmlns="http://www.w3.org/2000/svg" xmlns:xlink="http://www.w3.org/1999/xlink" x="0px" y="0px"
	 viewBox="0 0 240 234" style="enable-background:new 0 0 240 234;" xml:space="preserve">
<style type="text/css">
	.st0{fill-rule:evenodd;clip-rule:evenodd;fill:#12004D;}
	.st1{fill-rule:evenodd;clip-rule:evenodd;fill:#A78AFF;}
	.st2{fill:#D7CAFF;}
	.st3{fill:#A78AFF;}
</style>
<path class="st0" d="M41.9,7.4C13.8,7.4,7.3,24.2,7.3,52.3L7.4,189c0,28.2,8.8,37.6,36.9,37.6h150.8c28.1,0,37.6-9.4,37.6-37.6V47.2
	c0-28.2-10.5-39.7-38.6-39.7H41.9z"/>
<path class="st1" d="M0,43v148.2C0,214.9,18.2,234,41.9,234h155.3c23.6,0,42.8-19.1,42.9-42.8c0,0,0,0,0,0V42.8
	C240,19.1,220.8,0,197.1,0c0,0,0,0,0,0H41.9C18.2,0,0,19.1,0,42.8V43z M194,10.1c19.1,0,35.9,15.7,35.9,34.8v142.3
	c0,19-15.5,36.7-34.6,36.7H44.7c-19.1,0-34.6-16.2-34.6-35.3V46.9c0-19,15.5-36.8,34.5-36.8L194,10.1z"/>
<path class="st2" d="M117.5,114.6l-60.8,35.9l5.3,3.1l60.7-36.1L117.5,114.6z M135,121.8l-63.3,37.7l5,2.9l63.3-37.7L135,121.8z
	 M149.2,130.1l-63.3,37.8l5,2.9l63.3-37.7L149.2,130.1z M163.6,138.5l-62.2,38.4l4.7,2.8l62.3-38.4L163.6,138.5z M178.5,147.2
	l-62,38.7l5,3.1l62.1-38.8L178.5,147.2z"/>
<polygon class="st3" points="87.5,100.3 56.7,118 120.4,154.5 183.7,118 153.3,100.6 120.2,119.4 "/>
<path class="st2" d="M120.3,45.2L56.2,83.3l64.2,36.7l63.5-36.6L120.3,45.2z M122.7,51.3l50,30h-50V51.3z M118.7,81.3H67.4
	l51.3-30.5V81.3z M118.7,85.3v29.1L67.8,85.3H118.7z M122.7,85.3h49.6L122.7,114V85.3z"/>
</svg>
