<svg xmlns="http://www.w3.org/2000/svg" xmlns:xlink="http://www.w3.org/1999/xlink" viewBox="0 0 240 235"><defs><style>.a{fill:url(#a);}.b{fill:#e2d8ff;}.c{fill:#9f7fff;fill-rule:evenodd;}</style><radialGradient id="a" cx="350.92" cy="-20.06" r="143.79" gradientTransform="matrix(1.09, 0, 0, -1.09, -286.91, 56.18)" gradientUnits="userSpaceOnUse"><stop offset="0" stop-color="#2e234a"/><stop offset="0.77" stop-color="#130732"/></radialGradient></defs><rect class="a" width="240" height="235" rx="42.58"/><path class="b" d="M97.17,118H87.74v62a78.08,78.08,0,0,0,9.43,3.75Zm17.37-4v73c1.32.07,3.27.75,4.61.75,1.66,0,3.18,0,4.82-.14V114Zm54.09,51.82a77,77,0,0,0,9.43-12V106.58h-9.43ZM65.35,122,87.12,96.85l20.68,7.69,44.13-31.65,22.24,21L185.34,85l-1.71-3.74-9.34,7.89L152.36,68.68l-44.82,32.08L86.7,92.68,63.56,118.89,49,122.3v3.36Zm4.53,14.88H60.45v18.29a74.76,74.76,0,0,0,9.43,11.12Zm81.38-41.68h-9.43v88.21a76.45,76.45,0,0,0,9.43-4Z"/><path class="c" d="M17.53,117A102.47,102.47,0,1,0,120,14.53,102.48,102.48,0,0,0,17.53,117Zm10.57,0A91.91,91.91,0,1,1,120,209a91.91,91.91,0,0,1-91.9-92h0Z"/></svg>