<svg xmlns="http://www.w3.org/2000/svg" enable-background="new 0 0 512 512" version="1" viewBox="0 0 512 512"><path fill="#6592FF" d="M93.867,12.8h324.267C469.867,12.8,512,54.933,512,106.667v311.467C512,469.867,469.867,512,418.134,512
			H93.867C42.134,512,0,469.867,0,418.133V106.667C0,54.933,42.134,12.8,93.867,12.8"/><path fill="#1B2339" d="M98.133,34.133h315.733c42.667,0,76.8,34.133,76.8,76.8v302.933c0,42.667-34.133,76.8-76.8,76.8H98.133
			c-42.667,0-76.8-34.133-76.8-76.8V110.933C21.333,68.267,55.466,34.133,98.133,34.133"/><g><path fill="#FFF" d="M286.37,137.723l0.013-0.049c-41.394-10.099-88.026,3.995-116.575,33.031l-4.34-4.339
				c-123.123,124.799,61.95,309.691,186.621,186.621l-4.168-4.167c29.317-28.756,43.356-76.063,32.773-117.632l5.507-1.045
				c-11.494-48.521-49.774-86.691-98.369-98l-0.947,3.467 M292.197,136.887v0.012c-1.215-0.291-5.815,0.774-5.815,0.774
				c0.602,0.135,1.205,0.283,1.807,0.443 M291.68,139.026 M288.534,152.032c37.464,10.305,68.174,41.288,78.147,78.835
				L263.259,256.72L288.534,152.032z M258.133,141.854c8.445,0,16.694,0.885,24.648,2.582l-1.414,5.827L255.748,256.4
				l-76.451-76.856l-3.933-3.946C196.754,154.712,225.962,141.854,258.133,141.854z M257.777,373.578
				c-95.725,3.289-149.249-121.163-83.617-188.723l159.023,159.834C313.193,362.649,286.763,373.578,257.777,373.578z
				 M342.722,343.607l-0.111,0.111l-4.106-4.13l-74.951-75.332l104.848-26.209l5.95-1.487
				C382.714,274.907,369.38,317.3,342.722,343.607z"/><path fill="#6592FF" d="M286.37,137.723l0.013-0.049c-41.394-10.099-88.026,3.995-116.575,33.031l-4.34-4.339
				c-123.123,124.799,61.95,309.691,186.621,186.621l-4.168-4.167c29.317-28.756,43.356-76.063,32.773-117.632l5.507-1.045
				c-11.494-48.521-49.774-86.691-98.369-98l-0.947,3.467 M292.197,136.887v0.012c-1.215-0.291-5.815,0.774-5.815,0.774
				c0.602,0.135,1.205,0.283,1.807,0.443 M291.68,139.026 M288.534,152.032c37.464,10.305,68.174,41.288,78.147,78.835
				L263.259,256.72L288.534,152.032z M258.133,141.854c8.445,0,16.694,0.885,24.648,2.582l-1.414,5.827L255.748,256.4
				l-76.451-76.856l-3.933-3.946C196.754,154.712,225.962,141.854,258.133,141.854z M257.777,373.578
				c-95.725,3.289-149.249-121.163-83.617-188.723l159.023,159.834C313.193,362.649,286.763,373.578,257.777,373.578z
				 M342.722,343.607l-0.111,0.111l-4.106-4.13l-74.951-75.332l104.848-26.209l5.95-1.487
				C382.714,274.907,369.38,317.3,342.722,343.607z" opacity=".15"/></g></svg>