<svg xmlns="http://www.w3.org/2000/svg" viewBox="0 0 240 234"><defs><style>.a{fill:#222123;}.b{fill:#fff;}</style></defs><rect class="a" x="0.4" y="0.39" width="239.21" height="233.23" rx="42.36"/><path class="b" d="M150.09,103.63a8.78,8.78,0,0,1,.16,2.07q0,17.17,0,34.36c0,4.42-2.22,6.6-6.67,6.6h-47c-4.48,0-6.64-2.14-6.64-6.59q0-17.19,0-34.37c0-4,2.21-6.24,6.17-6.3h5.19s0-3.39,0-5c0-4-.23-8,1.39-11.87a18.7,18.7,0,0,1,36,5.63,22.67,22.67,0,0,1,.12,2.73,2.46,2.46,0,1,1-4.91,0,16.58,16.58,0,0,0-2-8.07,13.64,13.64,0,0,0-25.53,6c-.14,2.92-.1,10.63-.1,10.63s25.47,0,37.29,0a12,12,0,0,1,3.35.28c-.63.73-18.48,18.66-27,27.28-1.08,1.09-1.71,1.12-2.76,0-2.16-2.32-4.45-4.51-6.71-6.74-1.33-1.31-2.84-1.49-3.86-.5s-1,2.39.41,3.81q3.6,3.63,7.24,7.24c2.66,2.64,5.89,2.69,8.54,0C131.33,122.31,149.34,104.34,150.09,103.63Z"/><path class="b" d="M183.32,61.55a2.25,2.25,0,0,0-1.53-2.15c-20.27-6.78-40.5-13.66-60.76-20.47a3.79,3.79,0,0,0-2.06,0C98.71,45.74,78.48,52.62,58.21,59.4a2.25,2.25,0,0,0-1.53,2.15c.07,17.15-.29,34.31.11,51.45.69,30.13,13.68,54.06,37.72,72a85.2,85.2,0,0,0,24.28,12.52,4.52,4.52,0,0,0,2.42,0A85.2,85.2,0,0,0,145.49,185c24-18,37-41.91,37.72-72C183.61,95.86,183.25,78.7,183.32,61.55Zm-3.77,51.75c-.65,28.39-12.89,50.93-35.54,67.87A80.25,80.25,0,0,1,121.14,193a4.2,4.2,0,0,1-2.28,0A80.25,80.25,0,0,1,96,181.17C73.34,164.23,61.1,141.69,60.45,113.3c-.38-16.14,0-32.31-.11-48.47a2.13,2.13,0,0,1,1.45-2C80.88,56.42,99.94,49.94,119,43.53a3.55,3.55,0,0,1,1.94,0c19.09,6.41,38.15,12.89,57.24,19.28a2.13,2.13,0,0,1,1.45,2C179.58,81,179.93,97.16,179.55,113.3Z"/></svg>