<svg xmlns="http://www.w3.org/2000/svg" viewBox="0 0 56 54"><defs><style>.b{fill:#fabfbc}</style></defs><rect width="56" height="54" rx="9.914" fill="#370000"/><path class="b" d="M22.118 23.756h11.963v.923H22.118zM22.132 20.847h16.074v.923H22.132zM22.102 26.664h11.963v.923H22.102zM22.086 29.573h11.965v.923H22.086zM18.231 32.482h15.804v.923H18.231z"/><path d="M26.839 9.385l4.761 4.772 2.858 2.864-.693.668-3.315-3.322c-1.053-1.058-2.288-1.342-3.177-.494-.946.907-11.526 10.924-12.5 11.852-.861.822-.861 1.793.339 2.975l3.771 3.781-.654.924-8.069-8.218zM29.732 44.4l-4.774-4.7-2.891-2.844.7-.679 3.348 3.3c1.057 1.044 2.292 1.309 3.178.448.947-.919 11.1-10.9 12.046-11.818.834-.81.834-1.768-.33-2.934-.708-.706-3.336-3.405-3.336-3.405l.531-.923 7.596 7.786z" fill="#fa0f00" fill-rule="evenodd"/></svg>