<svg xmlns="http://www.w3.org/2000/svg" xmlns:xlink="http://www.w3.org/1999/xlink" viewBox="0 0 240 235"><defs><style>.a{fill:url(#a);}.b{fill:#ff7618;}.b,.c{fill-rule:evenodd;}.c{fill:#ffe0cb;}</style><radialGradient id="a" cx="350.92" cy="-19.1" r="143.79" gradientTransform="matrix(1.09, 0, 0, -1.09, -286.91, 57.22)" gradientUnits="userSpaceOnUse"><stop offset="0" stop-color="#3a2a1d"/><stop offset="0.77" stop-color="#241405"/></radialGradient></defs><rect class="a" width="240" height="235" rx="42.58"/><path class="b" d="M16.75,117A103.25,103.25,0,1,0,120,13.75,103.25,103.25,0,0,0,16.75,117Zm10.65,0A92.61,92.61,0,1,1,120,209.72,92.61,92.61,0,0,1,27.4,117h0Z"/><path class="c" d="M120,55.73a19.4,19.4,0,0,1,17.38,10.82,23.89,23.89,0,0,0-4.81,3.74,17.77,17.77,0,0,1-25.13,0,24.55,24.55,0,0,0-4.81-3.74A19.38,19.38,0,0,1,120,55.73ZM139.25,73a19,19,0,0,1,.12,2.13,22.59,22.59,0,0,0,22.57,22.56,19,19,0,0,1,2.13.12,18.09,18.09,0,0,1-1.84,2.16,24.15,24.15,0,0,0,0,34.15,18.19,18.19,0,0,1,1.84,2.17,19,19,0,0,1-2.13.12A22.58,22.58,0,0,0,139.38,159a19.05,19.05,0,0,1-.12,2.14,18.27,18.27,0,0,1-2.17-1.85,24.18,24.18,0,0,0-34.16,0,18.27,18.27,0,0,1-2.17,1.85,19.17,19.17,0,0,1-.11-2.14,22.59,22.59,0,0,0-22.56-22.55,18.7,18.7,0,0,1-2.12-.12,18.09,18.09,0,0,1,1.84-2.16,24.15,24.15,0,0,0,0-34.15h0A18.17,18.17,0,0,1,76,97.81a19,19,0,0,1,2.13-.12,22.6,22.6,0,0,0,22.56-22.56,19,19,0,0,1,.11-2.13,18.27,18.27,0,0,1,2.17,1.85,24.15,24.15,0,0,0,34.15,0h0A18.17,18.17,0,0,1,139.25,73Zm31.22,26.68a19.35,19.35,0,0,1,0,34.74,24.22,24.22,0,0,0-3.75-4.81,17.77,17.77,0,0,1,0-25.12,24.25,24.25,0,0,0,3.75-4.86Zm-33.09,67.83a19.37,19.37,0,0,1-34.76,0,24.55,24.55,0,0,0,4.81-3.74,17.79,17.79,0,0,1,25.13,0,24.28,24.28,0,0,0,4.82,3.69ZM69.53,134.37a19.35,19.35,0,0,1,0-34.74,24.55,24.55,0,0,0,3.74,4.81,17.76,17.76,0,0,1,0,25.12h0A24.55,24.55,0,0,0,69.53,134.37ZM120,181.47a22.61,22.61,0,0,0,20.23-12.57,24.18,24.18,0,0,0,31.68-31.67,22.55,22.55,0,0,0,0-40.45,24.18,24.18,0,0,0-31.68-31.67,22.49,22.49,0,0,0-40.45,0A24.19,24.19,0,0,0,68.09,96.78a22.55,22.55,0,0,0,0,40.44A24.18,24.18,0,0,0,99.77,168.9,22.61,22.61,0,0,0,120,181.47Zm22.23-18.68a22.81,22.81,0,0,0,.33-3.87,19.38,19.38,0,0,1,19.37-19.36,22.92,22.92,0,0,0,3.88-.33,17.78,17.78,0,0,1-23.57,23.57Zm23.57-68a22.81,22.81,0,0,0-3.87-.33A19.38,19.38,0,0,1,142.56,75.1a22.82,22.82,0,0,0-.34-3.87A17.78,17.78,0,0,1,165.8,94.78Zm-68-23.57a22.92,22.92,0,0,0-.33,3.88,19.38,19.38,0,0,1-19.4,19.35,22.81,22.81,0,0,0-3.87.33A17.78,17.78,0,0,1,97.77,71.21Zm-23.57,68a22.81,22.81,0,0,0,3.87.33,19.39,19.39,0,0,1,19.37,19.36,22.92,22.92,0,0,0,.33,3.88,17.78,17.78,0,0,1-23.6-23.56Z"/></svg>