<svg xmlns="http://www.w3.org/2000/svg" viewBox="0 0 240 235"><defs><style>.a{fill:#fff;}</style></defs><path d="M42.5,0h155A42.59,42.59,0,0,1,240,42.68V192.32A42.59,42.59,0,0,1,197.5,235H42.5A42.59,42.59,0,0,1,0,192.32V42.68A42.59,42.59,0,0,1,42.5,0Z"/><polygon class="a" points="27.28 136.66 27.28 98.18 54.92 117.5 27.28 136.66"/><polygon class="a" points="86.67 98.18 86.67 136.66 31.89 136.66 86.67 98.18"/><polygon class="a" points="120.06 98.18 89.45 136.66 150.68 136.66 120.06 98.18"/><polygon class="a" points="212.78 136.66 212.78 98.18 151.42 98.18 212.78 136.66"/><polygon class="a" points="180.69 120.23 152.51 136.66 207.22 136.66 180.69 120.23"/></svg>