<svg xmlns="http://www.w3.org/2000/svg" xmlns:xlink="http://www.w3.org/1999/xlink" viewBox="0 0 240 235"><defs><style>.a{fill:url(#a);}.b{fill:#6390ff;fill-rule:evenodd;}.c{fill:#cae4ff;}</style><radialGradient id="a" cx="350.92" cy="-19.1" r="143.79" gradientTransform="matrix(1.09, 0, 0, -1.09, -286.91, 57.22)" gradientUnits="userSpaceOnUse"><stop offset="0" stop-color="#1f263e"/><stop offset="0.77" stop-color="#060f29"/></radialGradient></defs><rect class="a" width="240" height="235" rx="42.58"/><path class="b" d="M16.75,117A103.25,103.25,0,1,0,120,13.75,103.25,103.25,0,0,0,16.75,117Zm10.65,0A92.61,92.61,0,1,1,120,209.72,92.61,92.61,0,0,1,27.4,117h0Z"/><path class="c" d="M164.9,71.89a61.83,61.83,0,0,0-29.58-16.41l-.58,2.07A59.89,59.89,0,0,0,79.5,72.88l-2.15-2.15c-24.81,24.81-25.17,65.08-.64,89.61s64.71,24.2,89.57-.66l-2.12-2.12a59.9,59.9,0,0,0,15.27-55.62l2.06-.56A64.13,64.13,0,0,0,164.9,71.89Zm-41.42,41.66,13-50a56.77,56.77,0,0,1,23.13,13.64,58.45,58.45,0,0,1,13.74,23Zm10.36-52.86-.55,2h0L119.52,112.9,83.94,77.32l-2.13-2.13a56.63,56.63,0,0,1,52-14.51Zm-14.32,56.84,37.79,37.79c-21.33,19-53.88,18.57-74-1.56S62.77,101,81.71,79.7l36.82,36.82h0Zm42.33,37.72L124.11,117.5l50.14-14.17,2-.55a56.65,56.65,0,0,1-14.4,52.46Z"/></svg>