<svg xmlns="http://www.w3.org/2000/svg" xmlns:xlink="http://www.w3.org/1999/xlink" viewBox="0 0 240 235"><defs><style>.a{fill:url(#a);}.b{fill:#de6802;}</style><radialGradient id="a" cx="341.04" cy="-13.7" r="181.82" gradientTransform="matrix(1, 0, 0, -1, -276, 46.67)" gradientUnits="userSpaceOnUse"><stop offset="0" stop-color="#29190c"/><stop offset="1" stop-color="#241403"/></radialGradient></defs><path class="a" d="M42.42,0H197.58A42.52,42.52,0,0,1,240,42.61V192.39A42.52,42.52,0,0,1,197.58,235H42.42A42.52,42.52,0,0,1,0,192.39V42.82A42.52,42.52,0,0,1,42.2,0Z"/><path class="b" d="M119.82,25a92.61,92.61,0,1,1-92.6,92.61h0A92.74,92.74,0,0,1,119.82,25m0-10.6A103.21,103.21,0,1,0,223,117.61h0A103.2,103.2,0,0,0,119.82,14.4Z"/><path class="b" d="M119.82,51.16a22.38,22.38,0,0,0-21.2,13.57,23.13,23.13,0,0,0-9.9-2.26A24.8,24.8,0,0,0,66.1,96.4a24,24,0,0,0,0,42.41A25.44,25.44,0,0,0,89.64,173.1a23.64,23.64,0,0,0,9-1.77,22.34,22.34,0,0,0,21.2,12.73,22.36,22.36,0,0,0,21.21-13,23,23,0,0,0,9.4,2,25.45,25.45,0,0,0,22.91-35.35,23,23,0,0,0-1.13-41.35,24.84,24.84,0,0,0-22.63-34.08,22.29,22.29,0,0,0-9.33,2.05A22,22,0,0,0,119.82,51.16Zm-1.13,24A24.59,24.59,0,0,1,102,66.85,19.45,19.45,0,0,1,119.4,55.18a19.25,19.25,0,0,1,17.32,10.89A27.42,27.42,0,0,1,118.69,75.19Zm45.25,19.37a21.71,21.71,0,0,1-21.73-21.68c0-.67,0-1.34.09-2a17.53,17.53,0,0,1,23.19,23.61Zm-91.34,0A18,18,0,0,1,76,74.91a17.66,17.66,0,0,1,12.66-5.23,17.08,17.08,0,0,1,7.92,1.91A20.51,20.51,0,0,1,78,93.88l-.62,0h0a23.81,23.81,0,0,0-4.53.43Zm66-21.21a24.52,24.52,0,0,0,23.95,25.09h.72a24,24,0,0,0-8.06,19.16A27.62,27.62,0,0,0,164,136.34h-1.56a24.89,24.89,0,0,0-23.4,26,26.58,26.58,0,0,0-19.23-8.76A24.15,24.15,0,0,0,102.29,161h0a16,16,0,0,1-2.05,1.7,24.11,24.11,0,0,0-22.65-25.48c-.48,0-1,0-1.45,0H74.86a12,12,0,0,1,1.49-1.77h0a25.8,25.8,0,0,0-.7-36.48c-.32-.32-.66-.62-1-.92h1.91a23.67,23.67,0,0,0,23.68-23.68v-.28a25.07,25.07,0,0,0,18.38,7.78,26.84,26.84,0,0,0,19.87-8.77Zm32.66,61.22a28.22,28.22,0,0,1-9-17.46c-.85-7.7,4.38-12.09,8.27-17.53a19.16,19.16,0,0,1,.71,34.57ZM68,135.63a19.86,19.86,0,0,1,0-35,27.63,27.63,0,0,0,3.81,4.88,18.16,18.16,0,0,1,0,25h0a24.32,24.32,0,0,0-3.88,5.09Zm82.35,30.82a17.25,17.25,0,0,1-7.07-1.55,22.06,22.06,0,0,1,19.29-24.52,21.74,21.74,0,0,1,2.91-.15h1.41a18.09,18.09,0,0,1-16.25,26.15Zm-61.15,0a18.37,18.37,0,0,1-16.33-25.16h1.49a21.2,21.2,0,0,1,22.34,20,21.9,21.9,0,0,1-.14,3.88,19.47,19.47,0,0,1-7.07,1.34Zm30.54,14.14a19.58,19.58,0,0,1-17.46-10.74,26.73,26.73,0,0,0,5.3-4.1h0a16.85,16.85,0,0,1,11.74-5,28.31,28.31,0,0,1,18.1,8.83,19.66,19.66,0,0,1-17.61,10.82Z"/></svg>