<svg xmlns="http://www.w3.org/2000/svg" viewBox="0 0 20 20"><g id="photoshop-elements"><g id="Surfaces"><g id="Photo_Surface" data-name="Photo Surface"><g id="Outline_no_shadow" data-name="Outline no shadow"><rect y="0.36" width="20" height="19.29" rx="3.54" style="fill:#071f35"/></g></g></g><g id="Outlined_Mnemonics_Logos" data-name="Outlined Mnemonics Logos"><g id="Ps_Elements" data-name="Ps Elements"><g id="Group_1428" data-name="Group 1428"><path id="Path_1953" data-name="Path 1953" d="M9.9,11l1.21,2.24a3.41,3.41,0,0,0,2.08-2L13.3,11Zm.17-2.3-1.13-2a3.55,3.55,0,0,0-2.06,2l0,0ZM8.94,10.42l-1.15,2a3.35,3.35,0,0,0,2.21.87,3.53,3.53,0,0,0,.56,0l0,0ZM11.1,9.33l1.15-2A3.35,3.35,0,0,0,10,6.51a2.81,2.81,0,0,0-.5,0l0,0ZM9,9.27H6.71a2.73,2.73,0,0,0-.07.64A3.35,3.35,0,0,0,7.36,12l0,0Zm2,1.15h2.34a3,3,0,0,0,.05-.6,3.23,3.23,0,0,0-.74-2.06l-.05,0Z" style="fill:#56a1d8;fill-rule:evenodd"/></g><path d="M11.9,18.08a1.12,1.12,0,0,1-.56-.15L2.26,12.87a1.1,1.1,0,0,1-.42-1.5v0l5.3-8.93a1.16,1.16,0,0,1,1-.56A1.18,1.18,0,0,1,8.7,2l9.08,5.07a1.09,1.09,0,0,1,.43,1.49v0l-5.3,8.93A1.16,1.16,0,0,1,11.9,18.08ZM8.15,2.69a.34.34,0,0,0-.29.16l-5.3,8.92a.3.3,0,0,0,0,.21.29.29,0,0,0,.14.17l9.08,5.06a.26.26,0,0,0,.15,0,.32.32,0,0,0,.28-.16l5.3-8.92a.26.26,0,0,0,0-.21.25.25,0,0,0-.13-.17L8.3,2.73A.28.28,0,0,0,8.15,2.69Z" style="fill:#56a1d8;isolation:isolate;opacity:0.6000000238418579"/></g></g></g></svg>