<svg xmlns="http://www.w3.org/2000/svg" viewBox="0 0 240 235"><defs><style>.a{fill:#fff;}.b{fill:#f90025;}.c{fill:#8d0017;}.d{fill:#c20020;}</style></defs><path class="a" d="M42.5,0h155A42.59,42.59,0,0,1,240,42.68V192.32A42.59,42.59,0,0,1,197.5,235H42.5A42.59,42.59,0,0,1,0,192.32V42.68A42.59,42.59,0,0,1,42.5,0Z"/><path class="b" d="M197,74.38v88.91l-35.74-20.63a82.43,82.43,0,0,1-30.21-30.21Z"/><path class="c" d="M197,74.38l-65.95,38.07A82.48,82.48,0,0,1,120,71.19V29.92Z"/><path class="d" d="M120,29.92V71.2a82.3,82.3,0,0,1-11,41.25L43,74.38Z"/><path class="b" d="M108.94,112.45a82.56,82.56,0,0,1-30.15,30.18l-.06,0L43,163.29V74.38Z"/><path class="d" d="M197,163.29l-77,44.46V131.6a82.49,82.49,0,0,1,41.27,11.06Z"/><path class="c" d="M120,131.6v76.15L43,163.29l35.73-20.63A82.45,82.45,0,0,1,120,131.6Z"/></svg>