<svg xmlns="http://www.w3.org/2000/svg" xmlns:xlink="http://www.w3.org/1999/xlink" viewBox="0 0 240 235"><defs><style>.a{fill:url(#a);}.b{fill:url(#b);}</style><radialGradient id="a" cx="369.7" cy="64.32" r="383.13" gradientTransform="matrix(1, 0, 0, -1.01, -276.52, 46.6)" gradientUnits="userSpaceOnUse"><stop offset="0" stop-color="#ec202b"/><stop offset="0.15" stop-color="#e2202a"/><stop offset="0.4" stop-color="#c51e26"/><stop offset="0.73" stop-color="#981c20"/><stop offset="1" stop-color="#6d1a1b"/></radialGradient><linearGradient id="b" x1="396.3" y1="4.1" x2="396.3" y2="-146.9" gradientTransform="matrix(1, 0, 0, -1, -276, 47)" gradientUnits="userSpaceOnUse"><stop offset="0.14" stop-color="#fff"/><stop offset="1" stop-color="#ebedeb"/></linearGradient></defs><rect class="a" width="240" height="235" rx="42.58"/><path class="b" d="M172.13,88.44a172.59,172.59,0,0,1,5.79-24.27A69,69,0,0,0,169,56a184.84,184.84,0,0,0-8.39,35.15l-.1.7A185.51,185.51,0,0,1,123.4,69.76,191.23,191.23,0,0,0,149.86,44.7l-3-1.2A180.72,180.72,0,0,1,121,67.87a179,179,0,0,1-25.77-25c-1,.3-2,.7-3,1.1A183.91,183.91,0,0,0,118.6,69.76,183.88,183.88,0,0,1,81.05,91.33l-.1-.69a192.85,192.85,0,0,0-8.09-36,77.23,77.23,0,0,0-9,8,183,183,0,0,1,5.7,25.17A180,180,0,0,1,44.8,95.13a75.78,75.78,0,0,0-2.5,11.68A181.83,181.83,0,0,0,77.66,96.33l.7-.3a184.22,184.22,0,0,1-.3,43.14A185,185,0,0,0,42.4,128.59c.2,1.09.3,2.09.5,3.19a190.79,190.79,0,0,1,34.76,10.49,184.7,184.7,0,0,1-8.59,34.95,25.34,25.34,0,0,0,2.49,2,176.6,176.6,0,0,0,8.89-35.75,188,188,0,0,1,37.25,21.77l-.7.5A194.13,194.13,0,0,0,90.34,190.2a76.8,76.8,0,0,0,11.48,3.7A185,185,0,0,1,120.2,177a180.59,180.59,0,0,1,18,16.88,73.25,73.25,0,0,0,11.48-3.7,195.77,195.77,0,0,0-26-24.56l-.7-.5a185.81,185.81,0,0,1,37.65-21.27,183.61,183.61,0,0,0,8.29,35c.79-.7,1.69-1.3,2.49-2a185.57,185.57,0,0,1-7.89-34.25,186.62,186.62,0,0,1,33.76-9.79c.2-1,.4-2.1.6-3.2a188.87,188.87,0,0,0-34.66,9.89,188.64,188.64,0,0,1,.2-43.14l.7.3a193.34,193.34,0,0,0,34.16,10.68,76.85,76.85,0,0,0-2.4-11.78A134.36,134.36,0,0,1,172.13,88.44ZM160.05,141a186.38,186.38,0,0,0-39.65,22.37l-.2-.2-.2.3a182.45,182.45,0,0,0-39.35-23A181.85,181.85,0,0,0,81,95l.4-.1-.1-.4A186.85,186.85,0,0,0,120.8,71.86,184.76,184.76,0,0,0,160,95.13l-.1.4.3.1A191,191,0,0,0,160.05,141Z"/></svg>