<svg xmlns="http://www.w3.org/2000/svg" xmlns:xlink="http://www.w3.org/1999/xlink" viewBox="0 0 240 235"><defs><style>.a{fill:url(#a);}.b{fill:#17d8ff;}.b,.c{fill-rule:evenodd;}.c{fill:#cbf0fe;}</style><radialGradient id="a" cx="350.92" cy="-19.1" r="143.79" gradientTransform="matrix(1.09, 0, 0, -1.09, -286.91, 57.22)" gradientUnits="userSpaceOnUse"><stop offset="0" stop-color="#1d3034"/><stop offset="0.77" stop-color="#051a1e"/></radialGradient></defs><rect class="a" width="240" height="235" rx="42.58"/><path class="b" d="M16.75,117A103.25,103.25,0,1,0,120,13.75,103.25,103.25,0,0,0,16.75,117Zm10.65,0A92.61,92.61,0,1,1,120,209.72,92.61,92.61,0,0,1,27.4,117h0Z"/><path class="c" d="M76,97.16a18.61,18.61,0,0,1,13.28,5.53,19,19,0,0,1,0,26.7,18.7,18.7,0,0,1-26.45.11l-.11-.11a19,19,0,0,1,0-26.69A18.61,18.61,0,0,1,76,97.16ZM119.88,53a18.61,18.61,0,0,1,13.28,5.53,19,19,0,0,1,0,26.7,18.73,18.73,0,0,1-26.47.09l-.09-.09a19,19,0,0,1,0-26.69A18.61,18.61,0,0,1,119.88,53Zm-1.75,86.48A18.88,18.88,0,1,1,104.86,145a18.58,18.58,0,0,1,13.27-5.5ZM162,99a15.06,15.06,0,0,1,10.76,4.48,15.37,15.37,0,0,1,0,21.64,15.16,15.16,0,0,1-21.44.08l-.08-.08a15.35,15.35,0,0,1,0-21.64A15.06,15.06,0,0,1,162,99ZM76,93.6a22.17,22.17,0,0,0-15.8,6.58,22.55,22.55,0,0,0,0,31.76,22.27,22.27,0,0,0,31.48.11l.11-.11A22.56,22.56,0,0,0,93,101.5L105.66,89a22.18,22.18,0,0,0,12.84,5.31v41.63h-.08a22.86,22.86,0,0,0-16.08,6.57,22.55,22.55,0,0,0,0,31.76,22.24,22.24,0,0,0,31.47.13l.13-.13a22.54,22.54,0,0,0,2.64-28.57l12.75-12.94a22.27,22.27,0,0,0,28.49-2.6,22.53,22.53,0,0,0,0-31.76,22.25,22.25,0,0,0-31.47-.12l-.12.12a22.53,22.53,0,0,0,0,31.76l.4.39L134.31,142.9l-.76-.39a22.11,22.11,0,0,0-12.05-6.26v-42a22.22,22.22,0,0,0,13.78-6.48c8.72-8.77,9.12-23,.39-31.76a22.25,22.25,0,0,0-31.47-.12l-.12.12a22.54,22.54,0,0,0-1.24,30.4L90.46,98.91A22.17,22.17,0,0,0,76,93.58Zm95.92,20.28c0,5.28-3.43,10-9.59,10.08-6.51.13-10.06-4.32-10.06-9.61s4.45-10.18,9.71-10.18a10,10,0,0,1,9.94,9.69Z"/></svg>