<svg xmlns="http://www.w3.org/2000/svg" xmlns:xlink="http://www.w3.org/1999/xlink" viewBox="0 0 240 235"><defs><style>.a{fill:url(#a);}.b{fill:#ff1828;fill-rule:evenodd;}.c{fill:#f9c9cd;}</style><radialGradient id="a" cx="350.92" cy="-19.1" r="143.79" gradientTransform="matrix(1.09, 0, 0, -1.09, -286.91, 57.22)" gradientUnits="userSpaceOnUse"><stop offset="0" stop-color="#39191a"/><stop offset="0.77" stop-color="#290608"/></radialGradient></defs><rect class="a" width="240" height="235" rx="42.58"/><path class="b" d="M16.75,117A103.25,103.25,0,1,0,120,13.75,103.25,103.25,0,0,0,16.75,117Zm10.65,0A92.61,92.61,0,1,1,120,209.72,92.61,92.61,0,0,1,27.4,117h0Z"/><path class="c" d="M175.12,77.1l-48-25.79a6.92,6.92,0,0,0-6.73.15A6.82,6.82,0,0,0,117,57.25v4.69L103.69,54.7a7.7,7.7,0,0,0-3.22-.84H98.94A8.65,8.65,0,0,0,91,62.21v42.27A8.75,8.75,0,0,0,99.75,113a8.15,8.15,0,0,0,4-1.07l39-21.4A8.57,8.57,0,0,0,147.12,83a8.75,8.75,0,0,0-4.72-7.46L120,63.65v-6.4a3.86,3.86,0,0,1,5.55-3.07l48,25.78a3.52,3.52,0,0,1,1.89,3.1,3.45,3.45,0,0,1-1.81,3.11l-55.47,30.54L62.68,146.32a6.75,6.75,0,0,0,0,11.83l48,26.4a6.71,6.71,0,0,0,3.22.83,5.73,5.73,0,0,0,3.14-.94,6.46,6.46,0,0,0,3-5.8v-5.1l12.25,6.6a6.4,6.4,0,0,0,3.27.91,7.48,7.48,0,0,0,7.48-7.37V131.42a7.4,7.4,0,0,0-6.24-7.31A3.88,3.88,0,0,0,136,124h-.37a3.42,3.42,0,0,0-.78.12,7.55,7.55,0,0,0-2.31.8l-38.87,20.9a7.36,7.36,0,0,0-3.87,6.45,7.2,7.2,0,0,0,3.65,6.46l23.56,13v6.86a3.39,3.39,0,0,1-1.57,3,3.29,3.29,0,0,1-3.36,0l-47.93-26.4a3.54,3.54,0,0,1,.06-6.2l55.48-29.66,55.5-30.55A6.73,6.73,0,0,0,175.14,77ZM96.19,152.3a.93.93,0,0,1,.5-.84l37.93-20.39a5.77,5.77,0,0,1,.55-.29c.59-.29.83.09.83.64v42.27c0,.56-.26,1-.7.74l-.37-.17L96.61,153.13A.81.81,0,0,1,96.19,152.3Z"/></svg>