<svg xmlns="http://www.w3.org/2000/svg" xmlns:xlink="http://www.w3.org/1999/xlink" viewBox="0 0 36 36"><defs><style>.a{fill:url(#a);}.b{fill:#ff179c;}.c{fill:#ffcbe9;}</style><radialGradient id="a" cx="10.25" cy="9.95" r="25.72" gradientUnits="userSpaceOnUse"><stop offset="0" stop-color="#4d3141"/><stop offset="1" stop-color="#250319"/></radialGradient></defs><path class="a" d="M7.05,1.44H29a6,6,0,0,1,6,6V28.53a6,6,0,0,1-6,6H7.05a6,6,0,0,1-6-6V7.47A6,6,0,0,1,7.05,1.44Z"/><path class="b" d="M18,4.9A13.1,13.1,0,1,1,4.9,18,13.12,13.12,0,0,1,18,4.9m0-1.5A14.6,14.6,0,1,0,32.6,18,14.6,14.6,0,0,0,18,3.4Z"/><path class="c" d="M26.09,18.8h0l-.92-5.42A1.34,1.34,0,0,0,26,12.14a1.36,1.36,0,0,0-1.36-1.36,1.34,1.34,0,0,0-1.16.67L19.31,10a1,1,0,0,0,0-.24,1.36,1.36,0,1,0-2.72,0,1.58,1.58,0,0,0,.05.38l-5.16,2.46A1.35,1.35,0,0,0,10.4,12a1.36,1.36,0,0,0-.17,2.7l.23,6.1a1.36,1.36,0,0,0,.28,2.69A1.37,1.37,0,0,0,12,22.74l8,2.48a1.1,1.1,0,0,0,0,.18,1.36,1.36,0,0,0,2.72,0,1.32,1.32,0,0,0-.29-.82l3-3.28a1.36,1.36,0,1,0,.74-2.5Zm-4.63,5.27-.34-5.78a1.37,1.37,0,0,0,.72-.44l3,1.81a1.35,1.35,0,0,0-.1.5A1.41,1.41,0,0,0,25,21l-3,3.28A1.31,1.31,0,0,0,21.46,24.07ZM10.91,20.79l-.23-6.1a1.37,1.37,0,0,0,.91-.68l7.89,2.73a1.64,1.64,0,0,0,0,.22,1.35,1.35,0,0,0,.07.41l-7.71,3.95A1.34,1.34,0,0,0,10.91,20.79Zm14.74-1.91a1.39,1.39,0,0,0-.58.39l-3-1.8a1.45,1.45,0,0,0,.1-.51,1.37,1.37,0,0,0-.36-.91L24,13.33a1.34,1.34,0,0,0,.65.17h.12Zm-2.36-7a1.24,1.24,0,0,0,0,.27,1.35,1.35,0,0,0,.36.91l-2.15,2.73a1.35,1.35,0,0,0-.65-.18,1.43,1.43,0,0,0-.29,0l-1.86-4.72a1.41,1.41,0,0,0,.49-.51Zm-6.43-1.35A1.38,1.38,0,0,0,18,11.1a1.33,1.33,0,0,0,.28,0l1.86,4.73a1.29,1.29,0,0,0-.49.52l-7.89-2.73a1.79,1.79,0,0,0,0-.23A1.15,1.15,0,0,0,11.7,13ZM12.08,22.31a1.1,1.1,0,0,0,0-.18,1.41,1.41,0,0,0-.07-.41l7.7-3.95a1.32,1.32,0,0,0,.94.54L21,24.07a1.36,1.36,0,0,0-1,.72Z"/></svg>