<svg xmlns="http://www.w3.org/2000/svg" viewBox="0 0 240 234"><defs><style>.a{fill:#1d1823;}.b{fill:#c9bcd8;}</style></defs><rect class="a" x="0.4" y="0.39" width="239.21" height="233.23" rx="42.36"/><path class="b" d="M114.17,79l0-14.07a.69.69,0,0,0-.27-.55c-1.13-.87-6-3.92-19.22-3.92-16.18,0-31.39,7.78-31.39,27.07,0,32.24,38.61,28.85,38.61,48.67,0,9.91-7.84,12.14-16.44,12.14-8.9,0-18.1-4.87-21.13-6.63a.7.7,0,0,0-1,.61V157.6a.69.69,0,0,0,.27.55c1.31,1,7.63,5.26,21.82,5.26,16.26,0,33.14-7.06,33.14-28.16,0-32.42-39.37-28.8-39.37-48.19,0-9,7.5-11.83,15.53-11.83a37.76,37.76,0,0,1,18.44,4.4A.69.69,0,0,0,114.17,79Z"/><path class="b" d="M176.8,102V88.89a.81.81,0,0,0-.29-.64c-.72-.55-3.16-1.51-11.5-1.51-13.63,0-36.31,8.23-36.31,39,0,30.87,23.64,37.72,33.92,37.72,9.06,0,12.72-1.73,13.8-2.41a.83.83,0,0,0,.38-.7V147.69a.82.82,0,0,0-1.11-.78,27.71,27.71,0,0,1-9.51,1.53c-6.78,0-21-2.85-21-24.6,0-20.77,15.25-22.76,21.1-22.76a36.1,36.1,0,0,1,9.42,1.69A.83.83,0,0,0,176.8,102Z"/></svg>