<svg xmlns="http://www.w3.org/2000/svg" xmlns:xlink="http://www.w3.org/1999/xlink" viewBox="0 0 240 235"><defs><style>.a{fill:url(#a);}.b{fill:url(#b);}</style><radialGradient id="a" cx="369.66" cy="64.5" r="383.64" gradientTransform="matrix(1, 0, 0, -1, -276, 46.7)" gradientUnits="userSpaceOnUse"><stop offset="0" stop-color="#ec202b"/><stop offset="0.15" stop-color="#e2202a"/><stop offset="0.4" stop-color="#c51e26"/><stop offset="0.73" stop-color="#981c20"/><stop offset="1" stop-color="#6d1a1b"/></radialGradient><linearGradient id="b" x1="396" y1="10.1" x2="396" y2="-151.2" gradientTransform="matrix(1, 0, 0, -1, -276, 47)" gradientUnits="userSpaceOnUse"><stop offset="0.14" stop-color="#fff"/><stop offset="1" stop-color="#eaecea"/></linearGradient></defs><rect class="a" width="240" height="235" rx="42.58"/><path class="b" d="M198.2,145.3l-26.4-19.5L197,90.5l-2.4-1.7h0l-65-45.2L120,36.9h0l-9.6,6.7-65,45.2h0L43,90.5l25.2,35.3L41.8,145.3l-2.6,1.9,10,6.3,68.7,43.4,2.1,1.3h0l2.1-1.3,68.7-43.4,10-6.3ZM51.8,97.8,120,50.3l68.2,47.5-18.8,26.3L127.7,92.9,120,87.1h0l-7.7,5.8L70.6,124.1Zm0,53.8,22.8-16.8,39.9,56.4ZM120,194,77,133.1l43-32.2,43,32.2Zm5.6-2.8,39.9-56.4,22.8,16.8Z"/></svg>