<svg xmlns="http://www.w3.org/2000/svg" xmlns:xlink="http://www.w3.org/1999/xlink" viewBox="0 0 36 36"><defs><style>.a{fill:url(#a);}.b{fill:#de6802;}</style><radialGradient id="a" cx="10.25" cy="9.95" r="25.72" gradientUnits="userSpaceOnUse"><stop offset="0" stop-color="#29190c"/><stop offset="1" stop-color="#241403"/></radialGradient></defs><path class="a" d="M7.05,1.44H29a6,6,0,0,1,6,6V28.53a6,6,0,0,1-6,6H7.05a6,6,0,0,1-6-6V7.47A6,6,0,0,1,7.05,1.44Z"/><path class="b" d="M18,4.9A13.1,13.1,0,1,1,4.9,18,13.12,13.12,0,0,1,18,4.9m0-1.5A14.6,14.6,0,1,0,32.6,18,14.6,14.6,0,0,0,18,3.4Z"/><path class="b" d="M18,8.6a3.17,3.17,0,0,0-3,1.92,3.28,3.28,0,0,0-1.4-.32A3.51,3.51,0,0,0,10.4,15a3.4,3.4,0,0,0,0,6,3.6,3.6,0,0,0,3.33,4.85A3.37,3.37,0,0,0,15,25.6a3.16,3.16,0,0,0,3,1.8,3.16,3.16,0,0,0,3-1.84,3.26,3.26,0,0,0,1.33.29,3.6,3.6,0,0,0,3.24-5A3.25,3.25,0,0,0,25.41,15a3.51,3.51,0,0,0-3.2-4.82,3.12,3.12,0,0,0-1.32.29A3.12,3.12,0,0,0,18,8.6ZM17.84,12a3.48,3.48,0,0,1-2.36-1.18,2.75,2.75,0,0,1,2.46-1.65,2.72,2.72,0,0,1,2.45,1.54A3.88,3.88,0,0,1,17.84,12Zm6.4,2.74a3.07,3.07,0,0,1-3.06-3.35,2.48,2.48,0,0,1,3.28,3.34Zm-12.92,0a2.55,2.55,0,0,1,.48-2.78,2.5,2.5,0,0,1,1.79-.74,2.43,2.43,0,0,1,1.12.27A2.9,2.9,0,0,1,12,14.65h0a3.39,3.39,0,0,0-.64.06Zm9.33-3a3.47,3.47,0,0,0,3.43,3.55h.06A3.4,3.4,0,0,0,23,18a3.91,3.91,0,0,0,1.25,2.65h-.22a3.52,3.52,0,0,0-3.31,3.68A3.76,3.76,0,0,0,18,23.09a3.42,3.42,0,0,0-2.48,1.05h0a2.17,2.17,0,0,1-.29.24,3.41,3.41,0,0,0-3.41-3.61h-.18a1.64,1.64,0,0,1,.21-.25h0a3.65,3.65,0,0,0-.24-5.29l.27,0h0a3.35,3.35,0,0,0,3.35-3.39,3.54,3.54,0,0,0,2.6,1.1,3.79,3.79,0,0,0,2.81-1.24Zm4.62,8.66A4,4,0,0,1,24,17.93c-.12-1.09.62-1.71,1.17-2.48a2.71,2.71,0,0,1,.1,4.89Zm-14.6.15a2.81,2.81,0,0,1,0-4.95,3.9,3.9,0,0,0,.54.69,2.57,2.57,0,0,1,0,3.54h0a3.44,3.44,0,0,0-.55.72Zm11.65,4.36a2.46,2.46,0,0,1-1-.22,3.12,3.12,0,0,1,3.14-3.49h.2a2.56,2.56,0,0,1-2.3,3.7Zm-8.65,0a2.6,2.6,0,0,1-2.31-3.56h.21a3,3,0,0,1,3.14,3.38,2.77,2.77,0,0,1-1,.19Zm4.32,2a2.77,2.77,0,0,1-2.47-1.52,3.77,3.77,0,0,0,.75-.58h0a2.38,2.38,0,0,1,1.66-.71,4,4,0,0,1,2.56,1.25A2.78,2.78,0,0,1,18,26.88Z"/></svg>