<?xml version="1.0" encoding="utf-8"?>
<!-- Generator: Adobe Illustrator 25.2.3, SVG Export Plug-In . SVG Version: 6.00 Build 0)  -->
<svg version="1.1" id="Layer_1" xmlns="http://www.w3.org/2000/svg" xmlns:xlink="http://www.w3.org/1999/xlink" x="0px" y="0px"
	 viewBox="0 0 240 234" style="enable-background:new 0 0 240 234;" xml:space="preserve">
<style type="text/css">
	.st0{fill:#000B1D;}
	.st1{fill:#FFFFFF;}
</style>
<g id="Toolkit">
	<path class="st0" d="M197.5,234h-155C19.0278988,234,0,214.9721069,0,191.5v-149C0,19.0278988,19.0278988,0,42.5,0h155
		C220.9721069,0,240,19.0278988,240,42.5v149C240,214.9721069,220.9721069,234,197.5,234z"/>
	<path class="st1" d="M149.2568512,126.7812958l-12.761673,12.7795868l34.9543304,34.9543304
		c2.1199188,2.1191559,5.5561829,2.1191559,7.6761017,0l5.0975189-5.0945282c2.1191559-2.1199188,2.1191559-5.5561829,0-7.6761017
		L149.2568512,126.7812958z"/>
	<path class="st1" d="M74.1402435,119.5916595l5.7779694-5.7809525c2.118988-2.118988-0.0865479-5.1243744-0.0865479-5.1243744
		l5.9331589-5.7212601c2.1278305,2.0715714,5.5252991,2.0489731,7.6253738-0.0507431l3.2292175-3.2262268l6.213707,6.213707
		l12.7706299-12.7706299l-6.2137146-6.2136993l2.1040649-2.0891418c2.1191711-2.1199188,2.1191711-5.5561905,0-7.6761093
		l-2.5487518-2.5487518c0,0,7.4970322-8.4162598,9.0728455-9.9920731
		c6.6255569-6.6255646,21.2913437-2.3547592,21.9688187-5.7451401c0.6774902-3.3903809-32.5667343-15.964035-50.7661591,2.232399
		L70.287262,80.0233002c-2.1238174,2.1163254-2.1298904,5.5536346-0.0135727,7.6774521
		c0.0045166,0.0045395,0.0090408,0.0090637,0.0135727,0.0135803l1.2803497,1.2325897l-5.6138229,5.8615417
		c-1.3404922-1.4745407-3.6225281-1.5831985-5.0970612-0.2426987c-0.0325317,0.0295715-0.0645218,0.0597382-0.0959473,0.0904846
		l-5.7779732,5.7809601c-1.0598488,1.0590591-1.0604897,2.7767715-0.0014305,3.8366165
		c0.0004768,0.0004807,0.0009537,0.0009537,0.0014305,0.0014343l15.3193779,15.3193817
		c1.0598831,1.059021,2.7775955,1.0583344,3.8366241-0.0015488
		C74.1392822,119.5926208,74.1397629,119.5921402,74.1402435,119.5916595z"/>
	<path class="st1" d="M166.8754883,59.112854c0.2922363,0,0.7200928,0.0694885,1.1260986,0.3931503l14.8647461,14.8025818
		c0.6192627,0.7486191,0.5360107,1.8642044-0.1968994,2.511467l-0.046875,0.0413589l-0.0441895,0.04422l-89.0430908,89.1296616
		c-0.2596436,0.2613983-0.5802002,0.4655457-0.9207764,0.5881653l-23.4550781,8.3565521l-0.0616455,0.0220032l-0.0601807,0.0259857
		c-0.1691895,0.0730743-0.3483887,0.1101379-0.5325928,0.1101379c-0.1877441,0-0.3699951-0.0384064-0.541748-0.1141052
		c-0.6773682-0.2986755-0.9854736-1.092804-0.6867676-1.7702332l0.0273438-0.062088l0.0230713-0.063797l8.4465332-23.3255615
		c0.1251221-0.3415985,0.3276367-0.6576996,0.5898438-0.9183655l89.0540771-89.0541687l0.0471191-0.0471191l0.0438232-0.0501213
		C165.8529053,59.3387337,166.3511963,59.112854,166.8754883,59.112854 M166.8754883,57.1128502
		c-1.0625,0-2.1186523,0.441452-2.8723145,1.3027458l-89.0540771,89.0541763
		c-0.4672852,0.4645081-0.8269043,1.0258484-1.0535889,1.6444397l-8.4490967,23.3327484
		c-0.744751,1.6891937,0.020874,3.6622925,1.7099609,4.407074c0.4294434,0.1893311,0.8890381,0.2841034,1.3486328,0.2841034
		c0.4512939,0,0.9025879-0.0913239,1.3256836-0.2741241l23.4550781-8.3565521
		c0.6279297-0.2260895,1.197876-0.5890045,1.668335-1.0625l89.0391846-89.1258087
		c1.5748291-1.3908005,1.7269287-3.7937164,0.34021-5.3720779l-14.9851074-14.9224396
		C168.6307373,57.4127579,167.7509766,57.1128502,166.8754883,57.1128502L166.8754883,57.1128502z"/>
	<path class="st1" d="M164.0032043,58.4155998l-89.054184,89.0541687
		c1.6784515-1.3384705,21.3753738,18.9019318,20.0050354,19.9751892l89.0392609-89.1258011
		c1.5747681-1.3908081,1.726944-3.7937164,0.3402252-5.3720779l-14.9851074-14.922451
		C167.7599182,56.670269,165.3777466,56.8445091,164.0032043,58.4155998z"/>
</g>
</svg>
