<svg xmlns="http://www.w3.org/2000/svg" viewBox="0 0 36 36"><defs><style>.a{fill:#b30b00;}.b{fill:#fff;}</style></defs><path class="a" d="M6.4.45H29.6A6.39,6.39,0,0,1,36,6.85v22.3a6.39,6.39,0,0,1-6.4,6.4H6.4A6.4,6.4,0,0,1,0,29.15V6.83A6.31,6.31,0,0,1,6.4.45Z"/><path class="b" d="M28.7,20.73c-1.68-1.8-6.28-1-7.39-.9a25.07,25.07,0,0,1-3.13-4,17.61,17.61,0,0,0,1-5.38c0-1.69-.68-3.36-2.46-3.36a1.79,1.79,0,0,0-1.58.9c-.78,1.35-.45,4,.79,6.83a44.79,44.79,0,0,1-3.13,7.39c-1.8.68-5.73,2.46-6.06,4.49a1.63,1.63,0,0,0,.56,1.57,2.1,2.1,0,0,0,1.57.56c2.35,0,4.71-3.24,6.4-6.17a36.4,36.4,0,0,1,5.61-1.46,8.67,8.67,0,0,0,5.83,2.57c1.58,0,2.14-.67,2.35-1.23A1.6,1.6,0,0,0,28.7,20.73Zm-1.57,1.13c-.11.45-.67.9-1.69.67a8.15,8.15,0,0,1-3.24-1.68,15.09,15.09,0,0,1,4-.12A1,1,0,0,1,27.13,21.86ZM16.25,8.41a.61.61,0,0,1,.56-.34c.56,0,.68.67.68,1.24a16.36,16.36,0,0,1-.79,4C15.8,10.88,15.91,9.08,16.25,8.41Zm-.11,12.66a28,28,0,0,0,1.46-3.58,19.71,19.71,0,0,0,2,2.68A17.19,17.19,0,0,0,16.14,21.07Zm-3.81,2.59c-1.56,2.46-3,4-3.92,4A.67.67,0,0,1,8,27.58c-.12-.23-.23-.45-.12-.67C8,26,9.76,24.77,12.33,23.66Z"/></svg>