<svg xmlns="http://www.w3.org/2000/svg" viewBox="0 0 36 36"><defs><style>.a{fill:#00005b;}.b{fill:#99f;}</style></defs><rect class="a" y="0.64" width="36" height="34.71" rx="6.37"/><path class="b" d="M29.21,19.92H24.52A3.71,3.71,0,0,0,25,21.28a2.35,2.35,0,0,0,1.08.89,4.74,4.74,0,0,0,1.93.41,6.62,6.62,0,0,0,1.33-.1,6.94,6.94,0,0,0,1.39-.42q.12-.09.12.12v2.26a.39.39,0,0,1,0,.18.27.27,0,0,1-.11.1,6.5,6.5,0,0,1-1.54.52,9.59,9.59,0,0,1-1.93.07,6.87,6.87,0,0,1-2.83-.52,5,5,0,0,1-1.85-1.41,5.54,5.54,0,0,1-1-1.93,7.89,7.89,0,0,1-.31-2.16A7.78,7.78,0,0,1,21.59,17a6.23,6.23,0,0,1,1.11-2,5.43,5.43,0,0,1,1.78-1.41A5.72,5.72,0,0,1,27,13a5.94,5.94,0,0,1,2.42.48,4.14,4.14,0,0,1,1.55,1.23,5.35,5.35,0,0,1,.88,1.67,5.91,5.91,0,0,1,.29,1.81,9.13,9.13,0,0,1,0,.95,4.54,4.54,0,0,1-.09.51.21.21,0,0,1-.21.19l-.49,0c-.23,0-.64,0-1,0ZM24.51,18h4a1.86,1.86,0,0,0,.34,0v-.14a3.44,3.44,0,0,0,0-.85,1.94,1.94,0,0,0-1.92-1.36,2.06,2.06,0,0,0-2,1.12A4.81,4.81,0,0,0,24.51,18Z"/><path class="b" d="M5.34,9.83a.16.16,0,0,1,.17-.14H9.68a.22.22,0,0,1,.24.17c.11.41.24.71.39,1.29s.31,1.21.48,1.91.35,1.41.54,2.14.35,1.44.53,2.13.32,1.32.44,1.9.22,1.06.29,1.44h0c.06-.33.17-.77.32-1.33s.32-1.18.52-1.87.39-1.4.6-2.13.4-1.45.6-2.16.38-1.38.55-2,.31-.92.42-1.33a.2.2,0,0,1,.2-.17h4.05a.18.18,0,0,1,.2.15v0l.54,14.9a.14.14,0,0,1,0,.15.2.2,0,0,1-.15.06H17.49a.15.15,0,0,1-.11,0,.15.15,0,0,1,0-.13c0-.81,0-1.55,0-2.44s0-1.78,0-2.67,0-1.76,0-2.59,0-1.58,0-2.28,0-1.3,0-1.82,0-.9,0-1.15h0L17,13.41c-.15.64-.33,1.36-.53,2.16s-.42,1.63-.65,2.49-.46,1.7-.68,2.54-.43,1.63-.63,2.36-.38,1.27-.51,1.82a.26.26,0,0,1-.25.19H11.14a.25.25,0,0,1-.27-.19c-.13-.55-.29-1.09-.46-1.82s-.35-1.49-.53-2.29-.37-1.6-.58-2.44-.39-1.63-.57-2.41-.35-1.51-.49-2.19S8,12.35,7.85,11.82h0V13.7c0,.73,0,1.54,0,2.42s0,1.8-.07,2.76,0,1.95-.08,3-.07,1.93-.11,2.93c0,.13-.06.19-.18.19H4.7a.23.23,0,0,1-.14,0s0-.08,0-.17Z"/></svg>