<svg xmlns="http://www.w3.org/2000/svg" viewBox="0 0 36 36"><defs><style>.a{fill:#0056ff;}.b{fill:#fff;}</style></defs><path class="a" d="M6.38.45H29.63A6.39,6.39,0,0,1,36,6.82V29.17a6.38,6.38,0,0,1-6.37,6.38H6.38A6.39,6.39,0,0,1,0,29.17V6.82A6.39,6.39,0,0,1,6.38.45Z"/><path class="b" d="M6.26,26.07V10.75c0-.14,0-.22.14-.24l1.26,0,1.78,0h1.81a9.61,9.61,0,0,1,3.18.39,4.72,4.72,0,0,1,1.8,1.09,3.58,3.58,0,0,1,.88,1.39,4.63,4.63,0,0,1,.22,1.33,4.15,4.15,0,0,1-.86,2.44,2.47,2.47,0,0,1-.65.6,5.25,5.25,0,0,1,1,.67,4.06,4.06,0,0,1,.91,1.19,3.89,3.89,0,0,1,.41,1.83A4.31,4.31,0,0,1,17.24,24a5.23,5.23,0,0,1-2.31,1.73,9.5,9.5,0,0,1-3.61.65h-3l-1.11,0H6.43C6.32,26.28,6.26,26.2,6.26,26.07ZM9.52,13.28l0,3.34h1.58c.44,0,.86,0,1.28,0a4.58,4.58,0,0,1,.9.09,2,2,0,0,0,.51-.65,1.78,1.78,0,0,0,.25-.93,1.71,1.71,0,0,0-1.26-1.71,4.6,4.6,0,0,0-1.52-.19H9.52Zm0,6.16v4l.76,0h1A6.45,6.45,0,0,0,13,23.29a2.3,2.3,0,0,0,1.15-.68,1.77,1.77,0,0,0,.47-1.13,2.12,2.12,0,0,0-.4-1.14,1.86,1.86,0,0,0-1.16-.73q-.33-.08-.66-.12a6.49,6.49,0,0,0-.88,0Z"/><path class="b" d="M28.44,20.71H23.57A3.14,3.14,0,0,0,24.05,22a2.52,2.52,0,0,0,1.12.92,4.77,4.77,0,0,0,2,.35,8.58,8.58,0,0,0,1.6-.14,6.63,6.63,0,0,0,1.44-.43c.09-.06.13,0,.13.12V25.2a.37.37,0,0,1,0,.18.29.29,0,0,1-.11.11,6.93,6.93,0,0,1-1.61.54,11.39,11.39,0,0,1-2.18.18,7,7,0,0,1-2.94-.54,5.24,5.24,0,0,1-1.93-1.46,5.65,5.65,0,0,1-1.07-2A8.07,8.07,0,0,1,20.11,20a7.68,7.68,0,0,1,.39-2.43,6.08,6.08,0,0,1,1.15-2.1A5.48,5.48,0,0,1,23.5,14a5.84,5.84,0,0,1,2.57-.5,5.58,5.58,0,0,1,2.39.44,4.32,4.32,0,0,1,1.63,1.27A5.67,5.67,0,0,1,31,16.93a6,6,0,0,1,.3,1.88,9.75,9.75,0,0,1,0,1c0,.3,0,.51-.06.65a.22.22,0,0,1-.22.19l-.51,0-.89,0C29.22,20.73,28.84,20.71,28.44,20.71Zm-4.86-2.37H27.7a2.2,2.2,0,0,0,.36,0v-.15a2.28,2.28,0,0,0-.1-.57,2,2,0,0,0-2-1.4,2.13,2.13,0,0,0-2,1.16A2.93,2.93,0,0,0,23.58,18.34Z"/><rect class="b" x="21.7" y="10.95" width="8" height="1.5"/></svg>