<svg xmlns="http://www.w3.org/2000/svg" viewBox="0 0 36 36"><defs><style>.a{fill:#1f2600;}.b{fill:#c1e800;}</style></defs><path class="a" d="M6.38.45H29.63A6.39,6.39,0,0,1,36,6.82V29.17a6.38,6.38,0,0,1-6.37,6.38H6.38A6.39,6.39,0,0,1,0,29.17V6.82A6.39,6.39,0,0,1,6.38.45Z"/><path class="b" d="M6.12,8.44H9.63c.12,0,.18,0,.19.15.62,2.3,2.41,9.79,2.83,12.31h0c.46-2.3,2.55-9.88,3.19-12.3,0-.12.08-.15.2-.15h3.39c.12,0,.15,0,.18.12l.6,16.21c0,.15,0,.19-.18.19h-2.4c-.15,0-.18-.07-.18-.19-.11-5.3-.11-12.78-.11-14.1h0c-.42,2.1-2.59,10.56-3.54,14.1,0,.15-.1.19-.19.19H11.43a.2.2,0,0,1-.23-.16C10.29,21.12,8.61,13.48,8,10.69H8c0,2-.19,8.73-.38,14.1,0,.15-.08.2-.18.2H5.25c-.15,0-.19,0-.19-.18L5.94,8.59C6,8.46,6,8.44,6.12,8.44ZM31,22.47c0,.18,0,.69.07,1.53,0,.1,0,.15-.1.18a12.54,12.54,0,0,1-4.6,1c-2.25,0-4.4-.87-4.4-4.33V13c0-.13,0-.2.17-.2h2.36c.12,0,.18.07.18.2v7.58c0,1.46.55,2.25,2.08,2.25a4.27,4.27,0,0,0,1.55-.27V13c0-.13,0-.2.18-.2h2.35c.15,0,.18.07.18.2v9.52Z"/></svg>