<svg xmlns="http://www.w3.org/2000/svg" viewBox="0 0 36 36"><defs><style>.a{fill:#1e3101;}.b{fill:#99e83f;}</style></defs><path class="a" d="M6.38.45H29.63A6.38,6.38,0,0,1,36,6.82V29.17a6.37,6.37,0,0,1-6.37,6.37H6.38A6.38,6.38,0,0,1,0,29.17V6.82A6.38,6.38,0,0,1,6.38.45Z"/><path class="b" d="M16.2,21.45H10.62L9.49,25a.28.28,0,0,1-.29.22H6.37c-.16,0-.22-.09-.17-.27L11,11.08c.05-.14.1-.29.15-.47a5.33,5.33,0,0,0,.09-1,.16.16,0,0,1,.13-.17h3.88c.12,0,.18,0,.2.12L21,25q.08.24-.15.24H17.67a.23.23,0,0,1-.24-.17Zm-4.71-3h3.82L15,17.38c-.13-.4-.27-.83-.41-1.29s-.29-.92-.44-1.37-.27-.91-.39-1.33l-.33-1.17h0c-.14.65-.31,1.29-.51,1.93s-.46,1.46-.69,2.22-.46,1.46-.69,2.1Z"/><path class="b" d="M22.55,13.2h2.63a.33.33,0,0,1,.32.24,1.46,1.46,0,0,1,.12.39,4,4,0,0,1,.07.48,4.5,4.5,0,0,1,0,.54,5.55,5.55,0,0,1,1.6-1.29A4.28,4.28,0,0,1,29.47,13a.2.2,0,0,1,.22.17v3c0,.12-.08.17-.24.17a5.37,5.37,0,0,0-1.5.11,6.36,6.36,0,0,0-1.26.4,3.3,3.3,0,0,0-.9.55V25c0,.15-.07.22-.2.22H22.77a.21.21,0,0,1-.24-.18V16.71c0-.36,0-.73,0-1.12s0-.79,0-1.18a7.32,7.32,0,0,0-.1-1,.14.14,0,0,1,.1-.17Z"/></svg>