<svg xmlns="http://www.w3.org/2000/svg" viewBox="0 0 36 36"><defs><style>.a{fill:#000b1d;}.b{fill:#45e67a;}.c{fill:#4dc4ff;}.d{fill:#ff4d4d;}</style></defs><path class="a" d="M6.38.45H29.63A6.38,6.38,0,0,1,36,6.82V29.17a6.37,6.37,0,0,1-6.37,6.37H6.38A6.38,6.38,0,0,1,0,29.17V6.82A6.38,6.38,0,0,1,6.38.45Z"/><path class="b" d="M19.77,19.72V8.4a1.14,1.14,0,0,0-1.14-1.16h0a1.15,1.15,0,0,0-.82.34L7.63,17.74a1.16,1.16,0,0,0,0,1.64,1.13,1.13,0,0,0,.81.34Z"/><path class="c" d="M18.84,12.88h9.48a.36.36,0,0,1,.38.34h0v9.54a.36.36,0,0,1-.37.35H18.84a.36.36,0,0,1-.38-.34h0V13.23A.37.37,0,0,1,18.84,12.88Z"/><circle class="d" cx="18.47" cy="22.83" r="5.93"/></svg>