<svg xmlns="http://www.w3.org/2000/svg" xmlns:xlink="http://www.w3.org/1999/xlink" viewBox="0 0 256 256"><defs><style>.a{fill:url(#a);}.b{fill:url(#b);}.c{fill:url(#c);}.d{fill:url(#d);}.e{fill:url(#e);}.f,.g,.h{stroke-miterlimit:10;stroke:url(#g);}.f{fill:url(#f);}.g{fill:url(#h);}.h{fill:url(#j);}.i{fill:url(#l);}.j{fill:url(#m);}.k{fill:url(#n);}.l{fill:url(#o);}.m{fill:url(#p);}.n{fill:url(#q);}.o{fill:url(#r);}.p{fill:url(#s);}.q{fill:url(#t);}.r{fill:url(#u);}.s{fill:url(#v);}.t{fill:url(#w);}.u{fill:url(#x);}.v{fill:url(#y);}.w{fill:url(#z);}.x{fill:url(#aa);}.y{fill:url(#ab);}.z{fill:url(#ac);}.aa{fill:url(#ad);}.ab{fill:url(#ae);}.ac{fill:url(#af);}.ad{fill:url(#ag);}.ae{fill:url(#ah);}.af{fill:url(#ai);}.ag{fill:url(#aj);}.ah{fill:url(#ak);}.ai{fill:url(#al);}.aj{fill:url(#am);}.ak{fill:url(#an);}.al{fill:url(#ao);}.am{fill:url(#ap);}</style><linearGradient id="a" x1="10.35" y1="170.8" x2="20.63" y2="172.62" gradientUnits="userSpaceOnUse"><stop offset="0" stop-color="#182229"/><stop offset="1" stop-color="#4c5659"/></linearGradient><linearGradient id="b" x1="205.55" y1="36.06" x2="207.59" y2="30.47" gradientUnits="userSpaceOnUse"><stop offset="0" stop-color="#6b6c6b"/><stop offset="1" stop-color="#4b4b4d"/></linearGradient><linearGradient id="c" x1="34.22" y1="123.25" x2="113.72" y2="43.75" gradientUnits="userSpaceOnUse"><stop offset="0" stop-color="#aebbc5"/><stop offset="0.1" stop-color="#c4d1db"/><stop offset="0.9" stop-color="#e3f1f9"/><stop offset="1" stop-color="#c8d0d7"/></linearGradient><linearGradient id="d" x1="186.32" y1="222.91" x2="196.75" y2="215.33" gradientUnits="userSpaceOnUse"><stop offset="0" stop-color="#87888a"/><stop offset="0.12" stop-color="#6e7276"/><stop offset="0.31" stop-color="#62686e"/><stop offset="0.51" stop-color="#7a848f"/><stop offset="0.74" stop-color="#96a7b8"/><stop offset="0.91" stop-color="#bdc7d9"/><stop offset="1" stop-color="#f2f6f8"/></linearGradient><linearGradient id="e" x1="43.14" y1="226.16" x2="238.78" y2="62" gradientUnits="userSpaceOnUse"><stop offset="0" stop-color="#676766"/><stop offset="0.48" stop-color="#686868"/><stop offset="0.77" stop-color="#76808b"/><stop offset="0.79" stop-color="#4a5b69"/><stop offset="0.86" stop-color="#8798a4"/><stop offset="0.92" stop-color="#b7c0cb"/><stop offset="0.97" stop-color="#f4f3f2"/><stop offset="1" stop-color="#c9ccce"/></linearGradient><linearGradient id="f" x1="82.05" y1="80.88" x2="163.38" y2="162.2" gradientUnits="userSpaceOnUse"><stop offset="0" stop-color="#66b32e" stop-opacity="0.9"/><stop offset="1" stop-color="#66b32e" stop-opacity="0"/></linearGradient><linearGradient id="g" x1="19.52" y1="121.8" x2="226.78" y2="121.8" gradientUnits="userSpaceOnUse"><stop offset="0" stop-color="#fff" stop-opacity="0.9"/><stop offset="0.49" stop-color="#fff" stop-opacity="0"/><stop offset="0.91" stop-color="#1d1e1b" stop-opacity="0"/><stop offset="1" stop-color="#1d1e1b" stop-opacity="0.3"/></linearGradient><linearGradient id="h" x1="163.38" y1="162.2" x2="82.05" y2="80.88" gradientUnits="userSpaceOnUse"><stop offset="0" stop-color="#e52421" stop-opacity="0.9"/><stop offset="1" stop-color="#e52421" stop-opacity="0"/></linearGradient><linearGradient id="j" x1="28.72" y1="200.55" x2="216.74" y2="42.78" gradientUnits="userSpaceOnUse"><stop offset="0" stop-color="#38338b" stop-opacity="0.9"/><stop offset="1" stop-color="#3664ad" stop-opacity="0"/></linearGradient><radialGradient id="l" cx="123.15" cy="121.8" fx="84.80469859815722" fy="54.311865064826605" r="154.65" gradientUnits="userSpaceOnUse"><stop offset="0" stop-color="#6dba74" stop-opacity="0.9"/><stop offset="0.42" stop-color="#6dba74" stop-opacity="0"/></radialGradient><radialGradient id="m" cx="123.15" cy="121.8" fx="60.270824086442055" fy="103.40762458392008" r="154.65" gradientUnits="userSpaceOnUse"><stop offset="0" stop-color="#6ec6d9" stop-opacity="0.9"/><stop offset="0.39" stop-color="#6ec6d9" stop-opacity="0"/></radialGradient><radialGradient id="n" cx="123.15" cy="121.8" fx="22.85770339030688" fy="192.70930713735174" r="154.65" gradientUnits="userSpaceOnUse"><stop offset="0" stop-color="#474797" stop-opacity="0.9"/><stop offset="0.56" stop-color="#474797" stop-opacity="0"/></radialGradient><radialGradient id="o" cx="123.15" cy="121.8" fx="78.37100469221579" fy="247.2279607680765" r="154.65" gradientUnits="userSpaceOnUse"><stop offset="0" stop-color="#df3a8d" stop-opacity="0.9"/><stop offset="0.56" stop-color="#df3a8d" stop-opacity="0"/></radialGradient><radialGradient id="p" cx="123.15" cy="121.8" fx="14.606151798739305" fy="137.45379268944595" r="154.65" gradientUnits="userSpaceOnUse"><stop offset="0" stop-color="#3b72b8" stop-opacity="0.9"/><stop offset="0.51" stop-color="#3b72b8" stop-opacity="0"/></radialGradient><radialGradient id="q" cx="123.15" cy="121.8" fx="228.84404736662876" fy="35.276847471430386" r="154.65" gradientUnits="userSpaceOnUse"><stop offset="0" stop-color="#f3e600" stop-opacity="0.9"/><stop offset="0.58" stop-color="#f3e600" stop-opacity="0"/></radialGradient><radialGradient id="r" cx="123.15" cy="121.8" fx="236.09002885970642" r="154.65" gradientUnits="userSpaceOnUse"><stop offset="0" stop-color="#eb5f1d" stop-opacity="0.9"/><stop offset="0.53" stop-color="#eb5f1d" stop-opacity="0"/></radialGradient><radialGradient id="s" cx="123.15" cy="121.8" fx="180.81850703614003" fy="197.0030588018825" r="154.65" gradientUnits="userSpaceOnUse"><stop offset="0" stop-color="#e72361" stop-opacity="0.9"/><stop offset="0.46" stop-color="#e72361" stop-opacity="0"/></radialGradient><radialGradient id="t" cx="123.15" cy="121.8" fx="180.91502686883908" fy="39.50544885711737" r="154.65" gradientUnits="userSpaceOnUse"><stop offset="0" stop-color="#f3e600" stop-opacity="0.9"/><stop offset="0.49" stop-color="#f3e600" stop-opacity="0"/></radialGradient><radialGradient id="u" cx="123.15" cy="121.8" fx="138.0849896213444" fy="17.395140585790358" r="154.65" gradientUnits="userSpaceOnUse"><stop offset="0" stop-color="#66b32e" stop-opacity="0.9"/><stop offset="0.49" stop-color="#66b32e" stop-opacity="0"/></radialGradient><radialGradient id="v" cx="126.27" cy="127.06" r="131.98" gradientTransform="translate(-11.23 153.19) rotate(-36.32) scale(1 0.48)" gradientUnits="userSpaceOnUse"><stop offset="0.17" stop-color="#fff" stop-opacity="0.9"/><stop offset="0.51" stop-color="#fff" stop-opacity="0.2"/><stop offset="0.74" stop-color="#bebdbd" stop-opacity="0"/><stop offset="0.9" stop-color="#505050" stop-opacity="0"/><stop offset="1" stop-color="#1d1e1b" stop-opacity="0.3"/></radialGradient><linearGradient id="w" x1="34.35" y1="177.11" x2="178.57" y2="32.89" gradientUnits="userSpaceOnUse"><stop offset="0" stop-color="#e5e6e7"/><stop offset="0.15" stop-color="#86929d"/><stop offset="0.3" stop-color="#55585c"/></linearGradient><linearGradient id="x" x1="196.08" y1="186.13" x2="165.59" y2="222.46" gradientUnits="userSpaceOnUse"><stop offset="0" stop-color="#c8d0d9"/><stop offset="0.14" stop-color="#c1c7d0"/><stop offset="0.41" stop-color="#97a1a9"/><stop offset="0.63" stop-color="#5f6871"/><stop offset="1" stop-color="#2d2e2f"/></linearGradient><linearGradient id="y" x1="41.51" y1="107.85" x2="-1.85" y2="77.49" gradientUnits="userSpaceOnUse"><stop offset="0" stop-color="#15232e"/><stop offset="0.08" stop-color="#37444e"/><stop offset="0.41" stop-color="#4f5a62"/><stop offset="0.63" stop-color="#5b656d"/><stop offset="1" stop-color="#80898f"/></linearGradient><linearGradient id="z" x1="147.05" y1="27" x2="242.1" y2="81.87" gradientUnits="userSpaceOnUse"><stop offset="0" stop-color="#d6dfea"/><stop offset="0.19" stop-color="#f3f6f9"/><stop offset="0.72" stop-color="#c6d8ea"/><stop offset="1" stop-color="#c1e3ec"/></linearGradient><linearGradient id="aa" x1="35.29" y1="200.44" x2="232.25" y2="128.75" gradientUnits="userSpaceOnUse"><stop offset="0" stop-color="#b9bfc3"/><stop offset="0.29" stop-color="#cce3e7"/><stop offset="1" stop-color="#c0e3ec"/></linearGradient><linearGradient id="ab" x1="18.87" y1="185.36" x2="107.94" y2="31.08" gradientUnits="userSpaceOnUse"><stop offset="0" stop-color="#b9bfc3"/><stop offset="0.24" stop-color="#788f9f"/><stop offset="0.25" stop-color="#949fa7"/><stop offset="0.26" stop-color="#959ea7"/><stop offset="0.28" stop-color="#5e686e"/><stop offset="0.33" stop-color="#68727a"/><stop offset="0.38" stop-color="#a2c2dc"/><stop offset="1" stop-color="#d6dee9"/></linearGradient><linearGradient id="ac" x1="100.91" y1="149.07" x2="154.85" y2="103.81" gradientUnits="userSpaceOnUse"><stop offset="0" stop-color="#bdbdc0"/><stop offset="0.2" stop-color="#8298a9"/><stop offset="0.48" stop-color="#738b99"/><stop offset="0.75" stop-color="#8299a8"/><stop offset="0.94" stop-color="#e0e1de"/><stop offset="1" stop-color="#d9d8d5"/></linearGradient><linearGradient id="ad" x1="90.67" y1="119.1" x2="152.43" y2="119.1" gradientUnits="userSpaceOnUse"><stop offset="0" stop-color="#fff"/><stop offset="0.01" stop-color="#f5fafd"/><stop offset="0.02" stop-color="#daeef8"/><stop offset="0.03" stop-color="#c3e3f3"/><stop offset="0.04" stop-color="#bad6e5"/><stop offset="0.05" stop-color="#a4b5bf"/><stop offset="0.07" stop-color="#7f8082"/><stop offset="0.07" stop-color="#797778"/><stop offset="0.09" stop-color="#938c88"/><stop offset="0.12" stop-color="#bbada2"/><stop offset="0.19" stop-color="#928d86"/><stop offset="0.3" stop-color="#fdfeff"/><stop offset="0.32" stop-color="#fff"/><stop offset="0.41" stop-color="#797778"/><stop offset="0.5" stop-color="#fff"/><stop offset="0.81" stop-color="#c1e5f9"/><stop offset="1" stop-color="#77a4c3"/></linearGradient><linearGradient id="ae" x1="90.48" y1="129.42" x2="152.15" y2="106.97" gradientTransform="translate(88.84 -48.04) rotate(34.69)" gradientUnits="userSpaceOnUse"><stop offset="0" stop-color="#a0b2c5"/><stop offset="0.18" stop-color="#aabacb"/><stop offset="0.49" stop-color="#c5d0dc"/><stop offset="0.88" stop-color="#f1f3f6"/><stop offset="1" stop-color="#fff"/></linearGradient><linearGradient id="af" x1="89.99" y1="80.39" x2="95.75" y2="76.21" gradientUnits="userSpaceOnUse"><stop offset="0" stop-color="#677582"/><stop offset="0.12" stop-color="#586673"/><stop offset="0.6" stop-color="#96a7b8"/><stop offset="1" stop-color="#bdc7d9"/></linearGradient><linearGradient id="ag" x1="175.49" y1="202.57" x2="181.99" y2="197.67" gradientUnits="userSpaceOnUse"><stop offset="0" stop-color="#677582"/><stop offset="0.12" stop-color="#586673"/><stop offset="0.6" stop-color="#96a7b8"/><stop offset="0.94" stop-color="#bdc7d9"/><stop offset="1" stop-color="#d3dbe6"/></linearGradient><linearGradient id="ah" x1="43.22" y1="26.14" x2="249.47" y2="163.09" gradientUnits="userSpaceOnUse"><stop offset="0" stop-color="#f8fbfc"/><stop offset="0.08" stop-color="#eaeef1"/><stop offset="0.38" stop-color="#e4eaf2"/><stop offset="0.78" stop-color="#a7b8c8"/><stop offset="0.8" stop-color="#6e818f"/><stop offset="0.89" stop-color="#abb6c1"/><stop offset="1" stop-color="#b6bbbf"/></linearGradient><linearGradient id="ai" x1="173.21" y1="219.75" x2="224.49" y2="130.92" gradientUnits="userSpaceOnUse"><stop offset="0" stop-color="#3c494d"/><stop offset="0.38" stop-color="#54626a"/><stop offset="1" stop-color="#3a444a"/></linearGradient><linearGradient id="aj" x1="96.89" y1="39.15" x2="225.26" y2="113.27" gradientUnits="userSpaceOnUse"><stop offset="0" stop-color="#8ba1ab"/><stop offset="0.54" stop-color="#8ca2aa"/><stop offset="0.88" stop-color="#445660"/><stop offset="0.91" stop-color="#c2dce6"/><stop offset="0.94" stop-color="#8e9aa3"/><stop offset="1" stop-color="#566872"/></linearGradient><linearGradient id="ak" x1="6.41" y1="107.42" x2="77.86" y2="35.96" gradientUnits="userSpaceOnUse"><stop offset="0" stop-color="#bdcad1"/><stop offset="0.09" stop-color="#c4d3db"/><stop offset="0.46" stop-color="#8ba1a9"/><stop offset="1" stop-color="#8ba1ab"/></linearGradient><linearGradient id="al" x1="51.08" y1="28.59" x2="60.84" y2="21.49" gradientUnits="userSpaceOnUse"><stop offset="0" stop-color="#636569"/><stop offset="0.12" stop-color="#6e7276"/><stop offset="0.6" stop-color="#96a7b8"/><stop offset="0.91" stop-color="#bdc7d9"/><stop offset="1" stop-color="#f2f6f8"/></linearGradient><linearGradient id="am" x1="44.75" y1="21.14" x2="57.64" y2="16.45" gradientTransform="translate(19.8 -25.8) rotate(34.69)" gradientUnits="userSpaceOnUse"><stop offset="0" stop-color="#fff"/><stop offset="0.03" stop-color="#f5fafd"/><stop offset="0.07" stop-color="#daeef8"/><stop offset="0.1" stop-color="#c3e3f3"/><stop offset="0.12" stop-color="#bad6e5"/><stop offset="0.15" stop-color="#a4b5bf"/><stop offset="0.2" stop-color="#7f8082"/><stop offset="0.21" stop-color="#797778"/><stop offset="0.24" stop-color="#938c88"/><stop offset="0.29" stop-color="#bbada2"/><stop offset="0.34" stop-color="#928d86"/><stop offset="0.39" stop-color="#fdfeff"/><stop offset="0.47" stop-color="#fff"/><stop offset="0.54" stop-color="#797778"/><stop offset="0.65" stop-color="#fff"/><stop offset="0.81" stop-color="#c1e5f9"/><stop offset="1" stop-color="#77a4c3"/></linearGradient><linearGradient id="an" x1="45.49" y1="18.21" x2="55.85" y2="18.21" gradientTransform="translate(19.37 -25.6) rotate(34.69)" xlink:href="#ae"/><linearGradient id="ao" x1="54.88" y1="229.4" x2="239.04" y2="45.23" gradientUnits="userSpaceOnUse"><stop offset="0" stop-color="#757576"/><stop offset="0.41" stop-color="#999d9e"/><stop offset="0.72" stop-color="#a3acb2"/><stop offset="0.85" stop-color="#c4d4dd"/><stop offset="0.93" stop-color="#fff"/><stop offset="1" stop-color="#fcfdfe"/></linearGradient><linearGradient id="ap" x1="60.29" y1="86.45" x2="196.04" y2="164.83" gradientUnits="userSpaceOnUse"><stop offset="0" stop-color="#aebcc6"/><stop offset="0.68" stop-color="#eaeef1"/><stop offset="0.8" stop-color="#d5e0e6"/><stop offset="0.96" stop-color="#dae4ee"/><stop offset="1" stop-color="#c8e5eb"/></linearGradient></defs><path class="a" d="M16.24,191.15C8.54,176.09,11.78,157,22.55,137l-.21-.26C19.43,142,7.69,161.52,7.66,181.17c0,10,2.85,20,11.39,27,.18.15.36.3.55.44l0,0A33,33,0,0,1,16.24,191.15Z"/><path class="b" d="M237.08,50.38A32.4,32.4,0,0,0,228,36.77c-17.79-15.52-52.34-8.42-56.95-6.88,18.2-3,33.89-1,44.86,6.5a34.7,34.7,0,0,1,6.6,5.87C232.67,45.18,236,48.7,237.08,50.38Z"/><path class="c" d="M117.57,46.93c-25.18,14.48-56,32.37-87,72.7q.75,1.13,1.56,2.25c12.86-18,31.07-36,52.19-51.62a269,269,0,0,1,35.88-22.45C119.29,47.51,118.44,47.21,117.57,46.93Z"/><path class="d" d="M197.78,215.64A88.21,88.21,0,0,1,182.62,218c1.75,2.62,4.07,6.14,5.07,7.76.4.65,4,.95,7.78-1.88,3.61-2.7,4.12-5.48,3.6-6.26Z"/><path class="e" d="M238,69.41c-.58-5.31-9.83-19.2-12.9-23.69,14.38,22,3.11,63.24-57.76,116.16-58.07,50.5-127.13,60.93-147.17,35.43a36.85,36.85,0,0,1-3.66-5.63h0s2.56,7.64,15.92,20.91S99,231.38,170.09,176.13C244.67,118.19,238.73,75.79,238,69.41Z"/><path class="f" d="M22.75,193.43c6,7.17,15.86,11.57,29.56,12.41,40.69,2.51,82.32-20.41,116.76-50.52,34.08-29.78,50.8-54,55.79-76.24,2.83-12.67,1.28-22.83-3.2-30.41-1.6-2.09-9.89-11.38-30.66-11.1-23.92.32-66.72,12.83-105.79,43.22-29.44,22.9-46.62,44.86-55.64,61.57l-.34.64-.64,1.22c-.16.31-.32.62-.47.93a75.88,75.88,0,0,0-5.7,14.43c-5.75,21.71.62,34.14.62,34.14Z"/><path class="g" d="M22.75,193.43c6,7.17,15.86,11.57,29.56,12.41,40.69,2.51,82.32-20.41,116.76-50.52,34.08-29.78,50.8-54,55.79-76.24,2.83-12.67,1.28-22.83-3.2-30.41-1.6-2.09-9.89-11.38-30.66-11.1-23.92.32-66.72,12.83-105.79,43.22-29.44,22.9-46.62,44.86-55.64,61.57l-.34.64-.64,1.22c-.16.31-.32.62-.47.93a75.88,75.88,0,0,0-5.7,14.43c-5.75,21.71.62,34.14.62,34.14Z"/><path class="h" d="M22.75,193.43c6,7.17,15.86,11.57,29.56,12.41,40.69,2.51,82.32-20.41,116.76-50.52,34.08-29.78,50.8-54,55.79-76.24,2.83-12.67,1.28-22.83-3.2-30.41-1.6-2.09-9.89-11.38-30.66-11.1-23.92.32-66.72,12.83-105.79,43.22-29.44,22.9-46.62,44.86-55.64,61.57l-.34.64-.64,1.22c-.16.31-.32.62-.47.93a75.88,75.88,0,0,0-5.7,14.43c-5.75,21.71.62,34.14.62,34.14Z"/><path class="i" d="M22.75,193.43c6,7.17,15.86,11.57,29.56,12.41,40.69,2.51,82.32-20.41,116.76-50.52,34.08-29.78,50.8-54,55.79-76.24,2.83-12.67,1.28-22.83-3.2-30.41-1.6-2.09-9.89-11.38-30.66-11.1-23.92.32-66.72,12.83-105.79,43.22-29.44,22.9-46.62,44.86-55.64,61.57l-.34.64-.64,1.22c-.16.31-.32.62-.47.93a75.88,75.88,0,0,0-5.7,14.43c-5.75,21.71.62,34.14.62,34.14Z"/><path class="j" d="M22.75,193.43c6,7.17,15.86,11.57,29.56,12.41,40.69,2.51,82.32-20.41,116.76-50.52,34.08-29.78,50.8-54,55.79-76.24,2.83-12.67,1.28-22.83-3.2-30.41-1.6-2.09-9.89-11.38-30.66-11.1-23.92.32-66.72,12.83-105.79,43.22-29.44,22.9-46.62,44.86-55.64,61.57l-.34.64-.64,1.22c-.16.31-.32.62-.47.93a75.88,75.88,0,0,0-5.7,14.43c-5.75,21.71.62,34.14.62,34.14Z"/><path class="k" d="M22.75,193.43c6,7.17,15.86,11.57,29.56,12.41,40.69,2.51,82.32-20.41,116.76-50.52,34.08-29.78,50.8-54,55.79-76.24,2.83-12.67,1.28-22.83-3.2-30.41-1.6-2.09-9.89-11.38-30.66-11.1-23.92.32-66.72,12.83-105.79,43.22-29.44,22.9-46.62,44.86-55.64,61.57l-.34.64-.64,1.22c-.16.31-.32.62-.47.93a75.88,75.88,0,0,0-5.7,14.43c-5.75,21.71.62,34.14.62,34.14Z"/><path class="l" d="M22.75,193.43c6,7.17,15.86,11.57,29.56,12.41,40.69,2.51,82.32-20.41,116.76-50.52,34.08-29.78,50.8-54,55.79-76.24,2.83-12.67,1.28-22.83-3.2-30.41-1.6-2.09-9.89-11.38-30.66-11.1-23.92.32-66.72,12.83-105.79,43.22-29.44,22.9-46.62,44.86-55.64,61.57l-.34.64-.64,1.22c-.16.31-.32.62-.47.93a75.88,75.88,0,0,0-5.7,14.43c-5.75,21.71.62,34.14.62,34.14Z"/><path class="m" d="M22.75,193.43c6,7.17,15.86,11.57,29.56,12.41,40.69,2.51,82.32-20.41,116.76-50.52,34.08-29.78,50.8-54,55.79-76.24,2.83-12.67,1.28-22.83-3.2-30.41-1.6-2.09-9.89-11.38-30.66-11.1-23.92.32-66.72,12.83-105.79,43.22-29.44,22.9-46.62,44.86-55.64,61.57l-.34.64-.64,1.22c-.16.31-.32.62-.47.93a75.88,75.88,0,0,0-5.7,14.43c-5.75,21.71.62,34.14.62,34.14Z"/><path class="n" d="M22.75,193.43c6,7.17,15.86,11.57,29.56,12.41,40.69,2.51,82.32-20.41,116.76-50.52,34.08-29.78,50.8-54,55.79-76.24,2.83-12.67,1.28-22.83-3.2-30.41-1.6-2.09-9.89-11.38-30.66-11.1-23.92.32-66.72,12.83-105.79,43.22-29.44,22.9-46.62,44.86-55.64,61.57l-.34.64-.64,1.22c-.16.31-.32.62-.47.93a75.88,75.88,0,0,0-5.7,14.43c-5.75,21.71.62,34.14.62,34.14Z"/><path class="o" d="M22.75,193.43c6,7.17,15.86,11.57,29.56,12.41,40.69,2.51,82.32-20.41,116.76-50.52,34.08-29.78,50.8-54,55.79-76.24,2.83-12.67,1.28-22.83-3.2-30.41-1.6-2.09-9.89-11.38-30.66-11.1-23.92.32-66.72,12.83-105.79,43.22-29.44,22.9-46.62,44.86-55.64,61.57l-.34.64-.64,1.22c-.16.31-.32.62-.47.93a75.88,75.88,0,0,0-5.7,14.43c-5.75,21.71.62,34.14.62,34.14Z"/><path class="p" d="M22.75,193.43c6,7.17,15.86,11.57,29.56,12.41,40.69,2.51,82.32-20.41,116.76-50.52,34.08-29.78,50.8-54,55.79-76.24,2.83-12.67,1.28-22.83-3.2-30.41-1.6-2.09-9.89-11.38-30.66-11.1-23.92.32-66.72,12.83-105.79,43.22-29.44,22.9-46.62,44.86-55.64,61.57l-.34.64-.64,1.22c-.16.31-.32.62-.47.93a75.88,75.88,0,0,0-5.7,14.43c-5.75,21.71.62,34.14.62,34.14Z"/><path class="q" d="M22.75,193.43c6,7.17,15.86,11.57,29.56,12.41,40.69,2.51,82.32-20.41,116.76-50.52,34.08-29.78,50.8-54,55.79-76.24,2.83-12.67,1.28-22.83-3.2-30.41-1.6-2.09-9.89-11.38-30.66-11.1-23.92.32-66.72,12.83-105.79,43.22-29.44,22.9-46.62,44.86-55.64,61.57l-.34.64-.64,1.22c-.16.31-.32.62-.47.93a75.88,75.88,0,0,0-5.7,14.43c-5.75,21.71.62,34.14.62,34.14Z"/><path class="r" d="M22.75,193.43c6,7.17,15.86,11.57,29.56,12.41,40.69,2.51,82.32-20.41,116.76-50.52,34.08-29.78,50.8-54,55.79-76.24,2.83-12.67,1.28-22.83-3.2-30.41-1.6-2.09-9.89-11.38-30.66-11.1-23.92.32-66.72,12.83-105.79,43.22-29.44,22.9-46.62,44.86-55.64,61.57l-.34.64-.64,1.22c-.16.31-.32.62-.47.93a75.88,75.88,0,0,0-5.7,14.43c-5.75,21.71.62,34.14.62,34.14Z"/><path class="s" d="M22.75,193.43c6,7.17,15.86,11.57,29.56,12.41,40.69,2.51,82.32-20.41,116.76-50.52,34.08-29.78,50.8-54,55.79-76.24,2.83-12.67,1.28-22.83-3.2-30.41-1.6-2.09-9.89-11.38-30.66-11.1-23.92.32-66.72,12.83-105.79,43.22-29.44,22.9-46.62,44.86-55.64,61.57l-.34.64-.64,1.22c-.16.31-.32.62-.47.93a75.88,75.88,0,0,0-5.7,14.43c-5.75,21.71.62,34.14.62,34.14Z"/><path class="t" d="M23,193.72s-6.37-12.43-.62-34.14C26.8,143.06,44,112.84,85.21,80.79,124.28,50.4,167.08,37.89,191,37.57c20.77-.28,29.06,9,30.66,11.1-4.78-8.1-12.89-13.26-22.6-15.36-22-4.77-62.39.28-113.13,37.66-44.88,33.06-64.52,67.08-69,89.41-2.77,13.77-.81,25.12,5.85,33.06Z"/><path class="u" d="M156.09,200.86q-8.26,5.2-16.8,9.78c32.82,6.83,65.72,4.86,82.71-12.39a36.31,36.31,0,0,0,8.91-15.59c0-.09,0-.15,0-.15S219.8,209.43,156.09,200.86Z"/><path class="v" d="M32.07,121.85C6.3,85.72,17.72,57.43,18.77,55A34.59,34.59,0,0,0,9,73.47c-4.71,26.28,8,49,15.82,59.58C27,129.33,29.41,125.59,32.07,121.85Z"/><path class="w" d="M143.18,39.55c23.85-8.44,43-9,55.88-6.24,18.79,4.08,31.66,19.56,25.8,45.77a80.93,80.93,0,0,1-6.47,18c.76,1,1.51,1.92,2.26,2.9,16.23-30.21,11.53-52.41-4.74-63.59-16.72-11.49-44.37-9.95-75.22,2.08Q141.94,39,143.18,39.55Z"/><path class="x" d="M211.86,114.14c-.66-.86-1.35-1.71-2-2.56-9.16,13.35-22.44,27.73-40.76,43.74-34.44,30.11-76.07,53-116.76,50.52-14.87-.92-25.2-6-31-14.32l-3.4,2.55a37.3,37.3,0,0,0,2.29,3.24c20,25.5,89.1,15.07,147.17-35.43C187.2,144.64,201.74,128.64,211.86,114.14Z"/><path class="y" d="M120.11,47.82A269.07,269.07,0,0,0,84.23,70.28C32.07,108.78-2.36,162,17.9,194.07l3.4-2.55c-5.47-7.8-7-18.44-4.39-31.14,4.5-22.33,24.14-56.35,69-89.41a249,249,0,0,1,36.22-22.43Z"/><path class="z" d="M155.66,106a32.36,32.36,0,0,0-5.25-7.39c.13.16.27.33.39.5,5.44,7.86-3.08,23.18-19,34.22s-33.28,13.61-38.72,5.75a6.59,6.59,0,0,1-.44-.72c.86,1.59,4.12,7.07,9.33,9.61,3.88,1.89,20.11.78,38.9-14.75C154.61,121.85,157.29,109.13,155.66,106Z"/><path class="aa" d="M150.8,99.11c-4-5.7-14.15-5.91-25.54-1.38,10.65-4.15,20.08-4,23.72,1.31,5.12,7.38-3.13,21.95-18.41,32.52s-31.81,13.17-36.92,5.79c-3.66-5.29-.48-14.25,7.24-22.8-8.34,9.11-11.8,18.8-7.83,24.53,5.44,7.86,22.78,5.28,38.72-5.75S156.24,107,150.8,99.11Z"/><ellipse class="ab" cx="121.32" cy="118.19" rx="33.65" ry="16.26" transform="translate(-45.71 90.07) rotate(-34.69)"/><path class="ac" d="M70.64,38.44a110,110,0,0,0-11.63.4l59.76,83.29s1.6.09,4.23-1.66c3.13-2.1,2.24-4.55,2.24-4.55Z"/><path class="ad" d="M175.37,187.57q-2,1.55-4.14,3.06c-1.16.85-2.34,1.68-3.52,2.51l14.13,18.4s1.6.09,4.23-1.66c3.13-2.1,2.24-4.55,2.24-4.55Z"/><path class="ae" d="M94.84,37.56c58,10.69,103.23,50.64,123.87,79,10.1,13.88,30.88,52.94,9.37,80.45,10.48-11.62,28.54-39.93,4.33-79.79C186.53,41.7,109.82,26.08,83.7,23.36c-17.2-1.8-32.82.3-46.42,6.41C19.64,37.7,9.41,60.35,9.41,60.35L9.67,60C21.29,41.39,48.81,29.07,94.84,37.56Z"/><path class="af" d="M225.71,136.57c9,20.83,11.13,46.61-3.71,61.68-17,17.25-49.89,19.22-82.71,12.39h0q-2.21,1.17-4.41,2.3h0c18.72,4.68,65.23,13.56,90.09-12.32,19.52-20.33,12.6-48.46,3.39-67.66Q227.07,134.75,225.71,136.57Z"/><path class="ag" d="M218.71,116.58c-20.64-28.38-65.89-68.33-123.87-79l-.47-.08-.32,3.4c.29,0,.58.09.87.15,52,10,95.34,42.6,121.93,79.77.87-1.13,1.7-2.23,2.5-3.33C219.14,117.17,218.92,116.86,218.71,116.58Z"/><path class="ah" d="M94.05,40.88l.32-3.4C38.53,27.33,10,47.89,4.28,73.09c-5.39,23.6,8.57,50.78,16.66,61.84l.14.19.65.87a1.56,1.56,0,0,1,.16.2c.23.29.45.57.66.82.71-1.31,1.46-2.64,2.24-4C16.93,122.5,4.26,99.75,9,73.47,13.66,47.35,47.44,32.2,94.05,40.88Z"/><path class="ai" d="M57,14.84c1.2,1.8-.38,5-3.54,7.2s-6.77,2.54-8,.74a.56.56,0,0,1,0-.08h0l7.21,11a13.06,13.06,0,0,0,7.78-1.89c4-2.34,4.14-5.44,4.14-5.44Z"/><ellipse class="aj" cx="51.19" cy="18.79" rx="7.01" ry="3.95" transform="translate(-1.6 32.48) rotate(-34.69)"/><ellipse class="ak" cx="50.67" cy="18.21" rx="5.9" ry="3.18" transform="translate(-1.36 32.08) rotate(-34.69)"/><path class="al" d="M250.19,61.31c-1.72-5.79-14.33-21.93-14.26-21.85,10.55,13.74,13.23,39-7.59,71.36-22.64,35.19-81.57,96-145.85,108.25C30.59,229,11.62,213.66,6,196.44H6s9.1,31.05,41.85,36.53c34.92,5.84,83.58-13.52,123.39-42.34,44.39-32.12,73.22-77.82,77.9-95.79C253.51,78,252.78,70,250.19,61.31Z"/><path class="am" d="M233,36.12c-13.92-13.78-44.85-18.41-95,1.24l2.67,1.11A159,159,0,0,1,165,31l1.47-.31c.88-.18,1.75-.34,2.62-.5l.67-.12,1.3-.22c4.61-1.54,39.16-8.64,56.95,6.88,15.36,13.41,16.45,42-2.49,71.78-21.22,33.35-83.72,96.24-144.43,106.69C21.86,225.43,7.62,203.45,7.66,181.17c0-19.65,11.77-39.15,14.68-44.41-.75-.93-1.19-1.54-1.67-2.2C12.26,148.3,4.94,162.92,4,180.26c-1.11,21.17,10.14,51.87,78.47,38.81C146.77,206.79,205.7,146,228.34,110.82S245.84,48.83,233,36.12Z"/></svg>