<svg width="100%" height="100%" viewBox="0 0 504 504" version="1.1" xmlns="http://www.w3.org/2000/svg" xmlns:xlink="http://www.w3.org/1999/xlink" xml:space="preserve" xmlns:serif="http://www.serif.com/" style="fill-rule:evenodd;clip-rule:evenodd;stroke-linecap:round;stroke-linejoin:round;stroke-miterlimit:1.5;">
    <g id="Logo_DavinciResolve" transform="matrix(1,0,0,1,-210.431,-46.077)">
        <g id="DavinciLogo" transform="matrix(2.67852,0,0,2.67852,365.43,281.308)">
            <g id="bg__blue" transform="matrix(1.03316,0,0,1.03316,-281.338,-142.974)">
                <path d="M391.945,94.421C391.945,75.782 376.812,60.649 358.173,60.649L256.858,60.649C238.219,60.649 223.086,75.782 223.086,94.421L223.086,195.736C223.086,214.375 238.219,229.508 256.858,229.508L358.173,229.508C376.812,229.508 391.945,214.375 391.945,195.736L391.945,94.421Z" style="fill:rgb(19,75,124);"/>
                <path d="M391.945,94.421C391.945,75.782 376.812,60.649 358.173,60.649L256.858,60.649C238.219,60.649 223.086,75.782 223.086,94.421L223.086,195.736C223.086,214.375 238.219,229.508 256.858,229.508L358.173,229.508C376.812,229.508 391.945,214.375 391.945,195.736L391.945,94.421ZM390.499,94.421L390.499,195.736C390.499,213.578 376.014,228.063 358.173,228.063L256.858,228.063C239.016,228.063 224.531,213.578 224.531,195.736C224.531,195.736 224.531,94.421 224.531,94.421C224.531,76.58 239.016,62.095 256.858,62.095C256.858,62.095 358.173,62.095 358.173,62.095C376.014,62.095 390.499,76.58 390.499,94.421Z"/>
            </g>
            <g id="wing" transform="matrix(1,0,0,1,-269.391,-134.496)">
                <path id="wing__blue" d="M305.532,78.807C320.495,78.807 332.643,92.54 332.643,105.761C332.643,118.981 310.932,144.409 305.532,144.554C300.132,144.699 278.421,118.981 278.421,105.761C278.421,92.54 290.569,78.807 305.532,78.807Z" style="fill:rgb(63,162,230);stroke:black;stroke-width:0.37px;"/>
                <g id="wing__green" transform="matrix(-0.5,-0.866025,0.866025,-0.5,330.11,485.4)">
                    <path d="M305.532,78.807C320.495,78.807 332.643,92.54 332.643,105.761C332.643,118.981 310.932,144.409 305.532,144.554C300.132,144.699 278.421,118.981 278.421,105.761C278.421,92.54 290.569,78.807 305.532,78.807Z" style="fill:rgb(215,251,14);stroke:black;stroke-width:0.37px;"/>
                </g>
                <g id="wing__red" transform="matrix(-0.5,0.866025,-0.866025,-0.5,586.485,-43.7368)">
                    <path d="M305.532,78.807C320.495,78.807 332.643,92.54 332.643,105.761C332.643,118.981 310.932,144.409 305.532,144.554C300.132,144.699 278.421,118.981 278.421,105.761C278.421,92.54 290.569,78.807 305.532,78.807Z" style="fill:rgb(255,6,45);stroke:black;stroke-width:0.37px;"/>
                </g>
            </g>
        </g>
    </g>
</svg>
