<?xml version="1.0" encoding="utf-8"?>
<!-- Generator: Adobe Illustrator 25.4.1, SVG Export Plug-In . SVG Version: 6.00 Build 0)  -->
<svg version="1.1" id="Слой_1" xmlns="http://www.w3.org/2000/svg" xmlns:xlink="http://www.w3.org/1999/xlink" x="0px" y="0px"
	 viewBox="0 0 64 64" style="enable-background:new 0 0 64 64;" xml:space="preserve">
<style type="text/css">
	.st0{fill:url(#SVGID_1_);}
	.st1{fill:#FFFFFF;}
</style>
<radialGradient id="SVGID_1_" cx="3727.9683" cy="-9496.3076" r="650.3368" gradientTransform="matrix(0.2065 -3.466856e-02 -2.108238e-02 -0.1253 -959.8743 -992.0627)" gradientUnits="userSpaceOnUse">
	<stop  offset="0" style="stop-color:#FED576"/>
	<stop  offset="0.263" style="stop-color:#F47133"/>
	<stop  offset="0.609" style="stop-color:#BC3081"/>
	<stop  offset="1" style="stop-color:#4C63D2"/>
</radialGradient>
<path class="st0" d="M32,0.2l10.4,0.1l3.9,0.1c1.1,0,1.9,0.1,2.4,0.1c0.6,0.1,1.2,0.1,1.8,0.2C51,0.7,51.5,0.8,52.1,1
	c0.5,0.1,1,0.2,1.5,0.4s0.9,0.3,1.4,0.5c0.4,0.2,0.9,0.4,1.3,0.6C56.6,2.6,57,2.8,57.3,3c0.4,0.2,0.7,0.5,1.1,0.8
	c0.3,0.3,0.7,0.6,1,0.9c0.3,0.3,0.7,0.7,1,1.1c0.3,0.4,0.6,0.7,0.8,1.1c0.3,0.4,0.5,0.8,0.7,1.2c0.2,0.4,0.4,0.9,0.6,1.4
	c0.2,0.5,0.3,1,0.4,1.6c0.1,0.6,0.3,1.2,0.3,1.8c0.1,0.6,0.2,1.3,0.3,2c0.1,0.7,0.1,1.5,0.2,2.3c0,0.7,0.1,1.5,0.1,2.6l0.1,3.5
	l0.1,8.6l-0.1,8.6l-0.1,3.5l-0.1,2.6c-0.1,1.2-0.1,2.2-0.2,3.1c0,0.4-0.1,0.8-0.2,1.2c-0.1,0.4-0.1,0.7-0.2,1.1
	c-0.1,0.3-0.1,0.6-0.2,1c-0.1,0.3-0.2,0.6-0.3,0.9c-0.1,0.3-0.2,0.6-0.3,0.9c-0.1,0.3-0.3,0.6-0.4,0.9c-0.1,0.3-0.3,0.5-0.4,0.8
	c-0.1,0.3-0.3,0.5-0.4,0.7c-0.2,0.2-0.3,0.5-0.5,0.7c-0.2,0.2-0.3,0.4-0.5,0.7c-0.2,0.2-0.4,0.4-0.6,0.6c-0.2,0.2-0.4,0.4-0.6,0.6
	c-0.2,0.2-0.4,0.4-0.7,0.5c-0.2,0.2-0.5,0.3-0.7,0.5c-0.2,0.2-0.5,0.3-0.8,0.5c-0.3,0.1-0.5,0.3-0.8,0.4c-0.3,0.1-0.6,0.3-0.9,0.4
	c-0.3,0.1-0.6,0.2-0.9,0.3c-0.6,0.2-1.3,0.4-2,0.6c-0.7,0.2-1.4,0.3-2.2,0.4c-0.3,0-0.9,0.1-1.8,0.1l-3.5,0.1l-10,0.1l-10.4,0
	l-4.1,0l-2.7-0.1l-2-0.1c-0.6-0.1-1.2-0.1-1.7-0.2s-1-0.1-1.5-0.2c-0.4-0.1-0.9-0.2-1.3-0.3c-0.4-0.1-0.8-0.2-1.2-0.3
	c-0.4-0.1-0.7-0.3-1.1-0.4c-0.3-0.1-0.7-0.3-1-0.5c-0.3-0.2-0.7-0.4-1-0.6c-0.3-0.2-0.5-0.3-0.7-0.5c-0.2-0.2-0.5-0.3-0.7-0.5
	c-0.2-0.2-0.4-0.4-0.6-0.6c-0.2-0.2-0.4-0.4-0.6-0.6c-0.2-0.2-0.4-0.4-0.5-0.6c-0.2-0.2-0.3-0.4-0.5-0.7c-0.2-0.2-0.3-0.5-0.4-0.7
	c-0.1-0.2-0.3-0.5-0.4-0.8c-0.1-0.3-0.3-0.5-0.4-0.8c-0.1-0.3-0.2-0.6-0.3-0.9c-0.2-0.6-0.4-1.2-0.5-1.9s-0.3-1.4-0.4-2.2
	s-0.2-1.6-0.3-2.4c-0.1-0.6-0.1-1.6-0.1-2.9l-0.1-4.4l0-11.3l0.2-10.8l0.1-3.8l0.1-1.3c0-0.3,0.1-0.6,0.1-0.7
	c0.1-0.5,0.2-0.9,0.3-1.4c0.1-0.4,0.2-0.8,0.3-1.2C1.5,9.7,1.6,9.3,1.8,9c0.1-0.3,0.3-0.6,0.4-1c0.2-0.3,0.3-0.6,0.5-0.9
	C2.8,6.9,3,6.6,3.2,6.4c0.2-0.3,0.4-0.5,0.7-0.8C4.1,5.3,4.4,5,4.7,4.7c0.3-0.3,0.7-0.6,1-1c0.3-0.3,0.7-0.6,1-0.8
	c0.4-0.2,0.7-0.5,1.1-0.7c0.4-0.2,0.8-0.4,1.2-0.6s0.9-0.3,1.3-0.4c0.5-0.1,1-0.3,1.5-0.3c0.5-0.1,1.1-0.2,1.7-0.3
	c0.6-0.1,1.2-0.1,1.9-0.2c0.5,0,1.3-0.1,2.3-0.1l3.9-0.1L32,0.2L32,0.2z"/>
<path class="st1" d="M48.3,30.4c-0.1-0.5-0.1-1.1-0.2-1.6c-0.1-0.5-0.2-1.1-0.4-1.6l-0.6-1.5l-0.7-1.4l-0.8-1.3l-0.9-1.3l-1.1-1.2
	l-1.2-1.1l-1.3-0.9l-1.3-0.8L38.4,17l-1.5-0.6L35.3,16l-1.6-0.2c-0.6-0.1-1.1-0.1-1.7-0.1v0c-0.6,0-1.1,0-1.7,0.1
	c-0.5,0.1-1.1,0.1-1.6,0.2c-0.5,0.1-1.1,0.2-1.6,0.4L25.7,17l-1.4,0.7l-1.3,0.8l-1.3,0.9l-1.2,1.1l-1.1,1.2l-0.9,1.3l-0.8,1.3
	L17,25.7c-0.2,0.5-0.4,1-0.6,1.5s-0.3,1-0.4,1.6s-0.2,1.1-0.2,1.6c-0.1,0.5-0.1,1.1-0.1,1.7s0,1.1,0.1,1.7c0.1,0.5,0.1,1.1,0.2,1.6
	c0.1,0.5,0.2,1.1,0.4,1.6c0.2,0.5,0.3,1,0.6,1.5l0.7,1.4l0.8,1.3l0.9,1.3l1.1,1.2l1.2,1.1l1.3,0.9l1.3,0.8l1.4,0.7l1.5,0.6l1.6,0.4
	c0.5,0.1,1.1,0.2,1.6,0.2c0.6,0.1,1.1,0.1,1.7,0.1c0.6,0,1.1,0,1.7-0.1c0.5-0.1,1.1-0.1,1.6-0.2l1.6-0.4l1.5-0.6l1.4-0.7l1.3-0.8
	l1.3-0.9l1.2-1.1l1.1-1.2l0.9-1.3l0.8-1.3l0.7-1.4l0.6-1.5c0.2-0.5,0.3-1,0.4-1.6l0.2-1.6c0.1-0.5,0.1-1.1,0.1-1.7
	S48.4,30.9,48.3,30.4z M42.7,33.1c0,0.4-0.1,0.7-0.2,1.1c-0.1,0.3-0.2,0.7-0.3,1l-0.4,1l-0.4,0.9L40.9,38l-0.6,0.8l-0.7,0.8
	l-0.8,0.7L38,40.9l-0.9,0.5l-0.9,0.4l-1,0.4l-1,0.3l-1.1,0.2c-0.4,0-0.7,0.1-1.1,0.1c-0.4,0-0.7,0-1.1-0.1l-1.1-0.2
	c-0.4-0.1-0.7-0.2-1-0.3l-1-0.4l-0.9-0.4L26,40.9l-0.8-0.6l-0.8-0.7l-0.7-0.8L23.1,38l-0.5-0.9l-0.4-0.9l-0.4-1l-0.3-1l-0.2-1.1
	c0-0.4-0.1-0.7-0.1-1.1c0-0.4,0-0.7,0.1-1.1c0-0.4,0.1-0.7,0.2-1.1c0.1-0.3,0.2-0.7,0.3-1l0.4-1l0.4-0.9l0.5-0.9l0.6-0.8l0.7-0.8
	l0.8-0.7l0.8-0.6l0.9-0.5l0.9-0.4c0.3-0.1,0.7-0.3,1-0.4l1-0.3c0.4-0.1,0.7-0.1,1.1-0.2c0.4,0,0.7-0.1,1.1-0.1l0,0
	c0.4,0,0.7,0,1.1,0.1l1.1,0.2l1,0.3l1,0.4l0.9,0.4l0.9,0.5l0.8,0.6l0.8,0.7l0.7,0.8l0.6,0.8l0.5,0.9l0.4,0.9c0.1,0.3,0.3,0.6,0.4,1
	c0.1,0.3,0.2,0.7,0.3,1s0.1,0.7,0.2,1.1l0.1,1.1C42.7,32.4,42.7,32.8,42.7,33.1z"/>
<path class="st1" d="M49.1,11c-0.1,0-0.3,0-0.4,0c-0.1,0-0.3,0-0.4,0.1c-0.1,0-0.3,0.1-0.4,0.1c-0.1,0-0.2,0.1-0.4,0.1
	c-0.1,0.1-0.2,0.1-0.4,0.2c-0.1,0.1-0.2,0.1-0.3,0.2c-0.1,0.1-0.2,0.2-0.3,0.2c-0.1,0.1-0.2,0.2-0.3,0.3c-0.1,0.1-0.2,0.2-0.3,0.3
	c-0.1,0.1-0.2,0.2-0.2,0.3c-0.1,0.1-0.1,0.2-0.2,0.3c-0.1,0.1-0.1,0.2-0.2,0.4c0,0.1-0.1,0.2-0.1,0.4c0,0.1-0.1,0.3-0.1,0.4
	c0,0.1,0,0.3,0,0.4c0,0.1,0,0.2,0,0.3c0,0.1,0,0.3,0,0.4c0,0.1,0,0.3,0.1,0.4c0,0.1,0.1,0.3,0.1,0.4c0,0.1,0.1,0.2,0.1,0.4
	c0.1,0.1,0.1,0.2,0.2,0.4c0.1,0.1,0.1,0.2,0.2,0.3c0.1,0.1,0.2,0.2,0.2,0.3c0.1,0.1,0.2,0.2,0.3,0.3c0.1,0.1,0.2,0.2,0.3,0.3
	c0.1,0.1,0.2,0.2,0.3,0.2c0.1,0.1,0.2,0.1,0.3,0.2c0.1,0.1,0.2,0.1,0.4,0.2c0.1,0,0.2,0.1,0.4,0.1c0.1,0,0.3,0.1,0.4,0.1
	c0.1,0,0.3,0,0.4,0c0.1,0,0.2,0,0.3,0c0.1,0,0.3,0,0.4,0c0.1,0,0.3,0,0.4-0.1c0.1,0,0.3-0.1,0.4-0.1c0.1,0,0.2-0.1,0.4-0.1
	c0.1-0.1,0.2-0.1,0.4-0.2c0.1-0.1,0.2-0.1,0.3-0.2c0.1-0.1,0.2-0.2,0.3-0.2c0.1-0.1,0.2-0.2,0.3-0.3c0.1-0.1,0.2-0.2,0.3-0.3
	c0.1-0.1,0.2-0.2,0.2-0.3c0.1-0.1,0.1-0.2,0.2-0.3c0.1-0.1,0.1-0.2,0.2-0.4c0-0.1,0.1-0.2,0.1-0.4c0-0.1,0.1-0.3,0.1-0.4
	c0-0.1,0-0.3,0-0.4c0-0.1,0-0.2,0-0.3c0-0.1,0-0.3,0-0.4c0-0.1,0-0.3-0.1-0.4c0-0.1-0.1-0.3-0.1-0.4c0-0.1-0.1-0.2-0.1-0.4
	c-0.1-0.1-0.1-0.2-0.2-0.4c-0.1-0.1-0.1-0.2-0.2-0.3c-0.1-0.1-0.2-0.2-0.2-0.3c-0.1-0.1-0.2-0.2-0.3-0.3c-0.1-0.1-0.2-0.2-0.3-0.3
	c-0.1-0.1-0.2-0.2-0.3-0.2c-0.1-0.1-0.2-0.1-0.3-0.2c-0.1-0.1-0.2-0.1-0.4-0.2c-0.1,0-0.2-0.1-0.4-0.1c-0.1,0-0.3-0.1-0.4-0.1
	c-0.1,0-0.3,0-0.4,0C49.2,11,49.2,11,49.1,11L49.1,11z"/>
</svg>
