<svg xmlns="http://www.w3.org/2000/svg" xmlns:xlink="http://www.w3.org/1999/xlink" viewBox="0 0 36 36"><defs><style>.a{fill:url(#a);}.b{fill:#fff;}</style><linearGradient id="a" x1="311.03" y1="-348.26" x2="302.45" y2="-368.29" gradientTransform="matrix(1, 0, 0, -1, -288, -342)" gradientUnits="userSpaceOnUse"><stop offset="0" stop-color="#37aee2"/><stop offset="1" stop-color="#1e96c8"/></linearGradient></defs><path class="a" d="M18,35.17A17.17,17.17,0,1,0,.83,18,17.17,17.17,0,0,0,18,35.17Z"/><path class="b" d="M7.22,18.84c2-1.11,4.25-2,6.35-3,3.6-1.52,7.21-3,10.87-4.4.71-.24,2-.47,2.11.59-.07,1.49-.35,3-.55,4.45C25.51,19.78,25,23,24.39,26.28a1.54,1.54,0,0,1-2.41.95c-2.08-1.41-4.19-2.81-6.24-4.25-.68-.68-.05-1.66.55-2.15,1.72-1.7,3.54-3.13,5.16-4.91.44-1.06-.85-.17-1.28.11-2.35,1.61-4.64,3.33-7.12,4.76-1.27.69-2.74.1-4-.29s-2.79-.94-1.82-1.66Z"/></svg>