<svg xmlns="http://www.w3.org/2000/svg" viewBox="0 0 240 234"><defs><style>.a{fill:#000f34;}.b{fill:#cadbfe;fill-rule:evenodd;}</style></defs><rect class="a" x="10.03" y="10.03" width="220.03" height="214.03"/><path class="b" d="M0,0V234H240V0ZM10,10h220v214H10Z"/><path class="b" d="M126.94,160.41a1.62,1.62,0,0,1-1.13,1.78c-4.31,1.78-11.15,2.44-18.19,2.44-25.68,0-48.46-16.79-48.46-56.35,0-33.94,20.06-56.72,50.71-56.72,8.07,0,14,.85,17.07,2.35.84.37,1,.84,1,1.78V69.84c0,1.32-.66,1.32-1.13,1.13-3.93-2-9.84-3.1-16.78-3.1-19.31,0-32.15,14.63-32.15,39.85,0,31.12,17.62,40.4,32.15,40.4,6.57,0,11-.46,15.75-2.15.66-.38,1.13-.38,1.13.84v13.6Zm6.37-59.82c-.65,0-.65-.37-.65-1.12V85.87c0-.84.18-1,.84-1h9.19V79.78c0-6.09,1-11.34,3.28-15.75,4.12-8.44,11.34-12.19,21.28-12.19a18.13,18.13,0,0,1,6.66.85c.84.37,1,.65,1,1.5V67.41c0,.84-.38,1.12-1.13,1a18.08,18.08,0,0,0-4.5-.47c-5.81,0-8.53,4.12-8.53,12V85h13.13c.84,0,1.12.19,1.12.85V99.66c0,.84-.19,1-1,1.12H160.78v61.41c0,.65-.19,1.12-1.12,1.12H144a1,1,0,0,1-1.13-1.12v-61.5h-9.56Z"/></svg>