<?xml version="1.0" encoding="utf-8"?>
<!-- Generator: Adobe Illustrator 19.1.0, SVG Export Plug-In . SVG Version: 6.00 Build 0)  -->
<!DOCTYPE svg PUBLIC "-//W3C//DTD SVG 1.1//EN" "http://www.w3.org/Graphics/SVG/1.1/DTD/svg11.dtd">
<svg version="1.1" id="sg_x5F_cc_x5F_app_x5F_RGB.svg"
	 xmlns="http://www.w3.org/2000/svg" xmlns:xlink="http://www.w3.org/1999/xlink" x="0px" y="0px" viewBox="0 0 240 234"
	 style="enable-background:new 0 0 240 234;" xml:space="preserve">
<style type="text/css">
	.st0{fill-rule:evenodd;clip-rule:evenodd;fill:#002625;}
	.st1{fill-rule:evenodd;clip-rule:evenodd;fill:#00EAE4;}
</style>
<g>
	<rect x="10" y="10" class="st0" width="220" height="214"/>
</g>
<g>
	<path class="st1" d="M0,0v234h240V0H0z M10,10h220v214H10V10z"/>
</g>
<path class="st1" d="M53,158.8c-0.7-0.5-1-1.2-1-2.1v-15.8c0-0.5,0.7-1,1.3-0.5c7.4,5.1,16.1,7.4,24.3,7.4c12,0,17-6.3,17-13.4
	c0-6.3-3.1-11.4-14.7-18.2l-5.9-3.1c-17-9.6-21.9-19.3-21.9-31.7C52.1,64.5,63.8,51,85.9,51c9.7,0,17,1.5,21.1,3.8
	c0.8,0.3,1,0.8,1,1.8v14.8c0,0.7-0.7,1.2-1.3,0.7c-5.1-3.3-12.7-4.9-20.4-4.9c-12.7,0-16.8,7.3-16.8,13c0,6.3,3.1,10.9,14.5,17.2
	l5.3,2.8c18.8,10.4,23.6,20.5,23.6,32.8c0,18.3-13.4,31-35.1,31C67.9,164,59.1,162.2,53,158.8z M189,147.2c0,7.3-0.7,13.5-1.7,18.3
	c-4.9,20.6-20.9,25.7-36.6,25.7c-7.1,0-14.4-1.2-20.2-4c-0.7-0.5-0.8-1-0.8-1.7V170c0-0.8,0.3-1.2,0.8-0.7
	c6.8,3.6,13.9,5.1,20.5,5.1c11.5,0,19.1-5.8,19.6-18.2c-3.3,1.3-6.4,2-10.7,2c-19.5,0-34.3-12.9-34.3-38c0-21.9,13.5-40.4,39.6-40.4
	c9.4,0,18.2,2,23.8,4.1c0.5,0.3,0.6,0.5,0.6,1c-0.5,3.8-0.7,7.8-0.7,9.4V147.2z M171,96.6c-1.8-0.8-4.5-1.3-7.1-1.3
	c-13.4,0-19.9,10.6-19.9,23.9c0,16.3,8.3,23.1,19.1,23.1c3.1,0,5.6-0.3,7.9-1.5V96.6z"/>
</svg>
