<svg xmlns="http://www.w3.org/2000/svg" xmlns:xlink="http://www.w3.org/1999/xlink" viewBox="0 0 240 234"><defs><style>.a{fill:url(#a);}.b{fill:#ffcb05;fill-rule:evenodd;}</style><radialGradient id="a" cx="9.87" cy="226.88" r="3.73" gradientTransform="matrix(38.42, 0, 0, -38.41, -280.73, 8795.95)" gradientUnits="userSpaceOnUse"><stop offset="0" stop-color="#4d3800"/><stop offset="0.77" stop-color="#362700"/></radialGradient></defs><rect class="a" x="10" y="10" width="220" height="214"/><path class="b" d="M0,0V234H240V0ZM10,10H230V224H10Z"/><path class="b" d="M58.25,162c0,1-.33,1.53-1.14,1.53H41.41c-.83,0-1.15-.33-1.15-1.32V54.64c0-.83.33-1.14,1.15-1.14H96.34c1,0,1.14.33,1.32,1.14l1.65,13.78c.16,1-.33,1.32-1.32,1.32H58.25V101H93.87c.83,0,1.15.16,1.15,1.14v13.94c0,1-.33,1.14-1.15,1.14H58.25ZM169.4,163.5c-1.14,0-1.49-.45-1.65-1.44-4.95-27.55-9.08-47-10.89-60.57h-.17c-2.15,12.21-6.11,32.52-12.7,60.73-.33,1-.66,1.27-1.49,1.27H126.33c-1.14,0-1.48-.16-1.82-1.14L106.87,83.57c-.17-.67.16-1.32,1.14-1.32h16.17a1.16,1.16,0,0,1,1.32.89c6.29,35.47,8.91,53.85,9.91,61.11h.65c1.15-8.58,4.62-26.47,12.05-60.78.33-1,.33-1.22,1.32-1.22h17c.83,0,1,.4,1.15,1.22,5.77,32.5,9.57,53,10.56,61.27h.49c1.65-10.56,3.79-24.81,10.89-61.44.16-.65.33-1,1.14-1h15.18c.66,0,1.15.33.83,1.14l-19.6,79c-.17.83-.33,1.15-1.49,1.15Z"/></svg>