<?xml version="1.0" encoding="utf-8"?>
<!-- Generator: Adobe Illustrator 22.0.0, SVG Export Plug-In . SVG Version: 6.00 Build 0)  -->
<svg version="1.1" id="Id_x5F_app_x5F_RGB.svg" xmlns="http://www.w3.org/2000/svg" xmlns:xlink="http://www.w3.org/1999/xlink"
	 x="0px" y="0px" viewBox="0 0 240 234" style="enable-background:new 0 0 240 234;" xml:space="preserve">
<style type="text/css">
	.st0{fill-rule:evenodd;clip-rule:evenodd;fill:#2E0013;}
	.st1{fill-rule:evenodd;clip-rule:evenodd;fill:#FFD9E9;}
</style>
<g>
	<rect x="10.1" y="10" class="st0" width="220" height="214"/>
</g>
<g>
	<path class="st1" d="M0,0v234h240V0H0z M10,10h220v214H10V10z"/>
</g>
<path class="st1" d="M87.7,162.2c0,1-0.2,1.3-1.3,1.3H71.1c-1,0-1.3-0.5-1.3-1.3V54.8c0-1,0.5-1.3,1.3-1.3h15.5
	c0.8,0,1.2,0.3,1.2,1.2V162.2z M105.4,123.5c0-23.9,15.8-42.6,41-42.6c2.1,0,3.3,0,5.3,0.2V54.5c0-0.7,0.5-1,1-1H169
	c0.8,0,1,0.3,1,0.8v93.5c0,2.8,0,6.3,0.5,10.1c0,0.7-0.2,0.8-0.9,1.2c-8.6,4.1-17.7,5.9-26.2,5.9C121.3,165,105.4,151.3,105.4,123.5
	z M151.7,97.2c-1.5-0.7-3.5-1-5.9-1c-12.9,0-21.9,9.9-21.9,26.4c0,18.8,9.2,26.4,20.7,26.4c2.5,0,5.1-0.3,7.1-1.2V97.2z"/>
</svg>
