<svg xmlns="http://www.w3.org/2000/svg" xmlns:xlink="http://www.w3.org/1999/xlink" viewBox="0 0 240 234"><defs><style>.a{fill:url(#a);}.b{fill:#b3a3a8;fill-rule:evenodd;}</style><radialGradient id="a" cx="9.78" cy="226.94" r="3.77" gradientTransform="matrix(38.09, 0, 0, -38.08, -274.02, 8721.99)" gradientUnits="userSpaceOnUse"><stop offset="0" stop-color="#4d4448"/><stop offset="0.77" stop-color="#2f2a2c"/></radialGradient></defs><rect class="a" x="10" y="10" width="220" height="214"/><path class="b" d="M0,0V234H240V0ZM10,10H230V224H10Z"/><path class="b" d="M75.5,162.87V118h35.84c.83,0,1.15-.17,1.15-1.15V103.15c0-1-.39-1.14-1.22-1.14H75.5V70.5h39.82c1,0,1.49-.33,1.32-1.32l-1.65-14c-.16-.83-.33-1.14-1.32-1.14h-55c-.83,0-1.15.33-1.15,1.14V162.68c0,1,.33,1.32,1.15,1.32H74.34C75.17,164,75.5,163.86,75.5,162.87ZM156.57,97c10.39,0,18.65,7.09,18.65,24.09-.17,20.13-10.89,28.7-22.12,28.7a24.12,24.12,0,0,1-6.1-.66V98.66A24.81,24.81,0,0,1,156.57,97ZM145.84,54H130c-.66,0-1,.33-1,1.14V160.86a1.42,1.42,0,0,0,1,1.32,65.72,65.72,0,0,0,21.14,3.31c22.29,0,42.24-15.35,42.24-45.54,0-23.6-13.54-38.62-33.83-38.62A36.56,36.56,0,0,0,147,83.15v-28C147,54.33,146.65,54,145.84,54Z"/></svg>