<svg xmlns="http://www.w3.org/2000/svg" enable-background="new 0 0 512 512" version="1" viewBox="0 0 512 512"><path fill="#17F595" d="M93.867,12.8h326.016C470.547,12.8,512,54.253,512,104.918v314.965C512,470.547,470.547,512,419.883,512
			H92.118C41.453,512,0,470.547,0,419.882V106.667C0,54.933,42.134,12.8,93.867,12.8"/><path fill="#1B3128" d="M98.133,34.133h317.482c41.45,0,75.051,33.601,75.051,75.051v306.431c0,41.45-33.602,75.051-75.051,75.051
			H96.384c-41.45,0-75.051-33.601-75.051-75.051V110.933C21.333,68.267,55.466,34.133,98.133,34.133"/><path fill="#C7FDE7" d="M406.959,238.462c-4.875-28.056-18.999-55.552-41.979-81.725l-1.748-1.99l-100.426,98.975
		c-0.048-48.826-0.018-89.071,0.181-92.201l0.671-7.746l-7.773,0.143c-34.279,0.632-57.616,13.266-73.397,28.749
		c-29.192-28.798-30.646-28.581-32.436-28.284l-0.885,0.147l-0.589,0.676c-23.32,26.753-37.84,54.685-43.156,83.019
		c-4.265,22.731-2.645,45.738,4.814,68.382c12.669,38.46,37.461,62.172,38.51,63.162l1.753,1.656l98.33-96.909
		c0.059,43.216,0.16,84.263,0.184,93.452l0.018,6.884l6.883,0.098c0.052,0.001,0.162,0.002,0.328,0.002
		c3.205,0,27.178-0.445,52.172-13.188c8.073-4.116,16.739-9.819,24.871-17.66c15.008,15.605,24.551,25.576,24.553,25.576l1.71,1.787
		l1.805-1.691c1.068-1.001,26.318-24.952,39.657-63.334C408.866,283.835,410.868,260.963,406.959,238.462z M248.899,168.256
		c-0.125,15.445-0.13,50.874-0.092,87.806l-86.811-1.075c1.483-8.864,5.102-24.498,13.575-39.993
		C191.163,186.478,215.812,170.779,248.899,168.256z M150.481,364.423c-5.808-6.058-25.098-27.811-35.498-59.379
		c-16.273-49.399-4.145-98.185,36.05-145.033c2.496,1.888,9.335,7.877,27.974,26.249c-6.768,7.332-11.988,15.121-15.967,22.471
		c-14.115,26.073-15.908,51.631-15.977,52.706l-0.475,7.359l99.67,1.234L150.481,364.423z M302.522,349.053
		c-15.541,8.028-30.957,10.642-39.528,11.492c-0.068-27.964-0.132-60.108-0.17-90.309l89.178,1.104
		C347.85,308.1,331.228,334.223,302.522,349.053z M396.348,304.622c-10.92,31.553-30.699,53.592-36.666,59.757
		c-3.422-3.571-11.625-12.127-22.881-23.83c14.986-15.986,27.469-39.91,29.826-75.653l0.486-7.369l-99.79-1.236l95.636-94.254
		C402.095,207.606,413.327,255.563,396.348,304.622z"/></svg>