<svg xmlns="http://www.w3.org/2000/svg" enable-background="new 0 0 512 512" version="1" viewBox="0 0 512 512"><path fill="#FF1030" d="M94.15,12.8h326.016c50.665,0,92.118,41.453,92.118,92.118v314.965c0,50.665-41.453,92.118-92.118,92.118
			H92.401c-50.665,0-92.118-41.453-92.118-92.118V106.667C0.284,54.933,42.417,12.8,94.15,12.8"/><path fill="#290608" d="M98.416,34.133h317.482c41.45,0,75.051,33.601,75.051,75.051v306.431c0,41.45-33.602,75.051-75.051,75.051
			H96.667c-41.45,0-75.051-33.601-75.051-75.051V110.933C21.616,68.267,55.749,34.133,98.416,34.133"/><path fill="#F9C9CD" d="M351.188,197.328l-85.813-46.84c-3.238-1.767-7.049-1.67-10.193,0.261s-4.955,5.286-4.843,8.975
		l0.348,11.439l-21.249-11.835c-9.33-5.196-20.778,1.701-20.544,12.378l1.525,69.702c0.228,10.413,11.455,16.842,20.551,11.769
		l61.769-34.45c9.456-5.274,9.452-18.878-0.007-24.146l-38.255-21.306l2.753,1.533l0.106-15.296
		c-0.051-1.657,1.038-2.508,1.509-2.797c0.47-0.29,1.722-0.877,3.177-0.081l85.813,46.84c1.476,0.805,1.646,2.194,1.651,2.753
		c0.005,0.555-0.139,1.926-1.562,2.76l-101.298,53.439l0-0.001l-85.814,46.84c-3.283,1.793-5.263,5.096-5.296,8.836
		s1.888,7.078,5.14,8.929l82.953,47.196c1.573,0.895,3.3,1.343,5.029,1.343c1.708,0,3.418-0.438,4.978-1.313
		c3.138-1.762,5.077-4.961,5.187-8.559l0.314-10.303l15.227,7.976c2.322,1.217,4.833,1.822,7.338,1.822
		c2.834,0,5.66-0.775,8.196-2.317c4.776-2.904,7.614-7.976,7.59-13.566l-0.271-62.017c-0.025-5.731-3.017-10.841-8.002-13.669
		c-4.984-2.828-10.906-2.773-15.838,0.146l-55.46,32.825c-5,2.959-7.896,8.193-7.745,14.002s3.314,10.886,8.461,13.582
		l35.831,18.768l-2.082-1.091l-0.556,13.628c-0.049,1.616-1.146,2.403-1.616,2.667c-0.469,0.265-1.712,0.79-3.118-0.009
		l-82.953-47.196c-1.46-0.831-1.607-2.223-1.602-2.783c0.005-0.56,0.176-1.948,1.65-2.753l85.682-46.769l101.399-53.494l0.099-0.054
		c3.251-1.85,5.172-5.188,5.139-8.929S354.471,199.12,351.188,197.328z M217.148,320.413c-0.084-3.234,1.528-6.148,4.313-7.797
		l55.459-32.825h0.001c1.396-0.827,2.937-1.241,4.478-1.241c1.487,0,2.978,0.387,4.341,1.16c2.776,1.574,4.442,4.42,4.456,7.611
		l0.271,62.016c0.014,3.113-1.566,5.938-4.227,7.555c-2.661,1.616-5.894,1.72-8.649,0.275l-55.731-29.191
		C218.994,326.475,217.232,323.647,217.148,320.413z"/></svg>