<svg xmlns="http://www.w3.org/2000/svg" enable-background="new 0 0 512 512" version="1" viewBox="0 0 512 512"><path fill="#CBE800" d="M93.867,12.8h324.267C469.867,12.8,512,54.933,512,106.667v311.467C512,469.867,469.867,512,418.134,512
			H93.867C42.134,512,0,469.867,0,418.133V106.667C0,54.933,42.134,12.8,93.867,12.8"/><path fill="#191D04" d="M98.133,34.133h315.733c42.667,0,76.8,34.133,76.8,76.8v302.933c0,42.667-34.133,76.8-76.8,76.8H98.133
			c-42.667,0-76.8-34.133-76.8-76.8V110.933C21.333,68.267,55.466,34.133,98.133,34.133"/><g><path fill="#FFF" d="M251.965,313.042c-3.748,0-7.648-0.298-11.681-0.898l2.505-16.821c13.415,1.999,23.94-0.069,31.288-6.142
				c7.594-6.276,11.761-16.809,12.39-31.31l1.205-128.625l17.007,0.161l-1.214,129.038c-0.807,19.319-7.223,34.48-18.555,43.845
				C276.307,309.401,265.063,313.042,251.965,313.042z M311.625,312.436c9.208-11.068,14.424-25.514,14.688-40.684l1.83-128.263
				l-7.086-0.102l-1.83,128.252c-0.235,13.553-4.87,26.433-13.05,36.266c-10.11,12.151-29.644,25.626-65.249,20.775l-0.955,7.022
				c5.094,0.692,10.051,1.035,14.848,1.035C278.556,336.737,298.39,328.345,311.625,312.436z M327.217,332.902
				c12.778-12.682,20.017-29.276,20.384-46.729l2.552-122.761l-7.083-0.147l-2.552,122.759
				c-0.329,15.606-6.824,30.467-18.291,41.848c-17.03,16.901-33.653,29.427-78.877,24.345l-0.792,7.042
				c7.343,0.825,13.984,1.212,20.031,1.212C296.362,360.472,311.618,348.385,327.217,332.902z M225.533,273.432
				c0.577-13.309,4.405-22.976,11.375-28.737c9.3-7.687,23.293-7.507,33.389-6.004l2.505-16.821
				c-19.661-2.922-35.383,0.343-46.728,9.716c-10.87,8.984-16.771,22.868-17.539,41.269l-1.212,122.529l17.007,0.169
				L225.533,273.432z M192.774,259.66c0.234-13.552,4.869-26.432,13.05-36.265c10.11-12.151,29.644-25.625,65.249-20.775
				l0.955-7.022c-30.3-4.113-55.74,4.142-71.651,23.266c-9.209,11.069-14.425,25.514-14.688,40.681l-1.831,119.465l7.086,0.108
				L192.774,259.66z M171.483,245.275c0.329-15.605,6.824-30.466,18.291-41.847c17.029-16.901,33.641-29.431,78.877-24.346
				l0.792-7.042c-48.36-5.432-66.266,8.102-84.659,26.358c-12.778,12.682-20.017,29.276-20.384,46.728l-2.552,123.734l7.083,0.147
				L171.483,245.275z"/><path fill="#CBE800" d="M251.965,313.042c-3.748,0-7.648-0.298-11.681-0.898l2.505-16.821c13.415,1.999,23.94-0.069,31.288-6.142
				c7.594-6.276,11.761-16.809,12.39-31.31l1.205-128.625l17.007,0.161l-1.214,129.038c-0.807,19.319-7.223,34.48-18.555,43.845
				C276.307,309.401,265.063,313.042,251.965,313.042z M311.625,312.436c9.208-11.068,14.424-25.514,14.688-40.684l1.83-128.263
				l-7.086-0.102l-1.83,128.252c-0.235,13.553-4.87,26.433-13.05,36.266c-10.11,12.151-29.644,25.626-65.249,20.775l-0.955,7.022
				c5.094,0.692,10.051,1.035,14.848,1.035C278.556,336.737,298.39,328.345,311.625,312.436z M327.217,332.902
				c12.778-12.682,20.017-29.276,20.384-46.729l2.552-122.761l-7.083-0.147l-2.552,122.759
				c-0.329,15.606-6.824,30.467-18.291,41.848c-17.03,16.901-33.653,29.427-78.877,24.345l-0.792,7.042
				c7.343,0.825,13.984,1.212,20.031,1.212C296.362,360.472,311.618,348.385,327.217,332.902z M225.533,273.432
				c0.577-13.309,4.405-22.976,11.375-28.737c9.3-7.687,23.293-7.507,33.389-6.004l2.505-16.821
				c-19.661-2.922-35.383,0.343-46.728,9.716c-10.87,8.984-16.771,22.868-17.539,41.269l-1.212,122.529l17.007,0.169
				L225.533,273.432z M192.774,259.66c0.234-13.552,4.869-26.432,13.05-36.265c10.11-12.151,29.644-25.625,65.249-20.775
				l0.955-7.022c-30.3-4.113-55.74,4.142-71.651,23.266c-9.209,11.069-14.425,25.514-14.688,40.681l-1.831,119.465l7.086,0.108
				L192.774,259.66z M171.483,245.275c0.329-15.605,6.824-30.466,18.291-41.847c17.029-16.901,33.641-29.431,78.877-24.346
				l0.792-7.042c-48.36-5.432-66.266,8.102-84.659,26.358c-12.778,12.682-20.017,29.276-20.384,46.728l-2.552,123.734l7.083,0.147
				L171.483,245.275z" opacity=".15"/></g></svg>