<svg xmlns="http://www.w3.org/2000/svg" enable-background="new 0 0 512 512" version="1" viewBox="0 0 512 512"><path fill="#00FAFA" d="M93.867,12.8h326.016C470.547,12.8,512,54.253,512,104.918v314.965C512,470.547,470.547,512,419.883,512
			H92.118C41.453,512,0,470.547,0,419.882V106.667C0,54.933,42.134,12.8,93.867,12.8"/><path fill="#002626" d="M98.133,34.133h317.482c41.45,0,75.051,33.601,75.051,75.051v306.431c0,41.45-33.602,75.051-75.051,75.051
			H96.384c-41.45,0-75.051-33.601-75.051-75.051V110.933C21.333,68.267,55.466,34.133,98.133,34.133"/><g><path fill="#C7FFFF" d="M255.149,317.399c-30.045,0-54.489-24.443-54.489-54.489c0-30.045,24.444-54.489,54.489-54.489
				s54.49,24.444,54.49,54.489C309.639,292.956,285.194,317.399,255.149,317.399z M255.149,214.421
				c-26.737,0-48.489,21.752-48.489,48.489c0,26.737,21.752,48.489,48.489,48.489c26.738,0,48.49-21.752,48.49-48.489
				C303.639,236.173,281.887,214.421,255.149,214.421z"/><path fill="#00FAFA" d="M161.787,150.314v224.17l219.575-43.915V194.74L161.787,150.314z M254.851,332.357
				c-38.707,0-70.085-31.378-70.085-70.085c0-38.707,31.378-70.085,70.085-70.085s70.085,31.378,70.085,70.085
				C324.936,300.979,293.558,332.357,254.851,332.357z"/><path fill="#C7FFFF" d="M351.17,372.498l-223.532-42.865V195.657l223.532-43.363V372.498z M133.638,324.674l211.532,40.564
				V159.569l-211.532,41.036V324.674z"/></g></svg>