<svg xmlns="http://www.w3.org/2000/svg" enable-background="new 0 0 512 512" version="1" viewBox="0 0 512 512"><path fill="#FE6000" d="M93.867,12.8h326.016C470.547,12.8,512,54.253,512,104.918v314.965C512,470.547,470.547,512,419.883,512
			H92.118C41.453,512,0,470.547,0,419.882V106.667C0,54.933,42.134,12.8,93.867,12.8"/><path fill="#260C00" d="M98.133,34.133h317.482c41.45,0,75.051,33.601,75.051,75.051v306.431c0,41.45-33.602,75.051-75.051,75.051
			H96.384c-41.45,0-75.051-33.601-75.051-75.051V110.933C21.333,68.267,55.466,34.133,98.133,34.133"/><line x2="512" y1="12.799" y2="12.799" fill="none"/><g><path fill="#FDDBC9" d="M392.907,383.559H119.093c-11.11,0-20.149-9.039-20.149-20.149V161.39c0-11.11,9.039-20.149,20.149-20.149
			h273.814c11.11,0,20.148,9.039,20.148,20.149v202.02C413.056,374.52,404.018,383.559,392.907,383.559z M119.093,151.241
			c-5.596,0-10.149,4.553-10.149,10.149v202.02c0,5.597,4.553,10.149,10.149,10.149h273.814c5.596,0,10.148-4.553,10.148-10.149
			V161.39c0-5.596-4.553-10.149-10.148-10.149H119.093z"/><path fill="#FE6000" d="M249.071 162.325H121.449c-1.281 0-2.319 1.038-2.319 2.319v195.088c0 1.281 1.038 2.319 2.319 2.319h127.622c1.281 0 2.319-1.038 2.319-2.319V164.644C251.391 163.364 250.352 162.325 249.071 162.325zM236.364 314.557h-95.48c-1.381 0-2.5-1.119-2.5-2.5s1.119-2.5 2.5-2.5h95.48c1.381 0 2.5 1.119 2.5 2.5S237.745 314.557 236.364 314.557zM236.364 294.798h-95.48c-1.381 0-2.5-1.119-2.5-2.5s1.119-2.5 2.5-2.5h95.48c1.381 0 2.5 1.119 2.5 2.5S237.745 294.798 236.364 294.798zM236.364 275.04h-95.48c-1.381 0-2.5-1.119-2.5-2.5s1.119-2.5 2.5-2.5h95.48c1.381 0 2.5 1.119 2.5 2.5S237.745 275.04 236.364 275.04zM236.364 255.281h-95.48c-1.381 0-2.5-1.119-2.5-2.5s1.119-2.5 2.5-2.5h95.48c1.381 0 2.5 1.119 2.5 2.5S237.745 255.281 236.364 255.281zM236.364 235.522h-95.48c-1.381 0-2.5-1.119-2.5-2.5s1.119-2.5 2.5-2.5h95.48c1.381 0 2.5 1.119 2.5 2.5S237.745 235.522 236.364 235.522zM236.364 215.764h-95.48c-1.381 0-2.5-1.119-2.5-2.5s1.119-2.5 2.5-2.5h95.48c1.381 0 2.5 1.119 2.5 2.5S237.745 215.764 236.364 215.764zM390.818 210.27l-46.983-46.464c-.96-.949-2.255-1.482-3.605-1.482h-78.479c-.923 0-1.672.749-1.672 1.672V360.38c0 .923.749 1.672 1.672 1.672h128.917c.924 0 1.672-.749 1.672-1.672V213.916C392.34 212.546 391.792 211.234 390.818 210.27zM275.636 210.042h51.605c1.381 0 2.5 1.119 2.5 2.5s-1.119 2.5-2.5 2.5h-51.605c-1.381 0-2.5-1.119-2.5-2.5S274.255 210.042 275.636 210.042zM371.115 313.836h-95.479c-1.381 0-2.5-1.119-2.5-2.5s1.119-2.5 2.5-2.5h95.479c1.381 0 2.5 1.119 2.5 2.5S372.496 313.836 371.115 313.836zM371.115 294.077h-95.479c-1.381 0-2.5-1.119-2.5-2.5s1.119-2.5 2.5-2.5h95.479c1.381 0 2.5 1.119 2.5 2.5S372.496 294.077 371.115 294.077zM371.115 274.318h-95.479c-1.381 0-2.5-1.119-2.5-2.5s1.119-2.5 2.5-2.5h95.479c1.381 0 2.5 1.119 2.5 2.5S372.496 274.318 371.115 274.318zM371.115 254.56h-95.479c-1.381 0-2.5-1.119-2.5-2.5s1.119-2.5 2.5-2.5h95.479c1.381 0 2.5 1.119 2.5 2.5S372.496 254.56 371.115 254.56zM371.115 234.801h-95.479c-1.381 0-2.5-1.119-2.5-2.5s1.119-2.5 2.5-2.5h95.479c1.381 0 2.5 1.119 2.5 2.5S372.496 234.801 371.115 234.801zM341.9 214.813c-.673 0-1.219-.546-1.219-1.22v-46.766l49.212 47.985H341.9z"/></g></svg>