<svg xmlns="http://www.w3.org/2000/svg" enable-background="new 0 0 512 512" version="1" viewBox="0 0 512 512"><path fill="#E1736A" d="M94.047,13.228h326.016c50.665,0,92.118,41.453,92.118,92.118v314.965
			c0,50.665-41.453,92.118-92.118,92.118H92.298c-50.665,0-92.118-41.453-92.118-92.118V107.095
			C0.18,55.362,42.314,13.228,94.047,13.228"/><path fill="#2F090C" d="M98.313,34.562h317.482c41.45,0,75.051,33.601,75.051,75.051v306.431c0,41.45-33.602,75.051-75.051,75.051
			H96.564c-41.45,0-75.051-33.602-75.051-75.051V111.362C21.513,68.695,55.646,34.562,98.313,34.562"/><g><path fill="#FFD9D6" d="M381.399,382.966l-0.119-176.367c0-1.047-0.381-2.058-1.071-2.845l-64.294-73.28
			c-0.819-0.934-2.001-1.469-3.243-1.469H194.117c-2.383,0-4.314,1.932-4.314,4.314V378.68c0,2.383,1.932,4.314,4.314,4.314h178.534
			c0.096,0,0.185-0.022,0.28-0.028H381.399z M313.274,143.193c0-0.919,1.139-1.348,1.745-0.657l52.034,59.306
			c0.565,0.644,0.108,1.653-0.749,1.653h-48.716c-2.383,0-4.314-1.932-4.314-4.314V143.193z M202.745,374.366
			c-2.383,0-4.314-1.932-4.314-4.314V141.948c0-2.383,1.932-4.314,4.314-4.314h97.586c2.383,0,4.314,1.932,4.314,4.314v65.861
			c0,2.383,1.932,4.314,4.314,4.314h59.377c2.383,0,4.314,1.932,4.314,4.314l0.113,157.94c-0.038-0.001-0.074-0.011-0.113-0.011
			H202.745z"/><path fill="#E1736A" d="M269.735,204.992c-9.8-6.884-32.644-22.928-40.184-28.224c-1.039-0.73-2.464,0.017-2.464,1.286v12.701
			h-94.919c-0.866,0-1.568,0.702-1.568,1.568v31.161c0,0.866,0.702,1.568,1.568,1.568h94.919v13.263
			c1.126,0.585,1.342,0.698,2.469,1.283l40.173-28.217C271.944,209.825,271.949,206.547,269.735,204.992z"/></g></svg>