<svg xmlns="http://www.w3.org/2000/svg" viewBox="-17614 -5624 103.836 90">
  <defs>
    <style>
      .cls-1 {
        fill: #b3b3b3;
      }
    </style>
  </defs>
  <g id="Group_59870" data-name="Group 59870" transform="translate(-17614.075 -5624)">
    <path id="Path_34280" data-name="Path 34280" class="cls-1" d="M37.5,69A24.523,24.523,0,1,0,17,57.9h0L1.5,73.5a5.134,5.134,0,0,0,0,7.1A5,5,0,0,0,5,82H5a4.691,4.691,0,0,0,3.5-1.5L24.1,65h0A24.3,24.3,0,0,0,37.5,69Zm0-46A21.5,21.5,0,1,1,16,44.5,21.467,21.467,0,0,1,37.5,23ZM6.4,78.5A2.389,2.389,0,0,1,5,79H5a1.974,1.974,0,0,1-1.4-.6,1.933,1.933,0,0,1,0-2.8L18.9,60.3a24.674,24.674,0,0,0,2.8,2.8Z"/>
    <path id="Path_34281" data-name="Path 34281" class="cls-1" d="M28.7,53.3a1.712,1.712,0,0,0,2.2,0l6.7-6.7,6.7,6.7a1.712,1.712,0,0,0,2.2,0,1.45,1.45,0,0,0,0-2.1l-6.7-6.7,6.7-6.7a1.485,1.485,0,0,0-2.1-2.1l-6.7,6.7L31,35.7a1.485,1.485,0,0,0-2.1,2.1l6.7,6.7-6.7,6.7A1.324,1.324,0,0,0,28.7,53.3Z"/>
    <path id="Path_34282" data-name="Path 34282" class="cls-1" d="M102.5,31a1.538,1.538,0,0,0-1.5,1.5V86.2a.789.789,0,0,1-.8.8H38.8a.789.789,0,0,1-.8-.8V73.5a1.5,1.5,0,0,0-3,0V86.2A3.8,3.8,0,0,0,38.8,90h61.3a3.8,3.8,0,0,0,3.8-3.8V32.5A1.391,1.391,0,0,0,102.5,31Z"/>
    <path id="Path_34283" data-name="Path 34283" class="cls-1" d="M37.5,17A1.538,1.538,0,0,0,39,15.5V3.8a.86.86,0,0,1,.8-.8H75V26.5A1.538,1.538,0,0,0,76.5,28h25.6a1.568,1.568,0,0,0,1.4-.9,1.525,1.525,0,0,0-.3-1.6L77.6.5a2.186,2.186,0,0,0-.5-.3.735.735,0,0,0-.6-.2H39.8A3.8,3.8,0,0,0,36,3.8V15.5A1.538,1.538,0,0,0,37.5,17ZM78,5.1,98.4,25H78Z"/>
  </g>
</svg>
